<svg width="2000" height="400" viewBox="0 0 2000 400" fill="none" xmlns="http://www.w3.org/2000/svg">
<g clip-path="url(#clip0_348_17140)">
<rect width="2000" height="400" rx="20" fill="#FFF8E2"/>
<path d="M0 319H2000V380C2000 391.046 1991.05 400 1980 400H20C8.95429 400 0 391.046 0 380V319Z" fill="#A68255"/>
<path d="M636.97 351.384V363.48C640.33 363.452 642.71 363.312 645.454 362.724L645.65 364.628C642.654 365.272 640.106 365.384 636.354 365.384H634.702V349.508H644.054V351.384H636.97ZM652.93 346.456H655.142V371.572H652.93V358.412H649.374V370.312H647.218V347.016H649.374V356.536H652.93V346.456ZM674.068 358.272L672.864 360.064C670.148 359.056 667.992 356.984 666.872 354.408C665.836 357.348 663.596 359.644 660.656 360.764L659.452 358.944C663.26 357.572 665.696 354.156 665.696 350.32V347.744H667.992V350.516C667.992 353.904 670.456 357.04 674.068 358.272ZM671.072 369.752C674.768 369.752 677.036 368.716 677.036 366.98C677.036 365.216 674.768 364.18 671.072 364.18C667.348 364.18 665.08 365.216 665.08 366.98C665.08 368.716 667.348 369.752 671.072 369.752ZM671.072 362.388C676.168 362.388 679.332 364.04 679.332 366.98C679.332 369.892 676.168 371.544 671.072 371.544C665.948 371.544 662.784 369.892 662.784 366.98C662.784 364.04 665.948 362.388 671.072 362.388ZM679.052 352.952H682.776V354.856H679.052V361.688H676.756V346.484H679.052V352.952ZM691.969 369.5V366.398L699.218 359.686C699.834 359.089 700.351 358.553 700.769 358.075C701.193 357.598 701.514 357.131 701.733 356.673C701.952 356.209 702.061 355.709 702.061 355.172C702.061 354.575 701.925 354.062 701.654 353.631C701.382 353.193 701.011 352.858 700.54 352.626C700.069 352.388 699.536 352.268 698.939 352.268C698.316 352.268 697.772 352.394 697.308 352.646C696.844 352.898 696.486 353.259 696.235 353.73C695.983 354.201 695.857 354.761 695.857 355.411H691.77C691.77 354.078 692.072 352.921 692.675 351.94C693.278 350.959 694.123 350.2 695.21 349.663C696.298 349.126 697.55 348.858 698.969 348.858C700.427 348.858 701.697 349.116 702.777 349.634C703.864 350.144 704.709 350.853 705.313 351.761C705.916 352.67 706.218 353.71 706.218 354.884C706.218 355.652 706.065 356.411 705.76 357.161C705.462 357.91 704.928 358.741 704.159 359.656C703.39 360.564 702.307 361.655 700.908 362.928L697.935 365.841V365.98H706.486V369.5H691.969ZM710.411 369.5L718.853 352.795V352.656H709.019V349.136H723.307V352.706L714.856 369.5H710.411ZM724.309 365.92V362.53L732.811 349.136H735.734V353.83H734.004L728.644 362.311V362.47H740.725V365.92H724.309ZM734.083 369.5V364.886L734.163 363.385V349.136H738.2V369.5H734.083ZM752.751 356.928V350.908H747.851V356.928H752.751ZM761.011 352.784H756.363V354.996H761.011V352.784ZM756.363 357.936V359.84H744.211V347.968H756.363V349.844H761.011V346.12H764.707V361.24H761.011V357.936H756.363ZM755.971 369.08C759.359 369.08 761.123 368.38 761.123 366.896C761.123 365.412 759.359 364.712 755.971 364.712C752.611 364.712 750.847 365.412 750.847 366.896C750.847 368.38 752.611 369.08 755.971 369.08ZM755.971 361.884C761.459 361.884 764.819 363.732 764.819 366.896C764.819 370.06 761.459 371.908 755.971 371.908C750.511 371.908 747.151 370.06 747.151 366.896C747.151 363.732 750.511 361.884 755.971 361.884ZM784.106 360.568L783.042 358.776C786.738 357.656 789.286 354.884 789.342 351.58H783.63V349.732H789.342V346.624H791.638V349.732H797.434V351.58H791.638C791.694 354.772 794.326 357.432 797.994 358.524L796.93 360.288C793.962 359.392 791.666 357.488 790.518 354.996C789.426 357.628 787.102 359.616 784.106 360.568ZM791.638 359.728V364.292C793.99 364.152 796.426 363.984 798.666 363.62L798.862 365.328C793.234 366.364 787.074 366.392 782.594 366.42L782.286 364.488C784.358 364.488 786.794 364.488 789.342 364.404V359.728H791.638ZM800.318 346.456H802.614V371.6H800.318V346.456ZM819.216 349.312C815.408 349.312 812.804 350.74 812.804 352.952C812.804 355.192 815.408 356.62 819.216 356.62C823.052 356.62 825.656 355.192 825.656 352.952C825.656 350.74 823.052 349.312 819.216 349.312ZM819.216 358.468C814.008 358.468 810.452 356.34 810.452 352.952C810.452 349.592 814.008 347.464 819.216 347.464C824.452 347.464 828.008 349.592 828.008 352.952C828.008 356.34 824.452 358.468 819.216 358.468ZM830.64 360.848V362.752H820.364V371.6H818.068V362.752H807.904V360.848H830.64ZM855.278 356.032L854.326 357.88C850.434 357.208 846.654 355.024 845.03 352C843.462 355.052 839.682 357.208 835.762 357.88L834.838 356.032C839.402 355.36 843.826 352.336 843.826 348.752V347.352H846.234V348.752C846.234 352.252 850.714 355.36 855.278 356.032ZM856.37 360.596L856.398 362.5H846.122V371.6H843.826V362.5H833.69V360.596H856.37ZM873.924 358.272L872.72 360.064C870.004 359.056 867.848 356.984 866.728 354.408C865.692 357.348 863.452 359.644 860.512 360.764L859.308 358.944C863.116 357.572 865.552 354.156 865.552 350.32V347.744H867.848V350.516C867.848 353.904 870.312 357.04 873.924 358.272ZM870.928 369.752C874.624 369.752 876.892 368.716 876.892 366.98C876.892 365.216 874.624 364.18 870.928 364.18C867.204 364.18 864.936 365.216 864.936 366.98C864.936 368.716 867.204 369.752 870.928 369.752ZM870.928 362.388C876.024 362.388 879.188 364.04 879.188 366.98C879.188 369.892 876.024 371.544 870.928 371.544C865.804 371.544 862.64 369.892 862.64 366.98C862.64 364.04 865.804 362.388 870.928 362.388ZM878.908 352.952H882.632V354.856H878.908V361.688H876.612V346.484H878.908V352.952ZM891.516 365.92V362.53L900.018 349.136H902.941V353.83H901.211L895.851 362.311V362.47H907.932V365.92H891.516ZM901.29 369.5V364.886L901.37 363.385V349.136H905.407V369.5H901.29ZM918.328 369.778C916.843 369.778 915.521 369.523 914.361 369.013C913.207 368.496 912.296 367.786 911.626 366.885C910.963 365.977 910.622 364.929 910.602 363.743H914.937C914.964 364.24 915.126 364.678 915.425 365.055C915.729 365.427 916.134 365.715 916.638 365.92C917.141 366.126 917.708 366.229 918.338 366.229C918.994 366.229 919.574 366.113 920.078 365.881C920.582 365.649 920.976 365.327 921.261 364.916C921.546 364.505 921.689 364.031 921.689 363.494C921.689 362.951 921.536 362.47 921.231 362.053C920.933 361.628 920.502 361.297 919.939 361.058C919.382 360.82 918.719 360.7 917.95 360.7H916.051V357.538H917.95C918.6 357.538 919.173 357.426 919.67 357.2C920.174 356.975 920.565 356.663 920.844 356.266C921.122 355.861 921.261 355.391 921.261 354.854C921.261 354.343 921.139 353.896 920.893 353.511C920.655 353.12 920.317 352.815 919.879 352.597C919.448 352.378 918.944 352.268 918.368 352.268C917.784 352.268 917.251 352.375 916.767 352.587C916.283 352.792 915.895 353.087 915.604 353.472C915.312 353.856 915.156 354.307 915.136 354.824H911.01C911.03 353.651 911.364 352.616 912.014 351.722C912.664 350.827 913.539 350.127 914.639 349.624C915.746 349.113 916.996 348.858 918.388 348.858C919.793 348.858 921.023 349.113 922.077 349.624C923.131 350.134 923.949 350.823 924.532 351.692C925.122 352.554 925.414 353.521 925.407 354.595C925.414 355.735 925.059 356.687 924.344 357.449C923.634 358.211 922.71 358.695 921.569 358.901V359.06C923.068 359.252 924.208 359.772 924.99 360.621C925.779 361.463 926.17 362.517 926.163 363.783C926.17 364.943 925.835 365.973 925.159 366.875C924.489 367.777 923.565 368.486 922.385 369.003C921.205 369.52 919.853 369.778 918.328 369.778ZM936.855 369.778C935.323 369.778 933.961 369.53 932.768 369.033C931.581 368.529 930.65 367.843 929.974 366.974C929.298 366.106 928.96 365.122 928.96 364.021C928.96 363.173 929.152 362.394 929.536 361.685C929.927 360.969 930.458 360.375 931.127 359.905C931.797 359.428 932.546 359.123 933.374 358.99V358.851C932.287 358.632 931.406 358.105 930.73 357.27C930.053 356.428 929.715 355.45 929.715 354.337C929.715 353.283 930.024 352.345 930.64 351.523C931.257 350.694 932.102 350.045 933.176 349.574C934.256 349.097 935.482 348.858 936.855 348.858C938.227 348.858 939.45 349.097 940.524 349.574C941.604 350.051 942.453 350.704 943.069 351.533C943.686 352.355 943.997 353.289 944.004 354.337C943.997 355.457 943.652 356.435 942.97 357.27C942.287 358.105 941.412 358.632 940.345 358.851V358.99C941.16 359.123 941.899 359.428 942.562 359.905C943.231 360.375 943.762 360.969 944.153 361.685C944.551 362.394 944.753 363.173 944.759 364.021C944.753 365.122 944.411 366.106 943.735 366.974C943.059 367.843 942.124 368.529 940.931 369.033C939.745 369.53 938.386 369.778 936.855 369.778ZM936.855 366.616C937.537 366.616 938.134 366.494 938.644 366.249C939.155 365.997 939.552 365.652 939.838 365.214C940.129 364.77 940.275 364.26 940.275 363.683C940.275 363.093 940.126 362.573 939.828 362.122C939.529 361.665 939.125 361.307 938.615 361.048C938.104 360.783 937.517 360.651 936.855 360.651C936.198 360.651 935.612 360.783 935.095 361.048C934.578 361.307 934.17 361.665 933.872 362.122C933.58 362.573 933.434 363.093 933.434 363.683C933.434 364.26 933.577 364.77 933.862 365.214C934.147 365.652 934.548 365.997 935.065 366.249C935.582 366.494 936.178 366.616 936.855 366.616ZM936.855 357.518C937.425 357.518 937.932 357.402 938.376 357.17C938.82 356.938 939.168 356.617 939.42 356.206C939.672 355.795 939.798 355.321 939.798 354.784C939.798 354.254 939.672 353.79 939.42 353.392C939.168 352.988 938.823 352.673 938.386 352.447C937.948 352.215 937.438 352.099 936.855 352.099C936.278 352.099 935.767 352.215 935.323 352.447C934.879 352.673 934.531 352.988 934.279 353.392C934.034 353.79 933.911 354.254 933.911 354.784C933.911 355.321 934.037 355.795 934.289 356.206C934.541 356.617 934.889 356.938 935.333 357.17C935.777 357.402 936.285 357.518 936.855 357.518ZM956.927 356.928V350.908H952.027V356.928H956.927ZM965.187 352.784H960.539V354.996H965.187V352.784ZM960.539 357.936V359.84H948.387V347.968H960.539V349.844H965.187V346.12H968.883V361.24H965.187V357.936H960.539ZM960.147 369.08C963.535 369.08 965.299 368.38 965.299 366.896C965.299 365.412 963.535 364.712 960.147 364.712C956.787 364.712 955.023 365.412 955.023 366.896C955.023 368.38 956.787 369.08 960.147 369.08ZM960.147 361.884C965.635 361.884 968.995 363.732 968.995 366.896C968.995 370.06 965.635 371.908 960.147 371.908C954.687 371.908 951.327 370.06 951.327 366.896C951.327 363.732 954.687 361.884 960.147 361.884ZM997.634 349.312C993.826 349.312 991.222 350.74 991.222 352.952C991.222 355.192 993.826 356.62 997.634 356.62C1001.47 356.62 1004.07 355.192 1004.07 352.952C1004.07 350.74 1001.47 349.312 997.634 349.312ZM997.634 358.468C992.426 358.468 988.87 356.34 988.87 352.952C988.87 349.592 992.426 347.464 997.634 347.464C1002.87 347.464 1006.43 349.592 1006.43 352.952C1006.43 356.34 1002.87 358.468 997.634 358.468ZM1009.06 360.848V362.752H998.782V371.6H996.486V362.752H986.322V360.848H1009.06ZM1033.7 356.032L1032.74 357.88C1028.85 357.208 1025.07 355.024 1023.45 352C1021.88 355.052 1018.1 357.208 1014.18 357.88L1013.26 356.032C1017.82 355.36 1022.24 352.336 1022.24 348.752V347.352H1024.65V348.752C1024.65 352.252 1029.13 355.36 1033.7 356.032ZM1034.79 360.596L1034.82 362.5H1024.54V371.6H1022.24V362.5H1012.11V360.596H1034.79ZM1052.34 358.272L1051.14 360.064C1048.42 359.056 1046.27 356.984 1045.15 354.408C1044.11 357.348 1041.87 359.644 1038.93 360.764L1037.73 358.944C1041.53 357.572 1043.97 354.156 1043.97 350.32V347.744H1046.27V350.516C1046.27 353.904 1048.73 357.04 1052.34 358.272ZM1049.35 369.752C1053.04 369.752 1055.31 368.716 1055.31 366.98C1055.31 365.216 1053.04 364.18 1049.35 364.18C1045.62 364.18 1043.35 365.216 1043.35 366.98C1043.35 368.716 1045.62 369.752 1049.35 369.752ZM1049.35 362.388C1054.44 362.388 1057.61 364.04 1057.61 366.98C1057.61 369.892 1054.44 371.544 1049.35 371.544C1044.22 371.544 1041.06 369.892 1041.06 366.98C1041.06 364.04 1044.22 362.388 1049.35 362.388ZM1057.33 352.952H1061.05V354.856H1057.33V361.688H1055.03V346.484H1057.33V352.952ZM1079.1 349.136V369.5H1074.8V353.223H1074.68L1070.01 356.146V352.328L1075.05 349.136H1079.1ZM1087.49 366.716L1087.38 367.81C1087.3 368.685 1087.13 369.556 1086.88 370.425C1086.65 371.3 1086.39 372.092 1086.13 372.801C1085.87 373.51 1085.66 374.067 1085.5 374.472H1082.76C1082.86 374.08 1082.99 373.534 1083.17 372.831C1083.34 372.135 1083.5 371.353 1083.65 370.484C1083.81 369.616 1083.9 368.731 1083.94 367.83L1083.99 366.716H1087.49ZM1098.1 369.778C1096.57 369.778 1095.21 369.53 1094.01 369.033C1092.83 368.529 1091.9 367.843 1091.22 366.974C1090.54 366.106 1090.21 365.122 1090.21 364.021C1090.21 363.173 1090.4 362.394 1090.78 361.685C1091.17 360.969 1091.7 360.375 1092.37 359.905C1093.04 359.428 1093.79 359.123 1094.62 358.99V358.851C1093.53 358.632 1092.65 358.105 1091.98 357.27C1091.3 356.428 1090.96 355.45 1090.96 354.337C1090.96 353.283 1091.27 352.345 1091.89 351.523C1092.5 350.694 1093.35 350.045 1094.42 349.574C1095.5 349.097 1096.73 348.858 1098.1 348.858C1099.47 348.858 1100.7 349.097 1101.77 349.574C1102.85 350.051 1103.7 350.704 1104.32 351.533C1104.93 352.355 1105.24 353.289 1105.25 354.337C1105.24 355.457 1104.9 356.435 1104.22 357.27C1103.53 358.105 1102.66 358.632 1101.59 358.851V358.99C1102.41 359.123 1103.15 359.428 1103.81 359.905C1104.48 360.375 1105.01 360.969 1105.4 361.685C1105.8 362.394 1106 363.173 1106.01 364.021C1106 365.122 1105.66 366.106 1104.98 366.974C1104.31 367.843 1103.37 368.529 1102.18 369.033C1100.99 369.53 1099.63 369.778 1098.1 369.778ZM1098.1 366.616C1098.78 366.616 1099.38 366.494 1099.89 366.249C1100.4 365.997 1100.8 365.652 1101.08 365.214C1101.38 364.77 1101.52 364.26 1101.52 363.683C1101.52 363.093 1101.37 362.573 1101.07 362.122C1100.78 361.665 1100.37 361.307 1099.86 361.048C1099.35 360.783 1098.76 360.651 1098.1 360.651C1097.44 360.651 1096.86 360.783 1096.34 361.048C1095.82 361.307 1095.42 361.665 1095.12 362.122C1094.83 362.573 1094.68 363.093 1094.68 363.683C1094.68 364.26 1094.82 364.77 1095.11 365.214C1095.39 365.652 1095.79 365.997 1096.31 366.249C1096.83 366.494 1097.42 366.616 1098.1 366.616ZM1098.1 357.518C1098.67 357.518 1099.18 357.402 1099.62 357.17C1100.07 356.938 1100.41 356.617 1100.67 356.206C1100.92 355.795 1101.04 355.321 1101.04 354.784C1101.04 354.254 1100.92 353.79 1100.67 353.392C1100.41 352.988 1100.07 352.673 1099.63 352.447C1099.19 352.215 1098.68 352.099 1098.1 352.099C1097.52 352.099 1097.01 352.215 1096.57 352.447C1096.13 352.673 1095.78 352.988 1095.53 353.392C1095.28 353.79 1095.16 354.254 1095.16 354.784C1095.16 355.321 1095.28 355.795 1095.54 356.206C1095.79 356.617 1096.14 356.938 1096.58 357.17C1097.02 357.402 1097.53 357.518 1098.1 357.518ZM1116.54 369.778C1115.06 369.778 1113.74 369.523 1112.58 369.013C1111.42 368.496 1110.51 367.786 1109.84 366.885C1109.18 365.977 1108.84 364.929 1108.82 363.743H1113.15C1113.18 364.24 1113.34 364.678 1113.64 365.055C1113.94 365.427 1114.35 365.715 1114.85 365.92C1115.36 366.126 1115.92 366.229 1116.55 366.229C1117.21 366.229 1117.79 366.113 1118.29 365.881C1118.8 365.649 1119.19 365.327 1119.48 364.916C1119.76 364.505 1119.9 364.031 1119.9 363.494C1119.9 362.951 1119.75 362.47 1119.45 362.053C1119.15 361.628 1118.72 361.297 1118.15 361.058C1117.6 360.82 1116.93 360.7 1116.16 360.7H1114.27V357.538H1116.16C1116.81 357.538 1117.39 357.426 1117.89 357.2C1118.39 356.975 1118.78 356.663 1119.06 356.266C1119.34 355.861 1119.48 355.391 1119.48 354.854C1119.48 354.343 1119.35 353.896 1119.11 353.511C1118.87 353.12 1118.53 352.815 1118.09 352.597C1117.66 352.378 1117.16 352.268 1116.58 352.268C1116 352.268 1115.47 352.375 1114.98 352.587C1114.5 352.792 1114.11 353.087 1113.82 353.472C1113.53 353.856 1113.37 354.307 1113.35 354.824H1109.22C1109.24 353.651 1109.58 352.616 1110.23 351.722C1110.88 350.827 1111.75 350.127 1112.85 349.624C1113.96 349.113 1115.21 348.858 1116.6 348.858C1118.01 348.858 1119.24 349.113 1120.29 349.624C1121.35 350.134 1122.16 350.823 1122.75 351.692C1123.34 352.554 1123.63 353.521 1123.62 354.595C1123.63 355.735 1123.27 356.687 1122.56 357.449C1121.85 358.211 1120.92 358.695 1119.78 358.901V359.06C1121.28 359.252 1122.42 359.772 1123.2 360.621C1123.99 361.463 1124.38 362.517 1124.38 363.783C1124.38 364.943 1124.05 365.973 1123.37 366.875C1122.7 367.777 1121.78 368.486 1120.6 369.003C1119.42 369.52 1118.07 369.778 1116.54 369.778ZM1136.33 349.136V369.5H1132.03V353.223H1131.91L1127.24 356.146V352.328L1132.29 349.136H1136.33ZM1150.33 356.928V350.908H1145.43V356.928H1150.33ZM1158.59 352.784H1153.94V354.996H1158.59V352.784ZM1153.94 357.936V359.84H1141.79V347.968H1153.94V349.844H1158.59V346.12H1162.29V361.24H1158.59V357.936H1153.94ZM1153.55 369.08C1156.94 369.08 1158.7 368.38 1158.7 366.896C1158.7 365.412 1156.94 364.712 1153.55 364.712C1150.19 364.712 1148.43 365.412 1148.43 366.896C1148.43 368.38 1150.19 369.08 1153.55 369.08ZM1153.55 361.884C1159.04 361.884 1162.4 363.732 1162.4 366.896C1162.4 370.06 1159.04 371.908 1153.55 371.908C1148.09 371.908 1144.73 370.06 1144.73 366.896C1144.73 363.732 1148.09 361.884 1153.55 361.884ZM1198.09 361.324V353.68H1192.63V351.804H1198.09V346.484H1200.42V361.324H1198.09ZM1194.45 358.356L1193.22 360.148C1190.48 359.112 1188.35 357.124 1187.26 354.52C1186.19 357.488 1183.92 359.756 1180.9 360.904L1179.7 359.028C1183.56 357.656 1186.05 354.296 1186.05 350.46V347.884H1188.35V350.376C1188.35 353.96 1190.78 357.068 1194.45 358.356ZM1192.13 369.724C1195.91 369.724 1198.2 368.632 1198.2 366.812C1198.2 364.964 1195.91 363.872 1192.13 363.872C1188.35 363.872 1186.05 364.964 1186.05 366.812C1186.05 368.632 1188.35 369.724 1192.13 369.724ZM1192.13 362.08C1197.28 362.08 1200.5 363.788 1200.5 366.812C1200.5 369.808 1197.28 371.544 1192.13 371.544C1186.98 371.544 1183.76 369.808 1183.76 366.812C1183.76 363.788 1186.98 362.08 1192.13 362.08ZM1226.06 346.484V359.476H1223.77V346.484H1226.06ZM1220.69 356.956L1219.54 358.748C1216.65 357.74 1214.36 355.64 1213.21 352.98C1212.12 355.864 1209.79 358.16 1206.83 359.224L1205.65 357.432C1209.43 356.116 1212.03 352.756 1212.03 349.116V347.212H1214.33V349.116C1214.33 352.588 1216.96 355.724 1220.69 356.956ZM1212.15 369.472H1226.93V371.292H1209.88V365.048H1223.82V362.528H1209.82V360.736H1226.09V366.784H1212.15V369.472ZM1245.74 358.272L1244.54 360.064C1241.82 359.056 1239.67 356.984 1238.55 354.408C1237.51 357.348 1235.27 359.644 1232.33 360.764L1231.13 358.944C1234.94 357.572 1237.37 354.156 1237.37 350.32V347.744H1239.67V350.516C1239.67 353.904 1242.13 357.04 1245.74 358.272ZM1242.75 369.752C1246.44 369.752 1248.71 368.716 1248.71 366.98C1248.71 365.216 1246.44 364.18 1242.75 364.18C1239.02 364.18 1236.76 365.216 1236.76 366.98C1236.76 368.716 1239.02 369.752 1242.75 369.752ZM1242.75 362.388C1247.84 362.388 1251.01 364.04 1251.01 366.98C1251.01 369.892 1247.84 371.544 1242.75 371.544C1237.62 371.544 1234.46 369.892 1234.46 366.98C1234.46 364.04 1237.62 362.388 1242.75 362.388ZM1250.73 352.952H1254.45V354.856H1250.73V361.688H1248.43V346.484H1250.73V352.952ZM1263.64 369.5V366.398L1270.89 359.686C1271.51 359.089 1272.03 358.553 1272.44 358.075C1272.87 357.598 1273.19 357.131 1273.41 356.673C1273.63 356.209 1273.74 355.709 1273.74 355.172C1273.74 354.575 1273.6 354.062 1273.33 353.631C1273.06 353.193 1272.69 352.858 1272.22 352.626C1271.75 352.388 1271.21 352.268 1270.61 352.268C1269.99 352.268 1269.45 352.394 1268.98 352.646C1268.52 352.898 1268.16 353.259 1267.91 353.73C1267.66 354.201 1267.53 354.761 1267.53 355.411H1263.45C1263.45 354.078 1263.75 352.921 1264.35 351.94C1264.95 350.959 1265.8 350.2 1266.89 349.663C1267.97 349.126 1269.23 348.858 1270.64 348.858C1272.1 348.858 1273.37 349.116 1274.45 349.634C1275.54 350.144 1276.39 350.853 1276.99 351.761C1277.59 352.67 1277.89 353.71 1277.89 354.884C1277.89 355.652 1277.74 356.411 1277.44 357.161C1277.14 357.91 1276.6 358.741 1275.84 359.656C1275.07 360.564 1273.98 361.655 1272.58 362.928L1269.61 365.841V365.98H1278.16V369.5H1263.64ZM1285.92 366.716L1285.82 367.81C1285.73 368.685 1285.56 369.556 1285.32 370.425C1285.08 371.3 1284.83 372.092 1284.56 372.801C1284.3 373.51 1284.1 374.067 1283.94 374.472H1281.19C1281.29 374.08 1281.43 373.534 1281.6 372.831C1281.77 372.135 1281.93 371.353 1282.09 370.484C1282.24 369.616 1282.34 368.731 1282.38 367.83L1282.42 366.716H1285.92ZM1296.53 369.778C1295 369.778 1293.64 369.53 1292.45 369.033C1291.26 368.529 1290.33 367.843 1289.65 366.974C1288.98 366.106 1288.64 365.122 1288.64 364.021C1288.64 363.173 1288.83 362.394 1289.22 361.685C1289.61 360.969 1290.14 360.375 1290.81 359.905C1291.48 359.428 1292.23 359.123 1293.05 358.99V358.851C1291.97 358.632 1291.09 358.105 1290.41 357.27C1289.73 356.428 1289.4 355.45 1289.4 354.337C1289.4 353.283 1289.7 352.345 1290.32 351.523C1290.94 350.694 1291.78 350.045 1292.86 349.574C1293.94 349.097 1295.16 348.858 1296.53 348.858C1297.91 348.858 1299.13 349.097 1300.2 349.574C1301.28 350.051 1302.13 350.704 1302.75 351.533C1303.37 352.355 1303.68 353.289 1303.68 354.337C1303.68 355.457 1303.33 356.435 1302.65 357.27C1301.97 358.105 1301.09 358.632 1300.02 358.851V358.99C1300.84 359.123 1301.58 359.428 1302.24 359.905C1302.91 360.375 1303.44 360.969 1303.83 361.685C1304.23 362.394 1304.43 363.173 1304.44 364.021C1304.43 365.122 1304.09 366.106 1303.41 366.974C1302.74 367.843 1301.8 368.529 1300.61 369.033C1299.42 369.53 1298.07 369.778 1296.53 369.778ZM1296.53 366.616C1297.22 366.616 1297.81 366.494 1298.32 366.249C1298.83 365.997 1299.23 365.652 1299.52 365.214C1299.81 364.77 1299.95 364.26 1299.95 363.683C1299.95 363.093 1299.81 362.573 1299.51 362.122C1299.21 361.665 1298.8 361.307 1298.29 361.048C1297.78 360.783 1297.2 360.651 1296.53 360.651C1295.88 360.651 1295.29 360.783 1294.77 361.048C1294.26 361.307 1293.85 361.665 1293.55 362.122C1293.26 362.573 1293.11 363.093 1293.11 363.683C1293.11 364.26 1293.26 364.77 1293.54 365.214C1293.83 365.652 1294.23 365.997 1294.74 366.249C1295.26 366.494 1295.86 366.616 1296.53 366.616ZM1296.53 357.518C1297.1 357.518 1297.61 357.402 1298.06 357.17C1298.5 356.938 1298.85 356.617 1299.1 356.206C1299.35 355.795 1299.48 355.321 1299.48 354.784C1299.48 354.254 1299.35 353.79 1299.1 353.392C1298.85 352.988 1298.5 352.673 1298.07 352.447C1297.63 352.215 1297.12 352.099 1296.53 352.099C1295.96 352.099 1295.45 352.215 1295 352.447C1294.56 352.673 1294.21 352.988 1293.96 353.392C1293.71 353.79 1293.59 354.254 1293.59 354.784C1293.59 355.321 1293.72 355.795 1293.97 356.206C1294.22 356.617 1294.57 356.938 1295.01 357.17C1295.46 357.402 1295.96 357.518 1296.53 357.518ZM1314.82 348.858C1315.86 348.858 1316.87 349.034 1317.84 349.385C1318.81 349.736 1319.68 350.296 1320.45 351.065C1321.21 351.834 1321.82 352.855 1322.26 354.128C1322.72 355.394 1322.94 356.948 1322.95 358.791C1322.95 360.521 1322.76 362.066 1322.36 363.425C1321.98 364.777 1321.43 365.927 1320.7 366.875C1319.98 367.823 1319.11 368.545 1318.09 369.043C1317.07 369.533 1315.93 369.778 1314.67 369.778C1313.31 369.778 1312.11 369.517 1311.07 368.993C1310.03 368.463 1309.19 367.743 1308.55 366.835C1307.92 365.92 1307.54 364.893 1307.41 363.753H1311.66C1311.82 364.495 1312.17 365.072 1312.7 365.483C1313.23 365.887 1313.89 366.089 1314.67 366.089C1315.99 366.089 1317 365.513 1317.69 364.359C1318.38 363.199 1318.73 361.612 1318.73 359.597H1318.6C1318.29 360.193 1317.88 360.707 1317.36 361.138C1316.85 361.562 1316.25 361.89 1315.58 362.122C1314.92 362.354 1314.21 362.47 1313.47 362.47C1312.27 362.47 1311.19 362.188 1310.25 361.625C1309.31 361.062 1308.57 360.286 1308.03 359.298C1307.48 358.311 1307.21 357.184 1307.21 355.918C1307.2 354.552 1307.52 353.336 1308.16 352.268C1308.79 351.201 1309.68 350.366 1310.82 349.763C1311.97 349.153 1313.3 348.851 1314.82 348.858ZM1314.85 352.239C1314.18 352.239 1313.58 352.398 1313.06 352.716C1312.54 353.034 1312.13 353.462 1311.82 353.999C1311.53 354.536 1311.38 355.135 1311.39 355.798C1311.39 356.468 1311.53 357.071 1311.82 357.608C1312.12 358.138 1312.53 358.562 1313.04 358.881C1313.55 359.192 1314.14 359.348 1314.81 359.348C1315.3 359.348 1315.77 359.255 1316.19 359.07C1316.61 358.884 1316.98 358.629 1317.29 358.304C1317.61 357.973 1317.86 357.591 1318.04 357.161C1318.22 356.73 1318.31 356.272 1318.31 355.788C1318.3 355.145 1318.15 354.555 1317.85 354.018C1317.55 353.482 1317.14 353.051 1316.62 352.726C1316.09 352.401 1315.5 352.239 1314.85 352.239ZM1325.93 369.5V366.398L1333.18 359.686C1333.8 359.089 1334.32 358.553 1334.73 358.075C1335.16 357.598 1335.48 357.131 1335.7 356.673C1335.92 356.209 1336.03 355.709 1336.03 355.172C1336.03 354.575 1335.89 354.062 1335.62 353.631C1335.35 353.193 1334.98 352.858 1334.5 352.626C1334.03 352.388 1333.5 352.268 1332.9 352.268C1332.28 352.268 1331.74 352.394 1331.27 352.646C1330.81 352.898 1330.45 353.259 1330.2 353.73C1329.95 354.201 1329.82 354.761 1329.82 355.411H1325.73C1325.73 354.078 1326.04 352.921 1326.64 351.94C1327.24 350.959 1328.09 350.2 1329.18 349.663C1330.26 349.126 1331.52 348.858 1332.93 348.858C1334.39 348.858 1335.66 349.116 1336.74 349.634C1337.83 350.144 1338.67 350.853 1339.28 351.761C1339.88 352.67 1340.18 353.71 1340.18 354.884C1340.18 355.652 1340.03 356.411 1339.72 357.161C1339.43 357.91 1338.89 358.741 1338.12 359.656C1337.36 360.564 1336.27 361.655 1334.87 362.928L1331.9 365.841V365.98H1340.45V369.5H1325.93ZM1352.73 356.928V350.908H1347.83V356.928H1352.73ZM1360.99 352.784H1356.34V354.996H1360.99V352.784ZM1356.34 357.936V359.84H1344.19V347.968H1356.34V349.844H1360.99V346.12H1364.68V361.24H1360.99V357.936H1356.34ZM1355.95 369.08C1359.34 369.08 1361.1 368.38 1361.1 366.896C1361.1 365.412 1359.34 364.712 1355.95 364.712C1352.59 364.712 1350.82 365.412 1350.82 366.896C1350.82 368.38 1352.59 369.08 1355.95 369.08ZM1355.95 361.884C1361.44 361.884 1364.8 363.732 1364.8 366.896C1364.8 370.06 1361.44 371.908 1355.95 371.908C1350.49 371.908 1347.13 370.06 1347.13 366.896C1347.13 363.732 1350.49 361.884 1355.95 361.884Z" fill="#FFF33F"/>
</g>
<path d="M663.853 175.076C653.458 175.076 646.402 170.918 646.402 160.649V157.94C646.402 147.671 653.458 143.513 663.853 143.513C669.964 143.513 674.878 145.025 677.839 148.301H689.809C689.998 144.584 692.833 142.631 695.983 142.631C699.196 142.631 702.283 144.773 702.283 148.742V176.084H689.809V170.477H677.713C674.752 173.69 669.901 175.076 663.853 175.076ZM648.859 189.629C648.859 182.825 653.143 177.281 661.9 177.281H689.872C698.503 177.281 702.913 182.699 702.913 189.629C702.913 196.559 698.503 201.977 689.872 201.977H661.9C653.143 201.977 648.859 196.433 648.859 189.629ZM661.648 189.629C661.648 191.204 662.467 193.157 665.239 193.157H686.533C689.305 193.157 690.124 191.204 690.124 189.629C690.124 188.054 689.305 186.101 686.533 186.101H665.239C662.467 186.101 661.648 188.054 661.648 189.629ZM663.853 166.13C667.003 166.13 669.082 164.681 669.082 161.342V157.247C669.082 153.971 667.003 152.459 663.853 152.459C660.703 152.459 658.624 153.971 658.624 157.247V161.342C658.624 164.681 660.703 166.13 663.853 166.13ZM680.989 160.649C680.989 161.027 680.989 161.405 680.926 161.72H689.809V157.058H680.989V160.649ZM749.596 201.788V176.147H741.343V183.644C741.343 194.795 734.35 200.591 723.955 200.591C713.56 200.591 706.504 194.795 706.504 183.644V160.586C706.504 149.435 713.56 143.639 723.955 143.639C734.35 143.639 741.343 149.435 741.343 160.586V165.374H749.596V148.742C749.596 144.71 752.557 142.631 755.833 142.631C759.046 142.631 762.133 144.773 762.133 148.742V201.788H749.596ZM718.852 160.271V183.959C718.852 188.243 720.931 190.259 723.955 190.259C726.979 190.259 729.058 188.243 729.058 183.959V160.271C729.058 156.05 726.979 153.971 723.955 153.971C720.931 153.971 718.852 156.05 718.852 160.271Z" fill="#3A8E48"/>
<path d="M1161.81 248.997V245.091H1152.99C1150.66 245.091 1149.08 244.146 1148.39 242.571C1143.22 248.178 1133.71 250.194 1123.32 248.934C1120.48 248.619 1118.28 246.54 1118.59 243.201C1118.91 240.24 1121.24 238.854 1124.26 239.169C1133.77 240.114 1140.52 237.531 1140.52 231.483V231.168C1140.52 230.16 1140.14 229.908 1139.07 229.908H1124.83C1121.17 229.908 1119.66 227.451 1119.66 224.994C1119.66 222.537 1121.11 220.206 1124.83 220.206H1143.73C1148.26 220.206 1150.72 221.466 1151.86 223.986H1161.87C1162.19 220.458 1164.9 218.631 1167.98 218.631C1171.2 218.631 1174.28 220.773 1174.28 224.742V248.997H1161.81ZM1172.33 277.788H1129.81C1124.07 277.788 1120.86 273.756 1120.86 269.22V268.464C1120.86 263.928 1124.07 261.03 1129.81 261.03H1161.49V259.392C1161.49 258.636 1161.31 258.384 1160.49 258.384H1125.02C1122.56 258.384 1121.55 256.557 1121.55 254.667C1121.55 252.903 1122.62 251.013 1125.02 251.013H1166.6C1172.2 251.013 1174.28 252.651 1174.28 257.628V267.708H1135.54C1134.59 267.708 1134.15 268.275 1134.15 268.905V269.094C1134.15 269.724 1134.59 270.291 1135.54 270.291H1172.33C1174.85 270.291 1175.92 272.244 1175.92 274.134C1175.92 275.898 1174.91 277.788 1172.33 277.788ZM1151.86 236.523C1152.17 236.523 1152.55 236.46 1152.99 236.46H1161.81V232.617H1152.55C1152.42 234.003 1152.17 235.326 1151.86 236.523ZM1219.83 277.788V224.742C1219.83 220.71 1222.79 218.631 1226.07 218.631C1229.28 218.631 1232.31 220.773 1232.31 224.742V240.681H1234.39C1238.23 240.681 1239.36 243.642 1239.36 246.162C1239.36 248.745 1238.16 251.643 1234.39 251.643H1232.31V277.788H1219.83ZM1201.31 253.47C1202.57 249.627 1203.14 244.461 1203.14 236.649V232.806C1203.14 231.735 1202.63 231.294 1201.62 231.294H1183.35C1179.7 231.294 1178 228.585 1178 225.939C1178 223.293 1179.64 220.584 1183.35 220.584H1205.85C1212.96 220.584 1215.17 223.293 1215.17 229.278V236.712C1215.17 246.162 1214.41 252.147 1212.71 256.809C1211.52 260.085 1207.74 261.471 1204.08 260.4C1201.18 259.518 1200.37 256.368 1201.31 253.47ZM1182.28 265.44H1184.99V246.036C1184.99 241.941 1187.64 240.366 1190.98 240.366C1194.25 240.366 1196.96 242.004 1196.96 246.036V265.44H1212.27C1216.12 265.44 1217.56 267.897 1217.56 270.48C1217.56 273.126 1216.05 275.583 1212.27 275.583H1182.28C1178.5 275.583 1176.93 273.126 1176.93 270.48C1176.93 267.897 1178.44 265.44 1182.28 265.44ZM1278.93 258.636H1244.65C1242.26 258.636 1241.25 256.809 1241.25 254.982C1241.25 253.218 1242.32 251.328 1244.65 251.328H1285.16C1290.71 251.328 1292.72 252.966 1292.72 257.88V267.834H1255.24C1254.29 267.834 1253.85 268.401 1253.85 269.031V269.22C1253.85 269.85 1254.29 270.417 1255.24 270.417H1290.83C1293.29 270.417 1294.36 272.307 1294.36 274.197C1294.36 275.898 1293.35 277.788 1290.83 277.788H1249.38C1243.71 277.788 1240.56 273.819 1240.56 269.346V268.59C1240.56 264.117 1243.71 261.219 1249.38 261.219H1279.93V259.644C1279.93 258.888 1279.74 258.636 1278.93 258.636ZM1273.63 248.556H1247.24C1240.31 248.556 1238.54 246.225 1238.54 239.61V225.939C1238.54 221.718 1241.19 219.954 1244.65 219.954C1247.93 219.954 1250.2 221.655 1250.39 225.435H1261.79C1261.98 221.592 1264.31 219.954 1267.65 219.954C1271.11 219.954 1273.63 221.781 1273.63 225.939V248.556ZM1279.81 249.627V224.868C1279.81 220.773 1282.71 218.631 1286.05 218.631C1289.32 218.631 1292.28 220.836 1292.28 224.868V228.9H1294.24C1298.08 228.9 1299.21 231.735 1299.21 234.255C1299.21 236.838 1298.01 239.61 1294.24 239.61H1292.28V249.627H1279.81ZM1252.09 239.547H1261.79V233.814H1250.39V237.972C1250.39 239.358 1250.7 239.547 1252.09 239.547ZM1301.86 266.448H1307.53V262.542C1307.53 258.069 1310.11 256.116 1313.95 256.116C1317.73 256.116 1320.25 258.132 1320.25 262.542V266.448H1331.85V262.542C1331.85 258.069 1334.43 256.116 1338.27 256.116C1342.05 256.116 1344.57 258.132 1344.57 262.542V266.448H1350.24C1354.09 266.448 1355.53 268.968 1355.53 271.488C1355.53 274.071 1354.02 276.528 1350.24 276.528H1301.86C1298.08 276.528 1296.57 274.071 1296.57 271.488C1296.57 268.968 1298.02 266.448 1301.86 266.448ZM1303.31 244.335H1307.65V239.988C1307.65 235.515 1310.24 233.562 1314.08 233.562C1317.86 233.562 1320.38 235.578 1320.38 239.988V244.335H1331.72V239.988C1331.72 235.515 1334.3 233.562 1338.15 233.562C1341.93 233.562 1344.45 235.578 1344.45 239.988V244.335H1348.79C1352.64 244.335 1354.09 246.855 1354.09 249.375C1354.09 251.958 1352.57 254.415 1348.79 254.415H1303.31C1299.53 254.415 1298.02 251.958 1298.02 249.375C1298.02 246.855 1299.46 244.335 1303.31 244.335ZM1304.06 220.71H1348.04C1351.88 220.71 1353.33 223.482 1353.33 226.002C1353.33 228.585 1351.82 231.294 1348.04 231.294H1304.06C1300.28 231.294 1298.77 228.585 1298.77 226.002C1298.77 223.482 1300.22 220.71 1304.06 220.71Z" fill="#A68255"/>
<path d="M1120.04 167.012C1126.4 164.996 1129.87 160.019 1129.87 150.569V149.435C1129.87 145.403 1133.02 143.513 1136.36 143.576C1139.63 143.639 1142.41 145.655 1142.41 149.435V150.569C1142.41 152.711 1142.22 154.727 1141.9 156.617C1150.66 157.625 1156.45 163.547 1156.08 176.588H1143.98C1144.3 170.54 1142.53 166.949 1138.69 166.13C1135.03 172.619 1129.24 176.336 1123.44 177.092C1120.17 177.533 1117.58 175.58 1117.08 173.375C1116.26 170.54 1117.52 167.831 1120.04 167.012ZM1170.63 201.788H1130.88C1123.82 201.788 1121.93 199.331 1121.93 192.59V186.164C1121.93 181.88 1124.89 179.927 1128.42 179.927C1131.95 179.927 1134.72 181.943 1134.72 186.164V190.448C1134.72 191.834 1135.03 192.023 1136.42 192.023H1170.63C1174.47 192.023 1175.92 194.354 1175.92 196.874C1175.92 199.457 1174.41 201.788 1170.63 201.788ZM1161.75 187.172V161.09H1156.45C1153.37 161.09 1151.54 158.507 1151.54 155.861C1151.54 153.215 1153.12 150.632 1156.45 150.632H1161.75V148.742C1161.75 144.71 1164.71 142.631 1167.98 142.631C1171.2 142.631 1174.28 144.773 1174.28 148.742V187.172H1161.75ZM1219.08 182.636H1184.8C1182.41 182.636 1181.4 180.809 1181.4 178.982C1181.4 177.218 1182.47 175.328 1184.8 175.328H1225.31C1230.86 175.328 1232.87 176.966 1232.87 181.88V191.834H1195.39C1194.44 191.834 1194 192.401 1194 193.031V193.22C1194 193.85 1194.44 194.417 1195.39 194.417H1230.98C1233.44 194.417 1234.51 196.307 1234.51 198.197C1234.51 199.898 1233.5 201.788 1230.98 201.788H1189.53C1183.86 201.788 1180.71 197.819 1180.71 193.346V192.59C1180.71 188.117 1183.86 185.219 1189.53 185.219H1220.08V183.644C1220.08 182.888 1219.9 182.636 1219.08 182.636ZM1213.78 172.556H1187.39C1180.46 172.556 1178.69 170.225 1178.69 163.61V149.939C1178.69 145.718 1181.34 143.954 1184.8 143.954C1188.08 143.954 1190.35 145.655 1190.54 149.435H1201.94C1202.13 145.592 1204.46 143.954 1207.8 143.954C1211.26 143.954 1213.78 145.781 1213.78 149.939V172.556ZM1219.96 173.627V148.868C1219.96 144.773 1222.86 142.631 1226.2 142.631C1229.47 142.631 1232.43 144.836 1232.43 148.868V152.9H1234.39C1238.23 152.9 1239.36 155.735 1239.36 158.255C1239.36 160.838 1238.16 163.61 1234.39 163.61H1232.43V173.627H1219.96ZM1192.24 163.547H1201.94V157.814H1190.54V161.972C1190.54 163.358 1190.85 163.547 1192.24 163.547ZM1283.65 201.788V175.769H1280.19V201.788H1269.1V147.986C1269.1 144.458 1271.74 142.631 1274.64 142.631C1277.48 142.631 1280.19 144.521 1280.19 147.986V165.437H1283.65V147.986C1283.65 144.458 1286.42 142.631 1289.32 142.631C1292.16 142.631 1294.99 144.521 1294.99 147.986V201.788H1283.65ZM1262.36 199.268H1247.61C1239.42 199.268 1238.23 197.63 1238.23 189.755V154.286C1238.23 146.411 1239.42 144.836 1247.61 144.836H1261.03C1264.69 144.836 1265.82 147.293 1265.82 150.002C1265.82 152.774 1264.62 155.168 1261.03 155.168H1252.15C1250.45 155.168 1250.2 155.42 1250.2 157.121V186.983C1250.2 188.684 1250.45 188.936 1252.15 188.936H1262.36C1266.01 188.936 1267.14 191.393 1267.14 194.102C1267.14 196.874 1265.95 199.268 1262.36 199.268ZM1317.04 142.19C1321.07 142.19 1323.47 144.584 1323.53 148.553H1333.11C1336.19 148.553 1337.96 150.569 1337.96 153.215C1337.96 155.798 1336.26 157.877 1333.42 158.003C1334.05 159.641 1334.37 161.468 1334.37 163.61V166.256C1334.37 174.824 1330.08 179.297 1323.28 180.809V189.44H1333.67C1337.52 189.44 1338.97 191.897 1338.97 194.48C1338.97 197.126 1337.45 199.583 1333.67 199.583H1301.98C1298.2 199.583 1296.63 197.126 1296.63 194.48C1296.63 191.897 1298.14 189.44 1301.98 189.44H1310.8V180.809C1303.94 179.297 1299.65 174.824 1299.65 166.256V163.61C1299.65 161.468 1299.97 159.641 1300.6 158.003C1297.83 157.877 1296.06 155.798 1296.06 153.215C1296.06 150.569 1297.83 148.553 1300.91 148.553H1310.55C1310.62 144.584 1313.01 142.19 1317.04 142.19ZM1353.83 201.788H1341.23V148.868C1341.23 144.773 1344.19 142.631 1347.53 142.631C1350.87 142.631 1353.83 144.773 1353.83 148.868V201.788ZM1311.5 162.98V166.571C1311.5 170.54 1314.02 171.989 1317.04 171.989C1320.07 171.989 1322.59 170.54 1322.59 166.571V162.98C1322.59 159.074 1320.07 157.562 1317.04 157.562C1314.02 157.562 1311.5 159.074 1311.5 162.98Z" fill="#3A8E48"/>
<path d="M650.245 245.847H667.948V242.193H656.545C649.363 242.193 647.599 240.429 647.599 233.562V228.27C647.599 221.403 649.363 219.513 656.545 219.513H696.55C700.078 219.513 701.338 221.907 701.338 224.238C701.338 226.632 700.015 228.963 696.55 228.963H662.278C661.018 228.963 660.577 229.278 660.577 230.412V231.42C660.577 232.68 661.018 232.932 662.278 232.932H696.739C700.204 232.932 701.527 235.326 701.527 237.657C701.527 239.988 700.141 242.193 696.739 242.193H680.8V245.847H698.755C702.535 245.847 703.984 248.178 703.984 250.698C703.984 253.218 702.472 255.549 698.755 255.549H650.245C646.528 255.549 645.016 253.218 645.016 250.698C645.016 248.178 646.465 245.847 650.245 245.847ZM687.352 268.527H652.765C649.363 268.527 647.473 266.511 647.473 263.676C647.473 260.841 649.363 258.888 652.765 258.888H692.329C699.952 258.888 701.338 261.093 701.338 268.401V277.788H688.738V269.913C688.738 268.905 688.36 268.527 687.352 268.527ZM705.118 265.125C714.316 258.825 717.025 248.871 717.025 231.546V226.632C717.025 222.6 719.986 220.521 723.262 220.521C726.475 220.521 729.499 222.789 729.499 226.632V231.483C729.499 236.019 729.247 240.177 728.743 244.02C739.39 247.8 744.619 256.242 743.548 274.197H731.326C732.46 264.747 730.822 258.51 726.349 255.423C723.64 264.054 719.104 270.102 712.867 273.441C709.654 275.142 705.874 274.89 704.173 272.685C702.472 270.732 702.22 267.141 705.118 265.125ZM749.785 277.788V247.422H741.784C738.004 247.422 736.492 244.587 736.492 242.004C736.492 239.484 737.941 236.586 741.784 236.586H749.785V224.742C749.785 220.71 752.746 218.631 756.022 218.631C759.235 218.631 762.322 220.773 762.322 224.742V277.788H749.785ZM791.617 242.004H790.357V245.028H800.689C804.469 245.028 805.918 246.918 805.918 249.438C805.918 251.958 804.406 254.1 800.689 254.1H769.819C766.102 254.1 764.59 251.958 764.59 249.438C764.59 246.918 766.039 245.028 769.819 245.028H778.513V242.004H777.946C769.882 242.004 765.976 237.468 765.976 231.042C765.976 224.553 769.882 219.828 777.946 219.828H791.617C799.618 219.828 803.524 224.553 803.524 231.042C803.524 237.468 799.618 242.004 791.617 242.004ZM821.29 267.33C821.29 273.126 817.636 277.977 809.761 277.977H779.773C771.898 277.977 768.244 273.126 768.244 267.33C768.244 261.534 771.898 256.683 779.773 256.683H809.761C817.636 256.683 821.29 261.534 821.29 267.33ZM807.808 255.045V224.868C807.808 220.773 810.706 218.631 814.045 218.631C817.321 218.631 820.282 220.836 820.282 224.868V230.979H822.235C826.078 230.979 827.212 233.877 827.212 236.397C827.212 238.98 826.015 241.815 822.235 241.815H820.282V255.045H807.808ZM808.501 267.33C808.501 266.07 807.808 264.873 805.918 264.873H783.616C781.726 264.873 781.033 266.07 781.033 267.33C781.033 268.59 781.726 269.787 783.616 269.787H805.918C807.808 269.787 808.501 268.59 808.501 267.33ZM788.845 228.333H780.655C778.702 228.333 777.883 229.341 777.883 231.042C777.883 232.617 778.702 233.751 780.655 233.751H788.845C790.798 233.751 791.617 232.617 791.617 231.042C791.617 229.341 790.798 228.333 788.845 228.333Z" fill="#3A8E48"/>
<g clip-path="url(#clip1_348_17140)">
<path d="M960.196 289.924C960.056 289.95 912.125 279.655 905.386 278.069L909.753 298.739L962.358 318.664L960.196 289.924Z" fill="black"/>
<path d="M962.358 320.294C962.165 320.294 961.964 320.259 961.78 320.189L909.176 300.272C908.659 300.071 908.274 299.624 908.16 299.081L903.793 278.411C903.679 277.868 903.845 277.298 904.248 276.904C904.642 276.518 905.219 276.352 905.762 276.483C912.659 278.095 958.883 288.014 960.441 288.312C960.721 288.356 960.983 288.461 961.211 288.636C961.57 288.917 961.797 289.346 961.832 289.802L963.994 318.542C964.038 319.094 963.793 319.637 963.347 319.97C963.058 320.18 962.717 320.294 962.375 320.294H962.358ZM911.162 297.53L960.537 316.228L958.655 291.221C950.454 289.618 916.948 282.284 907.495 280.207L911.154 297.53H911.162Z" fill="black"/>
<path d="M1024.31 274.669L1066.88 333.805C1066.88 333.805 1050.99 365.831 997.955 370.361H985.185C937.368 369.572 947.478 351.601 947.478 351.601L958.83 274.678H1024.31V274.669Z" fill="black"/>
<path d="M985.185 371.991C963.557 371.632 950.489 367.759 946.314 360.469C943.854 356.175 945.377 352.215 945.902 351.093L957.22 274.424C957.334 273.627 958.025 273.031 958.83 273.031H1024.31C1024.84 273.031 1025.33 273.285 1025.63 273.705L1068.21 332.841C1068.56 333.332 1068.61 333.98 1068.35 334.524C1067.68 335.864 1051.44 367.426 998.095 371.982H985.185V371.991ZM960.24 276.299L949.088 351.829C949.062 352.031 948.992 352.215 948.896 352.39C948.835 352.504 947.224 355.553 949.167 358.891C951.198 362.37 958.577 368.276 985.211 368.722H997.955C1024.7 366.436 1041.64 356.859 1051.13 349.227C1059.44 342.541 1063.64 336.145 1064.95 333.902L1023.47 276.29H960.231L960.24 276.299Z" fill="black"/>
<path d="M986.41 157.151C986.41 157.151 943.338 144.963 915.346 168.069C887.355 191.175 892.265 231.2 892.265 231.2C892.265 231.2 896.992 275.414 947.697 284.509C998.402 293.604 1040.75 282.327 1040.75 282.327C1040.75 282.327 1087.28 269.587 1091.82 230.657C1096.36 191.718 1078.37 173.887 1078.37 173.887C1078.37 173.887 1055.47 147.688 1017.12 154.601C1017.12 154.601 1002.58 160.06 986.402 157.151H986.41Z" fill="#F37448"/>
<path d="M988.336 289.661C975.881 289.661 961.964 288.733 947.408 286.121C920.624 281.311 906.611 266.713 899.574 255.305C891.95 242.941 890.69 231.848 890.637 231.375C890.593 230.99 885.955 190.211 914.305 166.807C942.296 143.692 984.065 154.803 986.769 155.556C1002.25 158.316 1016.41 153.12 1016.55 153.068C1016.63 153.033 1016.73 153.006 1016.83 152.989C1055.62 145.997 1079.36 172.537 1079.59 172.809C1080.27 173.475 1098.02 191.569 1093.43 230.841C1091.51 247.252 1081.84 261.64 1065.47 272.452C1053.19 280.549 1041.65 283.764 1041.17 283.896C1040.85 283.975 1019.06 289.653 988.319 289.653L988.336 289.661ZM960.257 155.574C947.601 155.574 930.069 158.027 916.388 169.33C889.438 191.578 893.841 230.613 893.885 231.007C894.077 232.786 899.127 274.144 947.986 282.906C997.719 291.826 1039.91 280.864 1040.34 280.75C1040.78 280.628 1085.85 267.835 1090.21 230.464C1094.61 192.752 1077.4 175.219 1077.24 175.052C1076.93 174.71 1054.43 149.615 1017.56 156.187C1015.9 156.792 1001.89 161.593 986.13 158.763C986.078 158.754 986.025 158.737 985.973 158.728C985.868 158.702 975.181 155.723 961.281 155.583C960.949 155.583 960.607 155.583 960.266 155.583L960.257 155.574Z" fill="black"/>
<path d="M959.408 217.154C969.932 217.154 978.463 208.339 978.463 197.466C978.463 186.592 969.932 177.777 959.408 177.777C948.884 177.777 940.353 186.592 940.353 197.466C940.353 208.339 948.884 217.154 959.408 217.154Z" fill="white"/>
<path d="M959.408 218.784C948.003 218.784 938.725 209.225 938.725 197.466C938.725 185.707 948.003 176.147 959.408 176.147C970.813 176.147 980.091 185.707 980.091 197.466C980.091 209.225 970.813 218.784 959.408 218.784ZM959.408 179.416C949.797 179.416 941.99 187.512 941.99 197.466C941.99 207.42 949.806 215.516 959.408 215.516C969.01 215.516 976.826 207.42 976.826 197.466C976.826 187.512 969.01 179.416 959.408 179.416Z" fill="black"/>
<path d="M959.224 206.666C964.165 206.666 968.17 202.484 968.17 197.326C968.17 192.167 964.165 187.985 959.224 187.985C954.284 187.985 950.279 192.167 950.279 197.326C950.279 202.484 954.284 206.666 959.224 206.666Z" fill="black"/>
<path d="M1023.16 217.154C1033.69 217.154 1042.22 208.339 1042.22 197.466C1042.22 186.592 1033.69 177.777 1023.16 177.777C1012.64 177.777 1004.11 186.592 1004.11 197.466C1004.11 208.339 1012.64 217.154 1023.16 217.154Z" fill="white"/>
<path d="M1023.16 218.784C1011.76 218.784 1002.48 209.225 1002.48 197.466C1002.48 185.707 1011.76 176.147 1023.16 176.147C1034.57 176.147 1043.85 185.707 1043.85 197.466C1043.85 209.225 1034.57 218.784 1023.16 218.784ZM1023.16 179.416C1013.55 179.416 1005.75 187.512 1005.75 197.466C1005.75 207.42 1013.56 215.516 1023.16 215.516C1032.77 215.516 1040.58 207.42 1040.58 197.466C1040.58 187.512 1032.77 179.416 1023.16 179.416Z" fill="black"/>
<path d="M1022.98 206.666C1027.92 206.666 1031.92 202.484 1031.92 197.326C1031.92 192.167 1027.92 187.985 1022.98 187.985C1018.04 187.985 1014.03 192.167 1014.03 197.326C1014.03 202.484 1018.04 206.666 1022.98 206.666Z" fill="black"/>
<path d="M992.1 208.05C992.1 208.05 989.019 208.05 985.036 214.123C981.062 220.195 977.08 226.766 977.08 226.766C977.08 226.766 975.688 228.659 976.38 230.35C977.071 232.041 982.542 233.233 989.404 233.338H995.076C1001.94 233.242 1007.41 232.041 1008.1 230.35C1008.8 228.659 1007.4 226.766 1007.4 226.766C1007.4 226.766 1003.43 220.195 999.443 214.123C995.47 208.05 992.38 208.05 992.38 208.05" fill="black"/>
<path d="M989.413 234.968C985.5 234.915 976.292 234.407 974.874 230.972C973.859 228.501 975.566 226.065 975.767 225.803C975.767 225.803 979.741 219.231 983.671 213.229C987.916 206.745 991.435 206.421 992.091 206.421C992.144 206.421 992.187 206.421 992.24 206.421C992.284 206.421 992.336 206.421 992.389 206.421C993.054 206.421 996.564 206.745 1000.81 213.229C1004.76 219.257 1008.76 225.855 1008.8 225.916C1008.91 226.065 1010.62 228.501 1009.61 230.972C1008.19 234.407 998.988 234.915 995.093 234.968H989.404H989.413ZM992.161 209.68C992.004 209.706 989.605 210.118 986.393 215.016C982.48 220.992 978.507 227.546 978.472 227.608C978.122 228.107 977.631 229.106 977.885 229.728C978.314 230.245 981.877 231.594 989.43 231.708H995.076C1002.6 231.603 1006.17 230.254 1006.64 229.658C1006.86 229.088 1006.32 228.046 1006.1 227.739C1005.97 227.555 1002.01 221.001 998.087 215.025C994.778 209.978 992.336 209.689 992.319 209.689C992.301 209.689 992.284 209.689 992.266 209.689C992.231 209.689 992.205 209.689 992.17 209.689L992.161 209.68Z" fill="black"/>
<path d="M935.793 234.81C935.793 234.81 981.211 260.545 1050.17 234.81C1050.17 234.81 1043.79 268.869 994.664 271.515C945.544 274.161 935.793 234.81 935.793 234.81Z" fill="#77474E"/>
<path d="M966.953 245.255L967.312 253.079L978.472 254.691L980.213 246.245" fill="white"/>
<path d="M978.647 256.155C978.507 256.172 978.358 256.164 978.218 256.146L967.058 254.534C966.297 254.42 965.719 253.842 965.684 253.141L965.325 245.307C965.29 244.492 965.99 243.809 966.883 243.774C967.785 243.739 968.546 244.37 968.581 245.185L968.879 251.809L977.159 253L978.612 245.964C978.778 245.158 979.618 244.633 980.511 244.781C981.395 244.93 981.982 245.702 981.815 246.508L980.073 254.954C979.942 255.612 979.347 256.085 978.647 256.155Z" fill="black"/>
<path d="M1006.8 246.367L1008.84 254.499L1021 252.028L1020.66 243.485" fill="white"/>
<path d="M1008.84 255.971C1008.1 255.971 1007.43 255.506 1007.26 254.823L1005.21 246.692C1005.01 245.894 1005.56 245.106 1006.44 244.922C1007.32 244.738 1008.19 245.237 1008.39 246.034L1010.08 252.729L1019.33 250.854L1019.04 243.537C1019.01 242.722 1019.71 242.039 1020.61 242.013C1021.51 241.942 1022.26 242.617 1022.3 243.432L1022.64 251.975C1022.66 252.685 1022.13 253.316 1021.37 253.465L1009.21 255.936C1009.09 255.962 1008.98 255.971 1008.85 255.971H1008.84Z" fill="black"/>
<path d="M988.572 271.313L989.841 262.691L1001.05 261.789L1003.14 272.128" fill="white"/>
<path d="M1003.5 271.979C1003.5 271.979 1003.45 271.988 1003.43 271.997C1002.54 272.146 1001.69 271.611 1001.53 270.814L999.706 263.384L991.277 264.058L990.183 271.506C990.069 272.312 989.246 272.882 988.354 272.777C987.461 272.671 986.839 271.927 986.953 271.121L988.222 262.499C988.319 261.815 988.949 261.289 989.693 261.219L1000.9 260.317C1001.74 260.247 1002.49 260.772 1002.65 261.517L1004.74 270.271C1004.9 271.05 1004.34 271.795 1003.5 271.971V271.979Z" fill="black"/>
<path d="M990.034 273.118C944.169 273.118 934.305 235.52 934.209 235.134C934.06 234.556 934.323 233.951 934.856 233.61C935.39 233.268 936.108 233.25 936.66 233.557C937.106 233.811 982.244 258.564 1049.55 233.443C1050.1 233.242 1050.73 233.321 1051.19 233.654C1051.65 233.987 1051.88 234.521 1051.78 235.056C1051.71 235.406 1044.59 270.297 994.761 272.987C993.141 273.075 991.566 273.118 990.025 273.118H990.034ZM938.471 237.798C942.007 247.068 955.285 272.163 994.568 270.043C1034.24 267.905 1045.19 245.211 1047.83 237.255C1013.19 249.566 984.765 248.803 966.839 245.912C953.018 243.686 943.32 239.98 938.471 237.798Z" fill="black"/>
<path d="M898.739 251.372L884.84 255.396L903.493 319.965L917.392 315.941L898.739 251.372Z" fill="#FEE900" stroke="black" stroke-width="3.4" stroke-linecap="round" stroke-linejoin="round"/>
<path d="M877.648 206.456C875.924 210.057 873.123 217.838 874.567 228.151L871.635 229.728L864.65 223.866C864.65 223.866 858.339 219.354 860.816 225.899C863.294 232.444 870.506 241.688 880.195 242.819L879.749 245.298C879.749 245.298 871.635 241.242 877.272 251.616C882.909 261.99 893.491 259.055 893.491 259.055C893.491 259.055 908.808 255.673 902.725 237.176L897.543 241.014L896.195 238.078C896.195 238.078 907.46 229.956 903.854 211.012C903.854 211.012 901.377 209.207 900.02 213.947C898.664 218.688 896.642 222.289 896.642 222.289L893.937 222.736C893.937 222.736 886.567 210.162 881.219 205.685C880.064 204.721 878.296 205.089 877.639 206.456H877.648Z" fill="#FEE900" stroke="black" stroke-width="3" stroke-linecap="round" stroke-linejoin="round"/>
<path d="M881.893 198.263L887.976 199.612C887.976 199.612 888.125 193.645 895.863 192.059C904.09 190.368 906.34 180.327 903.521 174.018C899.355 164.669 907.46 165.221 910.165 164.546L909.491 156.765C909.491 156.765 894.821 158.185 894.453 169.024C894.401 170.531 894.707 172.029 895.197 173.449C896.169 176.261 897.937 183.078 893.149 185.295C887.066 188.116 881.543 191.043 881.884 198.263H881.893Z" fill="#EE87B3" stroke="black" stroke-width="3" stroke-linecap="round" stroke-linejoin="round"/>
<path d="M870.847 159.131L866.453 154.058C866.453 154.058 851.617 164.266 860.921 173.291C861.779 174.123 862.786 174.798 863.836 175.367C866.576 176.857 870.952 180.783 867.355 185.067C861.779 191.7 871.749 197.588 871.749 197.588L877.491 193.645C877.491 193.645 872.755 190.491 875.013 186.767C877.272 183.043 879.294 175.148 868.37 169.4C868.37 169.4 860.037 166.807 870.847 159.14V159.131Z" fill="#56C1EF" stroke="black" stroke-width="3" stroke-linecap="round" stroke-linejoin="round"/>
<path d="M848.099 176.726L843.591 172.099C843.591 172.099 831.284 187.065 844.265 193.207C845.438 193.759 846.733 194.031 848.029 194.092C850.541 194.206 855.311 194.96 855.276 199.087C855.267 200.585 855.477 202.101 856.177 203.433C857.578 206.105 860.93 208.988 868.93 206.386L867.687 200.068C867.687 200.068 861.832 203.003 861.49 197.247C861.49 197.247 862.051 187.889 849.438 186.758C849.438 186.758 840.877 186.758 848.09 176.726H848.099Z" fill="#FDE000" stroke="black" stroke-width="3" stroke-linecap="round" stroke-linejoin="round"/>
<path d="M1030.99 158.176C1030.99 158.176 1034.24 142.842 1044.68 130.505C1044.68 130.505 1043.56 126.983 1033.47 129.156C1023.4 131.329 1020.23 132.783 1019.74 133.476C1019.25 134.168 1021.33 140.871 1021.33 140.871L1015.13 142.755C1015.13 142.755 1009.38 120.762 989.631 110.878C970.533 121.962 966.148 144.262 966.148 144.262L959.846 142.763C959.846 142.763 961.491 135.947 960.966 135.281C960.441 134.623 957.185 133.37 946.997 131.82C936.808 130.269 935.898 133.852 935.898 133.852C947.075 145.524 951.259 160.63 951.259 160.63C951.277 160.63 951.285 160.63 951.303 160.63C951.285 160.717 951.268 160.814 951.268 160.901C951.373 164.389 969.307 166.658 991.321 165.983C991.321 165.983 991.329 165.983 991.338 165.983C1013.36 165.309 1031.13 161.926 1031.01 158.439C1031.01 158.343 1030.99 158.255 1030.96 158.159C1030.96 158.159 1030.97 158.159 1030.98 158.159L1030.99 158.176Z" fill="#FEE900" stroke="black" stroke-width="3" stroke-linecap="round" stroke-linejoin="round"/>
<path d="M886.76 292.106C886.76 292.106 882.086 279.909 891.425 276.912C899.915 274.187 899.994 279.664 899.994 279.664C899.994 279.664 900.983 284.378 891.994 286.183C891.994 286.183 901.596 282.38 902.252 287.436C902.252 287.436 902.856 291.948 894.76 294.077C894.76 294.077 903.171 291.23 903.679 295.611C904.187 299.992 895.6 301.49 895.6 301.49C895.6 301.49 890.471 304.207 886.768 292.106H886.76Z" fill="#F37448"/>
<path d="M897.552 302.34C896.843 302.533 896.274 302.647 895.968 302.708C895.434 302.919 894.051 303.33 892.3 302.603C889.534 301.455 887.259 298.056 885.561 292.518C885.316 291.869 883.014 285.394 885.386 280.444C886.48 278.148 888.388 276.553 891.04 275.703C894.672 274.538 897.438 274.617 899.268 275.931C900.756 277 901.211 278.647 901.254 279.532C901.316 279.997 901.412 281.434 900.353 283.037C900.213 283.256 900.055 283.466 899.88 283.668C900.502 283.782 901.088 283.975 901.596 284.273C902.672 284.903 903.329 285.937 903.504 287.252C903.521 287.401 903.793 289.749 901.473 292.027C902.121 292.15 902.725 292.36 903.241 292.684C904.213 293.298 904.791 294.253 904.931 295.444C905.403 299.598 900.379 301.552 897.552 302.323V302.34ZM895.285 300.264C895.285 300.264 895.346 300.246 895.373 300.246C897.289 299.904 902.707 298.353 902.41 295.76C902.357 295.33 902.2 295.059 901.885 294.849C900.764 294.13 898.226 294.454 896.309 294.945C895.915 295.076 895.504 295.19 895.075 295.304C894.418 295.479 893.736 295.094 893.543 294.445C893.351 293.788 893.701 293.096 894.348 292.877C894.497 292.824 894.944 292.676 895.583 292.518C901.193 290.678 901.001 287.716 900.992 287.585C900.904 286.91 900.58 286.638 900.309 286.481C899.373 285.929 897.648 286.016 895.933 286.358C894.856 286.796 893.622 287.155 892.23 287.436C891.591 287.567 890.952 287.182 890.769 286.551C890.585 285.92 890.909 285.254 891.513 285.009C891.836 284.886 893.342 284.308 895.197 283.913C899.049 282.266 898.751 280.014 898.725 279.9C898.716 279.839 898.707 279.743 898.707 279.681C898.707 279.655 898.655 278.612 897.745 277.981C896.957 277.429 895.303 277.009 891.793 278.13C889.797 278.77 888.449 279.892 887.653 281.548C885.674 285.675 887.906 291.598 887.924 291.659C887.933 291.685 887.941 291.712 887.95 291.747C889.858 297.959 892.038 299.729 893.176 300.237C894.235 300.71 894.979 300.377 895.014 300.36C895.084 300.325 895.18 300.29 895.267 300.264H895.285Z" fill="black"/>
<path d="M1049.84 101.616V126.878" stroke="#EA5641" stroke-width="3" stroke-linecap="round" stroke-linejoin="round"/>
<path d="M1037.68 114.47L1061.79 114.917" stroke="#EA5641" stroke-width="3" stroke-linecap="round" stroke-linejoin="round"/>
<path d="M1042.18 106.576L1056.61 121.909" stroke="#EA5641" stroke-width="3" stroke-linecap="round" stroke-linejoin="round"/>
<path d="M1057.05 107.25L1042.86 121.463" stroke="#EA5641" stroke-width="3" stroke-linecap="round" stroke-linejoin="round"/>
<path d="M912.047 81.3143V101.143" stroke="#9D66A7" stroke-width="3" stroke-miterlimit="10" stroke-linecap="round"/>
<path d="M902.497 91.4083L921.421 91.7588" stroke="#9D66A7" stroke-width="3" stroke-miterlimit="10" stroke-linecap="round"/>
<path d="M906.033 85.2135L917.351 97.2527" stroke="#9D66A7" stroke-width="3" stroke-miterlimit="10" stroke-linecap="round"/>
<path d="M917.71 85.7393L906.567 96.8935" stroke="#9D66A7" stroke-width="3" stroke-miterlimit="10" stroke-linecap="round"/>
<path d="M880.773 109.572V125.502" stroke="#EE87B3" stroke-width="2.41" stroke-linecap="round" stroke-linejoin="round"/>
<path d="M873.097 117.677L888.3 117.967" stroke="#EE87B3" stroke-width="2.41" stroke-linecap="round" stroke-linejoin="round"/>
<path d="M875.941 112.7L885.035 122.374" stroke="#EE87B3" stroke-width="2.41" stroke-linecap="round" stroke-linejoin="round"/>
<path d="M885.315 113.13L876.361 122.093" stroke="#EE87B3" stroke-width="2.41" stroke-linecap="round" stroke-linejoin="round"/>
<path d="M1099.86 116.503L1095.8 126.422L1106.17 130.479L1110 120.332L1099.86 116.503Z" fill="#5BC2EF"/>
<path d="M1075.3 141.537L1072.83 148.529L1080.49 151.236L1082.74 144.463L1075.3 141.537Z" fill="#35B28D"/>
</g>
<path d="M645.24 81V76.7898L655.077 67.6811C655.914 66.8714 656.616 66.1428 657.183 65.495C657.758 64.8473 658.195 64.2131 658.491 63.5923C658.788 62.9626 658.937 62.2834 658.937 61.5547C658.937 60.745 658.752 60.0478 658.384 59.4631C658.015 58.8693 657.511 58.415 656.872 58.1001C656.233 57.7763 655.509 57.6143 654.7 57.6143C653.854 57.6143 653.116 57.7853 652.487 58.1271C651.857 58.469 651.371 58.9593 651.029 59.598C650.687 60.2367 650.516 60.9969 650.516 61.8785H644.97C644.97 60.0703 645.379 58.5005 646.198 57.169C647.017 55.8376 648.164 54.8075 649.639 54.0788C651.115 53.3501 652.815 52.9858 654.74 52.9858C656.719 52.9858 658.442 53.3366 659.908 54.0384C661.384 54.7311 662.531 55.6937 663.349 56.9261C664.168 58.1586 664.577 59.571 664.577 61.1634C664.577 62.2069 664.371 63.237 663.957 64.2536C663.552 65.2701 662.828 66.3991 661.784 67.6406C660.741 68.8731 659.27 70.353 657.371 72.0803L653.337 76.0341V76.223H664.942V81H645.24ZM678.112 81.6072C675.791 81.5982 673.793 81.027 672.12 79.8935C670.456 78.7599 669.174 77.1181 668.274 74.968C667.384 72.8179 666.943 70.2315 666.952 67.2088C666.952 64.1951 667.397 61.6267 668.288 59.5035C669.187 57.3804 670.469 55.7656 672.134 54.6591C673.807 53.5436 675.8 52.9858 678.112 52.9858C680.424 52.9858 682.412 53.5436 684.076 54.6591C685.749 55.7746 687.036 57.3939 687.935 59.517C688.835 61.6312 689.28 64.1951 689.271 67.2088C689.271 70.2405 688.822 72.8314 687.922 74.9815C687.031 77.1316 685.754 78.7734 684.09 79.907C682.425 81.0405 680.433 81.6072 678.112 81.6072ZM678.112 76.7628C679.695 76.7628 680.959 75.9666 681.903 74.3743C682.848 72.782 683.316 70.3935 683.307 67.2088C683.307 65.1127 683.091 63.3674 682.659 61.973C682.236 60.5786 681.634 59.5305 680.851 58.8288C680.077 58.1271 679.164 57.7763 678.112 57.7763C676.537 57.7763 675.278 58.5634 674.333 60.1378C673.389 61.7121 672.912 64.0691 672.903 67.2088C672.903 69.3319 673.114 71.1042 673.537 72.5256C673.969 73.938 674.576 74.9995 675.359 75.7102C676.141 76.4119 677.059 76.7628 678.112 76.7628ZM691.538 81V76.7898L701.375 67.6811C702.212 66.8714 702.913 66.1428 703.48 65.495C704.056 64.8473 704.492 64.2131 704.789 63.5923C705.086 62.9626 705.234 62.2834 705.234 61.5547C705.234 60.745 705.05 60.0478 704.681 59.4631C704.312 58.8693 703.809 58.415 703.17 58.1001C702.531 57.7763 701.807 57.6143 700.997 57.6143C700.152 57.6143 699.414 57.7853 698.784 58.1271C698.154 58.469 697.669 58.9593 697.327 59.598C696.985 60.2367 696.814 60.9969 696.814 61.8785H691.268C691.268 60.0703 691.677 58.5005 692.496 57.169C693.314 55.8376 694.461 54.8075 695.937 54.0788C697.412 53.3501 699.113 52.9858 701.038 52.9858C703.017 52.9858 704.74 53.3366 706.206 54.0384C707.681 54.7311 708.828 55.6937 709.647 56.9261C710.466 58.1586 710.875 59.571 710.875 61.1634C710.875 62.2069 710.668 63.237 710.254 64.2536C709.85 65.2701 709.125 66.3991 708.082 67.6406C707.038 68.8731 705.567 70.353 703.669 72.0803L699.634 76.0341V76.223H711.239V81H691.538ZM712.561 76.142V71.5405L724.099 53.3636H728.066V59.733H725.718L718.445 71.2436V71.4595H734.84V76.142H712.561ZM725.826 81V74.7386L725.934 72.701V53.3636H731.413V81H725.826ZM753.23 73.02C755.586 73.02 757.296 71.424 757.296 68.726C757.296 66.104 755.586 64.47 753.23 64.47C750.874 64.47 749.126 66.104 749.126 68.764C749.126 71.424 750.874 73.02 753.23 73.02ZM753.23 60.404C758.284 60.404 762.046 63.862 762.046 68.726C762.046 73.666 758.284 77.124 753.23 77.124C748.138 77.124 744.338 73.666 744.338 68.726C744.338 63.862 748.138 60.404 753.23 60.404ZM755.7 49.878V54.438H763.3V58.428H742.932V54.438H750.684V49.878H755.7ZM775.612 62.95V67.092H770.596V84.268H765.58V49.27H770.596V62.95H775.612ZM789.023 65.61V60.632H782.145V65.61H789.023ZM793.963 51.778V69.562H777.205V51.778H782.145V56.756H789.023V51.778H793.963ZM786.173 72.488V79.67H804.983V83.66H781.157V72.488H786.173ZM803.729 59.15H808.365V63.254H803.729V75.034H798.713V49.27H803.729V59.15ZM811.174 52.88H827.97C827.97 63.596 824.36 72.336 811.934 78.34L809.312 74.388C818.242 70.094 822.118 64.622 822.84 56.87H811.174V52.88ZM833.328 49.232H838.382V84.23H833.328V49.232Z" fill="#967349"/>
<path d="M1294 12L1300.66 21.4098L1309.53 14.0439L1313.53 24.8577L1324 20.039L1325.06 31.5172L1336.43 29.5742L1334.48 40.9368L1345.96 42L1341.14 52.4729L1351.95 56.4709L1344.59 65.3404L1354 72L1344.59 78.6608L1351.95 87.5291L1341.14 91.5271L1345.96 102L1334.48 103.063L1336.43 114.427L1325.06 112.483L1324 123.962L1313.53 119.144L1309.53 129.956L1300.66 122.591L1294 132L1287.34 122.591L1278.47 129.956L1274.47 119.144L1264 123.962L1262.94 112.483L1251.57 114.427L1253.52 103.063L1242.04 102L1246.86 91.5271L1236.04 87.5291L1243.41 78.6608L1234 72L1243.41 65.3404L1236.04 56.4709L1246.86 52.4729L1242.04 42L1253.52 40.9368L1251.57 29.5742L1262.94 31.5172L1264 20.039L1274.47 24.8577L1278.47 14.0439L1287.34 21.4098L1294 12Z" fill="#EF8633"/>
<path d="M1287.64 50.62L1286.86 48.66C1290.8 48.42 1292.6 47.28 1292.94 46.02H1287.74V43.96H1293.14V42.34H1295.78V43.96H1301.2V46.02H1296C1296.34 47.28 1298.14 48.42 1302.08 48.66L1301.3 50.62C1297.92 50.38 1295.62 49.44 1294.48 47.98C1293.32 49.44 1291.02 50.38 1287.64 50.62ZM1294.44 58.78C1296.94 58.78 1298.16 58.42 1298.16 57.6C1298.16 56.76 1296.94 56.42 1294.44 56.42C1291.94 56.42 1290.72 56.76 1290.72 57.6C1290.72 58.42 1291.94 58.78 1294.44 58.78ZM1294.44 54.48C1298.46 54.48 1300.84 55.58 1300.84 57.6C1300.84 59.62 1298.46 60.72 1294.44 60.72C1290.42 60.72 1288.06 59.62 1288.06 57.6C1288.06 55.58 1290.42 54.48 1294.44 54.48ZM1295.78 51.54H1302.8V53.6H1286.16V51.54H1293.14V49.78H1295.78V51.54ZM1319.28 70.02V65.72H1315.78V70.02H1319.28ZM1325.18 67.06H1321.86V68.64H1325.18V67.06ZM1321.86 70.74V72.1H1313.18V63.62H1321.86V64.96H1325.18V62.3H1327.82V73.1H1325.18V70.74H1321.86ZM1321.58 78.7C1324 78.7 1325.26 78.2 1325.26 77.14C1325.26 76.08 1324 75.58 1321.58 75.58C1319.18 75.58 1317.92 76.08 1317.92 77.14C1317.92 78.2 1319.18 78.7 1321.58 78.7ZM1321.58 73.56C1325.5 73.56 1327.9 74.88 1327.9 77.14C1327.9 79.4 1325.5 80.72 1321.58 80.72C1317.68 80.72 1315.28 79.4 1315.28 77.14C1315.28 74.88 1317.68 73.56 1321.58 73.56ZM1293.02 88.84L1292.02 90.96C1288.8 90.48 1286.5 88.98 1285.32 87C1284.14 88.98 1281.82 90.48 1278.6 90.96L1277.6 88.84C1281.8 88.26 1283.9 85.88 1283.9 83.72V82.84H1286.72V83.72C1286.72 85.86 1288.84 88.26 1293.02 88.84ZM1293.62 92.32V94.46H1286.56V100.74H1283.92V94.46H1276.98V92.32H1293.62ZM1306.22 90.46L1304.84 92.5C1302.9 91.86 1301.56 90.62 1300.78 89.06C1299.98 90.86 1298.56 92.28 1296.46 93.02L1295.08 90.94C1298.16 89.92 1299.4 87.46 1299.4 84.96V83.3H1302.08V85.18C1302.08 87.4 1303.32 89.56 1306.22 90.46ZM1303.84 98.68C1306.18 98.68 1307.44 98.2 1307.44 97.16C1307.44 96.14 1306.18 95.66 1303.84 95.66C1301.48 95.66 1300.22 96.14 1300.22 97.16C1300.22 98.2 1301.48 98.68 1303.84 98.68ZM1303.84 93.62C1307.66 93.62 1310.06 94.94 1310.06 97.16C1310.06 99.4 1307.66 100.72 1303.84 100.72C1300 100.72 1297.6 99.4 1297.6 97.16C1297.6 94.94 1300 93.62 1303.84 93.62ZM1309.86 86.58H1312.3V88.76H1309.86V93.2H1307.22V82.32H1309.86V86.58Z" fill="white"/>
<path d="M1265.53 79.1989C1264.53 79.1989 1263.63 79.0142 1262.85 78.6449C1262.07 78.2756 1261.45 77.7666 1260.99 77.1179C1260.53 76.4692 1260.29 75.7259 1260.27 74.8878H1263.25C1263.29 75.4512 1263.52 75.9081 1263.96 76.2585C1264.4 76.6089 1264.93 76.7841 1265.53 76.7841C1266.02 76.7841 1266.44 76.6776 1266.81 76.4645C1267.18 76.2467 1267.48 75.946 1267.68 75.5625C1267.9 75.1742 1268 74.7292 1268 74.2273C1268 73.7159 1267.9 73.2661 1267.68 72.8778C1267.46 72.4896 1267.17 72.1866 1266.79 71.9688C1266.41 71.7509 1265.98 71.6397 1265.49 71.6349C1265.06 71.6349 1264.65 71.7225 1264.25 71.8977C1263.85 72.0729 1263.54 72.312 1263.32 72.6151L1260.58 72.125L1261.27 64.4545H1270.16V66.9688H1263.81L1263.43 70.6122H1263.52C1263.77 70.2524 1264.16 69.9541 1264.67 69.7173C1265.19 69.4806 1265.77 69.3622 1266.41 69.3622C1267.28 69.3622 1268.06 69.5682 1268.75 69.9801C1269.44 70.392 1269.98 70.9579 1270.38 71.6776C1270.77 72.3925 1270.97 73.2164 1270.97 74.1491C1270.97 75.1293 1270.74 76.0005 1270.28 76.7628C1269.83 77.5204 1269.19 78.117 1268.37 78.5526C1267.56 78.9834 1266.61 79.1989 1265.53 79.1989ZM1272.89 76.4432V74.0213L1278.96 64.4545H1281.05V67.8068H1279.82L1275.99 73.8651V73.9787H1284.62V76.4432H1272.89ZM1279.87 79V75.7045L1279.93 74.6321V64.4545H1282.81V79H1279.87ZM1292.04 79.1989C1290.98 79.1989 1290.04 79.0166 1289.21 78.652C1288.38 78.2827 1287.73 77.776 1287.25 77.1321C1286.78 76.4834 1286.54 75.7353 1286.52 74.8878H1289.62C1289.64 75.2429 1289.75 75.5554 1289.97 75.8253C1290.19 76.0904 1290.47 76.2964 1290.83 76.4432C1291.19 76.59 1291.6 76.6634 1292.05 76.6634C1292.52 76.6634 1292.93 76.5805 1293.29 76.4148C1293.65 76.2491 1293.93 76.0194 1294.14 75.7259C1294.34 75.4323 1294.44 75.0937 1294.44 74.7102C1294.44 74.322 1294.33 73.9787 1294.12 73.6804C1293.9 73.3774 1293.59 73.1406 1293.19 72.9702C1292.79 72.7997 1292.32 72.7145 1291.77 72.7145H1290.42V70.456H1291.77C1292.24 70.456 1292.65 70.3755 1293 70.2145C1293.36 70.0535 1293.64 69.831 1293.84 69.5469C1294.04 69.258 1294.14 68.9219 1294.14 68.5384C1294.14 68.1738 1294.05 67.8542 1293.87 67.5795C1293.7 67.3002 1293.46 67.0824 1293.15 66.9261C1292.84 66.7699 1292.48 66.6918 1292.07 66.6918C1291.65 66.6918 1291.27 66.7675 1290.93 66.919C1290.58 67.0658 1290.3 67.2765 1290.1 67.5511C1289.89 67.8258 1289.78 68.1477 1289.76 68.517H1286.81C1286.83 67.679 1287.07 66.9403 1287.53 66.3011C1288 65.6619 1288.62 65.1624 1289.41 64.8026C1290.2 64.438 1291.09 64.2557 1292.08 64.2557C1293.09 64.2557 1293.97 64.438 1294.72 64.8026C1295.47 65.1671 1296.06 65.6596 1296.47 66.2798C1296.89 66.8954 1297.1 67.5866 1297.1 68.3537C1297.1 69.1681 1296.85 69.8475 1296.34 70.392C1295.83 70.9366 1295.17 71.2822 1294.36 71.429V71.5426C1295.43 71.6799 1296.24 72.0516 1296.8 72.6577C1297.36 73.259 1297.64 74.0118 1297.64 74.9162C1297.64 75.7448 1297.4 76.4811 1296.92 77.125C1296.44 77.7689 1295.78 78.2756 1294.94 78.6449C1294.1 79.0142 1293.13 79.1989 1292.04 79.1989ZM1305.16 79.1989C1304.16 79.1989 1303.26 79.0142 1302.48 78.6449C1301.7 78.2756 1301.08 77.7666 1300.62 77.1179C1300.16 76.4692 1299.92 75.7259 1299.9 74.8878H1302.88C1302.91 75.4512 1303.15 75.9081 1303.59 76.2585C1304.03 76.6089 1304.56 76.7841 1305.16 76.7841C1305.64 76.7841 1306.07 76.6776 1306.44 76.4645C1306.81 76.2467 1307.11 75.946 1307.31 75.5625C1307.53 75.1742 1307.63 74.7292 1307.63 74.2273C1307.63 73.7159 1307.52 73.2661 1307.31 72.8778C1307.09 72.4896 1306.8 72.1866 1306.42 71.9688C1306.04 71.7509 1305.61 71.6397 1305.12 71.6349C1304.69 71.6349 1304.28 71.7225 1303.88 71.8977C1303.48 72.0729 1303.17 72.312 1302.95 72.6151L1300.21 72.125L1300.9 64.4545H1309.79V66.9688H1303.44L1303.06 70.6122H1303.14C1303.4 70.2524 1303.79 69.9541 1304.3 69.7173C1304.82 69.4806 1305.4 69.3622 1306.03 69.3622C1306.91 69.3622 1307.69 69.5682 1308.38 69.9801C1309.07 70.392 1309.61 70.9579 1310.01 71.6776C1310.4 72.3925 1310.6 73.2164 1310.59 74.1491C1310.6 75.1293 1310.37 76.0005 1309.91 76.7628C1309.46 77.5204 1308.82 78.117 1308 78.5526C1307.19 78.9834 1306.24 79.1989 1305.16 79.1989Z" fill="#F6E946"/>
<defs>
<clipPath id="clip0_348_17140">
<rect width="2000" height="400" fill="white"/>
</clipPath>
<clipPath id="clip1_348_17140">
<rect width="273" height="240" fill="white" transform="translate(837 80)"/>
</clipPath>
</defs>
</svg>
