<svg width="190" height="191" viewBox="0 0 190 191" fill="none" xmlns="http://www.w3.org/2000/svg">
<path d="M97.7749 41C95.5655 41 93.7749 42.5651 93.7749 44.4964C93.7749 46.4277 95.5655 48 97.7749 48C99.9843 48 101.775 46.4349 101.775 44.4964C101.775 42.5579 99.9843 41 97.7749 41Z" fill="white"/>
<path d="M137.775 40C135.565 40 133.775 41.7905 133.775 44C133.775 46.2095 135.565 48 137.775 48C139.984 48 141.775 46.2095 141.775 44C141.775 41.7905 139.984 40 137.775 40Z" fill="white"/>
<path d="M173.988 0H87.5616C78.8431 0 71.7749 7.03922 71.7749 15.722V66.8062C71.7749 75.489 78.8431 82.5282 87.5616 82.5282H118.085L128.47 106.892C128.47 106.892 129.187 109 130.912 109C132.646 109 133.355 106.892 133.355 106.892L143.74 82.5282H173.988C182.707 82.5282 189.775 75.489 189.775 66.8062V15.722C189.775 7.03922 182.707 0 173.988 0ZM108.841 45.1573C108.791 54.4958 99.0974 54.7615 99.0974 54.7615C95.3466 54.7615 93.2294 52.2878 93.2294 52.2878V53.9729H86.1696V24.9693C86.1696 24.9693 86.1363 24.961 86.1696 24.9527V24.9693C86.6114 25.0357 93.2294 24.9527 93.2294 24.9527V36.0428C94.8881 33.2205 99.6891 33.2703 99.6891 33.2703C110.141 34.2415 108.833 45.1573 108.833 45.1573H108.841ZM121.277 34.1668V54.0227H114.367V34.366C114.367 31.6931 111.033 30.946 111.033 30.946V24.0147C122.069 24.4629 121.277 34.1668 121.277 34.1668ZM137.656 54.7781C131.254 54.7781 126.07 50.0216 126.07 44.1611C126.07 38.3007 131.254 33.5442 137.656 33.5442C144.057 33.5442 149.241 38.3007 149.241 44.1611C149.241 50.0216 144.057 54.7781 137.656 54.7781ZM175.514 54.7781C175.514 54.7781 175.614 64.8638 165.32 64.8638H162.186V58.3309H164.078C164.078 58.3309 168.404 58.7293 168.354 52.0886C168.354 52.0886 167.512 54.7781 161.444 54.7781C161.444 54.7781 152.842 54.1638 152.842 45.8047V42.6338C152.842 42.6338 153.042 33.9676 162.486 33.2786C162.486 33.2786 166.212 32.8801 168.504 35.9515V33.8264H175.514V54.7864V54.7781Z" fill="white"/>
<path d="M164.775 40C162.568 40 160.775 41.7934 160.775 44C160.775 46.2066 162.568 48 164.775 48C166.982 48 168.775 46.2066 168.775 44C168.775 41.7934 166.982 40 164.775 40Z" fill="white"/>
<ellipse cx="88.2749" cy="183.5" rx="35.5" ry="7.5" fill="black" fill-opacity="0.2"/>
<path d="M87.9048 148.98L100.895 169.26C100.895 169.26 96.7648 174.97 101.015 178.73C105.265 182.49 116.675 176.67 113.645 167.32C110.605 157.97 94.5848 139.39 94.5848 139.39L87.9048 148.98Z" fill="#F0514F"/>
<path d="M104.475 180.62C102.945 180.62 101.565 180.17 100.535 179.27C97.0047 176.14 98.5347 171.57 100.025 169.24L87.2947 149.37C87.1347 149.12 87.1447 148.8 87.3147 148.56L93.9947 138.97C94.1247 138.79 94.3347 138.67 94.5547 138.66C94.7747 138.65 94.9947 138.74 95.1447 138.91C95.8047 139.67 111.305 157.71 114.355 167.09C116.115 172.52 113.315 176.71 110.095 178.81C108.255 180.01 106.275 180.62 104.485 180.62H104.475ZM88.7847 148.99L101.515 168.86C101.675 169.11 101.665 169.44 101.495 169.68C101.345 169.89 97.8047 174.9 101.505 178.18C103.195 179.68 106.475 179.43 109.285 177.59C110.625 176.71 114.855 173.39 112.955 167.54C110.335 159.46 97.5947 144.07 94.6447 140.58L88.7847 149V148.99Z" fill="black"/>
<path d="M64.9546 155.22L76.2146 176.51C76.2146 176.51 71.6246 181.85 75.5446 185.96C79.4646 190.06 91.3246 185.21 89.0746 175.64C86.8246 166.07 72.4046 146.22 72.4046 146.22L64.9546 155.22Z" fill="#F0514F"/>
<path d="M79.5147 188.16C77.7147 188.16 76.1047 187.59 75.0247 186.46C71.7647 183.05 73.6647 178.62 75.3547 176.42L64.3147 155.56C64.1747 155.3 64.2047 154.98 64.3947 154.75L71.8447 145.75C71.9847 145.58 72.2047 145.48 72.4247 145.49C72.6447 145.49 72.8547 145.61 72.9947 145.79C73.5847 146.61 87.5347 165.87 89.7847 175.47C91.0847 181.03 87.9447 184.97 84.5647 186.8C82.8747 187.71 81.1147 188.17 79.5047 188.17L79.5147 188.16ZM65.8247 155.31L76.8547 176.17C76.9947 176.43 76.9547 176.76 76.7647 176.98C76.5947 177.18 72.6547 181.88 76.0747 185.45C77.6447 187.09 80.9147 187.11 83.8747 185.51C85.2847 184.75 89.7747 181.79 88.3747 175.8C86.4347 167.53 75.0147 151.14 72.3647 147.41L65.8247 155.31Z" fill="black"/>
<path d="M8.39502 121.08L51.715 134.58L52.215 119.3L10.445 111.42L8.39502 121.08Z" fill="black"/>
<path d="M51.7148 135.31C51.6448 135.31 51.5648 135.3 51.4948 135.28L8.18478 121.78C7.82478 121.67 7.61478 121.3 7.68478 120.93L9.73478 111.27C9.81478 110.88 10.1948 110.63 10.5848 110.71L52.3448 118.59C52.6948 118.66 52.9448 118.97 52.9348 119.33L52.4348 134.61C52.4348 134.84 52.3148 135.05 52.1248 135.18C52.0048 135.27 51.8548 135.31 51.7048 135.31H51.7148ZM9.24478 120.58L51.0148 133.59L51.4648 119.89L11.0148 112.26L9.24478 120.58Z" fill="black"/>
<path d="M10.8447 111.95C10.8447 111.95 5.95473 107.93 4.79473 109.71C4.79473 109.71 3.61473 110.72 6.46473 112.47C6.46473 112.47 2.83473 110.47 2.13473 112.29C1.43473 114.11 5.48473 114.93 5.48473 114.93C5.48473 114.93 1.83473 113.76 1.53473 115.18C1.23473 116.6 4.15473 117.28 4.88473 117.48C4.88473 117.48 2.25473 116.96 1.95473 118.27C1.65473 119.58 4.03473 120.87 8.91473 120.9L10.8547 111.96L10.8447 111.95Z" fill="#F4B6B3"/>
<path d="M8.90493 121.62C5.25493 121.6 2.60493 120.88 1.61493 119.63C1.24493 119.16 1.11493 118.63 1.23493 118.1C1.33493 117.65 1.58493 117.33 1.89493 117.11C1.15493 116.63 0.614932 115.96 0.814932 115.03C0.904932 114.61 1.15493 114.28 1.53493 114.06C1.61493 114.01 1.70493 113.97 1.79493 113.94C1.70493 113.83 1.61493 113.71 1.55493 113.59C1.28493 113.1 1.25493 112.57 1.45493 112.04C1.65493 111.52 2.03493 111.14 2.55493 110.95C2.96493 110.8 3.42493 110.78 3.90493 110.84C3.86493 110.71 3.84493 110.58 3.83493 110.45C3.79493 109.92 4.01493 109.49 4.24493 109.25C4.51493 108.88 4.91493 108.64 5.39493 108.57C7.37493 108.26 10.6749 110.88 11.3149 111.4C11.5249 111.57 11.6249 111.85 11.5649 112.12L9.62493 121.06C9.55493 121.4 9.25493 121.63 8.91493 121.63L8.90493 121.62ZM3.78493 118.11C3.20493 118.11 2.70493 118.22 2.65493 118.44C2.65493 118.48 2.62493 118.57 2.75493 118.74C3.24493 119.35 4.98493 120.07 8.31493 120.16L10.0249 112.24C8.61493 111.15 6.50493 109.85 5.59493 109.99C5.46493 110.01 5.41493 110.06 5.38493 110.1C5.32493 110.19 5.34493 110.2 5.25493 110.25C5.25493 110.25 5.25493 110.28 5.25493 110.34C5.27493 110.48 5.46493 111.01 6.81493 111.84C7.15493 112.05 7.26493 112.48 7.06493 112.83C6.86493 113.17 6.43493 113.29 6.08493 113.1C5.21493 112.62 3.69493 112.06 3.02493 112.3C2.89493 112.35 2.83493 112.41 2.78493 112.54C2.72493 112.69 2.75493 112.78 2.80493 112.87C3.03493 113.3 3.89493 113.7 4.70493 113.97C5.16493 114.07 5.52493 114.18 5.68493 114.23C6.05493 114.35 6.26493 114.73 6.16493 115.11C6.06493 115.48 5.69493 115.72 5.31493 115.64C5.14493 115.61 4.75493 115.52 4.27493 115.37C3.24493 115.16 2.38493 115.15 2.21493 115.33C2.20493 115.4 2.15493 116.02 4.91493 116.74L5.04493 116.77C5.42493 116.87 5.65493 117.25 5.56493 117.64C5.47493 118.02 5.09493 118.27 4.71493 118.19C4.40493 118.13 4.06493 118.1 3.75493 118.1L3.78493 118.11Z" fill="black"/>
<path d="M77.3452 111.58C77.3452 111.58 94.8352 103.57 105.395 88.63C105.395 88.63 91.0052 48.38 47.4752 53.11C3.93517 57.85 18.1452 95.73 18.1452 95.73C18.1452 95.73 21.7852 109.94 42.3652 117.04L48.1952 158.93C48.1952 158.93 86.8052 173.5 111.575 135.25C111.575 135.25 82.9752 120.5 77.3352 111.57L77.3452 111.58Z" fill="black"/>
<path d="M65.5651 162.39C55.4251 162.39 48.2851 159.75 47.9451 159.62C47.6951 159.53 47.5151 159.3 47.4851 159.04L41.7151 117.59C21.7051 110.51 17.7251 96.96 17.4551 95.96C17.0651 94.9 11.5551 79.39 19.2451 66.91C24.2551 58.76 33.7251 53.87 47.3951 52.39C70.1751 49.91 84.9251 59.83 93.2851 68.59C102.325 78.06 105.935 87.97 106.075 88.38C106.155 88.6 106.125 88.85 105.985 89.05C96.6951 102.18 81.9451 110.1 78.4151 111.86C84.8451 120.58 111.635 134.46 111.915 134.61C112.095 134.7 112.235 134.87 112.285 135.07C112.335 135.27 112.305 135.48 112.195 135.65C99.2351 155.65 82.4651 161.11 70.6651 162.16C68.8951 162.32 67.1951 162.39 65.5651 162.39ZM48.8551 158.39C50.8051 159.04 59.5851 161.7 70.5951 160.7C81.9151 159.68 97.9751 154.46 110.535 135.52C105.965 133.12 81.9751 120.26 76.7251 111.96C76.6151 111.78 76.5851 111.56 76.6451 111.36C76.7051 111.16 76.8451 110.99 77.0351 110.9C77.2051 110.82 94.2251 102.9 104.565 88.51C103.835 86.66 100.095 77.82 92.1851 69.54C84.0651 61.05 69.7051 51.42 47.5451 53.83C34.3551 55.27 25.2451 59.92 20.4751 67.65C13.0551 79.69 18.7651 95.31 18.8251 95.47C18.8251 95.49 18.8451 95.52 18.8451 95.54C18.8451 95.57 19.7851 99.05 23.1551 103.33C26.2751 107.28 32.1751 112.75 42.5951 116.34C42.8551 116.43 43.0451 116.66 43.0751 116.93L48.8451 158.38L48.8551 158.39Z" fill="black"/>
<path d="M109.105 101C109.105 101 112.245 96.52 113.625 97.73C113.625 97.73 114.845 98.29 112.875 100.42C112.875 100.42 115.435 97.91 116.445 99.27C117.455 100.63 114.265 102.25 114.265 102.25C114.265 102.25 117.035 100.43 117.615 101.54C118.195 102.65 115.915 103.9 115.355 104.23C115.355 104.23 117.425 103.19 117.985 104.2C118.545 105.21 116.855 106.85 112.795 108L109.105 101Z" fill="#F4B6B3"/>
<path d="M112.785 108.66C112.545 108.66 112.325 108.53 112.205 108.31L108.515 101.31C108.405 101.09 108.415 100.83 108.555 100.63C108.965 100.04 111.115 97.09 112.845 96.89C113.275 96.84 113.665 96.94 113.985 97.2C114.235 97.35 114.525 97.66 114.615 98.12C114.635 98.22 114.645 98.32 114.645 98.43C115.015 98.28 115.395 98.2 115.765 98.23C116.255 98.27 116.665 98.5 116.955 98.89C117.255 99.29 117.345 99.75 117.235 100.23C117.205 100.34 117.175 100.45 117.125 100.55C117.195 100.55 117.275 100.57 117.335 100.59C117.705 100.69 118.005 100.92 118.175 101.25C118.555 101.98 118.275 102.66 117.775 103.24C118.095 103.36 118.355 103.57 118.535 103.91C118.765 104.33 118.775 104.81 118.575 105.3C118.045 106.57 115.995 107.8 112.955 108.66C112.895 108.68 112.835 108.68 112.775 108.68L112.785 108.66ZM109.865 101.06L113.115 107.22C115.845 106.37 117.115 105.38 117.375 104.77C117.445 104.61 117.405 104.55 117.395 104.52C117.265 104.28 116.315 104.48 115.635 104.82C115.315 104.98 114.935 104.86 114.765 104.55C114.595 104.24 114.705 103.85 115.005 103.67L115.105 103.61C117.255 102.36 117.025 101.87 117.015 101.85C116.835 101.76 116.135 101.96 115.345 102.37C114.985 102.61 114.675 102.77 114.545 102.84C114.235 103 113.855 102.89 113.685 102.58C113.505 102.28 113.605 101.89 113.895 101.7C114.015 101.62 114.285 101.45 114.645 101.26C115.255 100.85 115.875 100.32 115.965 99.92C115.985 99.84 115.985 99.77 115.905 99.66C115.835 99.57 115.775 99.53 115.665 99.52C115.065 99.48 113.935 100.29 113.325 100.89C113.075 101.14 112.665 101.14 112.405 100.89C112.145 100.64 112.135 100.24 112.385 99.97C113.395 98.88 113.335 98.41 113.325 98.36C113.265 98.33 113.225 98.27 113.185 98.22C113.155 98.2 113.115 98.16 113.005 98.18C112.225 98.27 110.785 99.82 109.865 101.05V101.06Z" fill="black"/>
<path d="M73.8149 113.48L109.295 100.76L113.325 107.41C113.325 107.41 90.8749 122.32 84.4849 125.73L73.8149 113.48Z" fill="black"/>
<path d="M84.4849 126.46C84.2849 126.46 84.0749 126.37 83.9349 126.21L73.2649 113.96C73.1049 113.78 73.0449 113.53 73.1049 113.3C73.1649 113.07 73.3349 112.88 73.5649 112.8L109.045 100.08C109.375 99.96 109.735 100.09 109.915 100.39L113.945 107.04C114.145 107.37 114.055 107.81 113.725 108.02C112.805 108.63 91.1749 122.99 84.8249 126.38C84.7149 126.44 84.5949 126.47 84.4849 126.47V126.46ZM75.0649 113.81L84.6449 124.82C90.8949 121.36 108.855 109.5 112.325 107.2L108.965 101.66L75.0549 113.82L75.0649 113.81Z" fill="black"/>
<path d="M47.4247 65.6899C47.4247 65.6899 23.7447 66.4299 21.6147 86.1599C19.4747 105.89 38.8547 109.98 38.8547 109.98C38.8547 109.98 53.1947 113.37 69.3847 105.77C85.5747 98.1699 80.0247 80.4099 80.0247 80.4099C80.0247 80.4099 75.4247 62.5699 47.4247 65.6799V65.6899Z" fill="#EBABAB"/>
<path d="M47.1449 111.49C42.1649 111.49 38.9649 110.76 38.6849 110.7C38.5049 110.66 18.7049 106.25 20.8849 86.0899C23.0249 66.2999 46.3449 65.0199 47.3649 64.9699C55.4949 64.0699 66.8249 64.4499 74.7049 71.3399C79.4649 75.5099 80.6849 80.0499 80.7349 80.2399C80.7849 80.3899 86.2749 98.6599 69.6949 106.44C60.9949 110.52 52.8849 111.49 47.1449 111.49ZM53.8049 66.0499C51.8549 66.0499 49.7549 66.1599 47.5049 66.4199C47.4849 66.4199 47.4649 66.4199 47.4449 66.4199C47.3849 66.4199 41.5549 66.6399 35.5649 69.2099C27.6349 72.6199 23.1849 78.3499 22.3349 86.2399C20.2949 105.07 38.2449 109.11 39.0049 109.27C39.1649 109.31 53.3249 112.51 69.0749 105.11C84.5049 97.8699 79.3849 80.7999 79.3249 80.6299C79.1449 79.9499 75.2349 66.0499 53.7949 66.0499H53.8049Z" fill="black"/>
<mask id="mask0_208_4069" style="mask-type:luminance" maskUnits="userSpaceOnUse" x="22" y="66" width="59" height="45">
<path d="M47.5051 66.48C47.5051 66.48 24.4551 67.2 22.3751 86.35C20.2951 105.5 39.1551 109.45 39.1551 109.45C39.1551 109.45 53.1151 112.73 68.8751 105.36C84.6351 97.99 79.2351 80.76 79.2351 80.76C79.2351 80.76 74.7651 63.45 47.4951 66.48H47.5051Z" fill="white"/>
</mask>
<g mask="url(#mask0_208_4069)">
<path opacity="0.25" d="M75.7163 99.0204C79.1673 96.0793 79.9784 91.3643 77.528 88.4892C75.0777 85.6141 70.2937 85.6676 66.8428 88.6088C63.3918 91.5499 62.5807 96.2649 65.031 99.14C67.4814 102.015 72.2653 101.962 75.7163 99.0204Z" fill="url(#paint0_radial_208_4069)"/>
<path opacity="0.25" d="M38.6026 101.948C40.8577 98.9106 39.7345 94.2572 36.0938 91.5544C32.4531 88.8516 27.6737 89.1229 25.4186 92.1605C23.1636 95.1981 24.2868 99.8516 27.9274 102.554C31.5681 105.257 36.3475 104.986 38.6026 101.948Z" fill="url(#paint1_radial_208_4069)"/>
</g>
<path d="M30.845 77.31C30.625 77.31 30.415 77.21 30.275 77.03C30.025 76.71 30.085 76.26 30.395 76.01C30.575 75.87 34.935 72.49 40.095 73.43C40.495 73.5 40.755 73.88 40.685 74.28C40.615 74.68 40.235 74.94 39.835 74.87C35.335 74.05 31.345 77.13 31.305 77.16C31.175 77.26 31.015 77.32 30.855 77.32L30.845 77.31Z" fill="black"/>
<path d="M57.645 72.87C57.375 72.87 57.115 72.72 56.985 72.46C56.805 72.1 56.965 71.66 57.325 71.49C62.035 69.21 67.145 71.3 67.355 71.39C67.725 71.55 67.895 71.97 67.745 72.34C67.585 72.71 67.1649 72.88 66.7949 72.73C66.7449 72.71 62.075 70.81 57.955 72.79C57.855 72.84 57.745 72.86 57.635 72.86L57.645 72.87Z" fill="black"/>
<path d="M41.2549 95.8999L60.7749 94.0499L61.0349 96.7599L41.2549 98.6399V95.8999Z" fill="white"/>
<path d="M41.255 98.73C41.255 98.73 41.215 98.73 41.195 98.71C41.175 98.69 41.165 98.67 41.165 98.64V95.9C41.165 95.9 41.205 95.81 41.255 95.81L60.775 93.96C60.775 93.96 60.865 93.99 60.875 94.04L61.135 96.75C61.135 96.75 61.135 96.8 61.115 96.82C61.095 96.84 61.075 96.85 61.055 96.85L41.275 98.73H41.255ZM41.345 95.99V98.54L60.935 96.68L60.695 94.15L41.345 95.99Z" fill="white"/>
<path d="M41.5352 98.7899L60.9852 96.9399C60.9852 96.9399 61.8852 105.75 51.8952 106.64C51.8952 106.64 42.6652 107.92 41.5352 98.7899Z" fill="#DF4E4A"/>
<path d="M44.2554 104.46C44.2554 104.46 51.2854 98.15 59.3854 103.19C59.3854 103.19 52.2754 110.02 44.2554 104.46Z" fill="#F27584"/>
<path d="M50.1351 107.45C47.6651 107.45 45.5951 106.71 43.9751 105.25C40.2751 101.93 40.2651 96.08 40.2651 95.84C40.2651 95.47 40.5551 95.15 40.9251 95.12L60.7451 93.24C60.9351 93.22 61.1251 93.28 61.2751 93.4C61.4251 93.52 61.5151 93.7 61.5351 93.89L61.5551 94.12C61.8451 97.09 62.7251 106.14 51.6451 107.37C51.1251 107.43 50.6251 107.46 50.1351 107.46V107.45ZM41.7451 96.5C41.8651 98.03 42.4051 101.89 44.9451 104.17C46.5651 105.63 48.7651 106.21 51.4751 105.91C60.6551 104.89 60.4451 98.13 60.1351 94.75L41.7351 96.5H41.7451Z" fill="black"/>
<path d="M41.6049 99.4199C41.2349 99.4199 40.9149 99.1399 40.8849 98.7599C40.8449 98.3599 41.1449 97.9999 41.5449 97.9699L60.7249 96.1499C61.1249 96.1099 61.4849 96.4099 61.5149 96.8099C61.5549 97.2099 61.2549 97.5699 60.8549 97.5999L41.6749 99.4199C41.6749 99.4199 41.6249 99.4199 41.6049 99.4199Z" fill="black"/>
<path d="M44.2453 104.87C44.0453 104.87 43.8553 104.79 43.7053 104.63C43.4353 104.33 43.4553 103.87 43.7453 103.6C43.8153 103.54 50.6252 97.44 59.7052 102.05C60.0653 102.23 60.2052 102.67 60.0252 103.03C59.8452 103.39 59.4053 103.53 59.0453 103.35C50.8653 99.19 44.7952 104.62 44.7352 104.68C44.5952 104.81 44.4153 104.87 44.2453 104.87Z" fill="black"/>
<path d="M46.0352 92.81C46.0352 92.81 45.9652 92.81 45.9352 92.81C45.5352 92.75 45.2552 92.39 45.3152 91.99C45.5152 90.59 46.7552 87.92 50.0452 87.77C53.2952 87.29 55.0352 89.68 55.4952 91.03C55.6252 91.41 55.4252 91.82 55.0452 91.95C54.6652 92.08 54.2552 91.88 54.1252 91.5C54.0852 91.39 53.1452 88.83 50.3252 89.2C50.2952 89.2 50.2552 89.21 50.2152 89.22C50.1952 89.22 50.1852 89.22 50.1652 89.22C47.1952 89.32 46.7752 92.07 46.7552 92.19C46.7052 92.55 46.3952 92.82 46.0352 92.82V92.81Z" fill="black"/>
<path d="M45.0149 85.32C44.9249 88.38 41.7749 90.76 37.1149 90.62C32.4549 90.48 29.4549 87.9101 29.5449 84.8601C29.6349 81.8101 32.7849 79.42 37.4449 79.56C42.1049 79.7 45.1049 82.27 45.0149 85.32Z" fill="white"/>
<path d="M54.275 84.53C54.885 87.53 58.385 89.35 62.955 88.42C67.525 87.5 70.045 84.46 69.445 81.46C68.835 78.46 65.335 76.64 60.765 77.57C56.195 78.49 53.675 81.53 54.275 84.53Z" fill="white"/>
<path d="M64.5248 77.38C62.6948 78.38 61.5148 80.52 61.7248 82.89C61.9348 85.26 63.5848 87.34 65.7048 87.93C68.7048 86.56 70.2348 84.05 69.7348 81.57C69.2948 79.33 67.3148 77.73 64.5248 77.38Z" fill="#005CA3"/>
<path d="M39.6949 79.71C38.1049 80.81 37.1249 82.82 37.3049 85.03C37.5449 87.8 39.5249 89.96 41.9549 90.29C44.1249 89.34 45.4349 87.59 45.4849 85.55C45.5549 82.8 43.3149 80.41 39.6949 79.71Z" fill="#005CA3"/>
<path d="M60.6349 89.6301C59.2349 89.6301 57.9549 89.3601 56.8349 88.8401C55.0849 88.0201 53.9249 86.6201 53.5749 84.9101C52.8549 81.3501 55.8249 78.0601 60.6349 77.0901C65.4449 76.1201 69.4549 78.0001 70.1749 81.5501C70.8949 85.1101 67.9249 88.4001 63.1149 89.3701C62.2649 89.5401 61.4249 89.6301 60.6349 89.6301ZM55.0049 84.6201C55.2549 85.8701 56.1249 86.9001 57.4549 87.5201C58.9049 88.2001 60.8149 88.3501 62.8349 87.9401C66.8149 87.1301 69.3049 84.5701 68.7549 81.8401C68.2049 79.1101 64.9149 77.7101 60.9349 78.5201C56.9549 79.3301 54.4649 81.8901 55.0149 84.6201H55.0049Z" fill="black"/>
<path d="M37.5347 91.59C37.3947 91.59 37.2547 91.59 37.1147 91.59C34.7147 91.52 32.6347 90.85 31.1147 89.65C29.5947 88.45 28.7847 86.83 28.8347 85.08C28.9447 81.45 32.5947 78.93 37.4847 79.07C42.3847 79.22 45.8747 81.96 45.7647 85.58C45.7147 87.33 44.8047 88.9 43.2147 90.01C41.7147 91.05 39.7547 91.6 37.5247 91.6L37.5347 91.59ZM37.0847 80.51C33.2047 80.51 30.3747 82.41 30.2947 85.11C30.2547 86.38 30.8647 87.58 32.0147 88.49C33.2747 89.48 35.0947 90.06 37.1547 90.12C39.2147 90.18 41.0647 89.71 42.3847 88.8C43.5847 87.96 44.2647 86.8 44.3047 85.53C44.3847 82.75 41.5047 80.64 37.4447 80.52C37.3247 80.52 37.2047 80.52 37.0847 80.52V80.51Z" fill="black"/>
<path d="M40.1949 90.86C40.0449 90.86 39.8949 90.81 39.7649 90.72C39.6549 90.64 36.9749 88.62 36.6349 85.21C36.2849 81.74 38.3649 79.94 38.4549 79.87C38.7649 79.61 39.2249 79.65 39.4849 79.96C39.7449 80.27 39.7049 80.72 39.4049 80.98C39.3349 81.04 37.8249 82.4 38.0949 85.07C38.3749 87.82 40.6249 89.54 40.6449 89.55C40.9649 89.79 41.0349 90.25 40.7949 90.57C40.6549 90.76 40.4349 90.86 40.2049 90.86H40.1949Z" fill="black"/>
<path d="M64.6547 88.78C64.5047 88.78 64.3447 88.73 64.2147 88.63C64.1047 88.54 61.4247 86.48 61.0847 83.01C60.7347 79.47 62.8047 77.65 62.8947 77.57C63.1947 77.31 63.6547 77.34 63.9247 77.65C64.1847 77.95 64.1547 78.41 63.8547 78.67C63.7847 78.73 62.2647 80.12 62.5447 82.87C62.8247 85.72 65.0847 87.46 65.1047 87.47C65.4247 87.71 65.4847 88.17 65.2447 88.49C65.1047 88.68 64.8847 88.78 64.6647 88.78H64.6547Z" fill="black"/>
<defs>
<radialGradient id="paint0_radial_208_4069" cx="0" cy="0" r="1" gradientUnits="userSpaceOnUse" gradientTransform="translate(71.3606 92.9597) rotate(-40.88) scale(8.178 6.8385)">
<stop stop-color="#D9315C" stop-opacity="0.8"/>
<stop offset="0.14" stop-color="#D9315D" stop-opacity="0.78"/>
<stop offset="0.26" stop-color="#D93160" stop-opacity="0.73"/>
<stop offset="0.38" stop-color="#D93166" stop-opacity="0.65"/>
<stop offset="0.49" stop-color="#D9316F" stop-opacity="0.54"/>
<stop offset="0.54" stop-color="#D93174" stop-opacity="0.47"/>
<stop offset="0.58" stop-color="#D9366F" stop-opacity="0.42"/>
<stop offset="0.77" stop-color="#DB4F5A" stop-opacity="0.19"/>
<stop offset="0.91" stop-color="#DD5E4D" stop-opacity="0.05"/>
<stop offset="1" stop-color="#DE6449" stop-opacity="0"/>
</radialGradient>
<radialGradient id="paint1_radial_208_4069" cx="0" cy="0" r="1" gradientUnits="userSpaceOnUse" gradientTransform="translate(39.7027 99.9189) rotate(-142.95) scale(8.178 6.8385)">
<stop stop-color="#D9315C" stop-opacity="0.8"/>
<stop offset="0.14" stop-color="#D9315D" stop-opacity="0.78"/>
<stop offset="0.26" stop-color="#D93160" stop-opacity="0.73"/>
<stop offset="0.38" stop-color="#D93166" stop-opacity="0.65"/>
<stop offset="0.49" stop-color="#D9316F" stop-opacity="0.54"/>
<stop offset="0.54" stop-color="#D93174" stop-opacity="0.47"/>
<stop offset="0.58" stop-color="#D9366F" stop-opacity="0.42"/>
<stop offset="0.77" stop-color="#DB4F5A" stop-opacity="0.19"/>
<stop offset="0.91" stop-color="#DD5E4D" stop-opacity="0.05"/>
<stop offset="1" stop-color="#DE6449" stop-opacity="0"/>
</radialGradient>
</defs>
</svg>
