<svg width="163" height="164" viewBox="0 0 163 164" fill="none" xmlns="http://www.w3.org/2000/svg">
<path d="M156.309 70.7228C164.312 75.3411 164.311 86.8916 156.309 91.5099L37.4018 160.128C29.4018 164.745 19.4039 158.971 19.4039 149.735L19.4039 12.498C19.4039 3.26152 29.4018 -2.51213 37.4018 2.10448L156.309 70.7228Z" fill="white"/>
<g clip-path="url(#clip0_208_4070)">
<path d="M14.0479 128.173L14.1249 132.118L128.624 128.9L128.54 124.955L14.0479 128.173Z" fill="#704E3E"/>
<path d="M14.1319 132.778C13.9709 132.778 13.8169 132.71 13.7049 132.598C13.5859 132.478 13.5159 132.305 13.5089 132.133L13.4249 128.188C13.4179 127.82 13.6909 127.52 14.0269 127.505L128.526 124.288C128.687 124.273 128.848 124.348 128.974 124.468C129.1 124.588 129.163 124.76 129.17 124.933L129.254 128.87C129.261 129.238 128.988 129.538 128.652 129.553L14.1459 132.778H14.1319ZM14.6849 128.825L14.7409 131.435L127.994 128.255L127.938 125.645L14.6849 128.825Z" fill="black"/>
<path d="M131.27 121.378L129.597 115.468C129.597 115.468 129.177 114.005 128.358 113.93C127.539 113.855 126.867 114.493 126.867 114.493L122.387 118.498L116.514 118.408C116.514 118.408 115.198 118.348 114.848 119.165C114.498 119.983 114.82 121.078 114.82 121.078L116.962 126.695V126.785L115.058 132.5C115.058 132.5 114.778 133.61 115.163 134.413C115.548 135.208 116.857 135.088 116.857 135.088L122.723 134.72L127.364 138.508C127.364 138.508 128.064 139.115 128.883 139.003C129.702 138.89 130.052 137.405 130.052 137.405L131.48 131.42L136.366 127.738C136.366 127.738 137.227 127.16 137.206 126.23C137.185 125.3 136.226 124.685 136.226 124.685L131.27 121.378Z" fill="#FFF200"/>
<path d="M128.68 139.678C127.77 139.678 127.063 139.093 126.979 139.025L122.534 135.403L116.899 135.755C116.738 135.77 115.177 135.883 114.617 134.72C114.141 133.723 114.428 132.47 114.463 132.335L116.318 126.763L114.253 121.333C114.197 121.145 113.854 119.908 114.288 118.888C114.799 117.695 116.367 117.74 116.542 117.748L122.17 117.838L126.475 113.99C126.552 113.915 127.378 113.18 128.421 113.27C129.625 113.375 130.143 115.085 130.199 115.28L131.802 120.95L136.562 124.123C136.681 124.198 137.808 124.948 137.829 126.215C137.85 127.25 137.122 128.015 136.695 128.308L132.026 131.825L130.654 137.57C130.605 137.765 130.157 139.498 128.96 139.663C128.862 139.678 128.771 139.685 128.673 139.685L128.68 139.678ZM122.73 134.053C122.863 134.053 122.996 134.098 123.108 134.188L127.749 137.975C127.749 137.975 128.281 138.41 128.813 138.335C129.03 138.305 129.345 137.72 129.464 137.233L130.892 131.255C130.927 131.098 131.018 130.97 131.137 130.873L136.023 127.19C136.023 127.19 136.611 126.778 136.604 126.238C136.597 125.78 136.114 125.368 135.925 125.248L130.955 121.933C130.829 121.85 130.731 121.715 130.689 121.558L129.016 115.648C128.876 115.175 128.547 114.598 128.323 114.583C127.784 114.538 127.294 114.98 127.294 114.988L122.8 119C122.688 119.105 122.52 119.15 122.394 119.158L116.521 119.068C116.143 119.045 115.541 119.173 115.436 119.435C115.233 119.908 115.373 120.65 115.436 120.868L117.557 126.44C117.585 126.515 117.599 126.598 117.606 126.68V126.77C117.606 126.853 117.599 126.935 117.571 127.01L115.667 132.725C115.625 132.913 115.52 133.648 115.737 134.105C115.856 134.36 116.458 134.45 116.822 134.42L122.702 134.053C122.702 134.053 122.723 134.053 122.737 134.053H122.73Z" fill="black"/>
</g>
<path d="M48.7107 102.756L48.874 121.529C48.874 121.529 55.1372 118.236 55.9609 122.515C56.7847 126.795 51.3452 128.279 47.3973 129.265C43.4419 130.252 38.6629 129.428 37.8392 124.162C37.0155 118.896 35.8652 103.416 35.8652 103.416L48.7182 102.756H48.7107Z" fill="#F0514F"/>
<path d="M44.5699 130.281C42.8408 130.281 41.275 129.866 40.058 129.065C38.4922 128.026 37.5275 126.41 37.1936 124.258C36.3773 119.022 35.2196 103.616 35.2122 103.46C35.1974 103.282 35.2567 103.112 35.3755 102.978C35.4942 102.845 35.6575 102.763 35.8356 102.756L48.6885 102.095C48.874 102.095 49.0447 102.147 49.1708 102.273C49.3044 102.4 49.3786 102.57 49.3786 102.748L49.5345 120.498C50.8554 119.949 53.2301 119.2 54.922 120.008C55.8274 120.446 56.3988 121.24 56.6214 122.382C57.5861 127.396 51.3155 128.961 47.5679 129.896C46.5439 130.148 45.542 130.281 44.5848 130.281H44.5699ZM36.5702 104.039C36.8003 107.072 37.7798 119.504 38.4922 124.058C38.7668 125.831 39.5386 127.144 40.7853 127.967C42.3659 129.013 44.7183 129.258 47.234 128.627C51.6865 127.515 55.9832 126.135 55.3153 122.641C55.1743 121.922 54.8627 121.455 54.3432 121.203C52.8813 120.498 50.1207 121.618 49.1857 122.107C48.9853 122.211 48.7404 122.204 48.5401 122.093C48.3397 121.974 48.221 121.766 48.221 121.536L48.0651 103.453L36.5776 104.039H36.5702Z" fill="black"/>
<path d="M68.1756 82.4767L85.4365 83.5077C85.4365 83.5077 86.0302 75.5415 91.3361 77.0175C96.6494 78.4936 94.4306 87.1941 94.4306 87.1941C94.4306 87.1941 94.4306 95.012 86.0227 95.012C77.6149 95.012 60.0571 93.3876 60.0571 93.3876L68.1681 82.4767H68.1756Z" fill="#F0514F"/>
<path d="M86.0301 95.6647C77.6891 95.6647 60.1832 94.0551 60.0051 94.0403C59.7677 94.018 59.5599 93.8697 59.4634 93.6546C59.3669 93.4395 59.3966 93.1873 59.5376 92.9944L67.6486 82.0835C67.7822 81.9055 67.99 81.8017 68.22 81.8165L84.8576 82.8104C85.0506 81.453 85.711 78.3378 87.7369 76.9136C88.8055 76.1645 90.0819 75.9865 91.5141 76.387C97.1688 77.9595 95.321 86.3559 95.091 87.2831C95.0539 88.1954 94.4825 95.6647 86.0227 95.6647H86.0301ZM61.2964 92.8312C65.363 93.1873 79.0026 94.3444 86.0301 94.3444C93.6959 94.3444 93.7775 87.4833 93.7775 87.1866C93.7775 87.1347 93.7775 87.0754 93.7998 87.0235C93.822 86.9419 95.7886 78.9311 91.1654 77.6479C90.1116 77.3587 89.2359 77.4625 88.4938 77.9891C86.7722 79.1982 86.1785 82.4173 86.0969 83.5521C86.0672 83.9082 85.7704 84.19 85.3993 84.1604L68.4946 83.1516L61.2964 92.8312Z" fill="black"/>
<path d="M62.5504 62.5759C62.5504 62.5759 79.6852 54.5058 78.0377 33.5963C76.3903 12.6868 58.7658 6.58975 58.7658 6.58975C58.7658 6.58975 31.7464 -3.45333 10.827 22.2329C10.827 22.2329 1.92936 34.9092 0.942383 51.2125C0.942383 51.2125 10.3298 61.4187 29.6092 66.3587C29.6092 66.3587 28.6222 81.6681 21.2088 98.3052C21.2088 98.3052 30.2696 109.832 48.2281 106.538C48.2281 106.538 57.6155 103.905 62.2313 93.5284C66.8471 83.1516 72.2792 82.0019 72.2792 82.0019L62.5578 62.5759H62.5504Z" fill="black"/>
<path d="M41.9431 107.777C35.6502 107.777 30.8489 105.982 27.6579 104.232C23.0792 101.725 20.7788 98.8318 20.6823 98.7132L20.4374 98.4016L20.6007 98.0382C27.1087 83.4334 28.6449 69.7114 28.9046 66.8631C10.0259 61.8786 0.549474 51.7688 0.460424 51.665L0.274902 51.4573L0.289744 51.1754C1.27672 34.8795 10.204 21.9882 10.2931 21.8547C21.2685 8.36993 33.9137 4.77252 42.5887 4.12721C51.9909 3.42256 58.7068 5.87029 58.9888 5.97413C59.152 6.03347 77.0289 12.4495 78.6912 33.5444C80.1754 52.4141 66.4839 61.1517 63.4265 62.8577L73.2368 82.4766L72.4057 82.6546C72.3612 82.662 67.2111 83.9378 62.8254 93.8029C58.1428 104.336 48.7925 107.065 48.3992 107.176C46.0987 107.599 43.9467 107.777 41.9431 107.777ZM21.9735 98.1939C23.5467 99.9444 32.385 108.778 48.1024 105.893C48.1321 105.878 57.2004 103.215 61.6232 93.2688C65.341 84.9095 69.608 82.3579 71.3519 81.631L61.6677 62.2718L62.2762 61.9825C62.4469 61.9009 78.9732 53.8457 77.3851 33.6482C75.7896 13.3989 58.7216 7.27217 58.551 7.21283C58.269 7.10898 31.7023 -2.35554 11.3394 22.6483C11.28 22.7373 2.67184 35.1836 1.61808 50.9603C3.04288 52.3919 12.4006 61.2704 29.7654 65.7208L30.2923 65.8543L30.2552 66.3958C30.2478 66.5516 29.1866 81.7794 21.9661 98.1791L21.9735 98.1939Z" fill="black"/>
<path d="M31.9096 66.203C31.9096 66.203 19.5538 73.6129 6.87158 77.0694L8.35575 85.3027C8.35575 85.3027 20.2143 84.153 31.0859 80.3627L31.9096 66.203Z" fill="black"/>
<path d="M7.81412 86.0146L6.11475 76.5872L6.69357 76.4314C19.1384 73.0417 31.4422 65.706 31.5683 65.6318L32.6369 64.9939L31.7167 80.8373L31.3012 80.9857C20.4815 84.7537 8.53395 85.9479 8.41521 85.9553L7.8067 86.0146H7.81412ZM7.6286 77.544L8.89757 84.5831C11.4058 84.2938 21.283 83.018 30.4626 79.8879L31.1898 67.3897C27.9692 69.2144 17.9213 74.6439 7.63602 77.5515L7.6286 77.544Z" fill="black"/>
<path d="M58.2686 62.7391L83.6331 58.6299L86.9279 65.3797L63.2109 74.1025L58.2686 62.7391Z" fill="black"/>
<path d="M62.8547 74.9406L57.3262 62.2347L84.0116 57.903L87.8408 65.7505L62.8473 74.9406H62.8547ZM59.2111 63.2583L63.5671 73.2717L86.0227 65.0088L83.2621 59.3493L59.2111 63.2509V63.2583Z" fill="black"/>
<path d="M43.635 19.2883C43.635 19.2883 64.4802 14.3483 70.9957 31.067C77.5113 47.7857 61.5564 55.9225 61.5564 55.9225C61.5564 55.9225 49.8314 62.2569 33.9063 59.4458C17.9811 56.6346 18.6341 39.8269 18.6341 39.8269C18.6341 39.8269 18.4412 23.1675 43.6276 19.2883H43.635Z" fill="#EBABAB"/>
<path d="M42.2025 60.8327C39.5755 60.8327 36.763 60.6176 33.7946 60.091C17.491 57.2131 17.9733 39.9677 17.9808 39.7971C17.9808 39.6562 18.0698 22.5667 43.5085 18.6355C44.4139 18.4352 65.0736 14.059 71.6114 30.8222C78.2679 47.8969 62.0236 56.4194 61.8603 56.501C61.4745 56.7087 53.6974 60.8253 42.2025 60.8253V60.8327ZM50.4767 19.2734C46.6476 19.2734 43.8202 19.9261 43.7831 19.9335C43.7683 19.9335 43.746 19.9335 43.7312 19.9409C19.3907 23.6941 19.2943 39.6562 19.2943 39.8194C19.272 40.5166 18.8564 56.1227 34.0173 58.8004C49.5343 61.5448 61.1257 55.4106 61.2444 55.3439C61.89 55.0175 76.6056 47.2664 70.3869 31.3117C67.7822 24.6287 62.5431 20.6752 54.8179 19.57C53.2967 19.3549 51.8273 19.2734 50.4767 19.2734Z" fill="black"/>
<mask id="mask0_208_4070" style="mask-type:luminance" maskUnits="userSpaceOnUse" x="19" y="18" width="53" height="42">
<path d="M43.6275 19.6147C43.6275 19.6147 63.9235 14.8082 70.261 31.03C76.5984 47.2443 61.0591 55.1512 61.0591 55.1512C61.0591 55.1512 49.6384 61.3076 34.1436 58.5854C18.6414 55.8632 19.2945 39.5599 19.2945 39.5599C19.2945 39.5599 19.1164 23.3975 43.6349 19.6221L43.6275 19.6147Z" fill="white"/>
</mask>
<g mask="url(#mask0_208_4070)">
<path opacity="0.25" d="M36.0185 52.2535C37.4808 49.1655 35.6603 45.2399 31.9522 43.4856C28.2441 41.7312 24.0526 42.8124 22.5902 45.9004C21.1279 48.9884 22.9484 52.9139 26.6565 54.6682C30.3646 56.4226 34.5561 55.3415 36.0185 52.2535Z" fill="url(#paint0_radial_208_4070)"/>
<path opacity="0.25" d="M69.2291 46.48C71.7687 43.2648 71.6525 38.9421 68.9697 36.8251C66.2869 34.7081 62.0534 35.5985 59.5138 38.8137C56.9742 42.029 57.0904 46.3517 59.7732 48.4686C62.456 50.5856 66.6895 49.6953 69.2291 46.48Z" fill="url(#paint1_radial_208_4070)"/>
</g>
<path d="M48.3129 51C48.0152 51 47.7639 50.7518 47.7308 50.4232C47.6978 50.0655 47.9293 49.7516 48.2533 49.7078C48.2732 49.7078 50.0392 49.4814 50.7998 48.3863C51.0908 47.9702 51.19 47.4737 51.1107 46.8751C51.0379 46.364 50.8329 45.9917 50.4823 45.7288C49.51 45.028 47.6779 45.3419 47.0496 45.5171C46.7387 45.612 46.4146 45.4003 46.3353 45.0572C46.2559 44.714 46.4411 44.3563 46.7519 44.2687C46.8644 44.2322 49.5233 43.4875 51.1239 44.6483C51.7588 45.1083 52.1491 45.7945 52.2747 46.6779C52.407 47.6343 52.2284 48.4739 51.7324 49.1821C50.6609 50.7153 48.4782 50.9854 48.3856 51C48.3658 51 48.3459 51 48.3261 51H48.3129Z" fill="black"/>
<path d="M43.5579 56C41.2458 56 38.6726 55.7559 35.8384 55.1745C35.4804 55.1027 35.2566 54.7582 35.3312 54.4208C35.4058 54.0763 35.7638 53.861 36.1144 53.9327C43.7519 55.5119 49.3457 54.4065 52.6946 53.2006C56.3194 51.8942 58.1766 50.193 58.1915 50.1786C58.4526 49.9346 58.8777 49.9418 59.1313 50.193C59.3849 50.4442 59.3774 50.8462 59.1164 51.0902C58.8553 51.3343 53.7388 56 43.5579 56Z" fill="black"/>
<path d="M52.9854 28C52.7369 28 52.4958 27.8799 52.3828 27.6663C52.2246 27.3726 52.3602 27.0188 52.6917 26.8719C57.0152 25.0097 61.7079 26.6984 61.9038 26.7718C62.2427 26.8986 62.4084 27.2457 62.2653 27.5461C62.1222 27.8465 61.7305 27.9933 61.3916 27.8665C61.3464 27.8532 57.0529 26.3113 53.2792 27.9333C53.1813 27.9733 53.0833 27.9933 52.9854 27.9933V28Z" fill="black"/>
<path d="M28.9385 33C28.7569 33 28.5752 32.9033 28.4494 32.726C28.2399 32.4197 28.2818 31.9683 28.5542 31.7184C28.7079 31.5734 32.4178 28.2526 36.8053 29.1553C37.1407 29.2279 37.3642 29.5986 37.3083 29.9855C37.2524 30.3724 36.9241 30.6384 36.5887 30.5658C32.7601 29.7679 29.3577 32.8066 29.3297 32.8388C29.218 32.9436 29.0782 32.9919 28.9455 32.9919L28.9385 33Z" fill="black"/>
<path d="M50.4908 39.9237C51.2992 42.4486 54.6688 43.7287 58.7864 42.5688C62.9039 41.4089 64.9514 38.6012 64.143 36.0763C63.3346 33.5514 59.965 32.2713 55.8474 33.4312C51.7299 34.5911 49.6824 37.3988 50.4908 39.9237Z" fill="white"/>
<path d="M42.309 41.5603C42.4798 44.3092 39.851 46.7108 35.6328 46.9768C31.4147 47.2428 28.5036 45.1886 28.3254 42.4397C28.1472 39.6908 30.7835 37.2892 35.0016 37.0232C39.2197 36.7572 42.1308 38.8114 42.309 41.5603Z" fill="white"/>
<path d="M31.6985 38C33.4377 38.4222 34.8752 39.9351 35.2329 41.9406C35.6116 44.0375 34.6789 46.043 33.066 47C30.289 46.5285 28.4658 44.7975 28.3255 42.6302C28.1993 40.681 29.4685 38.9148 31.6915 38H31.6985Z" fill="#005CA3"/>
<path d="M54.034 34C55.6141 34.5399 56.8882 35.9476 57.2298 37.7654C57.6569 40.041 56.4753 42.2073 54.518 43C52.4895 42.7062 50.9948 41.5786 50.4895 39.9453C49.8133 37.7449 51.1514 35.3462 54.0269 34H54.034Z" fill="#005CA3"/>
<path d="M35.4247 48C31.4538 48 28.5157 45.7729 28.3267 42.5105C28.123 39.0444 31.1266 36.3232 35.4683 36.0252C37.5991 35.884 39.4827 36.3388 40.9227 37.3426C42.3627 38.3464 43.2135 39.8207 43.3081 41.4911C43.4026 43.1614 42.7336 44.7377 41.4245 45.9297C40.1082 47.1217 38.2973 47.8353 36.1665 47.9765C35.9192 47.9922 35.6646 48 35.4247 48ZM36.2101 37.3897C35.9919 37.3897 35.7737 37.3897 35.5556 37.4132C31.9629 37.6563 29.4684 39.7658 29.6212 42.4243C29.7739 45.0827 32.4938 46.8315 36.0937 46.5884C37.9119 46.463 39.5118 45.8513 40.5954 44.8632C41.5845 43.9613 42.0936 42.7929 42.0208 41.5773C41.9481 40.3618 41.3081 39.2718 40.2245 38.5111C39.1773 37.7818 37.7737 37.3897 36.2101 37.3897Z" fill="black"/>
<path d="M56.3714 43.9925C55.4478 43.9925 54.5686 43.8492 53.7707 43.5551C52.1305 42.9519 50.978 41.7755 50.5199 40.2372C49.5816 37.04 51.968 33.7825 56.1941 32.4855C60.4275 31.1885 64.1807 32.5609 65.1191 35.7581C65.5697 37.2964 65.2447 38.9327 64.2029 40.3579C63.1612 41.7831 61.5136 42.8764 59.4375 43.5099C58.3736 43.8341 57.3392 44 56.364 44L56.3714 43.9925ZM59.2823 33.33C58.4401 33.33 57.5239 33.4658 56.5782 33.7599C53.0762 34.8382 51.0592 37.3944 51.7833 39.8451C52.1158 40.9687 52.9802 41.8358 54.2214 42.2883C55.5734 42.786 57.3023 42.7633 59.0755 42.2129C60.8486 41.67 62.3041 40.7198 63.1612 39.536C63.9517 38.4577 64.2029 37.2436 63.8704 36.1201C63.3459 34.3329 61.5653 33.315 59.2823 33.315V33.33Z" fill="black"/>
<path d="M56.199 44C56.053 44 55.8994 43.9559 55.7764 43.8603C55.4844 43.6325 55.4306 43.2282 55.6688 42.9415C55.6842 42.9194 57.3055 40.92 56.8829 38.4721C56.468 36.061 54.7237 35.2524 54.7084 35.2451C54.3703 35.0907 54.2243 34.7011 54.378 34.3777C54.5393 34.0542 54.9389 33.9072 55.2846 34.0616C55.3845 34.1057 57.6974 35.1789 58.2276 38.2589C58.7501 41.2875 56.8137 43.6545 56.7292 43.7501C56.5909 43.9118 56.3988 44 56.1913 44H56.199Z" fill="black"/>
<path d="M34.2266 48C34.0817 48 33.9368 47.9525 33.8148 47.8495C33.5173 47.6119 33.4639 47.1683 33.6927 46.8594C33.708 46.8356 35.3096 44.6337 34.8825 41.9248C34.463 39.2872 32.7622 38.3763 32.6936 38.3367C32.358 38.1624 32.2207 37.7426 32.3885 37.3941C32.5563 37.0456 32.9529 36.903 33.2885 37.0693C33.3876 37.1169 35.6834 38.305 36.2249 41.6871C36.7511 45.0139 34.852 47.604 34.7681 47.7149C34.6385 47.897 34.4325 47.9842 34.2342 47.9842L34.2266 48Z" fill="black"/>
<path d="M6.90164 77.0915C6.90164 77.0915 1.25436 76.9284 1.49925 78.7159C1.49925 78.7159 1.52151 79.8063 3.24315 79.5615C3.24315 79.5615 1.11336 79.6357 1.30631 80.8373C1.49925 82.0389 2.52333 81.987 3.53256 81.7645C3.53256 81.7645 1.54377 82.1205 1.9074 83.4704C2.27102 84.8204 4.47501 83.8636 4.47501 83.8636C4.47501 83.8636 2.34523 84.3605 2.82758 85.7031C3.30994 87.0456 7.88119 85.4286 8.37839 85.2951L6.89422 77.0915H6.90164Z" fill="#EBABAB"/>
<path d="M4.08876 86.8899C3.15373 86.8899 2.45617 86.6302 2.20386 85.9256C2.05545 85.5102 2.05544 85.0949 2.21128 84.7166C2.17418 84.7017 2.13707 84.6869 2.09997 84.6647C1.6844 84.4644 1.39499 84.1084 1.26883 83.6411C1.13526 83.1441 1.20205 82.6694 1.46178 82.2614C1.43951 82.2466 1.42467 82.2392 1.40241 82.2243C0.994261 81.9499 0.741952 81.5123 0.652902 80.9411C0.586114 80.5035 0.690006 80.103 0.964578 79.7692C1.02394 79.695 1.09073 79.6283 1.15752 79.5689C0.905211 79.2426 0.853265 78.9088 0.845844 78.7679C0.793898 78.3525 0.920052 77.9594 1.21689 77.633C2.3597 76.3572 6.1666 76.4017 6.92353 76.424C7.23521 76.4314 7.49494 76.6613 7.55431 76.9655L9.03848 85.169C9.09785 85.5102 8.89006 85.8366 8.55612 85.9256C8.50418 85.9404 8.40028 85.9701 8.26671 86.0146C6.78254 86.4745 5.26126 86.875 4.1036 86.875L4.08876 86.8899ZM4.08134 84.7017C3.81419 84.8204 3.55446 84.991 3.45057 85.1765C3.41346 85.2432 3.3912 85.3248 3.45057 85.4806C3.49509 85.5176 4.05908 85.9256 7.62851 84.8427L6.3447 77.7517C4.7789 77.7665 2.67138 77.9965 2.18902 78.5305C2.1445 78.5824 2.1445 78.6047 2.1445 78.6344C2.1445 78.6566 2.1445 78.6863 2.1445 78.7085C2.1445 78.7085 2.16676 78.7753 2.23355 78.8272C2.29291 78.8717 2.43391 78.9459 2.79011 78.9459C2.98305 78.9236 3.13147 78.9162 3.19826 78.9088C3.5322 78.894 3.84387 79.161 3.87356 79.5096C3.90324 79.8582 3.65835 80.1697 3.30957 80.2217C3.16857 80.2439 3.035 80.2513 2.90884 80.2587C2.52296 80.3181 2.09255 80.4442 1.95155 80.6148C1.92929 80.637 1.91445 80.6593 1.92929 80.7409C1.95897 80.9486 2.02576 81.0821 2.12223 81.1488C2.30033 81.2675 2.6788 81.2675 3.25763 81.1488C3.32441 81.134 3.36894 81.1266 3.3912 81.1192C3.7474 81.0524 4.08134 81.2898 4.15555 81.6384C4.22234 81.987 3.99971 82.3356 3.65093 82.4098C3.61383 82.4172 3.57672 82.4246 3.5322 82.432C3.23536 82.5062 2.72332 82.6916 2.55264 82.9661C2.50812 83.0328 2.47101 83.1218 2.52296 83.2999C2.55264 83.4185 2.60459 83.4556 2.65653 83.4779C2.87174 83.5817 3.27247 83.5372 3.65093 83.4408C3.98487 83.2999 4.25202 83.2331 4.31139 83.2183C4.64533 83.1441 4.97927 83.3295 5.08316 83.6559C5.18705 83.9823 5.03121 84.3309 4.71953 84.4644C4.62306 84.5089 4.37818 84.6053 4.0665 84.6943L4.08134 84.7017Z" fill="black"/>
<path d="M86.9279 65.3945C86.9279 65.3945 90.7793 65.5429 90.3934 63.9704C90.3934 63.9704 90.2747 62.9987 88.7608 63.377C88.7608 63.377 90.6606 63.1174 90.3786 62.0567C90.0966 61.0034 89.1838 61.1444 88.3007 61.4337C88.3007 61.4337 90.0446 60.9367 89.592 59.7573C89.1393 58.578 87.2618 59.6461 87.2618 59.6461C87.2618 59.6461 89.117 59.0082 88.5679 57.8511C88.0113 56.694 84.0931 58.4667 83.6553 58.6299L86.9353 65.3945H86.9279Z" fill="#EBABAB"/>
<path d="M87.2543 66.0547C87.0984 66.0547 86.9797 66.0547 86.9055 66.0547C86.6606 66.0472 86.4454 65.9063 86.3415 65.6838L83.0615 58.9192C82.9799 58.756 82.9724 58.5631 83.0392 58.3851C83.106 58.2071 83.247 58.081 83.4177 58.0143C83.4548 57.9994 83.529 57.9697 83.618 57.9327C85.9705 56.961 88.4713 56.1525 89.154 57.5692C89.3247 57.9178 89.3618 58.2813 89.2802 58.6299C89.295 58.6299 89.3099 58.6373 89.3247 58.6447C89.7328 58.7931 90.0371 59.0972 90.2004 59.52C90.3636 59.9428 90.3562 60.373 90.1855 60.7661C90.5862 60.9812 90.8682 61.3595 91.0092 61.8861C91.1131 62.2866 91.0538 62.6798 90.8311 63.0135C90.794 63.0729 90.7569 63.1248 90.7124 63.1693C90.9424 63.4363 91.0167 63.7182 91.0389 63.8369C91.1428 64.2819 91.0389 64.7121 90.7643 65.0607C90.0371 65.9508 88.1225 66.0621 87.2543 66.0621V66.0547ZM84.5531 58.9711L87.3507 64.7344C88.3748 64.7269 89.488 64.5341 89.7477 64.2226C89.7625 64.2003 89.7774 64.1855 89.7551 64.1187C89.7551 64.0965 89.7477 64.0668 89.7403 64.0445C89.718 63.9704 89.5399 63.911 89.2208 63.9481C89.0501 63.9852 88.9165 64.0075 88.8498 64.0149C88.5084 64.0668 88.1819 63.8294 88.1151 63.4882C88.0483 63.1471 88.2635 62.8059 88.6049 62.7243C88.731 62.6946 88.8498 62.6723 88.9685 62.6501C89.3099 62.5611 89.6512 62.4127 89.7477 62.2718C89.7032 62.0493 89.6438 61.9529 89.577 61.9084C89.4731 61.849 89.2208 61.8268 88.6123 62.0122C88.5529 62.0345 88.5158 62.0419 88.4936 62.0493C88.1448 62.1531 87.7886 61.9529 87.6847 61.6117C87.5808 61.2705 87.7663 60.907 88.1077 60.7883C88.1448 60.7735 88.1819 60.7661 88.2116 60.7513C88.4861 60.6548 88.8794 60.4397 88.9908 60.2172C89.013 60.1653 89.0353 60.0985 88.9908 59.9724C88.9611 59.8834 88.924 59.876 88.9017 59.8686C88.7162 59.8018 88.3822 59.876 88.0706 59.9947C87.7886 60.1504 87.5511 60.2395 87.4917 60.2543C87.1726 60.3655 86.8164 60.2098 86.6754 59.8983C86.5345 59.5867 86.6532 59.2233 86.95 59.0527C87.0316 59.0082 87.2394 58.8895 87.5214 58.7857C87.7441 58.6521 87.9444 58.489 88.0112 58.3332C88.0335 58.2887 88.0483 58.2294 87.9889 58.1181C87.9593 58.1181 87.4101 57.8362 84.5753 58.9563L84.5531 58.9711Z" fill="black"/>
<defs>
<radialGradient id="paint0_radial_208_4070" cx="0" cy="0" r="1" gradientUnits="userSpaceOnUse" gradientTransform="translate(39.6176 51.7847) rotate(-154.241) scale(7.39378 6.18091)">
<stop stop-color="#D9315C" stop-opacity="0.8"/>
<stop offset="0.14" stop-color="#D9315D" stop-opacity="0.78"/>
<stop offset="0.26" stop-color="#D93160" stop-opacity="0.73"/>
<stop offset="0.38" stop-color="#D93166" stop-opacity="0.65"/>
<stop offset="0.49" stop-color="#D9316F" stop-opacity="0.54"/>
<stop offset="0.54" stop-color="#D93174" stop-opacity="0.47"/>
<stop offset="0.58" stop-color="#D9366F" stop-opacity="0.42"/>
<stop offset="0.77" stop-color="#DB4F5A" stop-opacity="0.19"/>
<stop offset="0.91" stop-color="#DD5E4D" stop-opacity="0.05"/>
<stop offset="1" stop-color="#DE6449" stop-opacity="0"/>
</radialGradient>
<radialGradient id="paint1_radial_208_4070" cx="0" cy="0" r="1" gradientUnits="userSpaceOnUse" gradientTransform="translate(66.057 40.3674) rotate(-52.1568) scale(7.39226 6.18218)">
<stop stop-color="#D9315C" stop-opacity="0.8"/>
<stop offset="0.14" stop-color="#D9315D" stop-opacity="0.78"/>
<stop offset="0.26" stop-color="#D93160" stop-opacity="0.73"/>
<stop offset="0.38" stop-color="#D93166" stop-opacity="0.65"/>
<stop offset="0.49" stop-color="#D9316F" stop-opacity="0.54"/>
<stop offset="0.54" stop-color="#D93174" stop-opacity="0.47"/>
<stop offset="0.58" stop-color="#D9366F" stop-opacity="0.42"/>
<stop offset="0.77" stop-color="#DB4F5A" stop-opacity="0.19"/>
<stop offset="0.91" stop-color="#DD5E4D" stop-opacity="0.05"/>
<stop offset="1" stop-color="#DE6449" stop-opacity="0"/>
</radialGradient>
<clipPath id="clip0_208_4070">
<rect width="119" height="27" fill="white" transform="translate(19.0249 113)"/>
</clipPath>
</defs>
</svg>
