<svg width="179" height="214" viewBox="0 0 179 214" fill="none" xmlns="http://www.w3.org/2000/svg">
<path d="M149.14 0H91.53C75.22 0 62 13.22 62 29.53V87.14C62 103.45 75.22 116.67 91.53 116.67H111.33V74.99H96.7V58.33H111.33V45.63C111.33 31.19 119.94 23.21 133.1 23.21C139.41 23.21 146 24.34 146 24.34V38.52H138.73C131.57 38.52 129.34 42.96 129.34 47.52V58.33H145.32L142.77 74.99H129.34V116.66H129.36H149.14C165.45 116.66 178.67 103.44 178.67 87.13V29.53C178.67 13.22 165.45 0 149.14 0Z" fill="white"/>
<ellipse cx="84.7754" cy="206.5" rx="36" ry="7.5" fill="black" fill-opacity="0.2"/>
<path d="M87.4053 168.98L100.395 189.26C100.395 189.26 96.2653 194.97 100.515 198.73C104.765 202.49 116.175 196.67 113.145 187.32C110.105 177.97 94.0853 159.39 94.0853 159.39L87.4053 168.98Z" fill="#F0514F"/>
<path d="M103.976 200.62C102.446 200.62 101.066 200.17 100.036 199.27C96.5056 196.14 98.0356 191.57 99.5256 189.24L86.7956 169.37C86.6356 169.12 86.6456 168.8 86.8156 168.56L93.4956 158.97C93.6256 158.79 93.8356 158.67 94.0556 158.66C94.2756 158.65 94.4957 158.74 94.6457 158.91C95.3057 159.67 110.806 177.71 113.856 187.09C115.616 192.52 112.816 196.71 109.596 198.81C107.756 200.01 105.776 200.62 103.986 200.62H103.976ZM88.2856 168.99L101.016 188.86C101.176 189.11 101.166 189.44 100.996 189.68C100.846 189.89 97.3057 194.9 101.006 198.18C102.696 199.68 105.976 199.43 108.786 197.59C110.126 196.71 114.356 193.39 112.456 187.54C109.836 179.46 97.0957 164.07 94.1457 160.58L88.2856 169V168.99Z" fill="black"/>
<path d="M64.4561 175.22L75.7161 196.51C75.7161 196.51 71.1261 201.85 75.0461 205.96C78.9661 210.06 90.8261 205.21 88.5761 195.64C86.3261 186.07 71.9061 166.22 71.9061 166.22L64.4561 175.22Z" fill="#F0514F"/>
<path d="M79.0157 208.16C77.2157 208.16 75.6057 207.59 74.5257 206.46C71.2657 203.05 73.1657 198.62 74.8557 196.42L63.8157 175.56C63.6757 175.3 63.7057 174.98 63.8957 174.75L71.3457 165.75C71.4857 165.58 71.7057 165.48 71.9257 165.49C72.1457 165.49 72.3557 165.61 72.4957 165.79C73.0857 166.61 87.0357 185.87 89.2857 195.47C90.5857 201.03 87.4457 204.97 84.0657 206.8C82.3757 207.71 80.6157 208.17 79.0057 208.17L79.0157 208.16ZM65.3257 175.31L76.3557 196.17C76.4957 196.43 76.4557 196.76 76.2657 196.98C76.0957 197.18 72.1557 201.88 75.5757 205.45C77.1457 207.09 80.4157 207.11 83.3757 205.51C84.7857 204.75 89.2757 201.79 87.8757 195.8C85.9357 187.53 74.5157 171.14 71.8657 167.41L65.3257 175.31Z" fill="black"/>
<path d="M7.89551 141.08L51.2155 154.58L51.7155 139.3L9.94551 131.42L7.89551 141.08Z" fill="black"/>
<path d="M51.2153 155.31C51.1453 155.31 51.0653 155.3 50.9953 155.28L7.68527 141.78C7.32527 141.67 7.11527 141.3 7.18527 140.93L9.23527 131.27C9.31527 130.88 9.69527 130.63 10.0853 130.71L51.8453 138.59C52.1953 138.66 52.4453 138.97 52.4353 139.33L51.9353 154.61C51.9353 154.84 51.8153 155.05 51.6253 155.18C51.5053 155.27 51.3553 155.31 51.2053 155.31H51.2153ZM8.74527 140.58L50.5153 153.59L50.9653 139.89L10.5153 132.26L8.74527 140.58Z" fill="black"/>
<path d="M10.3452 131.95C10.3452 131.95 5.45522 127.93 4.29522 129.71C4.29522 129.71 3.11522 130.72 5.96522 132.47C5.96522 132.47 2.33522 130.47 1.63522 132.29C0.935216 134.11 4.98522 134.93 4.98522 134.93C4.98522 134.93 1.33522 133.76 1.03522 135.18C0.735216 136.6 3.65522 137.28 4.38522 137.48C4.38522 137.48 1.75522 136.96 1.45522 138.27C1.15522 139.58 3.53522 140.87 8.41522 140.9L10.3552 131.96L10.3452 131.95Z" fill="#F4B6B3"/>
<path d="M8.40542 141.62C4.75542 141.6 2.10542 140.88 1.11542 139.63C0.74542 139.16 0.61542 138.63 0.73542 138.1C0.83542 137.65 1.08542 137.33 1.39542 137.11C0.65542 136.63 0.11542 135.96 0.31542 135.03C0.40542 134.61 0.65542 134.28 1.03542 134.06C1.11542 134.01 1.20542 133.97 1.29542 133.94C1.20542 133.83 1.11542 133.71 1.05542 133.59C0.78542 133.1 0.75542 132.57 0.95542 132.04C1.15542 131.52 1.53542 131.14 2.05542 130.95C2.46542 130.8 2.92542 130.78 3.40542 130.84C3.36542 130.71 3.34542 130.58 3.33542 130.45C3.29542 129.92 3.51542 129.49 3.74542 129.25C4.01542 128.88 4.41542 128.64 4.89542 128.57C6.87542 128.26 10.1754 130.88 10.8154 131.4C11.0254 131.57 11.1254 131.85 11.0654 132.12L9.12542 141.06C9.05542 141.4 8.75542 141.63 8.41542 141.63L8.40542 141.62ZM3.28542 138.11C2.70542 138.11 2.20542 138.22 2.15542 138.44C2.15542 138.48 2.12542 138.57 2.25542 138.74C2.74542 139.35 4.48542 140.07 7.81542 140.16L9.52542 132.24C8.11542 131.15 6.00542 129.85 5.09542 129.99C4.96542 130.01 4.91542 130.06 4.88542 130.1C4.82542 130.19 4.84542 130.2 4.75542 130.25C4.75542 130.25 4.75542 130.28 4.75542 130.34C4.77542 130.48 4.96542 131.01 6.31542 131.84C6.65542 132.05 6.76542 132.48 6.56542 132.83C6.36542 133.17 5.93542 133.29 5.58542 133.1C4.71542 132.62 3.19542 132.06 2.52542 132.3C2.39542 132.35 2.33542 132.41 2.28542 132.54C2.22542 132.69 2.25542 132.78 2.30542 132.87C2.53542 133.3 3.39542 133.7 4.20542 133.97C4.66542 134.07 5.02542 134.18 5.18542 134.23C5.55542 134.35 5.76542 134.73 5.66542 135.11C5.56542 135.48 5.19542 135.72 4.81542 135.64C4.64542 135.61 4.25542 135.52 3.77542 135.37C2.74542 135.16 1.88542 135.15 1.71542 135.33C1.70542 135.4 1.65542 136.02 4.41542 136.74L4.54542 136.77C4.92542 136.87 5.15542 137.25 5.06542 137.64C4.97542 138.02 4.59542 138.27 4.21542 138.19C3.90542 138.13 3.56542 138.1 3.25542 138.1L3.28542 138.11Z" fill="black"/>
<path d="M76.8452 131.58C76.8452 131.58 94.3352 123.57 104.895 108.63C104.895 108.63 90.5052 68.38 46.9752 73.11C3.43517 77.85 17.6452 115.73 17.6452 115.73C17.6452 115.73 21.2852 129.94 41.8652 137.04L47.6952 178.93C47.6952 178.93 86.3052 193.5 111.075 155.25C111.075 155.25 82.4752 140.5 76.8352 131.57L76.8452 131.58Z" fill="black"/>
<path d="M65.0656 182.39C54.9256 182.39 47.7856 179.75 47.4456 179.62C47.1956 179.53 47.0156 179.3 46.9856 179.04L41.2156 137.59C21.2056 130.51 17.2256 116.96 16.9556 115.96C16.5656 114.9 11.0556 99.39 18.7456 86.91C23.7556 78.76 33.2256 73.87 46.8956 72.39C69.6756 69.91 84.4256 79.83 92.7856 88.59C101.826 98.06 105.436 107.97 105.576 108.38C105.656 108.6 105.626 108.85 105.486 109.05C96.1956 122.18 81.4456 130.1 77.9156 131.86C84.3456 140.58 111.136 154.46 111.416 154.61C111.596 154.7 111.736 154.87 111.786 155.07C111.836 155.27 111.806 155.48 111.696 155.65C98.7356 175.65 81.9656 181.11 70.1656 182.16C68.3956 182.32 66.6956 182.39 65.0656 182.39ZM48.3556 178.39C50.3056 179.04 59.0856 181.7 70.0956 180.7C81.4156 179.68 97.4756 174.46 110.036 155.52C105.466 153.12 81.4756 140.26 76.2256 131.96C76.1156 131.78 76.0856 131.56 76.1456 131.36C76.2056 131.16 76.3456 130.99 76.5356 130.9C76.7056 130.82 93.7256 122.9 104.066 108.51C103.336 106.66 99.5956 97.82 91.6856 89.54C83.5656 81.05 69.2056 71.42 47.0456 73.83C33.8556 75.27 24.7456 79.92 19.9756 87.65C12.5556 99.69 18.2656 115.31 18.3256 115.47C18.3256 115.49 18.3456 115.52 18.3456 115.54C18.3456 115.57 19.2856 119.05 22.6556 123.33C25.7756 127.28 31.6756 132.75 42.0956 136.34C42.3556 136.43 42.5456 136.66 42.5756 136.93L48.3456 178.38L48.3556 178.39Z" fill="black"/>
<path d="M108.605 121C108.605 121 111.745 116.52 113.125 117.73C113.125 117.73 114.345 118.29 112.375 120.42C112.375 120.42 114.935 117.91 115.945 119.27C116.955 120.63 113.765 122.25 113.765 122.25C113.765 122.25 116.535 120.43 117.115 121.54C117.695 122.65 115.415 123.9 114.855 124.23C114.855 124.23 116.925 123.19 117.485 124.2C118.045 125.21 116.355 126.85 112.295 128L108.605 121Z" fill="#F4B6B3"/>
<path d="M112.285 128.66C112.045 128.66 111.825 128.53 111.705 128.31L108.015 121.31C107.905 121.09 107.915 120.83 108.055 120.63C108.465 120.04 110.615 117.09 112.345 116.89C112.775 116.84 113.165 116.94 113.485 117.2C113.735 117.35 114.025 117.66 114.115 118.12C114.135 118.22 114.145 118.32 114.145 118.43C114.515 118.28 114.895 118.2 115.265 118.23C115.755 118.27 116.165 118.5 116.455 118.89C116.755 119.29 116.845 119.75 116.735 120.23C116.705 120.34 116.675 120.45 116.625 120.55C116.695 120.55 116.775 120.57 116.835 120.59C117.205 120.69 117.505 120.92 117.675 121.25C118.055 121.98 117.775 122.66 117.275 123.24C117.595 123.36 117.855 123.57 118.035 123.91C118.265 124.33 118.275 124.81 118.075 125.3C117.545 126.57 115.495 127.8 112.455 128.66C112.395 128.68 112.335 128.68 112.275 128.68L112.285 128.66ZM109.365 121.06L112.615 127.22C115.345 126.37 116.615 125.38 116.875 124.77C116.945 124.61 116.905 124.55 116.895 124.52C116.765 124.28 115.815 124.48 115.135 124.82C114.815 124.98 114.435 124.86 114.265 124.55C114.095 124.24 114.205 123.85 114.505 123.67L114.605 123.61C116.755 122.36 116.525 121.87 116.515 121.85C116.335 121.76 115.635 121.96 114.845 122.37C114.485 122.61 114.175 122.77 114.045 122.84C113.735 123 113.355 122.89 113.185 122.58C113.005 122.28 113.105 121.89 113.395 121.7C113.515 121.62 113.785 121.45 114.145 121.26C114.755 120.85 115.375 120.32 115.465 119.92C115.485 119.84 115.485 119.77 115.405 119.66C115.335 119.57 115.275 119.53 115.165 119.52C114.565 119.48 113.435 120.29 112.825 120.89C112.575 121.14 112.165 121.14 111.905 120.89C111.645 120.64 111.635 120.24 111.885 119.97C112.895 118.88 112.835 118.41 112.825 118.36C112.765 118.33 112.725 118.27 112.685 118.22C112.655 118.2 112.615 118.16 112.505 118.18C111.725 118.27 110.285 119.82 109.365 121.05V121.06Z" fill="black"/>
<path d="M73.3154 133.48L108.795 120.76L112.825 127.41C112.825 127.41 90.3754 142.32 83.9854 145.73L73.3154 133.48Z" fill="black"/>
<path d="M83.9858 146.46C83.7858 146.46 83.5758 146.37 83.4358 146.21L72.7658 133.96C72.6058 133.78 72.5458 133.53 72.6058 133.3C72.6658 133.07 72.8358 132.88 73.0658 132.8L108.546 120.08C108.876 119.96 109.236 120.09 109.416 120.39L113.446 127.04C113.646 127.37 113.556 127.81 113.226 128.02C112.306 128.63 90.6758 142.99 84.3258 146.38C84.2158 146.44 84.0958 146.47 83.9858 146.47V146.46ZM74.5658 133.81L84.1458 144.82C90.3958 141.36 108.356 129.5 111.826 127.2L108.466 121.66L74.5558 133.82L74.5658 133.81Z" fill="black"/>
<path d="M46.9252 85.69C46.9252 85.69 23.2452 86.43 21.1152 106.16C18.9752 125.89 38.3552 129.98 38.3552 129.98C38.3552 129.98 52.6952 133.37 68.8852 125.77C85.0752 118.17 79.5252 100.41 79.5252 100.41C79.5252 100.41 74.9252 82.57 46.9252 85.68V85.69Z" fill="#EBABAB"/>
<path d="M46.6454 131.49C41.6654 131.49 38.4654 130.76 38.1854 130.7C38.0054 130.66 18.2054 126.25 20.3854 106.09C22.5254 86.3 45.8454 85.02 46.8654 84.97C54.9954 84.07 66.3254 84.45 74.2054 91.34C78.9654 95.51 80.1854 100.05 80.2354 100.24C80.2854 100.39 85.7754 118.66 69.1954 126.44C60.4954 130.52 52.3854 131.49 46.6454 131.49ZM53.3054 86.05C51.3554 86.05 49.2554 86.16 47.0054 86.42C46.9854 86.42 46.9654 86.42 46.9454 86.42C46.8854 86.42 41.0554 86.64 35.0654 89.21C27.1354 92.62 22.6854 98.35 21.8354 106.24C19.7954 125.07 37.7454 129.11 38.5054 129.27C38.6654 129.31 52.8254 132.51 68.5754 125.11C84.0054 117.87 78.8854 100.8 78.8254 100.63C78.6454 99.95 74.7354 86.05 53.2954 86.05H53.3054Z" fill="black"/>
<mask id="mask0_123_44112" style="mask-type:luminance" maskUnits="userSpaceOnUse" x="21" y="86" width="59" height="45">
<path d="M47.0051 86.48C47.0051 86.48 23.9551 87.2 21.8751 106.35C19.7951 125.5 38.6551 129.45 38.6551 129.45C38.6551 129.45 52.6151 132.73 68.3751 125.36C84.1351 117.99 78.7351 100.76 78.7351 100.76C78.7351 100.76 74.2651 83.45 46.9951 86.48H47.0051Z" fill="white"/>
</mask>
<g mask="url(#mask0_123_44112)">
<path opacity="0.25" d="M75.2158 119.02C78.6668 116.079 79.4779 111.364 77.0276 108.489C74.5772 105.614 69.7932 105.668 66.3423 108.609C62.8913 111.55 62.0802 116.265 64.5305 119.14C66.9809 122.015 71.7649 121.962 75.2158 119.02Z" fill="url(#paint0_radial_123_44112)"/>
<path opacity="0.25" d="M38.1021 121.948C40.3572 118.911 39.234 114.257 35.5933 111.554C31.9527 108.852 27.1732 109.123 24.9181 112.16C22.6631 115.198 23.7863 119.852 27.4269 122.554C31.0676 125.257 35.847 124.986 38.1021 121.948Z" fill="url(#paint1_radial_123_44112)"/>
</g>
<path d="M30.3455 97.31C30.1255 97.31 29.9155 97.21 29.7755 97.03C29.5255 96.71 29.5855 96.26 29.8955 96.01C30.0755 95.87 34.4355 92.49 39.5955 93.43C39.9955 93.5 40.2555 93.88 40.1855 94.28C40.1155 94.68 39.7355 94.94 39.3355 94.87C34.8355 94.05 30.8455 97.13 30.8055 97.16C30.6755 97.26 30.5155 97.32 30.3555 97.32L30.3455 97.31Z" fill="black"/>
<path d="M57.1454 92.87C56.8754 92.87 56.6154 92.72 56.4854 92.46C56.3054 92.1 56.4654 91.66 56.8254 91.49C61.5354 89.21 66.6454 91.3 66.8554 91.39C67.2254 91.55 67.3954 91.97 67.2454 92.34C67.0854 92.71 66.6654 92.88 66.2954 92.73C66.2454 92.71 61.5754 90.81 57.4554 92.79C57.3554 92.84 57.2454 92.86 57.1354 92.86L57.1454 92.87Z" fill="black"/>
<path d="M40.7559 115.9L60.2759 114.05L60.5359 116.76L40.7559 118.64V115.9Z" fill="white"/>
<path d="M40.756 118.73C40.756 118.73 40.716 118.73 40.696 118.71C40.676 118.69 40.666 118.67 40.666 118.64V115.9C40.666 115.9 40.706 115.81 40.756 115.81L60.276 113.96C60.276 113.96 60.366 113.99 60.376 114.04L60.636 116.75C60.636 116.75 60.636 116.8 60.616 116.82C60.596 116.84 60.576 116.85 60.556 116.85L40.776 118.73H40.756ZM40.846 115.99V118.54L60.436 116.68L60.196 114.15L40.846 115.99Z" fill="white"/>
<path d="M41.0352 118.79L60.4852 116.94C60.4852 116.94 61.3852 125.75 51.3952 126.64C51.3952 126.64 42.1652 127.92 41.0352 118.79Z" fill="#DF4E4A"/>
<path d="M43.7559 124.46C43.7559 124.46 50.7859 118.15 58.8859 123.19C58.8859 123.19 51.7759 130.02 43.7559 124.46Z" fill="#F27584"/>
<path d="M49.6356 127.45C47.1656 127.45 45.0956 126.71 43.4756 125.25C39.7756 121.93 39.7656 116.08 39.7656 115.84C39.7656 115.47 40.0556 115.15 40.4256 115.12L60.2456 113.24C60.4356 113.22 60.6256 113.28 60.7756 113.4C60.9256 113.52 61.0156 113.7 61.0356 113.89L61.0556 114.12C61.3456 117.09 62.2256 126.14 51.1456 127.37C50.6256 127.43 50.1256 127.46 49.6356 127.46V127.45ZM41.2456 116.5C41.3656 118.03 41.9056 121.89 44.4456 124.17C46.0656 125.63 48.2656 126.21 50.9756 125.91C60.1556 124.89 59.9456 118.13 59.6356 114.75L41.2356 116.5H41.2456Z" fill="black"/>
<path d="M41.1054 119.42C40.7354 119.42 40.4154 119.14 40.3854 118.76C40.3454 118.36 40.6454 118 41.0454 117.97L60.2254 116.15C60.6254 116.11 60.9854 116.41 61.0154 116.81C61.0554 117.21 60.7554 117.57 60.3554 117.6L41.1754 119.42C41.1754 119.42 41.1254 119.42 41.1054 119.42Z" fill="black"/>
<path d="M43.7453 124.87C43.5453 124.87 43.3553 124.79 43.2053 124.63C42.9353 124.33 42.9553 123.87 43.2453 123.6C43.3153 123.54 50.1252 117.44 59.2052 122.05C59.5653 122.23 59.7052 122.67 59.5252 123.03C59.3452 123.39 58.9053 123.53 58.5453 123.35C50.3653 119.19 44.2952 124.62 44.2352 124.68C44.0952 124.81 43.9153 124.87 43.7453 124.87Z" fill="black"/>
<path d="M45.5357 112.81C45.5357 112.81 45.4657 112.81 45.4357 112.81C45.0357 112.75 44.7557 112.39 44.8157 111.99C45.0157 110.59 46.2557 107.92 49.5457 107.77C52.7957 107.29 54.5357 109.68 54.9957 111.03C55.1257 111.41 54.9257 111.82 54.5457 111.95C54.1657 112.08 53.7557 111.88 53.6257 111.5C53.5857 111.39 52.6457 108.83 49.8257 109.2C49.7957 109.2 49.7557 109.21 49.7157 109.22C49.6957 109.22 49.6857 109.22 49.6657 109.22C46.6957 109.32 46.2757 112.07 46.2557 112.19C46.2057 112.55 45.8957 112.82 45.5357 112.82V112.81Z" fill="black"/>
<path d="M44.5149 105.32C44.4249 108.38 41.2749 110.76 36.6149 110.62C31.9549 110.48 28.9549 107.91 29.0449 104.86C29.1349 101.81 32.2849 99.42 36.9449 99.56C41.6049 99.7 44.6049 102.27 44.5149 105.32Z" fill="white"/>
<path d="M53.775 104.53C54.385 107.53 57.885 109.35 62.455 108.42C67.025 107.5 69.545 104.46 68.945 101.46C68.335 98.46 64.835 96.64 60.265 97.57C55.695 98.49 53.175 101.53 53.775 104.53Z" fill="white"/>
<path d="M64.0253 97.38C62.1953 98.38 61.0153 100.52 61.2253 102.89C61.4353 105.26 63.0853 107.34 65.2053 107.93C68.2053 106.56 69.7353 104.05 69.2353 101.57C68.7953 99.33 66.8153 97.73 64.0253 97.38Z" fill="#005CA3"/>
<path d="M39.1954 99.71C37.6054 100.81 36.6254 102.82 36.8054 105.03C37.0454 107.8 39.0254 109.96 41.4554 110.29C43.6254 109.34 44.9354 107.59 44.9854 105.55C45.0554 102.8 42.8154 100.41 39.1954 99.71Z" fill="#005CA3"/>
<path d="M60.1349 109.63C58.7349 109.63 57.4549 109.36 56.3349 108.84C54.5849 108.02 53.4249 106.62 53.0749 104.91C52.3549 101.35 55.3249 98.06 60.1349 97.09C64.9449 96.12 68.9549 98 69.6749 101.55C70.3949 105.11 67.4249 108.4 62.6149 109.37C61.7649 109.54 60.9249 109.63 60.1349 109.63ZM54.5049 104.62C54.7549 105.87 55.6249 106.9 56.9549 107.52C58.4049 108.2 60.3149 108.35 62.3349 107.94C66.3149 107.13 68.8049 104.57 68.2549 101.84C67.7049 99.11 64.4149 97.71 60.4349 98.52C56.4549 99.33 53.9649 101.89 54.5149 104.62H54.5049Z" fill="black"/>
<path d="M37.0352 111.59C36.8952 111.59 36.7552 111.59 36.6152 111.59C34.2152 111.52 32.1352 110.85 30.6152 109.65C29.0952 108.45 28.2852 106.83 28.3352 105.08C28.4452 101.45 32.0952 98.93 36.9852 99.07C41.8852 99.22 45.3752 101.96 45.2652 105.58C45.2152 107.33 44.3052 108.9 42.7152 110.01C41.2152 111.05 39.2552 111.6 37.0252 111.6L37.0352 111.59ZM36.5852 100.51C32.7052 100.51 29.8752 102.41 29.7952 105.11C29.7552 106.38 30.3652 107.58 31.5152 108.49C32.7752 109.48 34.5952 110.06 36.6552 110.12C38.7152 110.18 40.5652 109.71 41.8852 108.8C43.0852 107.96 43.7652 106.8 43.8052 105.53C43.8852 102.75 41.0052 100.64 36.9452 100.52C36.8252 100.52 36.7052 100.52 36.5852 100.52V100.51Z" fill="black"/>
<path d="M39.6953 110.86C39.5453 110.86 39.3954 110.81 39.2654 110.72C39.1554 110.64 36.4754 108.62 36.1354 105.21C35.7854 101.74 37.8653 99.94 37.9553 99.87C38.2653 99.61 38.7253 99.65 38.9853 99.96C39.2453 100.27 39.2054 100.72 38.9054 100.98C38.8354 101.04 37.3253 102.4 37.5953 105.07C37.8753 107.82 40.1253 109.54 40.1453 109.55C40.4653 109.79 40.5353 110.25 40.2954 110.57C40.1554 110.76 39.9353 110.86 39.7053 110.86H39.6953Z" fill="black"/>
<path d="M64.1557 108.78C64.0057 108.78 63.8457 108.73 63.7157 108.63C63.6057 108.54 60.9257 106.48 60.5857 103.01C60.2357 99.47 62.3057 97.65 62.3957 97.57C62.6957 97.31 63.1557 97.34 63.4257 97.65C63.6857 97.95 63.6557 98.41 63.3557 98.67C63.2857 98.73 61.7657 100.12 62.0457 102.87C62.3257 105.72 64.5857 107.46 64.6057 107.47C64.9257 107.71 64.9857 108.17 64.7457 108.49C64.6057 108.68 64.3857 108.78 64.1657 108.78H64.1557Z" fill="black"/>
<defs>
<radialGradient id="paint0_radial_123_44112" cx="0" cy="0" r="1" gradientUnits="userSpaceOnUse" gradientTransform="translate(70.8601 112.96) rotate(-40.88) scale(8.178 6.8385)">
<stop stop-color="#D9315C" stop-opacity="0.8"/>
<stop offset="0.14" stop-color="#D9315D" stop-opacity="0.78"/>
<stop offset="0.26" stop-color="#D93160" stop-opacity="0.73"/>
<stop offset="0.38" stop-color="#D93166" stop-opacity="0.65"/>
<stop offset="0.49" stop-color="#D9316F" stop-opacity="0.54"/>
<stop offset="0.54" stop-color="#D93174" stop-opacity="0.47"/>
<stop offset="0.58" stop-color="#D9366F" stop-opacity="0.42"/>
<stop offset="0.77" stop-color="#DB4F5A" stop-opacity="0.19"/>
<stop offset="0.91" stop-color="#DD5E4D" stop-opacity="0.05"/>
<stop offset="1" stop-color="#DE6449" stop-opacity="0"/>
</radialGradient>
<radialGradient id="paint1_radial_123_44112" cx="0" cy="0" r="1" gradientUnits="userSpaceOnUse" gradientTransform="translate(39.2022 119.919) rotate(-142.95) scale(8.178 6.8385)">
<stop stop-color="#D9315C" stop-opacity="0.8"/>
<stop offset="0.14" stop-color="#D9315D" stop-opacity="0.78"/>
<stop offset="0.26" stop-color="#D93160" stop-opacity="0.73"/>
<stop offset="0.38" stop-color="#D93166" stop-opacity="0.65"/>
<stop offset="0.49" stop-color="#D9316F" stop-opacity="0.54"/>
<stop offset="0.54" stop-color="#D93174" stop-opacity="0.47"/>
<stop offset="0.58" stop-color="#D9366F" stop-opacity="0.42"/>
<stop offset="0.77" stop-color="#DB4F5A" stop-opacity="0.19"/>
<stop offset="0.91" stop-color="#DD5E4D" stop-opacity="0.05"/>
<stop offset="1" stop-color="#DE6449" stop-opacity="0"/>
</radialGradient>
</defs>
</svg>
