<svg width="230" height="162" viewBox="0 0 230 162" fill="none" xmlns="http://www.w3.org/2000/svg">
<g clip-path="url(#clip0_208_4068)">
<path d="M136.492 79.2514H163.054C163.054 79.2514 190.292 79.2514 193.576 48.362L193.48 45.5186C193.48 45.5186 193.641 44 192.192 44H163.537C163.537 44 136.138 47.4573 135.172 76.4403L135.236 78.1528C135.236 78.1528 135.816 79.2514 136.46 79.2514H136.492Z" fill="white"/>
<path d="M208.226 88.4923H113.633C113.633 88.4923 111.347 88.4923 111.347 91.4972L111.25 117.281C111.25 117.281 112.892 158.543 157.774 162C157.774 162 191.129 162.937 201.69 132.888H209.353C209.353 132.888 229.25 130.4 229.25 111.175C229.25 111.175 229.669 90.6895 208.226 88.5246V88.4923ZM205.65 120.319L205.843 100.867C205.843 100.867 216.822 100.35 216.822 110.432C216.822 110.432 217.756 120.61 205.618 120.319H205.65Z" fill="white"/>
</g>
<g clip-path="url(#clip1_208_4068)">
<path d="M80.1499 88.8251H99.4365V72.1382H80.1499V88.8251Z" fill="black"/>
<path d="M79.4878 88.8251V72.1382C79.4878 71.7696 79.7874 71.4705 80.1567 71.4705H99.4433C99.8126 71.4705 100.112 71.7696 100.112 72.1382V88.8251C100.112 89.1937 99.8126 89.4928 99.4433 89.4928H80.1567C79.7874 89.4928 79.4878 89.1937 79.4878 88.8251ZM98.7675 72.8129H80.8186V88.1643H98.7675V72.8129Z" fill="black"/>
<path d="M84.4974 78.8087C84.4974 78.8087 83.3756 92.2473 74.659 99.3143C74.659 99.3143 78.54 104.399 74.7426 107.244C70.9452 110.089 64.4722 104.142 64.4722 104.142C64.4722 104.142 57.9156 98.1944 64.0402 93.6315C70.1648 89.0685 73.795 82.5161 75.1746 75.4561L84.4974 78.8157V78.8087Z" fill="#F0514F"/>
<path d="M64.0263 104.635C63.887 104.51 60.5913 101.485 60.7655 97.9023C60.856 96.073 61.8245 94.4523 63.6431 93.0959C69.3148 88.8737 73.0704 82.7249 74.5197 75.3239C74.5546 75.1292 74.673 74.9692 74.8472 74.8718C75.0144 74.7744 75.2235 74.7605 75.4046 74.8231L84.7274 78.1827C85.0131 78.2871 85.1943 78.5653 85.1664 78.8644C85.1176 79.4139 83.961 92.1916 75.5579 99.4395C76.178 100.406 77.3347 102.556 77.0351 104.684C76.8609 105.929 76.2268 106.973 75.1468 107.779C74.2828 108.426 73.3143 108.684 72.3249 108.684C68.4857 108.684 64.2493 104.844 64.0263 104.635ZM75.6764 76.3395C74.0599 83.7334 70.1858 89.8823 64.4444 94.1601C62.9603 95.2661 62.1729 96.5459 62.1033 97.958C61.9569 100.907 64.8973 103.613 64.9322 103.648C66.6183 105.199 71.5933 108.767 74.3455 106.708C75.1399 106.117 75.5858 105.394 75.7112 104.503C76.0248 102.25 74.1504 99.7456 74.1295 99.7247C73.9135 99.4395 73.9623 99.0291 74.241 98.7996C81.6895 92.762 83.4663 81.7441 83.7798 79.2609L75.6833 76.3395H75.6764Z" fill="black"/>
<path d="M105.895 59.437C105.895 59.437 131.495 51.7509 130.289 28.9708C129.084 6.19065 106.543 1.65549 106.543 1.65549C106.543 1.65549 64.5208 -8.80597 53.2053 37.4916C53.2053 37.4916 63.2248 50.3597 78.1566 55.2705C78.1566 55.2705 66.9317 71.6582 50.7944 73.3276C50.7944 73.3276 54.4107 94.0697 86.0441 79.8104C86.0441 79.8104 97.4503 76.2004 106.355 81.4798L105.888 59.4439L105.895 59.437Z" fill="black"/>
<path d="M57.7762 83.4413C51.352 80.0469 50.1814 73.7102 50.1327 73.4389C50.0978 73.258 50.1466 73.0702 50.2581 72.9242C50.3696 72.7781 50.5368 72.6807 50.7249 72.6598C64.4444 71.2409 74.7008 58.7483 77.0838 55.6043C62.6049 50.4849 52.7804 38.0271 52.6829 37.895C52.5574 37.735 52.5156 37.5263 52.5644 37.3246C56.1388 22.7105 63.1135 12.1865 73.3003 6.03758C88.8035 -3.31096 106.536 0.952921 106.683 0.9877C106.913 1.03639 129.746 5.89151 130.965 28.922C132.094 50.1927 110.153 58.6649 106.578 59.903L107.031 81.4519C107.031 81.6954 106.906 81.918 106.697 82.0432C106.488 82.1684 106.23 82.1614 106.021 82.0432C97.7222 77.1254 86.9779 80.2207 86.2812 80.4294C78.7909 83.803 72.3039 85.4932 66.8622 85.4863C63.3992 85.4863 60.3682 84.8046 57.7762 83.4343V83.4413ZM105.665 80.332L105.226 59.4509C105.226 59.1518 105.415 58.8805 105.7 58.797C105.763 58.7761 112.09 56.8424 118.165 52.189C126.248 46.0054 130.101 38.208 129.613 29.0055C128.45 7.0253 106.62 2.35103 106.376 2.30234C106.202 2.2606 88.9846 -1.86416 73.9623 7.19919C64.1726 13.1116 57.4348 23.2461 53.9301 37.3315C55.4072 39.1331 64.9251 50.2206 78.3589 54.6375C78.5609 54.7001 78.7142 54.8601 78.7839 55.0548C78.8536 55.2496 78.8187 55.4722 78.7003 55.6461C78.2404 56.3138 67.4614 71.8112 51.6168 73.898C52.1045 75.5604 53.7559 79.8173 58.4103 82.2727C64.6952 85.5836 73.8926 84.5472 85.7516 79.1983C85.7725 79.1843 85.8004 79.1774 85.8213 79.1704C86.093 79.087 89.8765 77.9184 94.7609 77.9184C98.1333 77.9184 102.028 78.4749 105.644 80.332H105.665Z" fill="black"/>
<path d="M113.33 110.117L37.626 56.6269L40.9287 51.9596L117.107 105.902C117.107 105.902 118.222 107.571 116.57 109.4C116.57 109.4 115.246 110.861 113.33 110.11V110.117Z" fill="#4F3128"/>
<path d="M113.086 110.736C113.037 110.715 112.989 110.687 112.947 110.659L37.2426 57.1764C36.943 56.9607 36.8663 56.5434 37.0823 56.2443L40.385 51.577C40.4895 51.4309 40.6428 51.3335 40.817 51.3057C40.9912 51.2779 41.1724 51.3196 41.3187 51.417L117.497 105.359C117.566 105.408 117.622 105.463 117.664 105.533C118.152 106.256 118.653 108.099 117.065 109.852C117.009 109.908 116.006 111 114.431 111C114.02 111 113.567 110.924 113.079 110.736H113.086ZM41.0887 52.8986L38.5525 56.4738L113.637 109.525C115.044 110.033 116.027 109.004 116.068 108.969C117.162 107.752 116.765 106.694 116.598 106.374L41.0887 52.8986Z" fill="black"/>
<path d="M36.3502 27.35C36.3502 27.35 25.9962 14.1062 24.1637 16.0051C22.3312 17.911 24.1428 19.6917 24.1428 19.6917C24.1428 19.6917 21.732 18.4327 20.5962 20.0882C19.4605 21.7436 21.2233 23.3922 21.2233 23.3922C21.2233 23.3922 19.1818 21.841 18.053 23.733C16.9243 25.625 18.8682 27.1274 18.8682 27.1274C18.8682 27.1274 16.4017 25.4928 15.4541 27.2387C14.5065 28.9846 16.9661 30.6192 16.9661 30.6192C16.9661 30.6192 14.4995 28.9846 13.5031 30.5914C12.5067 32.1981 15.2032 33.8258 15.2032 33.8258C15.2032 33.8258 12.437 31.127 11.0296 33.1094C9.62209 35.0917 12.6948 36.9072 12.6948 36.9072C12.6948 36.9072 9.94957 35.1404 8.91138 37.3037C8.91138 37.3037 8.27732 38.7366 10.6742 39.9399C10.6742 39.9399 7.57358 37.9993 6.49358 40.399C6.49358 40.399 5.67139 41.8736 8.54906 43.2995C8.54906 43.2995 5.07914 41.651 4.25695 44.1134C4.25695 44.1134 3.76224 45.3932 6.59113 46.5618C6.59113 46.5618 3.19785 45.122 2.25721 47.7025C2.25721 47.7025 1.38625 49.038 4.68198 50.0744C4.68198 50.0744 1.33747 48.6555 0.703411 51.4447C0.703411 51.4447 -0.557746 54.7487 15.5028 59.416L37.1237 28.5464L36.3572 27.3569L36.3502 27.35Z" fill="#A76828"/>
<path d="M15.301 60.049C4.3617 56.8702 1.07294 54.2201 0.25075 52.5577C-0.0697646 51.9108 -0.00705521 51.4517 0.0486865 51.2639C0.306492 50.144 0.947522 49.6154 1.43526 49.358C1.57462 49.2885 1.72094 49.2259 1.86726 49.1841C1.74184 49.0172 1.64429 48.8433 1.57462 48.6555C1.39346 48.1547 1.491 47.6886 1.64429 47.4035C1.9439 46.6175 2.45952 46.0679 3.17719 45.7549C3.435 45.6436 3.69977 45.5741 3.96454 45.5324C3.35138 44.6907 3.58132 43.9951 3.62312 43.8908C3.87396 43.1465 4.3617 42.604 5.0306 42.3188C5.35809 42.1797 5.71344 42.1101 6.06182 42.0893C5.95731 41.9154 5.8737 41.7345 5.81796 41.5467C5.56015 40.7259 5.8737 40.1347 5.88763 40.1208C6.22905 39.3696 6.7795 38.8618 7.49021 38.6462C7.75498 38.5627 8.03369 38.5279 8.30543 38.5279C8.01278 37.7141 8.28453 37.0742 8.30543 37.0185C8.63988 36.3229 9.16943 35.8499 9.84529 35.6552C10.0195 35.6065 10.2006 35.5787 10.3748 35.5648C10.2216 35.3004 10.1031 35.0152 10.0404 34.7092C9.89407 34.0206 10.0404 33.3389 10.4794 32.7268C10.9044 32.1286 11.4827 31.7878 12.1586 31.7252C12.3258 31.7113 12.4861 31.7113 12.6533 31.7252C12.5557 31.2035 12.6533 30.6957 12.939 30.2366C13.2525 29.7289 13.7193 29.395 14.2907 29.2698C14.4649 29.2281 14.646 29.2141 14.8272 29.2141C14.5067 28.5186 14.4231 27.7256 14.862 26.9187C15.1686 26.3553 15.6424 25.9797 16.2277 25.8336C16.5343 25.7571 16.8478 25.7502 17.1544 25.785C16.9384 25.0824 16.9593 24.2547 17.4749 23.3922C17.9836 22.5436 18.6455 22.2653 19.1124 22.1749C19.3075 22.1401 19.4956 22.1262 19.6837 22.1332C19.4607 21.3959 19.4816 20.5473 20.053 19.7126C20.7428 18.704 21.8089 18.4884 22.7774 18.5997C22.5405 17.7093 22.6589 16.6173 23.6901 15.5461C23.8783 15.3513 24.1988 15.1357 24.7353 15.1566C27.6478 15.3096 35.368 24.999 36.887 26.9396C36.9009 26.9535 36.9149 26.9744 36.9218 26.9883L37.6883 28.1777C37.8346 28.4073 37.8276 28.6994 37.6743 28.922L16.0535 59.7917C15.9281 59.9725 15.7191 60.0769 15.5031 60.0769C15.4404 60.0769 15.3777 60.0699 15.3149 60.049H15.301ZM35.8 27.7326C30.8181 21.3611 25.6968 16.2138 24.6378 16.4642C23.3418 17.8067 24.3869 18.9961 24.6029 19.2118C24.8398 19.4413 24.8677 19.81 24.6726 20.0812C24.4775 20.3456 24.1152 20.429 23.8225 20.2829C23.8016 20.276 21.9203 19.3231 21.14 20.4638C20.3456 21.6185 21.6207 22.8496 21.6695 22.8983C21.9273 23.1418 21.9552 23.5452 21.7252 23.8165C21.4953 24.0878 21.0912 24.1295 20.8125 23.9208C20.6174 23.7747 19.9206 23.3713 19.3562 23.4756C19.0636 23.5313 18.8197 23.726 18.6176 24.0738C17.8233 25.4024 19.1193 26.4805 19.2656 26.5918C19.5513 26.8144 19.6071 27.2178 19.398 27.51C19.189 27.8021 18.7849 27.8786 18.4853 27.6769C18.1856 27.4822 17.1893 26.9605 16.5413 27.1274C16.3183 27.1831 16.158 27.3152 16.0326 27.5517C15.3846 28.7342 17.3147 30.0419 17.3286 30.0558C17.5237 30.1879 17.6282 30.3966 17.6282 30.6122C17.6282 30.7375 17.5934 30.8696 17.5167 30.9809C17.3147 31.287 16.8966 31.3704 16.59 31.1687C16.2835 30.967 15.2592 30.4244 14.5694 30.5705C14.3534 30.6192 14.1931 30.7375 14.0677 30.9392C13.9493 31.1339 13.9214 31.3148 13.9702 31.5235C14.0538 31.8643 14.3186 32.2121 14.6182 32.5112C15.1826 32.8798 15.5797 33.2624 15.6633 33.3459C15.9072 33.5824 15.9351 33.9649 15.726 34.2292C15.517 34.4936 15.1408 34.5701 14.8481 34.3892C14.7506 34.3336 14.2698 34.0345 13.7821 33.5684C13.3013 33.2624 12.7439 33.005 12.2701 33.0468C11.9844 33.0746 11.7614 33.2137 11.5663 33.4919C11.3434 33.8049 11.2737 34.0971 11.3434 34.424C11.5106 35.2239 12.493 35.996 12.9459 36.2812C12.9947 36.309 13.0295 36.3299 13.0504 36.3438C13.357 36.5386 13.4476 36.9489 13.2595 37.255C13.0713 37.568 12.6672 37.6654 12.3537 37.4776C12.3328 37.4637 12.2979 37.4428 12.2492 37.415C11.859 37.1854 10.8974 36.7472 10.2146 36.942C9.908 37.0255 9.68504 37.2341 9.53175 37.5541C9.42026 37.8532 9.54568 38.4931 10.5839 39.1261C10.8208 39.2443 10.981 39.3417 11.0298 39.3765C11.3294 39.5643 11.4339 39.9608 11.2597 40.2668C11.0855 40.5799 10.6954 40.6981 10.3748 40.5381C10.2216 40.4616 10.0822 40.3851 9.94981 40.3086C9.40633 40.0443 8.5284 39.7382 7.87343 39.933C7.53201 40.0373 7.28118 40.2808 7.08608 40.7051C6.93976 41.025 7.12788 41.8528 8.84194 42.7014C9.16943 42.8613 9.30878 43.2578 9.14852 43.5917C8.98827 43.9186 8.59807 44.0577 8.26362 43.9047C7.79679 43.6821 6.39628 43.1952 5.54621 43.5569C5.2257 43.696 5.01667 43.9395 4.89125 44.3081C4.84944 44.5168 5.10725 45.2263 6.82827 45.9358C6.83524 45.9358 6.84221 45.9358 6.84918 45.9427C7.19059 46.0888 7.34388 46.4783 7.20453 46.8122C7.06518 47.153 6.66802 47.313 6.33357 47.1739H6.3266C6.23602 47.1322 4.73796 46.5409 3.7137 46.9861C3.32351 47.153 3.05177 47.4591 2.88455 47.9251C2.87061 47.9738 2.84274 48.0156 2.81487 48.0642C2.81487 48.0642 2.81487 48.1408 2.84274 48.2173C2.89151 48.3564 3.14235 48.8016 4.39654 49.2676C4.68918 49.3511 4.88428 49.4345 4.94699 49.4554C5.27447 49.5945 5.43473 49.9701 5.31628 50.304C5.19086 50.6379 4.82854 50.8187 4.48712 50.7074C4.3199 50.6518 4.15964 50.6031 4.00635 50.5405C3.46983 50.3875 2.63371 50.2623 2.06236 50.5475C1.707 50.7283 1.47707 51.0691 1.36558 51.5839C1.35862 51.6117 1.35165 51.6465 1.33771 51.6743C1.33771 51.6743 1.42829 51.8969 1.46313 51.9664C1.923 52.8915 4.18751 55.3748 15.2313 58.637L36.3226 28.5255L35.814 27.7395L35.8 27.7326Z" fill="black"/>
<path d="M29.8497 31.5791C30.0378 31.5791 30.2329 31.4956 30.3653 31.3426C30.6022 31.0574 30.5673 30.64 30.2817 30.4035L23.7877 24.9711C23.5021 24.7346 23.084 24.7694 22.8471 25.0546C22.6102 25.3398 22.645 25.7571 22.9307 25.9936L29.4246 31.426C29.55 31.5304 29.7033 31.5791 29.8497 31.5791Z" fill="black"/>
<path d="M27.2648 34.7439C27.4599 34.7439 27.648 34.6604 27.7804 34.5005C28.0173 34.2153 27.9755 33.791 27.6898 33.5614L21.4328 28.442C21.1472 28.2055 20.7291 28.2472 20.4922 28.5324C20.2553 28.8176 20.2971 29.2419 20.5828 29.4715L26.8398 34.5909C26.9652 34.6952 27.1115 34.7439 27.2648 34.7439Z" fill="black"/>
<path d="M25.5506 38.1245C25.7457 38.1245 25.9408 38.0411 26.0732 37.8741C26.3031 37.5889 26.2543 37.1646 25.9686 36.9351L19.6002 31.8574C19.3075 31.6278 18.8894 31.6765 18.6595 31.9617C18.4296 32.2469 18.4784 32.6712 18.764 32.9007L25.1325 37.9784C25.2579 38.0758 25.4043 38.1245 25.5506 38.1245Z" fill="black"/>
<path d="M13.5591 56.5155C13.8099 56.5155 14.0468 56.3763 14.1652 56.1329C14.3255 55.799 14.1792 55.4025 13.8517 55.2426L5.33018 51.1873C4.99573 51.0274 4.59857 51.1734 4.43832 51.5004C4.27806 51.8342 4.42438 52.2307 4.75186 52.3907L13.2734 56.4459C13.364 56.4876 13.4615 56.5085 13.5591 56.5085V56.5155Z" fill="#231F20"/>
<path d="M15.4336 53.6011C15.6705 53.6011 15.9004 53.4759 16.0258 53.2533C16.2 52.9263 16.0816 52.5229 15.7541 52.349L7.97811 48.1617C7.65063 47.9878 7.2465 48.106 7.07231 48.4329C6.89812 48.7598 7.01657 49.1633 7.34405 49.3372L15.12 53.5245C15.2245 53.5802 15.3291 53.6011 15.4336 53.6011Z" fill="#231F20"/>
<path d="M17.8093 49.8519C18.0531 49.8519 18.29 49.7198 18.4015 49.4902C18.5687 49.1633 18.4433 48.7599 18.1089 48.5929L10.1796 44.5308C9.85213 44.3638 9.448 44.489 9.28078 44.8229C9.11355 45.1498 9.23897 45.5533 9.57342 45.7202L17.5027 49.7824C17.6002 49.8311 17.7047 49.8589 17.8093 49.8589V49.8519Z" fill="black"/>
<path d="M20.0319 46.6174C20.2619 46.6174 20.4779 46.5061 20.6033 46.2975C20.7914 45.9845 20.6939 45.5741 20.3734 45.3793L12.7089 40.7607C12.3953 40.5659 11.9842 40.6703 11.7891 40.9902C11.601 41.3032 11.6986 41.7136 12.0191 41.9084L19.6836 46.527C19.7881 46.5896 19.9135 46.6244 20.025 46.6244L20.0319 46.6174Z" fill="black"/>
<path d="M22.1783 43.3483C22.3943 43.3483 22.6033 43.2439 22.7287 43.0561C22.9378 42.7501 22.8611 42.3397 22.5546 42.1241L15.1966 37.0672C14.8901 36.8586 14.472 36.9351 14.2699 37.2411C14.0609 37.5472 14.1376 37.9576 14.4441 38.1732L21.802 43.23C21.9205 43.3065 22.0529 43.3483 22.1783 43.3483Z" fill="black"/>
<path d="M23.983 40.5937C24.185 40.5937 24.3871 40.5033 24.5195 40.3294C24.7424 40.0372 24.6797 39.6199 24.3871 39.3973L17.6981 34.3683C17.4054 34.1457 16.9874 34.2083 16.7644 34.5005C16.5414 34.7926 16.6041 35.2099 16.8968 35.4325L23.5858 40.4615C23.7042 40.552 23.8506 40.5937 23.9899 40.5937H23.983Z" fill="black"/>
<path d="M31.9607 28.9915C32.1419 28.9915 32.323 28.9219 32.4554 28.7759C32.7063 28.5046 32.6853 28.0803 32.4136 27.8299L26.2332 22.1888C25.9615 21.9384 25.5365 21.9592 25.2856 22.2305C25.0348 22.5018 25.0557 22.9261 25.3274 23.1765L31.5078 28.8176C31.6332 28.9359 31.8004 28.9915 31.9607 28.9915Z" fill="black"/>
<path d="M36.5249 27.3848L14.5278 59.3534C14.5278 59.3534 19.5934 63.5478 25.9619 58.157C32.3303 52.7663 40.0297 58.95 40.0297 58.95L44.057 53.601C44.057 53.601 34.7969 48.0364 39.312 39.2374C43.8271 30.4383 36.5319 27.3848 36.5319 27.3848H36.5249Z" fill="#F0514F"/>
<path d="M14.1027 59.8681C13.8379 59.6455 13.7821 59.263 13.9772 58.9778L35.9743 27.0091C36.1555 26.7517 36.4899 26.6474 36.7826 26.7726C36.908 26.8213 39.8275 28.0733 40.9911 31.2452C41.869 33.6379 41.4997 36.4272 39.9041 39.5434C38.1622 42.9447 38.3642 46.2279 40.5103 49.3023C42.1547 51.6603 44.3774 53.0167 44.3983 53.0306C44.5585 53.128 44.67 53.288 44.7118 53.4758C44.7467 53.6636 44.7049 53.8514 44.5864 54.0044L40.5591 59.3534C40.4476 59.4995 40.2873 59.5899 40.1062 59.6177C39.925 59.6455 39.7438 59.5899 39.6045 59.4786C39.5348 59.4229 32.2675 53.6914 26.3867 58.6717C23.7669 60.8906 21.3351 61.5653 19.3354 61.5653C16.1999 61.5653 14.1305 59.8959 14.0957 59.8681H14.1027ZM39.8902 58.0248L43.1023 53.754C41.0398 52.2516 34.6783 46.7913 38.7126 38.9313C40.1271 36.1698 40.4755 33.7423 39.7369 31.7182C39.0401 29.7984 37.5142 28.7063 36.7408 28.2472L15.4544 59.1795C16.8061 60.0072 20.7289 61.7044 25.5297 57.6423C27.5921 55.8964 29.787 55.2912 31.8355 55.2912C35.4587 55.2912 38.636 57.1762 39.8902 58.0248Z" fill="black"/>
<path d="M92.3852 85.5419C92.3852 85.5419 97.9872 66.2606 109.024 69.4324C120.061 72.6042 106.934 89.1311 106.934 89.1311C106.934 89.1311 113.372 85.4585 115.546 91.3848C117.72 97.3111 106.098 97.8119 106.098 97.8119L91.7163 88.1295L92.3852 85.5419Z" fill="#F0514F"/>
<path d="M105.721 98.3684L91.3399 88.6859C91.103 88.526 90.9984 88.2408 91.0681 87.9625L91.737 85.375C91.737 85.375 91.737 85.3611 91.737 85.3541C91.7928 85.1524 93.1933 80.3947 95.9943 75.943C99.8056 69.8776 104.369 67.4013 109.205 68.7925C111.616 69.4811 113.156 70.8305 113.783 72.799C115.274 77.4454 111.128 84.3455 108.836 87.6495C110.034 87.3226 111.546 87.1418 112.961 87.6565C114.431 88.1921 115.511 89.3676 116.166 91.1483C116.674 92.5325 116.563 93.7776 115.845 94.8487C113.671 98.104 106.425 98.4518 106.118 98.4657C106.111 98.4657 106.097 98.4657 106.091 98.4657C105.958 98.4657 105.826 98.424 105.714 98.3544L105.721 98.3684ZM107.268 89.7154C106.989 89.8754 106.641 89.8128 106.432 89.5693C106.223 89.3259 106.216 88.9711 106.418 88.7207C106.495 88.6233 114.292 78.7114 112.522 73.2163C112.027 71.6791 110.822 70.6497 108.843 70.0862C98.649 67.1648 93.1793 85.2428 93.033 85.7297L92.4826 87.8513L106.286 97.1441C108.348 97.0189 113.302 96.2886 114.737 94.1254C115.211 93.4159 115.267 92.5951 114.912 91.6213C114.403 90.2301 113.595 89.3189 112.508 88.9224C112.027 88.7485 111.525 88.679 111.031 88.679C109.121 88.679 107.282 89.7015 107.261 89.7154H107.268Z" fill="black"/>
<path d="M94.6703 90.7587C94.9142 90.7587 95.1441 90.6265 95.2626 90.4039L102.37 76.8819C102.544 76.555 102.418 76.1516 102.091 75.9777C101.763 75.8038 101.359 75.936 101.185 76.2559L94.0781 89.7779C93.9039 90.1048 94.0293 90.5083 94.3568 90.6822C94.4543 90.7309 94.5658 90.7587 94.6703 90.7587Z" fill="black"/>
<path d="M93.8346 89.0615L98.0361 91.8786C98.0361 91.8786 99.2694 85.2289 91.591 84.1438C83.9195 83.0587 83.1949 87.1765 83.1949 87.1765C83.1949 87.1765 81.5366 92.7411 86.1562 94.334C86.1562 94.334 86.8669 95.8851 89.3962 96.1494C89.3962 96.1494 90.4622 98.0136 92.016 97.478C93.5698 96.9424 92.9915 94.64 92.9915 94.64L92.1902 90.6474C92.1902 90.6474 92.9427 89.0476 93.8346 89.0476V89.0615Z" fill="#EBABAB"/>
<path d="M88.9988 96.7755C86.9782 96.4695 86.0375 95.3913 85.6961 94.8835C81.822 93.3811 81.9196 89.1242 82.5397 87.0166C82.6512 86.4949 83.8009 82.3701 91.6814 83.483C94.3082 83.8517 96.2592 84.8881 97.4576 86.5575C99.2135 88.999 98.7118 91.8717 98.6839 91.9969C98.6421 92.2195 98.4958 92.4003 98.2868 92.4908C98.0777 92.5812 97.8408 92.5534 97.6527 92.4282L93.6881 89.7711C93.4581 89.9032 93.1237 90.3066 92.8868 90.7518L93.6323 94.4871C93.8832 95.4887 93.911 97.5406 92.2248 98.118C91.9531 98.2084 91.6883 98.2501 91.4375 98.2501C90.3436 98.2501 89.4726 97.4572 88.9918 96.7755H88.9988ZM94.2107 88.5051L97.4367 90.6753C97.4088 89.785 97.2068 88.4912 96.3776 87.3435C95.3952 85.9802 93.7508 85.1246 91.5002 84.8116C84.63 83.8447 83.8845 87.1696 83.8566 87.3018C83.8566 87.3296 83.8497 87.3505 83.8357 87.3783C83.773 87.58 82.4213 92.3516 86.372 93.715C86.5462 93.7776 86.6855 93.9028 86.7622 94.0697C86.7622 94.0836 87.3753 95.28 89.4656 95.5026C89.6747 95.5235 89.8698 95.6487 89.9743 95.8365C89.9812 95.8504 90.7895 97.2137 91.7998 96.8659C92.7544 96.539 92.3503 94.8348 92.3363 94.7931L91.535 90.8005C91.5072 90.6614 91.5281 90.5153 91.5838 90.3832C91.7371 90.0493 92.5802 88.4008 93.8274 88.4008C93.9319 88.3938 94.0922 88.4425 94.2037 88.5121L94.2107 88.5051Z" fill="black"/>
<path d="M86.0234 88.839C86.0234 88.839 84.9991 91.7674 86.1558 94.334L86.0234 88.839Z" fill="#EBABAB"/>
<path d="M86.1559 95.0017C86.2465 95.0017 86.3371 94.9809 86.4277 94.9461C86.7621 94.7931 86.9154 94.3966 86.7621 94.0627C85.7309 91.7603 86.6437 89.0824 86.6506 89.0615C86.7691 88.7137 86.5879 88.3312 86.2395 88.2129C85.8912 88.0947 85.5079 88.2755 85.3895 88.6233C85.3477 88.7555 84.2956 91.8299 85.5428 94.6122C85.6543 94.8626 85.8981 95.0087 86.1559 95.0087V95.0017Z" fill="black"/>
<path d="M88.9084 90.7031C88.9084 90.7031 88.0653 93.6315 89.3961 96.1564L88.9084 90.7031Z" fill="#EBABAB"/>
<path d="M89.3959 96.8242C89.5004 96.8242 89.6049 96.7963 89.7094 96.7476C90.0369 96.5738 90.1623 96.1703 89.9881 95.8434C88.7967 93.5828 89.5422 90.9118 89.5492 90.8839C89.6537 90.5292 89.4447 90.1605 89.0893 90.0562C88.7339 89.9519 88.3647 90.1605 88.2601 90.5153C88.2253 90.6475 87.3613 93.7288 88.7967 96.4625C88.9151 96.692 89.152 96.8172 89.3889 96.8172L89.3959 96.8242Z" fill="black"/>
<path d="M66.3048 67.1022C66.3048 67.1022 58.4452 72.9172 50.8086 73.3345C50.8086 73.3345 52.7596 85.5767 68.4508 84.7698C68.4508 84.7698 75.6137 84.6307 84.5602 80.4294" fill="black"/>
<path d="M67.0016 85.4724C67.4823 85.4724 67.9771 85.4585 68.4857 85.4306C68.7644 85.4306 75.8715 85.2428 84.8459 81.0276C85.1803 80.8677 85.3267 80.4712 85.1664 80.1373C85.0061 79.8034 84.609 79.6574 84.2745 79.8173C75.5788 83.9004 68.5066 84.0951 68.4369 84.0951C62.1381 84.4151 57.3722 82.6762 54.2646 78.9201C52.6481 76.9655 51.9304 74.9622 51.6378 73.9328C59.1141 73.1885 66.3884 67.8674 66.702 67.6309C67.0016 67.4083 67.0573 66.9909 66.8413 66.6988C66.6183 66.3997 66.2003 66.344 65.9076 66.5597C65.831 66.6153 58.1177 72.2564 50.7738 72.6599C50.5856 72.6668 50.4114 72.7573 50.293 72.9103C50.1745 73.0563 50.1258 73.2511 50.1536 73.432C50.1745 73.5572 52.2509 85.4654 67.0016 85.4654V85.4724Z" fill="black"/>
<path d="M88.5179 63.0122L94.2035 84.269C94.2035 84.269 85.5078 83.3787 83.8356 85.7158L76.0317 64.0208" fill="black"/>
<path d="M83.8354 86.3766C84.0514 86.3766 84.2535 86.2723 84.3789 86.0984C85.4311 84.6307 90.9216 84.6029 94.1337 84.9298C94.3497 84.9507 94.5657 84.8672 94.712 84.7003C94.8584 84.5333 94.9071 84.3038 94.8514 84.0951L89.1657 62.8383C89.0682 62.4836 88.6989 62.268 88.3505 62.3653C87.9952 62.4627 87.7792 62.8244 87.8767 63.1792L93.3185 83.5178C91.2003 83.3717 86.3996 83.2117 84.142 84.5751L76.6657 63.7913C76.5402 63.4435 76.157 63.2626 75.8086 63.3878C75.4603 63.513 75.2791 63.8956 75.4045 64.2434L83.2084 85.9384C83.292 86.1749 83.501 86.3418 83.7449 86.3766C83.7727 86.3766 83.8076 86.3766 83.8354 86.3766Z" fill="black"/>
<path d="M96.9489 11.6231C96.9489 11.6231 118.66 10.4267 122.172 28.2752C125.684 46.1236 108.285 51.3822 108.285 51.3822C108.285 51.3822 95.437 55.6043 80.0313 49.9493C64.6257 44.2943 68.2977 27.6352 68.2977 27.6352C68.2977 27.6352 71.0918 10.9831 96.9559 11.6161L96.9489 11.6231Z" fill="#EBABAB"/>
<path d="M79.7942 50.5754C64.0263 44.7812 67.6007 27.6631 67.6355 27.5309C67.6634 27.3501 68.4159 23.114 72.4433 18.9336C79.1044 12.0126 89.4236 10.7745 96.9418 10.9623C97.8754 10.9206 119.308 10.2528 122.827 28.1569C126.415 46.388 108.654 51.9804 108.487 52.0291C108.174 52.1334 103.589 53.5942 96.6909 53.5942C91.9389 53.5942 86.093 52.8986 79.7942 50.5823V50.5754ZM96.9836 12.2909C96.9836 12.2909 96.9487 12.2909 96.9278 12.2909C71.9695 11.6788 69.0639 27.0927 68.9455 27.7813C68.7992 28.4352 65.594 43.9396 80.2541 49.3233C95.2416 54.8253 107.944 50.791 108.083 50.7423C108.25 50.6936 124.868 45.4629 121.51 28.4004C120.102 21.2638 115.58 16.3878 108.062 13.8976C103.645 12.4369 99.4292 12.27 97.743 12.27C97.2623 12.27 96.9836 12.2839 96.9766 12.2839L96.9836 12.2909Z" fill="black"/>
<mask id="mask0_208_4068" style="mask-type:luminance" maskUnits="userSpaceOnUse" x="68" y="12" width="54" height="41">
<path d="M96.9207 12.1935C96.9207 12.1935 118.054 11.0319 121.475 28.3517C124.896 45.6646 107.951 50.7701 107.951 50.7701C107.951 50.7701 95.4366 54.8671 80.4421 49.379C65.4475 43.8909 69.022 27.7327 69.022 27.7327C69.022 27.7327 71.7394 11.5744 96.9207 12.1935Z" fill="white"/>
</mask>
<g mask="url(#mask0_208_4068)">
<path opacity="0.25" d="M83.4665 43.3886C85.4821 40.5676 84.3682 36.324 80.9785 33.9103C77.5887 31.4965 73.2068 31.8267 71.1912 34.6477C69.1755 37.4686 70.2894 41.7122 73.6792 44.1259C77.0689 46.5397 81.4508 46.2095 83.4665 43.3886Z" fill="url(#paint0_radial_208_4068)"/>
<path opacity="0.25" d="M117.681 43.5959C120.795 40.8426 121.454 36.5077 119.153 33.9137C116.851 31.3197 112.461 31.4489 109.347 34.2022C106.233 36.9555 105.574 41.2903 107.875 43.8843C110.177 46.4783 114.567 46.3492 117.681 43.5959Z" fill="url(#paint1_radial_208_4068)"/>
</g>
<path d="M96.085 44.1761C96.8444 44.1761 98.6421 44.0578 99.8127 43.0005C100.496 42.3815 100.851 41.5677 100.879 40.566C100.9 39.6479 100.593 38.8758 99.959 38.2776C98.3774 36.7821 95.2558 37.0047 95.1234 37.0116C94.7541 37.0395 94.4824 37.3594 94.5103 37.7281C94.5381 38.0967 94.8517 38.368 95.2279 38.3402C95.9665 38.2845 98.0847 38.3402 99.0393 39.2444C99.3877 39.5714 99.5479 39.9957 99.534 40.5312C99.5201 41.1573 99.318 41.6372 98.9069 42.0059C98.029 42.8058 96.3776 42.8753 95.8202 42.8266C95.437 42.8058 95.1304 43.0771 95.1025 43.4457C95.0747 43.8144 95.3534 44.1343 95.7227 44.1622C95.7436 44.1622 95.8759 44.1761 96.078 44.1761H96.085Z" fill="black"/>
<path d="M95.9591 48.6973C102.871 48.6973 106.843 46.0889 107.087 45.9219C107.393 45.7133 107.47 45.3029 107.268 44.9968C107.066 44.6908 106.648 44.6143 106.341 44.816C106.341 44.816 104.16 46.2558 100.314 46.9514C96.7604 47.5983 90.9911 47.7374 83.7029 44.7534C83.3615 44.6143 82.9713 44.7742 82.832 45.1151C82.6926 45.4559 82.8529 45.8454 83.1943 45.9845C88.1483 48.0156 92.4335 48.6903 95.9591 48.6903V48.6973Z" fill="black"/>
<path d="M113.295 23.5661C113.518 23.5661 113.727 23.4548 113.859 23.26C114.061 22.947 113.971 22.5366 113.657 22.3349C113.476 22.2167 109.205 19.5178 104.571 20.8186C104.216 20.916 104.007 21.2846 104.111 21.6394C104.209 21.9941 104.578 22.2028 104.934 22.0984C108.989 20.9577 112.891 23.427 112.933 23.4548C113.044 23.5244 113.169 23.5591 113.295 23.5591V23.5661Z" fill="black"/>
<path d="M79.7944 22.5854C79.899 22.5854 80.0105 22.5576 80.108 22.5089C80.1498 22.488 84.2538 20.3457 88.1905 21.7994C88.5389 21.9316 88.9222 21.7507 89.0476 21.4029C89.173 21.0551 88.9988 20.6726 88.6504 20.5474C84.1493 18.878 79.6621 21.229 79.4739 21.3264C79.1465 21.5003 79.028 21.9037 79.2022 22.2307C79.3206 22.4532 79.5575 22.5854 79.7944 22.5854Z" fill="black"/>
<path d="M100.314 33.4154C100.635 36.1977 103.694 38.1314 107.951 37.6445C112.208 37.1576 114.751 34.577 114.424 31.7947C114.103 29.0124 111.045 27.0787 106.787 27.5656C102.53 28.0525 99.9869 30.6331 100.314 33.4154Z" fill="white"/>
<path d="M91.7858 33.4154C91.4653 36.1977 88.4065 38.1314 84.1492 37.6445C79.8919 37.1576 77.3487 34.577 77.6762 31.7947C77.9967 29.0124 81.0555 27.0787 85.3128 27.5656C89.5701 28.0525 92.1133 30.6331 91.7858 33.4154Z" fill="white"/>
<path d="M81.8566 27.684C83.6125 28.456 84.8528 30.3202 84.8528 32.4973C84.8528 34.7788 83.4941 36.7056 81.6058 37.4081C78.756 36.3856 77.1604 34.2224 77.4182 31.9131C77.6481 29.8333 79.3274 28.2196 81.8566 27.684Z" fill="#005CA3"/>
<path d="M104.739 27.8787C106.279 28.7551 107.338 30.5149 107.338 32.5529C107.338 35.0987 105.686 37.2272 103.491 37.7141C101.436 37.0116 100.098 35.523 99.8892 33.6589C99.6105 31.1479 101.478 28.8038 104.732 27.8787H104.739Z" fill="#005CA3"/>
<path d="M84.0724 38.521C81.8846 38.2706 80.0381 37.4916 78.7352 36.2813C77.4392 35.064 76.819 33.5199 77.0072 31.9339C77.1883 30.3411 78.1429 28.9777 79.6828 28.0874C81.2226 27.1971 83.1945 26.8632 85.3893 27.1136C89.8626 27.6283 92.8309 30.3967 92.4546 33.7077C92.1132 36.6708 89.2495 38.6045 85.4381 38.6045C84.9991 38.6045 84.5393 38.5767 84.0794 38.528L84.0724 38.521ZM91.1238 33.5546C91.4164 31.0158 88.9359 28.8665 85.236 28.4422C83.3617 28.2265 81.6268 28.5117 80.3517 29.2421C79.1881 29.9098 78.4704 30.9184 78.338 32.08C78.2056 33.2416 78.6725 34.3824 79.6549 35.3005C80.7279 36.3022 82.3514 36.9769 84.2257 37.1925C87.9256 37.6168 90.8311 36.0865 91.1238 33.5477V33.5546Z" fill="black"/>
<path d="M99.6455 33.7076C99.2622 30.4036 102.237 27.6283 106.711 27.1136C111.184 26.5988 114.71 28.623 115.093 31.927C115.476 35.2309 112.501 38.0063 108.028 38.521C107.561 38.5767 107.108 38.5975 106.669 38.5975C102.858 38.5975 99.9938 36.6638 99.6524 33.7007L99.6455 33.7076ZM106.864 28.4421C103.157 28.8664 100.684 31.0157 100.976 33.5546C101.269 36.0935 104.168 37.6237 107.874 37.1994C111.581 36.7751 114.055 34.6258 113.762 32.0869C113.504 29.8333 111.184 28.3726 108.076 28.3726C107.686 28.3726 107.282 28.3934 106.864 28.4421Z" fill="black"/>
<path d="M105.094 38.1036C105.247 38.1036 105.408 38.0479 105.533 37.9367C105.631 37.8532 107.923 35.8012 107.972 32.6642C108.021 29.4715 105.979 27.9899 105.895 27.9273C105.596 27.7117 105.178 27.7882 104.962 28.0873C104.753 28.3864 104.822 28.8037 105.115 29.0124C105.185 29.0681 106.669 30.181 106.634 32.6433C106.599 35.1822 104.669 36.9142 104.648 36.935C104.37 37.1785 104.349 37.6028 104.592 37.874C104.725 38.0271 104.906 38.0966 105.094 38.0966V38.1036Z" fill="black"/>
<path d="M82.5606 38.1036C82.7208 38.1036 82.8811 38.048 83.0065 37.9298C83.104 37.8393 85.3894 35.7526 85.4382 32.5529C85.487 29.2977 83.4524 27.7883 83.3618 27.7257C83.0622 27.51 82.6442 27.5726 82.4282 27.8717C82.2122 28.1708 82.2749 28.5812 82.5745 28.8038C82.6442 28.8525 84.1353 30.0002 84.1004 32.5321C84.0656 35.1335 82.1355 36.9212 82.1146 36.9351C81.8429 37.1855 81.822 37.6028 82.0658 37.8741C82.1982 38.0202 82.3794 38.0967 82.5606 38.0967V38.1036Z" fill="black"/>
</g>
<defs>
<radialGradient id="paint0_radial_208_4068" cx="0" cy="0" r="1" gradientUnits="userSpaceOnUse" gradientTransform="translate(91.5436 45.5475) rotate(-144.107) scale(7.49617 6.265)">
<stop stop-color="#D9315C" stop-opacity="0.8"/>
<stop offset="0.14" stop-color="#D9315D" stop-opacity="0.78"/>
<stop offset="0.26" stop-color="#D93160" stop-opacity="0.73"/>
<stop offset="0.38" stop-color="#D93166" stop-opacity="0.65"/>
<stop offset="0.49" stop-color="#D9316F" stop-opacity="0.54"/>
<stop offset="0.54" stop-color="#D93174" stop-opacity="0.47"/>
<stop offset="0.58" stop-color="#D9366F" stop-opacity="0.42"/>
<stop offset="0.77" stop-color="#DB4F5A" stop-opacity="0.19"/>
<stop offset="0.91" stop-color="#DD5E4D" stop-opacity="0.05"/>
<stop offset="1" stop-color="#DE6449" stop-opacity="0"/>
</radialGradient>
<radialGradient id="paint1_radial_208_4068" cx="0" cy="0" r="1" gradientUnits="userSpaceOnUse" gradientTransform="translate(122.473 32.4054) rotate(-41.9411) scale(7.49485 6.26611)">
<stop stop-color="#D9315C" stop-opacity="0.8"/>
<stop offset="0.14" stop-color="#D9315D" stop-opacity="0.78"/>
<stop offset="0.26" stop-color="#D93160" stop-opacity="0.73"/>
<stop offset="0.38" stop-color="#D93166" stop-opacity="0.65"/>
<stop offset="0.49" stop-color="#D9316F" stop-opacity="0.54"/>
<stop offset="0.54" stop-color="#D93174" stop-opacity="0.47"/>
<stop offset="0.58" stop-color="#D9366F" stop-opacity="0.42"/>
<stop offset="0.77" stop-color="#DB4F5A" stop-opacity="0.19"/>
<stop offset="0.91" stop-color="#DD5E4D" stop-opacity="0.05"/>
<stop offset="1" stop-color="#DE6449" stop-opacity="0"/>
</radialGradient>
<clipPath id="clip0_208_4068">
<rect width="118" height="118" fill="white" transform="translate(111.25 44)"/>
</clipPath>
<clipPath id="clip1_208_4068">
<rect width="131" height="111" fill="white"/>
</clipPath>
</defs>
</svg>
