<svg width="462" height="61" viewBox="0 0 462 61" fill="none" xmlns="http://www.w3.org/2000/svg">
<rect x="0.5" y="16.5" width="150" height="28" rx="14" fill="#357672"/>
<path d="M20.3605 25.7727V34.5H18.5153V27.5241H18.4642L16.4656 28.777V27.1406L18.6261 25.7727H20.3605ZM25.2566 34.6918C24.5237 34.6889 23.893 34.5085 23.3646 34.1506C22.839 33.7926 22.4342 33.2741 22.1501 32.5952C21.8688 31.9162 21.7296 31.0994 21.7325 30.1449C21.7325 29.1932 21.8731 28.3821 22.1543 27.7116C22.4384 27.0412 22.8433 26.5312 23.3688 26.1818C23.8972 25.8295 24.5265 25.6534 25.2566 25.6534C25.9867 25.6534 26.6146 25.8295 27.1401 26.1818C27.6685 26.5341 28.0748 27.0455 28.3589 27.7159C28.643 28.3835 28.7836 29.1932 28.7808 30.1449C28.7808 31.1023 28.6387 31.9205 28.3546 32.5994C28.0734 33.2784 27.67 33.7969 27.1444 34.1548C26.6188 34.5128 25.9896 34.6918 25.2566 34.6918ZM25.2566 33.1619C25.7566 33.1619 26.1558 32.9105 26.454 32.4077C26.7523 31.9048 26.9001 31.1506 26.8972 30.1449C26.8972 29.483 26.829 28.9318 26.6927 28.4915C26.5592 28.0511 26.3688 27.7202 26.1217 27.4986C25.8773 27.277 25.589 27.1662 25.2566 27.1662C24.7594 27.1662 24.3617 27.4148 24.0634 27.9119C23.7651 28.4091 23.6146 29.1534 23.6117 30.1449C23.6117 30.8153 23.6785 31.375 23.812 31.8239C23.9484 32.2699 24.1401 32.6051 24.3873 32.8295C24.6344 33.0511 24.9242 33.1619 25.2566 33.1619ZM35.0651 29.592H37.0211V24.48H38.6051V30.876H37.0211V30.552H35.0651V29.592ZM32.8211 25.68C32.0291 25.68 31.5251 25.884 31.5251 26.304C31.5251 26.712 32.0291 26.916 32.8211 26.916C33.6131 26.916 34.1051 26.712 34.1051 26.304C34.1051 25.884 33.6131 25.68 32.8211 25.68ZM32.8211 27.936C31.1651 27.936 30.0611 27.3 30.0611 26.304C30.0611 25.284 31.1651 24.648 32.8211 24.648C34.4651 24.648 35.5811 25.284 35.5811 26.304C35.5811 27.3 34.4651 27.936 32.8211 27.936ZM31.9811 30.888V29.436C31.1051 29.448 30.2531 29.448 29.4731 29.448L29.3171 28.368C31.4291 28.368 34.0571 28.368 36.3731 28.128L36.4691 29.1C35.5091 29.232 34.5371 29.316 33.5651 29.364V30.888H31.9811ZM32.4611 34.368H38.8571V35.448H30.9011V32.808H37.0451V32.28H30.8891V31.212H38.6051V33.804H32.4611V34.368ZM45.9097 25.7727V34.5H44.0646V27.5241H44.0134L42.0148 28.777V27.1406L44.1754 25.7727H45.9097ZM56.3726 24.48V30.012H54.7766V24.48H56.3726ZM48.8846 27.324C48.8846 28.116 49.4966 28.572 50.3126 28.572C51.1286 28.572 51.7166 28.116 51.7166 27.324C51.7166 26.544 51.1286 26.076 50.3126 26.076C49.4966 26.076 48.8846 26.544 48.8846 27.324ZM53.2526 27.324C53.2526 28.8 51.9926 29.856 50.3126 29.856C48.6206 29.856 47.3486 28.8 47.3486 27.324C47.3486 25.86 48.6206 24.804 50.3126 24.804C51.9926 24.804 53.2526 25.86 53.2526 27.324ZM50.5886 34.176H56.6486V35.4H49.0166V32.352H54.8006V31.68H49.0046V30.468H56.3726V33.48H50.5886V34.176ZM67.477 34.14V33.156H63.301V34.14H67.477ZM67.477 31.956V30.9H69.049V35.4H61.729V30.9H63.301V31.956H67.477ZM62.857 28.896C63.673 28.896 64.261 28.404 64.261 27.576C64.261 26.748 63.673 26.256 62.857 26.256C62.053 26.256 61.465 26.748 61.465 27.576C61.465 28.404 62.053 28.896 62.857 28.896ZM67.465 24.48H69.049V30.42H67.465V28.2H65.713C65.413 29.4 64.285 30.216 62.857 30.216C61.201 30.216 59.953 29.112 59.953 27.576C59.953 26.04 61.201 24.936 62.857 24.936C64.261 24.936 65.389 25.74 65.701 26.916H67.465V24.48ZM72.132 26.988V31.776C73.284 31.752 74.172 31.68 75.144 31.488L75.276 32.784C74.04 33.024 72.948 33.072 71.328 33.072H70.572V25.728H74.784V26.988H72.132ZM75.948 28.512V24.684H77.424V35.04H75.948V29.796H74.028V28.512H75.948ZM78.24 24.468H79.74V35.52H78.24V24.468ZM88.2591 24.468H89.8431V35.556H88.2591V24.468ZM83.9031 25.248C85.5711 25.248 86.8071 26.76 86.8071 29.184C86.8071 31.62 85.5711 33.144 83.9031 33.144C82.2351 33.144 80.9991 31.62 80.9991 29.184C80.9991 26.76 82.2351 25.248 83.9031 25.248ZM83.9031 26.676C83.0871 26.676 82.5231 27.552 82.5231 29.184C82.5231 30.828 83.0871 31.704 83.9031 31.704C84.7191 31.704 85.2831 30.828 85.2831 29.184C85.2831 27.552 84.7191 26.676 83.9031 26.676ZM100.066 30.18V31.428H92.3022V25.284H99.9822V26.556H93.9102V27.72H99.7302V28.944H93.9102V30.18H100.066ZM91.1262 32.976H101.134V34.26H91.1262V32.976ZM107.349 33.024H111.573V34.32H101.565V33.024H105.765V31.38H102.717V27.636H108.885V26.448H102.705V25.188H110.445V28.872H104.289V30.108H110.697V31.38H107.349V33.024ZM123.362 24.492V32.424H121.766V24.492H123.362ZM115.886 27.996C115.886 28.884 116.534 29.424 117.35 29.424C118.178 29.424 118.802 28.884 118.802 27.996C118.802 27.084 118.178 26.556 117.35 26.556C116.534 26.556 115.886 27.084 115.886 27.996ZM120.35 27.996C120.35 29.604 119.042 30.792 117.35 30.792C115.658 30.792 114.338 29.604 114.338 27.996C114.338 26.364 115.658 25.188 117.35 25.188C119.042 25.188 120.35 26.364 120.35 27.996ZM117.59 34.08H123.638V35.34H116.006V31.644H117.59V34.08ZM127.273 31.836C127.873 31.836 128.305 31.356 128.305 30.528C128.305 29.7 127.873 29.208 127.273 29.208C126.673 29.208 126.241 29.7 126.241 30.528C126.241 31.356 126.673 31.836 127.273 31.836ZM127.273 27.888C128.689 27.888 129.697 28.98 129.697 30.528C129.697 32.064 128.689 33.156 127.273 33.156C125.857 33.156 124.849 32.064 124.849 30.528C124.849 28.98 125.857 27.888 127.273 27.888ZM128.053 24.78V26.148H129.889V27.408H124.609V26.148H126.493V24.78H128.053ZM132.601 24.468H134.101V35.52H132.601V30.252H131.761V35.064H130.285V24.684H131.761V28.98H132.601V24.468Z" fill="white"/>
<path d="M164.586 30.282V33.27C167.106 33.252 169.194 33.126 171.534 32.73L171.786 34.656C169.086 35.124 166.656 35.232 163.65 35.232H162.156V28.41H167.538V25.764H162.138V23.874H169.968V30.282H164.586ZM172.686 22.452H175.062V39.084H172.686V22.452ZM190.703 22.452V32.37H188.309V22.452H190.703ZM187.031 28.95L187.265 30.858C185.087 31.29 183.035 31.38 179.309 31.38H177.869V23.712H185.717V25.602H180.227V29.472C183.287 29.454 185.087 29.364 187.031 28.95ZM185.105 37.248C187.247 37.248 188.399 36.762 188.399 35.808C188.399 34.836 187.247 34.386 185.105 34.386C182.945 34.386 181.793 34.836 181.793 35.808C181.793 36.762 182.945 37.248 185.105 37.248ZM185.105 32.532C188.579 32.532 190.757 33.738 190.757 35.808C190.757 37.86 188.579 39.066 185.105 39.066C181.613 39.066 179.435 37.86 179.435 35.808C179.435 33.738 181.613 32.532 185.105 32.532ZM201.105 28.806V22.83H203.319V38.31H201.105V30.714H198.513C197.577 32.604 196.065 34.242 193.725 35.61L192.375 33.936C195.687 31.956 197.145 29.562 197.433 26.322H193.293V24.432H199.791C199.791 25.998 199.647 27.456 199.251 28.806H201.105ZM204.597 22.452H206.847V39.03H204.597V22.452ZM219.608 22.452H221.984V39.084H219.608V22.452ZM213.074 23.622C215.576 23.622 217.43 25.89 217.43 29.526C217.43 33.18 215.576 35.466 213.074 35.466C210.572 35.466 208.718 33.18 208.718 29.526C208.718 25.89 210.572 23.622 213.074 23.622ZM213.074 25.764C211.85 25.764 211.004 27.078 211.004 29.526C211.004 31.992 211.85 33.306 213.074 33.306C214.298 33.306 215.144 31.992 215.144 29.526C215.144 27.078 214.298 25.764 213.074 25.764ZM237.318 31.02V32.892H225.672V23.676H237.192V25.584H228.084V27.33H236.814V29.166H228.084V31.02H237.318ZM223.908 35.214H238.92V37.14H223.908V35.214ZM254.191 22.452H256.567V39.084H254.191V22.452ZM247.657 23.622C250.159 23.622 252.013 25.89 252.013 29.526C252.013 33.18 250.159 35.466 247.657 35.466C245.155 35.466 243.301 33.18 243.301 29.526C243.301 25.89 245.155 23.622 247.657 23.622ZM247.657 25.764C246.433 25.764 245.587 27.078 245.587 29.526C245.587 31.992 246.433 33.306 247.657 33.306C248.881 33.306 249.727 31.992 249.727 29.526C249.727 27.078 248.881 25.764 247.657 25.764ZM265.944 37.266C268.158 37.266 269.292 36.888 269.292 36.042C269.292 35.196 268.158 34.836 265.944 34.836C263.73 34.836 262.596 35.196 262.596 36.042C262.596 36.888 263.73 37.266 265.944 37.266ZM265.944 33.036C269.526 33.036 271.704 34.116 271.704 36.042C271.704 37.968 269.526 39.066 265.944 39.066C262.362 39.066 260.202 37.968 260.202 36.042C260.202 34.116 262.362 33.036 265.944 33.036ZM264.234 28.95V30.336H267.69V28.968C267.168 29.022 266.592 29.058 265.98 29.058C265.35 29.058 264.774 29.022 264.234 28.95ZM265.98 24.522C263.73 24.522 262.434 24.972 262.434 25.908C262.434 26.808 263.73 27.276 265.98 27.276C268.248 27.276 269.544 26.808 269.544 25.908C269.544 24.972 268.248 24.522 265.98 24.522ZM270.066 30.336H273.468V32.208H258.492V30.336H261.858V28.338C260.67 27.798 259.986 26.97 259.986 25.908C259.986 23.928 262.326 22.722 265.98 22.722C269.652 22.722 271.992 23.928 271.992 25.908C271.992 26.988 271.29 27.816 270.066 28.356V30.336ZM277.876 33.45C278.794 33.45 279.316 32.208 279.316 29.652C279.316 27.114 278.794 25.872 277.876 25.872C276.976 25.872 276.436 27.114 276.436 29.652C276.436 32.208 276.976 33.45 277.876 33.45ZM282.754 28.572V22.74H284.968V38.31H282.754V30.498H281.458C281.242 33.738 279.892 35.682 277.876 35.682C275.68 35.682 274.294 33.414 274.294 29.652C274.294 25.908 275.68 23.64 277.876 23.64C279.838 23.64 281.17 25.476 281.44 28.572H282.754ZM286.12 22.452H288.37V39.03H286.12V22.452Z" fill="#223232"/>
<path d="M303.803 26.52V25.548H297.341V26.52H303.803ZM306.161 22.722V28.266H294.983V22.722H297.341V23.82H303.803V22.722H306.161ZM308.069 31.02H301.733V32.046H306.233V36.258H297.161V37.158H306.665V38.922H294.803V34.62H303.893V33.792H294.785V32.046H299.357V31.02H293.075V29.148H308.069V31.02ZM320.217 34.692V30.624H318.201V28.716H320.217V27.276H318.201V25.368H320.217V22.47H322.593V34.692H320.217ZM312.747 25.548V30.714C313.251 30.714 313.773 30.696 314.295 30.66V25.548H312.747ZM318.093 30.39L318.237 32.118C315.159 32.64 311.595 32.694 308.985 32.694L308.733 30.768C309.273 30.768 309.849 30.768 310.461 30.768V25.548H309.147V23.658H317.895V25.548H316.581V30.534C317.103 30.498 317.607 30.444 318.093 30.39ZM314.043 36.87H322.971V38.76H311.667V33.774H314.043V36.87ZM331.88 24.45C329.486 24.45 328.352 24.792 328.352 25.53C328.352 26.304 329.486 26.628 331.88 26.628C334.292 26.628 335.426 26.304 335.426 25.53C335.426 24.792 334.292 24.45 331.88 24.45ZM331.88 28.356C328.1 28.356 325.886 27.366 325.886 25.53C325.886 23.712 328.1 22.704 331.88 22.704C335.678 22.704 337.892 23.712 337.892 25.53C337.892 27.366 335.678 28.356 331.88 28.356ZM328.478 36.204V37.14H337.982V38.922H326.12V34.566H335.21V33.684H326.102V31.938H337.55V36.204H328.478ZM324.392 29.148H339.368V31.002H324.392V29.148ZM356.727 30.12V32.01H345.063V23.838H356.601V25.764H347.439V30.12H356.727ZM343.317 35.124H358.329V37.068H343.317V35.124ZM361.891 30.264V33.432C363.889 33.414 365.671 33.324 367.741 33.018L367.921 34.962C365.473 35.34 363.367 35.394 360.883 35.394H359.551V28.392H364.573V25.746H359.515V23.856H366.913V30.264H361.891ZM370.459 22.452H372.853V39.084H370.459V32.388H367.705V30.48H370.459V27.888H367.741V25.98H370.459V22.452ZM379.16 31.812L378.044 29.976C380.636 29.292 381.878 27.582 382.022 25.818H378.692V23.892H387.818V25.818H384.488C384.632 27.456 385.838 29.076 388.376 29.742L387.296 31.578C385.37 31.074 384.056 29.976 383.282 28.572C382.526 30.084 381.176 31.254 379.16 31.812ZM384.47 31.02V33.81C385.82 33.72 387.17 33.612 388.448 33.414L388.592 35.142C385.028 35.844 381.122 35.88 378.278 35.898L377.972 33.972C379.178 33.972 380.6 33.972 382.094 33.918V31.02H384.47ZM389.348 22.452H391.724V39.102H389.348V22.452ZM407.724 27.474L406.86 29.328C404.07 28.914 402.054 27.762 401.01 26.124C399.966 27.744 397.95 28.914 395.178 29.328L394.314 27.474C398.022 27.024 399.804 25.134 399.804 23.262V22.776H402.234V23.262C402.234 25.188 403.98 27.024 407.724 27.474ZM401.01 37.284C403.242 37.284 404.358 36.924 404.358 36.114C404.358 35.286 403.242 34.944 401.01 34.944C398.778 34.944 397.662 35.286 397.662 36.114C397.662 36.924 398.778 37.284 401.01 37.284ZM401.01 33.162C404.61 33.162 406.77 34.224 406.77 36.114C406.77 38.004 404.61 39.048 401.01 39.048C397.41 39.048 395.268 38.004 395.268 36.114C395.268 34.224 397.41 33.162 401.01 33.162ZM402.216 30.372H408.534V32.262H393.558V30.372H399.84V28.356H402.216V30.372ZM418.991 23.928L418.973 25.782H409.199V23.928H412.889V22.344H415.283V23.928H418.991ZM412.295 29.166C412.295 29.958 413.033 30.372 414.095 30.372C415.157 30.372 415.895 29.958 415.895 29.166C415.895 28.374 415.157 27.96 414.095 27.96C413.033 27.96 412.295 28.374 412.295 29.166ZM418.163 29.166C418.163 30.912 416.489 32.1 414.095 32.1C411.701 32.1 410.027 30.912 410.027 29.166C410.027 27.402 411.701 26.232 414.095 26.232C416.489 26.232 418.163 27.402 418.163 29.166ZM419.909 37.014V35.844H413.843V37.014H419.909ZM419.909 34.062V32.802H422.267V38.85H411.485V32.802H413.843V34.062H419.909ZM424.463 26.448V28.392H422.267V32.19H419.891V22.488H422.267V26.448H424.463ZM428.098 24.036V32.928C430.276 32.874 432.634 32.694 435.064 32.208L435.316 34.188C432.49 34.782 429.736 34.962 427.216 34.962H425.74V24.036H428.098ZM436.342 22.452H438.718V39.03H436.342V22.452ZM443.54 25.926V33.126C445.898 33.09 447.86 32.964 450.002 32.604L450.236 34.566C447.734 35.016 445.466 35.106 442.586 35.106H441.182V24H448.904V25.926H443.54ZM455.924 28.59V30.552H453.512V39.084H451.136V22.47H453.512V28.59H455.924ZM458.097 37.6662C457.675 37.6662 457.313 37.517 457.01 37.2188C456.712 36.9162 456.563 36.554 456.563 36.1321C456.563 35.7145 456.712 35.3565 457.01 35.0582C457.313 34.7599 457.675 34.6108 458.097 34.6108C458.506 34.6108 458.864 34.7599 459.171 35.0582C459.478 35.3565 459.631 35.7145 459.631 36.1321C459.631 36.4134 459.559 36.6712 459.414 36.9055C459.273 37.1357 459.088 37.321 458.858 37.4616C458.628 37.598 458.374 37.6662 458.097 37.6662Z" fill="#FFFF00"/>
</svg>
