<svg width="151" height="157" viewBox="0 0 151 157" fill="none" xmlns="http://www.w3.org/2000/svg">
<path d="M139.129 77.2218C138.684 75.1264 137.178 73.4143 135.149 72.7006C125.674 69.3537 98.2831 59.6855 89.5711 56.6093C87.9135 56.0222 86.0651 56.3949 84.768 57.5796C77.8656 63.8762 55.9388 83.8664 48.3684 90.7677C46.7567 92.2373 46.0464 94.4416 46.4987 96.5721L58.229 151.79C58.9324 155.108 62.2051 157.232 65.5415 156.536L146.088 139.766C147.692 139.432 149.099 138.476 149.997 137.108C150.895 135.74 151.206 134.074 150.866 132.478L139.129 77.2218Z" fill="#FAFCFF"/>
<g filter="url(#filter0_d_84_1421)">
<path d="M134.203 69.4908C134.107 67.856 132.697 66.6079 131.05 66.7029L58.233 70.9287C57.4449 70.9744 56.7027 71.3295 56.1796 71.9201C55.653 72.5108 55.3844 73.2807 55.4303 74.0682L58.2189 121.164C58.2719 122.082 58.7526 122.922 59.5195 123.443C60.2829 123.959 61.2478 124.096 62.1278 123.808C87.7656 115.539 110.926 116.868 133.623 119.973C134.507 120.096 135.401 119.814 136.055 119.213C136.712 118.608 137.062 117.747 137.009 116.861C136.415 106.81 134.75 78.7019 134.203 69.4943V69.4908Z" fill="#038DF1"/>
</g>
<path d="M106.53 94.2834C101.649 94.8424 97.2167 91.3478 96.6547 86.4891C96.0928 81.6304 99.6059 77.2253 104.487 76.6663C106.473 76.4378 108.427 76.8632 110.131 77.8933C110.986 78.4101 111.255 79.5175 110.739 80.3648C110.219 81.2156 109.106 81.4828 108.254 80.9695C107.243 80.3578 106.084 80.1046 104.904 80.2418C102.006 80.5757 99.9169 83.1914 100.253 86.0743C100.588 88.9571 103.218 91.0349 106.116 90.7009C108.385 90.4408 110.156 88.7814 110.661 86.693L106.943 87.1184C105.95 87.2309 105.052 86.5243 104.939 85.5364C104.826 84.5485 105.536 83.6555 106.53 83.543L112.361 82.875C113.354 82.7625 114.252 83.4692 114.365 84.4571C114.927 89.3122 111.414 93.7209 106.533 94.2799L106.53 94.2834Z" fill="white"/>
<path d="M82.9722 97.6128C82.0321 97.7217 81.1591 97.0854 80.9859 96.1467C80.8481 95.3803 79.6323 88.5634 80.0599 85.3008V85.2657C80.4452 81.7394 83.2903 78.8882 86.8387 78.4804C91.0551 77.9987 94.8827 81.0152 95.3669 85.2094C95.632 87.4911 94.8509 89.6603 93.409 91.2388L96.1162 91.7837C97.0952 91.9806 97.7279 92.9299 97.5299 93.9037C97.332 94.8776 96.3778 95.5104 95.3988 95.31L87.5915 93.742C86.7362 93.5697 86.1248 92.8138 86.1425 91.9455C86.1566 91.0771 86.7928 90.3423 87.6516 90.2017L88.0898 90.1279C88.1217 90.1208 88.1499 90.1173 88.1817 90.1138C90.4154 89.8572 92.0235 87.8427 91.769 85.6172C91.5146 83.3918 89.4859 81.7957 87.2487 82.0523C85.3614 82.2703 83.8522 83.7891 83.6578 85.6629C83.6578 85.6876 83.6543 85.7086 83.6472 85.7297L83.6402 85.779C83.3433 88.0536 84.188 93.5662 84.5414 95.4963C84.7181 96.4737 84.0678 97.4124 83.0853 97.5882C83.0464 97.5952 83.0075 97.6022 82.9687 97.6057L82.9722 97.6128Z" fill="white"/>
<path d="M99.0035 102.187C98.8374 102.204 98.6642 102.187 98.5016 102.123C92.5428 99.8101 83.7071 103.368 83.6187 103.407C83.1027 103.618 82.5054 103.386 82.2899 102.89C82.0743 102.394 82.3181 101.821 82.8377 101.61C83.2229 101.452 92.1222 97.8729 98.8056 100.141C100.495 99.2405 106.631 96.4104 114.604 98.0452C115.152 98.1577 115.498 98.6745 115.378 99.2019C115.258 99.7292 114.713 100.067 114.166 99.9542C105.765 98.2315 99.5018 102 99.4382 102.039C99.3075 102.12 99.159 102.169 99.007 102.187H99.0035Z" fill="white"/>
<path d="M99.0025 102.187C98.8364 102.204 98.6632 102.187 98.5007 102.123C92.5419 99.8101 83.7061 103.368 83.6178 103.407C83.1018 103.618 82.5045 103.386 82.2889 102.89C82.0733 102.394 82.3172 101.821 82.8367 101.61C83.2219 101.452 92.1213 97.8729 98.8046 100.141C100.494 99.2405 106.63 96.4104 114.603 98.0452C115.151 98.1577 115.497 98.6745 115.377 99.2019C115.257 99.7292 114.712 100.067 114.165 99.9542C105.764 98.2315 99.5009 102 99.4373 102.039C99.3065 102.12 99.158 102.169 99.0061 102.187H99.0025Z" fill="white"/>
<path d="M98.6495 98.9698C98.6035 98.9733 98.5576 98.9698 98.5116 98.9557C91.7576 96.6635 82.6851 100.306 82.2998 100.46C82.1373 100.527 81.9535 100.45 81.8899 100.288C81.8227 100.126 81.9005 99.9437 82.063 99.8769C82.3246 99.7714 84.7102 98.8186 87.9052 98.1682C92.0969 97.3174 95.6913 97.3667 98.5858 98.3159C100.509 97.3104 106.817 94.5295 114.935 96.1924C115.105 96.2276 115.215 96.3928 115.179 96.5616C115.144 96.7303 114.978 96.8393 114.805 96.8041C106.715 95.1447 100.48 98.01 98.7626 98.9276C98.7272 98.9452 98.6883 98.9593 98.6495 98.9628V98.9698Z" fill="white"/>
<mask id="mask0_84_1421" style="mask-type:luminance" maskUnits="userSpaceOnUse" x="46" y="56" width="105" height="101">
<path d="M138.766 77.554C138.32 75.4587 136.815 73.7465 134.786 73.0328C125.311 69.6859 97.9199 60.0178 89.2078 56.9415C87.5503 56.3544 85.7018 56.7271 84.4047 57.9119C77.5023 64.2085 55.5755 84.1986 48.0051 91.0999C46.3935 92.5695 45.6831 94.7738 46.1355 96.9043L57.8658 152.122C58.5691 155.441 61.8418 157.564 65.1782 156.868L145.725 140.098C147.329 139.764 148.736 138.808 149.634 137.44C150.531 136.073 150.842 134.406 150.503 132.81L138.766 77.554Z" fill="white"/>
</mask>
<g mask="url(#mask0_84_1421)">
<path d="M58.5639 164.833L157.524 142.005L144.143 76.712L100.728 113.061L43.165 95.7037L58.5639 164.833Z" fill="url(#paint0_linear_84_1421)"/>
<mask id="mask1_84_1421" style="mask-type:luminance" maskUnits="userSpaceOnUse" x="43" y="76" width="115" height="89">
<path d="M58.5639 164.833L157.524 142.005L144.143 76.712L100.728 113.061L43.165 95.7037L58.5639 164.833Z" fill="white"/>
</mask>
<g mask="url(#mask1_84_1421)">
<path d="M47.2812 168.296L100.723 113.05L185.027 146.983L47.2812 168.296Z" fill="#ECF5FF"/>
</g>
<path d="M115.314 183.955H115.3C114.936 183.937 114.572 183.891 114.215 183.828C114.151 183.817 114.091 183.782 114.056 183.726C114.017 183.67 114.002 183.606 114.013 183.54C114.038 183.406 114.169 183.315 114.303 183.339C114.639 183.399 114.981 183.441 115.328 183.459C115.459 183.466 115.565 183.575 115.565 183.708V183.722C115.558 183.853 115.448 183.958 115.314 183.958V183.955ZM116.957 183.884C116.833 183.884 116.727 183.793 116.71 183.67C116.699 183.606 116.717 183.54 116.756 183.487C116.795 183.434 116.855 183.399 116.922 183.392C117.261 183.346 117.6 183.276 117.929 183.188C117.95 183.181 117.972 183.181 117.993 183.181C118.106 183.181 118.205 183.255 118.233 183.364C118.24 183.385 118.244 183.406 118.244 183.427C118.244 183.54 118.169 183.642 118.06 183.67C117.71 183.765 117.349 183.835 116.989 183.888C116.978 183.888 116.964 183.888 116.954 183.888L116.957 183.884ZM112.67 183.406C112.645 183.406 112.617 183.403 112.596 183.396C112.366 183.322 112.129 183.248 111.885 183.171L111.582 183.076C111.518 183.055 111.465 183.012 111.437 182.953C111.405 182.893 111.401 182.826 111.419 182.763C111.451 182.661 111.546 182.59 111.656 182.59C111.68 182.59 111.709 182.594 111.73 182.601L111.999 182.685C112.253 182.766 112.504 182.844 112.744 182.921C112.85 182.956 112.921 183.051 112.917 183.16C112.917 183.185 112.914 183.209 112.907 183.234C112.875 183.336 112.78 183.406 112.67 183.406ZM119.537 183.1C119.442 183.1 119.353 183.047 119.315 182.963C119.286 182.903 119.279 182.837 119.304 182.773C119.325 182.71 119.371 182.661 119.431 182.633C119.739 182.485 120.039 182.313 120.325 182.126C120.364 182.102 120.414 182.088 120.46 182.088C120.544 182.088 120.622 182.13 120.668 182.2C120.693 182.239 120.707 182.285 120.707 182.334C120.707 182.418 120.665 182.499 120.594 182.545C120.29 182.742 119.972 182.921 119.647 183.083C119.611 183.1 119.576 183.107 119.537 183.107V183.1ZM110.079 182.587C110.055 182.587 110.03 182.587 110.005 182.576H109.998C109.669 182.471 109.334 182.365 108.991 182.256C108.86 182.214 108.786 182.074 108.828 181.944C108.86 181.842 108.956 181.771 109.065 181.771C109.09 181.771 109.118 181.775 109.139 181.782C109.33 181.842 109.521 181.901 109.705 181.961C109.857 182.007 110.005 182.056 110.15 182.102C110.253 182.137 110.323 182.232 110.323 182.341C110.323 182.365 110.32 182.39 110.313 182.415C110.281 182.517 110.185 182.587 110.076 182.587H110.079ZM107.492 181.768C107.468 181.768 107.443 181.764 107.418 181.757C107.418 181.757 107.411 181.757 107.408 181.754C107.079 181.648 106.743 181.543 106.404 181.437C106.273 181.395 106.199 181.254 106.241 181.124C106.273 181.022 106.368 180.952 106.478 180.952C106.503 180.952 106.527 180.956 106.552 180.963L106.732 181.019C107.015 181.11 107.291 181.195 107.563 181.283C107.669 181.318 107.74 181.413 107.736 181.522C107.736 181.546 107.733 181.571 107.726 181.595C107.694 181.697 107.598 181.768 107.489 181.768H107.492ZM121.75 181.564C121.679 181.564 121.612 181.532 121.562 181.479C121.47 181.378 121.478 181.219 121.58 181.128C121.75 180.977 121.926 180.822 122.107 180.66L122.375 180.421C122.474 180.333 122.637 180.344 122.725 180.442C122.768 180.488 122.789 180.548 122.789 180.611C122.789 180.681 122.757 180.748 122.704 180.794C122.428 181.036 122.167 181.272 121.912 181.497C121.866 181.539 121.806 181.56 121.746 181.56L121.75 181.564ZM104.909 180.949C104.884 180.949 104.856 180.945 104.831 180.938C104.555 180.85 104.28 180.762 104 180.674L103.82 180.618C103.757 180.597 103.704 180.555 103.675 180.495C103.644 180.435 103.64 180.369 103.658 180.305C103.689 180.203 103.785 180.133 103.894 180.133C103.919 180.133 103.944 180.136 103.969 180.144C104.297 180.249 104.626 180.351 104.948 180.453L104.979 180.463C105.085 180.495 105.156 180.594 105.153 180.703C105.153 180.727 105.149 180.752 105.142 180.776C105.11 180.878 105.015 180.949 104.905 180.949H104.909ZM102.322 180.129C102.297 180.129 102.269 180.126 102.247 180.119L101.233 179.799C101.102 179.757 101.028 179.616 101.071 179.486C101.102 179.384 101.201 179.314 101.307 179.314C101.332 179.314 101.357 179.317 101.382 179.324L102.392 179.644C102.498 179.676 102.569 179.771 102.566 179.883C102.566 179.908 102.562 179.933 102.555 179.957C102.52 180.059 102.424 180.129 102.318 180.129H102.322ZM123.775 179.764C123.704 179.764 123.637 179.736 123.587 179.683C123.496 179.581 123.506 179.423 123.609 179.331C123.867 179.103 124.132 178.867 124.4 178.628C124.499 178.54 124.665 178.551 124.754 178.649C124.796 178.695 124.817 178.755 124.817 178.818C124.817 178.888 124.786 178.955 124.736 179.001C124.464 179.24 124.199 179.476 123.941 179.704C123.895 179.746 123.835 179.767 123.775 179.767V179.764ZM99.7346 179.31C99.7098 179.31 99.6851 179.307 99.6604 179.3L99.2539 179.17C99.0525 179.106 98.851 179.043 98.6496 178.98C98.5859 178.959 98.5329 178.917 98.5046 178.857C98.4728 178.797 98.4693 178.73 98.487 178.667C98.5188 178.565 98.6177 178.495 98.7238 178.495C98.7485 178.495 98.7733 178.498 98.798 178.505C98.9924 178.568 99.1868 178.628 99.3811 178.688L99.8123 178.825C99.9184 178.857 99.989 178.952 99.9855 179.064C99.9855 179.089 99.982 179.113 99.9749 179.138C99.9431 179.24 99.8477 179.31 99.7381 179.31H99.7346ZM97.1475 178.491C97.1227 178.491 97.098 178.488 97.0733 178.481L96.6173 178.336C96.4336 178.277 96.2462 178.22 96.0624 178.161C95.9317 178.118 95.8575 177.978 95.8999 177.848C95.9317 177.746 96.0271 177.676 96.1367 177.676C96.1614 177.676 96.1861 177.679 96.2109 177.686L96.529 177.788C96.7587 177.862 96.992 177.936 97.2217 178.01C97.3277 178.041 97.3984 178.136 97.3949 178.249C97.3949 178.273 97.3913 178.298 97.3843 178.322C97.3525 178.424 97.257 178.495 97.1475 178.495V178.491ZM125.8 177.967C125.729 177.967 125.662 177.936 125.613 177.883C125.521 177.781 125.531 177.623 125.634 177.531L125.899 177.299C126.072 177.145 126.249 176.986 126.429 176.828C126.528 176.74 126.694 176.751 126.779 176.849C126.821 176.895 126.843 176.955 126.843 177.018C126.843 177.088 126.811 177.155 126.758 177.201L125.963 177.904C125.917 177.946 125.856 177.967 125.796 177.967H125.8ZM94.5639 177.672C94.5392 177.672 94.5109 177.668 94.4862 177.661L94.2246 177.577C93.9737 177.496 93.7263 177.419 93.4754 177.338C93.3446 177.296 93.2704 177.155 93.3128 177.025C93.3446 176.923 93.4435 176.853 93.5496 176.853C93.5743 176.853 93.6026 176.856 93.6238 176.863C93.7864 176.916 93.9489 176.965 94.1115 177.018C94.2882 177.074 94.4614 177.131 94.6346 177.183C94.7406 177.215 94.8113 177.31 94.8078 177.422C94.8078 177.447 94.8042 177.472 94.7972 177.496C94.7618 177.598 94.6664 177.668 94.5604 177.668L94.5639 177.672ZM91.9839 176.853C91.9591 176.853 91.9309 176.849 91.9097 176.842C91.5739 176.737 91.2346 176.628 90.8989 176.522C90.8352 176.501 90.7822 176.459 90.7539 176.399C90.7221 176.34 90.7186 176.273 90.7363 176.209C90.7681 176.108 90.8635 176.037 90.9731 176.037C90.9978 176.037 91.0226 176.041 91.0473 176.048C91.2169 176.1 91.3866 176.157 91.5562 176.209C91.7223 176.262 91.892 176.315 92.0581 176.368C92.1641 176.399 92.2313 176.494 92.2313 176.607C92.2313 176.631 92.2277 176.656 92.2207 176.681C92.1889 176.783 92.0899 176.853 91.9839 176.853ZM127.829 176.167C127.758 176.167 127.691 176.136 127.641 176.083C127.595 176.034 127.574 175.97 127.578 175.904C127.578 175.837 127.61 175.777 127.659 175.731C127.921 175.499 128.186 175.264 128.451 175.028C128.55 174.94 128.716 174.951 128.804 175.046C128.847 175.091 128.868 175.151 128.868 175.215C128.868 175.285 128.836 175.352 128.783 175.397C128.567 175.587 128.355 175.777 128.147 175.963L127.991 176.1C127.945 176.139 127.885 176.164 127.825 176.164L127.829 176.167ZM89.3968 176.034C89.372 176.034 89.3438 176.03 89.3226 176.023C89.1317 175.963 88.9373 175.904 88.7465 175.84C88.6016 175.795 88.4531 175.749 88.3082 175.703C88.1775 175.661 88.1068 175.52 88.1456 175.39C88.1775 175.288 88.2729 175.218 88.3824 175.218C88.4072 175.218 88.4355 175.222 88.4567 175.229L88.8808 175.362C89.0752 175.425 89.2731 175.485 89.4675 175.549C89.5735 175.58 89.6406 175.679 89.6406 175.788C89.6406 175.812 89.6371 175.837 89.63 175.861C89.5947 175.963 89.4993 176.034 89.3932 176.034H89.3968ZM86.8097 175.215C86.7849 175.215 86.7602 175.215 86.7355 175.204C86.5022 175.13 86.2689 175.056 86.0357 174.982L85.7211 174.884C85.5904 174.842 85.5161 174.701 85.5585 174.571C85.5904 174.469 85.6858 174.399 85.7953 174.399C85.8201 174.399 85.8484 174.402 85.8731 174.409L85.9084 174.42C86.2336 174.522 86.5587 174.624 86.8839 174.729C86.9899 174.761 87.0571 174.859 87.0571 174.968C87.0571 174.993 87.0535 175.018 87.0465 175.042C87.0147 175.144 86.9157 175.215 86.8097 175.215ZM84.2226 174.395C84.1978 174.395 84.1731 174.395 84.1484 174.385H84.1413C83.908 174.307 83.6748 174.234 83.4415 174.16L83.134 174.061C83.0704 174.04 83.0174 173.998 82.9891 173.938C82.9573 173.879 82.9538 173.812 82.9714 173.748C83.0033 173.647 83.0987 173.576 83.2082 173.576C83.233 173.576 83.2613 173.58 83.286 173.587C83.445 173.636 83.6005 173.689 83.7596 173.738C83.9398 173.794 84.1201 173.85 84.2968 173.91C84.3993 173.945 84.47 174.04 84.47 174.149C84.47 174.174 84.4664 174.198 84.4594 174.223C84.4276 174.325 84.3286 174.395 84.2226 174.395ZM129.85 174.371C129.78 174.371 129.712 174.343 129.663 174.286C129.571 174.184 129.582 174.026 129.684 173.935L129.776 173.854C130.009 173.647 130.243 173.439 130.479 173.232C130.578 173.144 130.744 173.154 130.833 173.253C130.875 173.298 130.896 173.358 130.896 173.422C130.896 173.492 130.865 173.559 130.812 173.604C130.547 173.84 130.281 174.075 130.02 174.307C129.974 174.35 129.914 174.371 129.854 174.371H129.85ZM81.639 173.576C81.6143 173.576 81.5895 173.576 81.5648 173.566L81.2149 173.457C80.9922 173.386 80.7731 173.316 80.554 173.246C80.4904 173.225 80.4374 173.182 80.4091 173.123C80.3773 173.063 80.3737 172.996 80.3914 172.933C80.4232 172.831 80.5222 172.761 80.6282 172.761C80.653 172.761 80.6777 172.761 80.7024 172.771C81.0064 172.87 81.3139 172.964 81.6249 173.063L81.7168 173.091C81.8228 173.126 81.8935 173.221 81.89 173.33C81.89 173.355 81.8864 173.379 81.8793 173.404C81.8475 173.506 81.7521 173.576 81.6426 173.576H81.639ZM79.0519 172.757C79.0272 172.757 79.0024 172.754 78.9777 172.747L78.6879 172.655C78.4476 172.578 78.2072 172.5 77.9669 172.427C77.8361 172.384 77.7619 172.244 77.8043 172.114C77.8361 172.012 77.9315 171.941 78.0411 171.941C78.0659 171.941 78.0906 171.941 78.1153 171.952C78.4511 172.057 78.7868 172.166 79.1261 172.272C79.2322 172.304 79.2993 172.402 79.2993 172.511C79.2993 172.536 79.2958 172.56 79.2887 172.585C79.2569 172.687 79.1615 172.757 79.0519 172.757ZM131.875 172.574C131.805 172.574 131.738 172.543 131.688 172.49C131.642 172.441 131.621 172.377 131.624 172.311C131.628 172.244 131.656 172.184 131.709 172.138L131.932 171.941C132.119 171.773 132.31 171.604 132.501 171.435C132.6 171.347 132.766 171.358 132.854 171.456C132.897 171.502 132.918 171.562 132.918 171.625C132.918 171.695 132.886 171.762 132.833 171.808C132.568 172.043 132.303 172.279 132.042 172.511C131.996 172.553 131.935 172.574 131.875 172.574ZM76.4684 171.938C76.4436 171.938 76.4153 171.938 76.3941 171.927L76.0336 171.815C75.8145 171.745 75.5954 171.678 75.3798 171.607C75.3162 171.586 75.2632 171.544 75.2349 171.484C75.2031 171.425 75.1995 171.358 75.2172 171.295C75.249 171.193 75.348 171.122 75.454 171.122C75.4788 171.122 75.5035 171.126 75.5282 171.133C75.7438 171.203 75.963 171.27 76.1856 171.34L76.5426 171.453C76.6486 171.484 76.7158 171.583 76.7158 171.692C76.7158 171.716 76.7122 171.741 76.7052 171.766C76.6698 171.868 76.5744 171.938 76.4684 171.938ZM73.8813 171.119C73.8565 171.119 73.8318 171.115 73.807 171.108L73.7116 171.077C73.4006 170.978 73.0966 170.883 72.7927 170.785C72.7291 170.764 72.6761 170.721 72.6478 170.662C72.616 170.602 72.6124 170.535 72.6301 170.472C72.6619 170.37 72.7609 170.3 72.8669 170.3C72.8917 170.3 72.9164 170.303 72.9411 170.31L73.1709 170.384C73.4289 170.465 73.6904 170.549 73.9555 170.634C74.0615 170.665 74.1287 170.764 74.1287 170.873C74.1287 170.897 74.1251 170.922 74.1181 170.946C74.0862 171.048 73.9873 171.119 73.8813 171.119ZM133.901 170.778C133.83 170.778 133.763 170.746 133.713 170.693C133.667 170.644 133.646 170.581 133.65 170.514C133.653 170.447 133.681 170.387 133.731 170.342C133.851 170.236 133.968 170.131 134.088 170.025C134.233 169.895 134.378 169.769 134.523 169.639C134.622 169.551 134.788 169.561 134.876 169.66C134.918 169.705 134.94 169.765 134.94 169.828C134.94 169.899 134.908 169.966 134.855 170.011C134.59 170.247 134.325 170.482 134.063 170.714C134.017 170.757 133.957 170.778 133.897 170.778H133.901ZM71.2942 170.3C71.2694 170.3 71.2447 170.296 71.2199 170.289L70.8842 170.184C70.6544 170.11 70.4283 170.039 70.2056 169.969C70.0748 169.927 70.0006 169.786 70.043 169.656C70.0748 169.554 70.1738 169.484 70.2798 169.484C70.3046 169.484 70.3328 169.484 70.354 169.495C70.6863 169.6 71.022 169.705 71.3684 169.814C71.4744 169.85 71.5451 169.945 71.5416 170.053C71.5416 170.078 71.538 170.103 71.531 170.127C71.4991 170.229 71.4037 170.3 71.2942 170.3ZM68.7071 169.48C68.6823 169.48 68.654 169.477 68.6328 169.47C68.2865 169.361 67.9472 169.252 67.6185 169.15C67.4877 169.108 67.4135 168.967 67.4559 168.837C67.4877 168.735 67.5867 168.665 67.6927 168.665C67.7175 168.665 67.7457 168.668 67.7669 168.675C67.9578 168.735 68.1522 168.798 68.3501 168.858C68.4915 168.904 68.6364 168.95 68.7813 168.995C68.8873 169.027 68.9545 169.125 68.9545 169.234C68.9545 169.259 68.9509 169.284 68.9439 169.308C68.912 169.41 68.8131 169.48 68.7071 169.48ZM135.926 168.978C135.855 168.978 135.788 168.95 135.738 168.893C135.692 168.844 135.671 168.781 135.675 168.714C135.678 168.647 135.71 168.587 135.76 168.542C135.912 168.408 136.064 168.271 136.215 168.137L136.551 167.839C136.65 167.751 136.816 167.761 136.905 167.86C136.947 167.905 136.968 167.965 136.968 168.028C136.968 168.099 136.936 168.166 136.883 168.211C136.686 168.387 136.491 168.559 136.293 168.735L136.088 168.914C136.042 168.957 135.986 168.978 135.922 168.978H135.926ZM66.12 168.658C66.0952 168.658 66.0669 168.654 66.0457 168.647C65.6888 168.535 65.353 168.426 65.0314 168.327C64.9678 168.306 64.9148 168.264 64.8865 168.204C64.8547 168.144 64.8511 168.078 64.8688 168.014C64.9006 167.912 64.9996 167.842 65.1056 167.842C65.1304 167.842 65.1551 167.846 65.1798 167.853C65.4979 167.955 65.8372 168.06 66.1942 168.173C66.2967 168.208 66.3674 168.303 66.3674 168.412C66.3674 168.436 66.3638 168.461 66.3568 168.486C66.3249 168.587 66.2295 168.658 66.12 168.658ZM63.5293 167.835C63.5046 167.835 63.4798 167.832 63.4551 167.825C63.2501 167.761 63.0593 167.698 62.8861 167.645C62.7235 167.593 62.5715 167.547 62.4372 167.505C62.3065 167.462 62.2322 167.322 62.2747 167.192C62.3065 167.09 62.4019 167.019 62.5114 167.019C62.5362 167.019 62.5645 167.023 62.5892 167.03L62.8825 167.121C63.0981 167.188 63.342 167.266 63.6071 167.35C63.7131 167.382 63.7803 167.48 63.7803 167.589C63.7803 167.614 63.7767 167.638 63.7697 167.663C63.7378 167.765 63.6389 167.835 63.5329 167.835H63.5293ZM137.951 167.178C137.88 167.178 137.813 167.146 137.764 167.093C137.718 167.044 137.696 166.981 137.7 166.914C137.703 166.847 137.732 166.787 137.785 166.742L137.873 166.661C138.106 166.453 138.343 166.246 138.576 166.035C138.675 165.947 138.841 165.958 138.926 166.056C138.969 166.102 138.99 166.162 138.99 166.225C138.99 166.295 138.958 166.362 138.905 166.408C138.64 166.643 138.378 166.879 138.113 167.111C138.067 167.153 138.007 167.174 137.947 167.174L137.951 167.178ZM139.98 165.378C139.909 165.378 139.842 165.35 139.792 165.293C139.746 165.244 139.725 165.181 139.729 165.114C139.732 165.047 139.76 164.987 139.813 164.942L140.139 164.653C140.294 164.516 140.453 164.376 140.609 164.235C140.708 164.147 140.874 164.158 140.962 164.256C141.004 164.302 141.026 164.362 141.026 164.425C141.026 164.495 140.994 164.562 140.941 164.608C140.676 164.843 140.411 165.075 140.146 165.311C140.1 165.35 140.04 165.374 139.98 165.374V165.378ZM142.001 163.581C141.93 163.581 141.863 163.553 141.814 163.5C141.768 163.451 141.747 163.388 141.75 163.321C141.754 163.254 141.782 163.194 141.831 163.149C142.097 162.913 142.362 162.678 142.623 162.446C142.722 162.358 142.888 162.368 142.977 162.467C143.019 162.512 143.04 162.572 143.04 162.635C143.04 162.706 143.008 162.773 142.959 162.818C142.839 162.924 142.719 163.029 142.602 163.135C142.457 163.265 142.312 163.391 142.167 163.521C142.121 163.564 142.061 163.585 142.001 163.585V163.581ZM144.026 161.785C143.956 161.785 143.888 161.753 143.839 161.7C143.793 161.651 143.772 161.588 143.775 161.521C143.779 161.454 143.811 161.394 143.86 161.349C144.125 161.113 144.39 160.878 144.652 160.646C144.751 160.558 144.917 160.568 145.005 160.667C145.048 160.712 145.069 160.772 145.069 160.835C145.069 160.906 145.037 160.972 144.988 161.018C144.988 161.018 144.984 161.018 144.981 161.022C144.79 161.19 144.602 161.359 144.412 161.528L144.196 161.721C144.15 161.764 144.09 161.785 144.03 161.785H144.026ZM146.051 159.988C145.981 159.988 145.914 159.956 145.864 159.904C145.818 159.854 145.797 159.791 145.8 159.724C145.804 159.658 145.836 159.598 145.885 159.552L146.2 159.274C146.359 159.134 146.518 158.99 146.677 158.849C146.776 158.761 146.942 158.772 147.03 158.87C147.073 158.916 147.094 158.976 147.094 159.039C147.094 159.109 147.062 159.176 147.009 159.222C146.748 159.454 146.483 159.689 146.218 159.925C146.172 159.963 146.111 159.988 146.051 159.988ZM148.077 158.192C148.006 158.192 147.939 158.16 147.889 158.107C147.797 158.005 147.808 157.847 147.91 157.756C148.176 157.52 148.441 157.285 148.702 157.052C148.801 156.965 148.967 156.975 149.056 157.074C149.098 157.119 149.119 157.179 149.119 157.242C149.119 157.313 149.087 157.379 149.034 157.425C148.773 157.657 148.508 157.893 148.243 158.128C148.197 158.17 148.137 158.192 148.077 158.192ZM150.102 156.395C150.031 156.395 149.964 156.363 149.914 156.311C149.823 156.209 149.833 156.051 149.936 155.959C150.204 155.72 150.469 155.488 150.727 155.256C150.826 155.168 150.992 155.179 151.081 155.277C151.123 155.323 151.144 155.383 151.144 155.446C151.144 155.516 151.113 155.583 151.063 155.629C150.802 155.861 150.536 156.096 150.268 156.332C150.222 156.374 150.162 156.395 150.102 156.395ZM152.127 154.599C152.056 154.599 151.989 154.567 151.94 154.514C151.894 154.465 151.872 154.402 151.876 154.335C151.876 154.268 151.908 154.208 151.961 154.163C152.229 153.924 152.494 153.688 152.752 153.459C152.851 153.372 153.018 153.382 153.106 153.481C153.148 153.526 153.169 153.586 153.169 153.649C153.169 153.72 153.138 153.786 153.085 153.832C152.827 154.064 152.562 154.296 152.293 154.535C152.247 154.574 152.187 154.599 152.127 154.599ZM154.152 152.802C154.081 152.802 154.014 152.77 153.965 152.721C153.873 152.619 153.883 152.461 153.986 152.37C154.124 152.247 154.262 152.127 154.396 152.007C154.527 151.891 154.654 151.779 154.781 151.666C154.88 151.579 155.046 151.589 155.135 151.684C155.177 151.73 155.198 151.79 155.198 151.853C155.198 151.923 155.166 151.99 155.113 152.036C154.855 152.264 154.59 152.5 154.318 152.739C154.272 152.781 154.212 152.802 154.152 152.802ZM156.177 151.002C156.106 151.002 156.039 150.97 155.99 150.918C155.898 150.816 155.909 150.657 156.011 150.566C156.209 150.39 156.403 150.218 156.591 150.053L156.803 149.863C156.902 149.775 157.068 149.786 157.156 149.884C157.199 149.93 157.22 149.989 157.22 150.053C157.22 150.123 157.188 150.19 157.135 150.236L156.944 150.404C156.75 150.577 156.548 150.756 156.34 150.939C156.294 150.981 156.234 151.002 156.174 151.002H156.177ZM158.206 149.202C158.135 149.202 158.068 149.17 158.019 149.118C157.973 149.068 157.951 149.005 157.955 148.938C157.958 148.871 157.987 148.812 158.04 148.766C158.188 148.636 158.33 148.509 158.467 148.386C158.595 148.274 158.718 148.165 158.835 148.059C158.934 147.971 159.1 147.982 159.188 148.08C159.231 148.126 159.252 148.186 159.252 148.249C159.252 148.32 159.22 148.386 159.167 148.432L159.029 148.555C158.824 148.738 158.605 148.931 158.372 149.139C158.326 149.177 158.266 149.202 158.206 149.202ZM160.238 147.402C160.167 147.402 160.1 147.37 160.051 147.318C159.959 147.216 159.969 147.057 160.072 146.966C160.5 146.586 160.733 146.379 160.733 146.379C160.832 146.291 160.998 146.302 161.086 146.396C161.178 146.498 161.168 146.657 161.065 146.748C161.065 146.748 160.98 146.822 160.895 146.899C160.835 146.952 160.761 147.019 160.673 147.096L160.404 147.335C160.358 147.377 160.298 147.398 160.238 147.398V147.402Z" fill="#FD6B06"/>
</g>
<path d="M60.524 62.7864C66.5358 63.6161 70.731 69.1181 69.8899 75.0702C69.0487 81.0222 63.4964 85.1743 57.481 84.3446C51.4692 83.5149 47.274 78.0128 48.1151 72.0608C48.9563 66.1087 54.5087 61.9567 60.524 62.7864Z" fill="#ED5353"/>
<path d="M56.637 71.0131L54.9653 71.7022L53.9121 69.206L58.5597 67.2865L63.3381 78.6246L60.3587 79.855L56.63 71.0131H56.637Z" fill="white"/>
<path d="M122.789 0.667786L83.8836 37.1676L78.978 25.0104L122.789 0.667786Z" fill="#E0EFFF"/>
<path d="M122.789 0.667786L83.8833 37.1676L85.0319 29.6476L122.789 0.667786Z" fill="#9FBFE3"/>
<path d="M122.791 0.667786C122.791 0.667786 71.7557 11.7457 65.3268 13.1414C65.2031 13.1661 65.1042 13.2645 65.0759 13.384C65.0441 13.5071 65.09 13.6336 65.189 13.7145C67.769 15.8274 78.9763 25.0104 78.9763 25.0104L122.791 0.667786Z" fill="#FAFCFF"/>
<path d="M122.793 0.667786C122.793 0.667786 103.821 39.5548 101.623 44.0584C101.574 44.1568 101.482 44.2307 101.372 44.2518C101.263 44.2728 101.149 44.2412 101.068 44.1674C98.6931 42.0158 85.0366 29.6406 85.0366 29.6406L122.793 0.667786Z" fill="#FAFCFF"/>
<path d="M1.9707 98.7081L2.9707 98.7081L1.9707 98.7081ZM50.0649 53.6969L50.346 54.6566L50.0649 53.6969ZM80.2507 40.6314C80.6969 40.3059 80.7946 39.6803 80.4691 39.2342C80.1435 38.788 79.5179 38.6903 79.0718 39.0158L80.2507 40.6314ZM42.6605 126.517C42.1193 126.628 41.77 127.156 41.8802 127.697C41.9905 128.238 42.5185 128.587 43.0597 128.477L42.6605 126.517ZM39.6968 128.986C40.2461 128.929 40.6451 128.437 40.5879 127.888C40.5307 127.339 40.039 126.94 39.4897 126.997L39.6968 128.986ZM36.2691 127.2C35.717 127.213 35.2802 127.672 35.2935 128.224C35.3068 128.776 35.7651 129.213 36.3173 129.199L36.2691 127.2ZM32.9393 129.156C33.4909 129.183 33.9601 128.758 33.9872 128.207C34.0142 127.655 33.589 127.186 33.0374 127.159L32.9393 129.156ZM29.8166 126.884C29.2683 126.817 28.7697 127.207 28.7029 127.756C28.6361 128.304 29.0264 128.803 29.5746 128.869L29.8166 126.884ZM26.2372 128.337C26.7789 128.444 27.3052 128.092 27.4127 127.55C27.5202 127.009 27.1683 126.482 26.6265 126.375L26.2372 128.337ZM23.4902 125.623C22.9588 125.472 22.406 125.781 22.2556 126.313C22.1052 126.844 22.4141 127.397 22.9455 127.547L23.4902 125.623ZM19.7244 126.484C20.2406 126.68 20.8182 126.421 21.0144 125.905C21.2107 125.388 20.9512 124.811 20.435 124.614L19.7244 126.484ZM17.4948 123.334C17 123.089 16.4 123.291 16.1548 123.786C15.9096 124.281 16.112 124.881 16.6069 125.126L17.4948 123.334ZM13.6351 123.452C14.1008 123.749 14.719 123.612 15.0159 123.147C15.3129 122.681 15.1761 122.063 14.7104 121.766L13.6351 123.452ZM12.1304 119.9C11.7032 119.55 11.0731 119.613 10.7232 120.04C10.3732 120.467 10.4358 121.097 10.8631 121.447L12.1304 119.9ZM8.35215 119.109C8.73116 119.511 9.36406 119.53 9.76577 119.151C10.1675 118.772 10.1859 118.139 9.80686 117.737L8.35215 119.109ZM7.79054 115.292C7.46855 114.844 6.84378 114.741 6.39507 115.063C5.94635 115.385 5.84362 116.01 6.16561 116.458L7.79054 115.292ZM4.35661 113.542C4.61576 114.03 5.22121 114.215 5.70892 113.956C6.19662 113.697 6.3819 113.091 6.12274 112.603L4.35661 113.542ZM4.81769 109.707C4.62331 109.19 4.04667 108.929 3.52972 109.123C3.01277 109.317 2.75128 109.894 2.94566 110.411L4.81769 109.707ZM1.93793 107.148C2.0699 107.684 2.61162 108.012 3.14791 107.88C3.6842 107.748 4.01196 107.206 3.88 106.67L1.93793 107.148ZM3.2841 103.52C3.20981 102.973 2.70594 102.589 2.15867 102.664C1.61141 102.738 1.22799 103.242 1.30228 103.789L3.2841 103.52ZM1.00642 100.419C1.02974 100.971 1.49597 101.399 2.04776 101.376C2.59955 101.352 3.02796 100.886 3.00463 100.334L1.00642 100.419ZM3.00942 97.1482C3.03693 96.5966 2.61208 96.1271 2.06048 96.0996C1.50888 96.0721 1.03942 96.497 1.0119 97.0486L3.00942 97.1482ZM1.34262 93.7683C1.25922 94.3142 1.6342 94.8244 2.18015 94.9078C2.7261 94.9912 3.23629 94.6162 3.31969 94.0703L1.34262 93.7683ZM3.9445 91.0382C4.08372 90.5037 3.76332 89.9576 3.22887 89.8184C2.69442 89.6792 2.1483 89.9996 2.00908 90.534L3.9445 91.0382ZM3.00374 87.3845C2.81101 87.9021 3.07435 88.4779 3.59192 88.6706C4.10949 88.8633 4.68529 88.6 4.87802 88.0824L3.00374 87.3845ZM6.10171 85.2319C6.34372 84.7355 6.13747 84.1369 5.64104 83.8949C5.1446 83.6528 4.54597 83.8591 4.30396 84.3555L6.10171 85.2319ZM5.88029 81.4671C5.59427 81.9395 5.74541 82.5544 6.21786 82.8404C6.69031 83.1264 7.30517 82.9753 7.59119 82.5028L5.88029 81.4671ZM9.3168 79.907C9.64113 79.46 9.54167 78.8347 9.09464 78.5104C8.64762 78.186 8.02232 78.2855 7.69799 78.7325L9.3168 79.907ZM9.72239 76.1563C9.36528 76.5776 9.4173 77.2087 9.83859 77.5658C10.2599 77.9229 10.8909 77.8709 11.248 77.4496L9.72239 76.1563ZM13.3557 75.1307C13.7406 74.7346 13.7315 74.1015 13.3354 73.7166C12.9394 73.3317 12.3063 73.3408 11.9214 73.7369L13.3557 75.1307ZM14.266 71.4692C13.8577 71.8411 13.8282 72.4736 14.2001 72.8819C14.572 73.2902 15.2045 73.3196 15.6128 72.9477L14.266 71.4692ZM17.9973 70.8941C18.4253 70.5451 18.4893 69.9152 18.1403 69.4872C17.7912 69.0592 17.1613 68.9951 16.7333 69.3442L17.9973 70.8941ZM19.3027 67.3537C18.8581 67.6813 18.7632 68.3073 19.0908 68.7519C19.4183 69.1966 20.0443 69.2915 20.489 68.9639L19.3027 67.3537ZM23.0737 67.1484C23.5325 66.8409 23.6552 66.2197 23.3477 65.761C23.0402 65.3022 22.419 65.1795 21.9603 65.487L23.0737 67.1484ZM24.6902 63.7374C24.2194 64.0261 24.0717 64.6418 24.3604 65.1127C24.6491 65.5835 25.2648 65.7311 25.7356 65.4424L24.6902 63.7374ZM28.4616 63.8405C28.9428 63.5694 29.1131 62.9596 28.842 62.4784C28.5709 61.9972 27.961 61.8269 27.4799 62.098L28.4616 63.8405ZM30.3306 60.5563C29.8404 60.8108 29.6494 61.4144 29.9039 61.9046C30.1584 62.3948 30.762 62.5858 31.2522 62.3313L30.3306 60.5563ZM34.0866 60.9169C34.5846 60.6781 34.7947 60.0808 34.5559 59.5828C34.3171 59.0848 33.7198 58.8747 33.2218 59.1135L34.0866 60.9169ZM36.1598 57.7588C35.6549 57.9826 35.427 58.5734 35.6507 59.0783C35.8745 59.5832 36.4653 59.8111 36.9702 59.5873L36.1598 57.7588ZM39.8855 58.345C40.3966 58.1357 40.6412 57.5517 40.432 57.0406C40.2227 56.5295 39.6387 56.2849 39.1276 56.4941L39.8855 58.345ZM42.1406 55.3094C41.6239 55.5043 41.363 56.0812 41.5579 56.598C41.7528 57.1147 42.3297 57.3756 42.8465 57.1807L42.1406 55.3094ZM45.8333 56.1016C46.3553 55.9212 46.6323 55.3519 46.452 54.8299C46.2717 54.3078 45.7024 54.0308 45.1803 54.2111L45.8333 56.1016ZM48.2507 53.2012C47.7234 53.3657 47.4293 53.9264 47.5938 54.4536C47.7582 54.9809 48.3189 55.275 48.8462 55.1105L48.2507 53.2012ZM51.9322 54.1906C52.4619 54.0343 52.7646 53.4782 52.6084 52.9485C52.4521 52.4188 51.8961 52.116 51.3663 52.2723L51.9322 54.1906ZM54.5099 51.3322C53.9816 51.4931 53.6837 52.0519 53.8447 52.5802C54.0056 53.1085 54.5643 53.4064 55.0926 53.2455L54.5099 51.3322ZM58.2529 52.2539C58.7781 52.083 59.0654 51.5188 58.8945 50.9936C58.7237 50.4684 58.1595 50.1811 57.6343 50.3519L58.2529 52.2539ZM60.7183 49.2969C60.199 49.4849 59.9305 50.0583 60.1185 50.5776C60.3065 51.0969 60.8799 51.3655 61.3992 51.1774L60.7183 49.2969ZM64.5121 49.9685C65.0217 49.7555 65.2622 49.1698 65.0492 48.6602C64.8363 48.1506 64.2506 47.9102 63.741 48.1231L64.5121 49.9685ZM66.6872 46.791C66.1909 47.0333 65.9851 47.6321 66.2275 48.1284C66.4699 48.6246 67.0687 48.8304 67.5649 48.5881L66.6872 46.791ZM70.5288 47.0311C71.0102 46.7605 71.1812 46.1508 70.9106 45.6694C70.64 45.1879 70.0304 45.017 69.5489 45.2875L70.5288 47.0311ZM72.3377 43.627C71.8698 43.9204 71.7283 44.5376 72.0217 45.0055C72.3151 45.4734 72.9322 45.6149 73.4001 45.3215L72.3377 43.627ZM76.1868 43.5002C76.644 43.1902 76.7633 42.5684 76.4534 42.1113C76.1435 41.6542 75.5217 41.5348 75.0645 41.8447L76.1868 43.5002ZM77.7411 39.9776C77.2918 40.2989 77.1882 40.9235 77.5095 41.3727C77.8308 41.8219 78.4554 41.9256 78.9046 41.6043L77.7411 39.9776ZM44.1997 126.155C43.7151 126.286 43.201 126.407 42.6605 126.517L43.0597 128.477C43.6383 128.359 44.1932 128.229 44.7211 128.086L44.1997 126.155ZM39.4897 126.997C38.4648 127.103 37.3868 127.173 36.2691 127.2L36.3173 129.199C37.4866 129.171 38.6178 129.098 39.6968 128.986L39.4897 126.997ZM33.0374 127.159C31.9809 127.107 30.904 127.017 29.8166 126.884L29.5746 128.869C30.7111 129.008 31.8359 129.102 32.9393 129.156L33.0374 127.159ZM26.6265 126.375C25.5785 126.167 24.5303 125.917 23.4902 125.623L22.9455 127.547C24.0392 127.857 25.1394 128.119 26.2372 128.337L26.6265 126.375ZM20.435 124.614C19.4358 124.235 18.4532 123.809 17.4948 123.334L16.6069 125.126C17.6262 125.631 18.6682 126.083 19.7244 126.484L20.435 124.614ZM14.7104 121.766C13.8163 121.196 12.9539 120.575 12.1304 119.9L10.8631 121.447C11.7507 122.175 12.6776 122.842 13.6351 123.452L14.7104 121.766ZM9.80686 117.737C9.08954 116.977 8.41519 116.163 7.79054 115.292L6.16561 116.458C6.84361 117.403 7.57508 118.286 8.35215 119.109L9.80686 117.737ZM6.12274 112.603C5.63801 111.691 5.20106 110.727 4.81769 109.707L2.94566 110.411C3.35906 111.51 3.83131 112.553 4.35661 113.542L6.12274 112.603ZM3.88 106.67C3.6332 105.667 3.4331 104.618 3.2841 103.52L1.30228 103.789C1.46054 104.955 1.6737 106.074 1.93793 107.148L3.88 106.67ZM3.00463 100.334C2.98214 99.8024 2.9707 99.2604 2.9707 98.7081L0.970703 98.7081C0.9707 99.288 0.982716 99.8582 1.00642 100.419L3.00463 100.334ZM2.9707 98.7081C2.97071 98.1827 2.98376 97.6627 3.00942 97.1482L1.0119 97.0486C0.984583 97.5963 0.970706 98.1495 0.970703 98.7081L2.9707 98.7081ZM3.31969 94.0703C3.47756 93.0368 3.68712 92.0262 3.9445 91.0382L2.00908 90.534C1.73458 91.5879 1.51103 92.6659 1.34262 93.7683L3.31969 94.0703ZM4.87802 88.0824C5.2403 87.1094 5.64956 86.1594 6.10171 85.2319L4.30396 84.3555C3.82436 85.3393 3.38936 86.3489 3.00374 87.3845L4.87802 88.0824ZM7.59119 82.5028C8.12848 81.6153 8.70507 80.7502 9.3168 79.907L7.69799 78.7325C7.05516 79.6185 6.44765 80.5299 5.88029 81.4671L7.59119 82.5028ZM11.248 77.4496C11.9215 76.6551 12.6255 75.8822 13.3557 75.1307L11.9214 73.7369C11.1612 74.5192 10.4267 75.3255 9.72239 76.1563L11.248 77.4496ZM15.6128 72.9477C16.3874 72.2422 17.1836 71.5577 17.9973 70.8941L16.7333 69.3442C15.8929 70.0296 15.0689 70.7378 14.266 71.4692L15.6128 72.9477ZM20.489 68.9639C21.3388 68.3378 22.2018 67.7328 23.0737 67.1484L21.9603 65.487C21.065 66.087 20.1777 66.7091 19.3027 67.3537L20.489 68.9639ZM25.7356 65.4424C26.6414 64.8871 27.5516 64.3532 28.4616 63.8405L27.4799 62.098C26.5495 62.6222 25.618 63.1685 24.6902 63.7374L25.7356 65.4424ZM31.2522 62.3313C32.2046 61.8368 33.1512 61.3655 34.0866 60.9169L33.2218 59.1135C32.2683 59.5708 31.3027 60.0515 30.3306 60.5563L31.2522 62.3313ZM36.9702 59.5873C37.9651 59.1463 38.9393 58.7324 39.8855 58.345L39.1276 56.4941C38.1647 56.8884 37.173 57.3098 36.1598 57.7588L36.9702 59.5873ZM42.8465 57.1807C43.8984 56.7839 44.8983 56.4245 45.8333 56.1016L45.1803 54.2111C44.2285 54.5399 43.211 54.9057 42.1406 55.3094L42.8465 57.1807ZM48.8462 55.1105C49.3879 54.9416 49.8893 54.7904 50.346 54.6566L49.7837 52.7373C49.3161 52.8743 48.8035 53.0288 48.2507 53.2012L48.8462 55.1105ZM50.346 54.6566C50.888 54.4978 51.4165 54.3427 51.9322 54.1906L51.3663 52.2723C50.8522 52.4239 50.3251 52.5787 49.7837 52.7373L50.346 54.6566ZM55.0926 53.2455C56.2004 52.9081 57.2495 52.5802 58.2529 52.2539L57.6343 50.3519C56.6459 50.6734 55.6092 50.9974 54.5099 51.3322L55.0926 53.2455ZM61.3992 51.1774C62.4716 50.7891 63.5022 50.3905 64.5121 49.9685L63.741 48.1231C62.7645 48.5312 61.7642 48.9182 60.7183 49.2969L61.3992 51.1774ZM67.5649 48.5881C68.5469 48.1084 69.5279 47.5936 70.5288 47.0311L69.5489 45.2875C68.5805 45.8318 67.6336 46.3287 66.6872 46.791L67.5649 48.5881ZM73.4001 45.3215C74.2968 44.7593 75.2214 44.1547 76.1868 43.5002L75.0645 41.8447C74.1165 42.4875 73.2119 43.0789 72.3377 43.627L73.4001 45.3215ZM78.9046 41.6043C79.3438 41.2902 79.7922 40.9661 80.2507 40.6314L79.0718 39.0158C78.618 39.347 78.1747 39.6674 77.7411 39.9776L78.9046 41.6043Z" fill="#A4C1DE"/>
<defs>
<filter id="filter0_d_84_1421" x="55.4253" y="66.6978" width="85.5889" height="61.2587" filterUnits="userSpaceOnUse" color-interpolation-filters="sRGB">
<feFlood flood-opacity="0" result="BackgroundImageFix"/>
<feColorMatrix in="SourceAlpha" type="matrix" values="0 0 0 0 0 0 0 0 0 0 0 0 0 0 0 0 0 0 127 0" result="hardAlpha"/>
<feOffset dx="2" dy="2"/>
<feGaussianBlur stdDeviation="1"/>
<feComposite in2="hardAlpha" operator="out"/>
<feColorMatrix type="matrix" values="0 0 0 0 0 0 0 0 0 0 0 0 0 0 0 0 0 0 0.5 0"/>
<feBlend mode="normal" in2="BackgroundImageFix" result="effect1_dropShadow_84_1421"/>
<feBlend mode="normal" in="SourceGraphic" in2="effect1_dropShadow_84_1421" result="shape"/>
</filter>
<linearGradient id="paint0_linear_84_1421" x1="57.8854" y1="120.848" x2="111.949" y2="120.752" gradientUnits="userSpaceOnUse">
<stop stop-color="#F1F1F1"/>
<stop offset="1" stop-color="#E0EFFF"/>
</linearGradient>
</defs>
</svg>
