<svg width="70" height="71" viewBox="0 0 70 71" fill="none" xmlns="http://www.w3.org/2000/svg">
<path d="M13.3593 7.54688L65.0036 20.111C64.9909 20.1632 64.9795 20.2152 64.9689 20.2679C64.8584 20.8131 64.8629 21.3586 64.9669 21.8795C64.9769 21.9314 64.9888 21.9831 65.0007 22.0343C65.1054 22.4735 65.282 22.8944 65.5194 23.2805C65.5448 23.322 65.5714 23.3632 65.5985 23.4046C65.8411 23.7714 66.1402 24.1049 66.4872 24.3912C66.5264 24.4237 66.5659 24.4551 66.6064 24.4867C66.9882 24.7809 67.4236 25.0198 67.9023 25.1881C67.9596 25.2079 68.0177 25.2273 68.0761 25.2451C68.167 25.2731 68.2596 25.2985 68.354 25.3215L68.2874 25.5949C67.8875 25.4994 67.4886 25.7296 67.396 26.1102C67.3034 26.4908 67.5368 26.8549 67.9146 26.9674C67.9265 26.9709 67.9385 26.9744 67.9506 26.9773L67.7756 27.6963C67.3757 27.6008 66.9768 27.831 66.8842 28.2117C66.7916 28.5923 67.0396 28.9799 67.4393 29.0789L67.2643 29.7979C66.8644 29.7024 66.4655 29.9326 66.3729 30.3132C66.2803 30.6939 66.5284 31.0815 66.928 31.1805L66.7531 31.8995C66.3532 31.804 65.9542 32.0342 65.8616 32.4148C65.769 32.7955 66.0171 33.1831 66.4167 33.2821L66.2418 34.0011C66.0291 33.9506 65.817 33.9913 65.6508 34.0986L65.6474 34.1007C65.6344 34.1088 65.6216 34.118 65.61 34.1276C65.4856 34.2233 65.3901 34.3554 65.3508 34.5171C65.2582 34.8977 65.5062 35.2853 65.9059 35.3843L65.7309 36.1034C65.592 36.0702 65.4533 36.0764 65.3271 36.1146C65.176 36.1602 65.0432 36.2521 64.9515 36.3781C64.8995 36.4485 64.8611 36.5298 64.8393 36.6192C64.7467 36.9999 64.9948 37.3875 65.3944 37.4865L65.2195 38.2055C65.1151 38.1807 65.0112 38.1778 64.9124 38.1944C64.689 38.2312 64.4937 38.365 64.3895 38.5616C64.3629 38.611 64.3423 38.6648 64.3285 38.7215C64.2359 39.1022 64.4839 39.4898 64.8836 39.5887L64.7086 40.3078C64.6311 40.2895 64.5542 40.2832 64.4787 40.2878C64.1984 40.3049 63.949 40.475 63.8472 40.7309C63.8352 40.761 63.8249 40.7914 63.8171 40.8237C63.7245 41.2043 63.9725 41.5919 64.3722 41.6909L64.1972 42.4099C64.1424 42.3966 64.0871 42.3896 64.0332 42.3889C63.8876 42.3852 63.7484 42.4226 63.6302 42.4927C63.5977 42.5113 63.5668 42.5332 63.5384 42.5569C63.4338 42.6427 63.3547 42.7576 63.3142 42.8932C63.3111 42.9036 63.3078 42.9146 63.3051 42.9257C63.2125 43.3063 63.4606 43.6939 63.8602 43.7929L63.6853 44.512C63.6502 44.5034 63.6155 44.4979 63.5809 44.4942C63.4794 44.4837 63.3798 44.4941 63.2872 44.5211C63.1319 44.5669 62.9957 44.6608 62.9032 44.7902C62.8532 44.8598 62.8157 44.9396 62.7944 45.0274C62.7926 45.0346 62.7907 45.0424 62.7895 45.0498C62.7203 45.4249 62.9581 45.7976 63.3493 45.8952L63.1744 46.6142C63.1574 46.6101 63.1408 46.6066 63.1241 46.6037C63.0382 46.5887 62.9532 46.5893 62.8716 46.6024C62.6455 46.638 62.4473 46.774 62.3425 46.9733C62.3167 47.0218 62.2965 47.074 62.283 47.1295C62.277 47.154 62.2727 47.1788 62.2691 47.2033C62.2226 47.5592 62.4642 47.904 62.8374 47.9972L62.6624 48.7162C62.5866 48.6984 62.5102 48.6922 62.4359 48.6964C62.1531 48.7124 61.9016 48.8837 61.7996 49.1426C61.7879 49.1715 61.7783 49.2015 61.7709 49.2321C61.761 49.2727 61.7551 49.3136 61.7528 49.3542C61.7332 49.6926 61.969 50.0113 62.3258 50.0999L62.2623 50.3611C61.6405 50.2098 61.0183 50.1897 60.4289 50.2829C60.3086 50.3019 60.1901 50.3254 60.0728 50.354C58.9757 50.618 58.0177 51.2801 57.4209 52.2138C57.3582 52.3115 57.3001 52.4116 57.2459 52.5149C57.0934 52.8051 56.9738 53.1174 56.8931 53.4491L5.2488 40.885C5.26826 40.805 5.28527 40.7255 5.29952 40.6454C5.31177 40.5784 5.32223 40.5114 5.33105 40.4441C5.39959 39.9187 5.36327 39.3967 5.23643 38.9003C5.22365 38.8501 5.21018 38.8003 5.19548 38.7508C5.06901 38.3222 4.87462 37.9147 4.62087 37.5433C4.59359 37.5026 4.56549 37.4628 4.5367 37.4234C4.276 37.0663 3.9595 36.745 3.59628 36.4724C3.55492 36.4418 3.513 36.411 3.47068 36.3818C3.06535 36.0984 2.60634 35.8755 2.10469 35.7299C2.04391 35.7122 1.98231 35.6955 1.92084 35.6805L1.89889 35.6752L1.96243 35.414L1.96408 35.4144C2.07383 35.4411 2.18322 35.443 2.28652 35.4246C2.50105 35.3861 2.68881 35.257 2.79249 35.0697C2.82206 35.0175 2.84407 34.9605 2.85881 34.8999C2.95168 34.5181 2.70157 34.1294 2.30042 34.0319L2.29878 34.0315L2.47371 33.3124L2.47536 33.3128C2.55712 33.3327 2.63925 33.3391 2.71873 33.3326C2.99213 33.3126 3.23406 33.1472 3.33684 32.8991C3.35058 32.8665 3.36157 32.8333 3.37022 32.7977C3.46309 32.416 3.21298 32.0273 2.81184 31.9297L2.81019 31.9293L2.98512 31.2103L2.98677 31.2107C3.04603 31.2251 3.10473 31.2323 3.16271 31.2329C3.48527 31.2378 3.77698 31.0398 3.87053 30.7364C3.87487 30.7234 3.87825 30.7095 3.8815 30.6962C3.97437 30.3144 3.72426 29.9257 3.32311 29.8281L3.32147 29.8277L3.4964 29.1087L3.49805 29.1091C3.53646 29.1184 3.575 29.1249 3.61367 29.1284C3.71774 29.1378 3.81996 29.1262 3.91512 29.0958C4.05931 29.0502 4.18594 28.9621 4.27532 28.8432C4.33005 28.7712 4.37088 28.6869 4.39332 28.5947C4.39454 28.5897 4.39562 28.5853 4.39684 28.5803C4.47327 28.2016 4.23114 27.8231 3.83494 27.7267L3.83329 27.7263L4.00823 27.0072L4.00987 27.0076C4.03018 27.0126 4.05062 27.0169 4.07078 27.0201C4.15855 27.0344 4.24546 27.0332 4.32806 27.0185C4.54602 26.9803 4.73584 26.8499 4.83965 26.6598C4.86785 26.6084 4.88959 26.5524 4.90405 26.493C4.90946 26.4708 4.91377 26.4483 4.91685 26.4261C4.96771 26.0664 4.72376 25.7169 4.34567 25.625L4.34402 25.6246L4.51895 24.9055L4.5206 24.9059C4.52389 24.9067 4.52773 24.9076 4.53103 24.9084C4.60799 24.9266 4.68518 24.9318 4.76028 24.9265C5.03629 24.9078 5.2804 24.7405 5.38331 24.4895C5.39678 24.4581 5.40708 24.4253 5.41533 24.3914C5.42466 24.353 5.43056 24.3145 5.43303 24.2756C5.45627 23.934 5.21817 23.6107 4.85708 23.5228L4.85544 23.5224L5.03037 22.8034L5.03201 22.8038C5.08963 22.8178 5.14764 22.8254 5.20508 22.8258C5.5297 22.8318 5.82414 22.6321 5.91645 22.3268C5.92066 22.3143 5.92363 22.302 5.92674 22.2892C5.93986 22.2353 5.94611 22.181 5.94579 22.1273C5.94565 21.803 5.71311 21.5045 5.36849 21.4207L5.36685 21.4203L5.54178 20.7012L5.54343 20.7016C5.58074 20.7107 5.61873 20.717 5.65617 20.7208C6.01693 20.755 6.35393 20.5333 6.43816 20.1871C6.43951 20.1815 6.44086 20.176 6.44235 20.1699C6.45598 20.1067 6.46042 20.043 6.45637 19.9808C6.43627 19.674 6.20916 19.3986 5.88046 19.3187L5.87881 19.3183L6.05374 18.5992L6.05539 18.5996C6.07459 18.6043 6.09394 18.6084 6.11355 18.6114C6.49456 18.6747 6.86171 18.4485 6.95012 18.0851C6.95566 18.0623 6.96011 18.0393 6.96345 18.0159C6.97175 17.9556 6.97127 17.8954 6.96408 17.8366C6.92691 17.5474 6.70562 17.2934 6.39173 17.2171L6.39009 17.2167L6.56502 16.4976L6.56666 16.498C6.56666 16.498 6.57215 16.4994 6.57435 16.4999C6.97314 16.5928 7.36906 16.363 7.4614 15.9835C7.47099 15.9441 7.47703 15.9049 7.47909 15.8654C7.48328 15.8076 7.47924 15.7501 7.4685 15.6939C7.41685 15.4212 7.20167 15.1876 6.90315 15.1149L6.9015 15.1145L7.07643 14.3955L7.07808 14.3959C7.47922 14.4935 7.87993 14.2631 7.97281 13.8814C7.98619 13.8264 7.99245 13.772 7.99226 13.7178C7.99249 13.6619 7.98503 13.6065 7.97128 13.5532C7.90736 13.2975 7.69923 13.0826 7.41442 13.0133L7.41278 13.0129L7.58771 12.2939L7.58935 12.2943C7.9905 12.3919 8.39121 12.1615 8.48409 11.7798C8.50112 11.7098 8.5065 11.6399 8.50161 11.5716C8.49786 11.5177 8.48754 11.4646 8.47146 11.4136C8.39704 11.1747 8.19569 10.9774 7.92515 10.9116L7.92351 10.9112L7.99002 10.6378C8.46469 10.7533 8.93884 10.7921 9.39931 10.7629C9.49854 10.7564 9.59733 10.7469 9.69516 10.7342C11.1527 10.5462 12.4321 9.6691 13.0625 8.37282C13.1035 8.28803 13.1427 8.20103 13.1775 8.11297C13.2506 7.93183 13.3114 7.74414 13.3587 7.54965L13.3593 7.54688Z" fill="#FFC800"/>
<path d="M7.90096 38.7974C7.86906 38.606 7.82893 38.4149 7.78059 38.2266C7.75766 38.1369 7.73462 38.0524 7.71133 37.9761C7.50832 37.2887 7.1985 36.6365 6.7914 36.0378C6.74236 35.9646 6.69677 35.9012 6.65504 35.8433C6.34242 35.4153 5.98552 35.026 5.58915 34.6794C6.11786 32.3819 10.591 14.1292 10.8262 13.217C12.4128 12.8261 13.7981 11.9124 14.756 10.6246L62.351 22.2036C62.3627 22.2753 62.3757 22.3461 62.3899 22.4167C62.4074 22.5045 62.4267 22.5928 62.4479 22.6798C62.6165 23.387 62.8985 24.0648 63.2859 24.6946C63.3343 24.7729 63.375 24.837 63.4151 24.8968C63.7625 25.4209 64.1785 25.8971 64.6536 26.314L59.4304 47.7839C57.8333 48.1799 56.4547 49.0923 55.4969 50.3772L7.90083 38.7979L7.90096 38.7974Z" stroke="#292B1F" stroke-linecap="round" stroke-linejoin="round"/>
<path d="M14.628 20.9819L16.1651 21.3559L13.5954 31.9185L16.184 32.5482L18.7537 21.9856L20.2908 22.3596L20.9016 19.849L15.2388 18.4713L14.628 20.9819Z" fill="#222222"/>
<path d="M25.5112 20.9704L23.0105 20.362L19.8301 33.4347L22.3309 34.0431L25.5112 20.9704Z" fill="#222222"/>
<path d="M28.474 22.6353C27.8124 23.1877 27.3276 24.098 27.0192 25.3655L25.5519 31.397C25.2941 32.4567 25.3788 33.3508 25.8068 34.0788C26.2346 34.8074 26.9164 35.2852 27.8532 35.5131C28.8827 35.7635 29.7474 35.6996 30.4467 35.3218C31.1461 34.944 31.6357 34.1808 31.9153 33.0316L32.517 30.5582L29.9137 29.9249L29.3409 32.2794C29.2698 32.5717 29.1663 32.7984 29.0313 32.9592C28.8962 33.1206 28.718 33.1743 28.4974 33.1207C28.3015 33.073 28.1687 32.9618 28.0994 32.7878C28.0302 32.6138 28.0395 32.3459 28.1275 31.9842L29.7195 25.4404C29.7906 25.1481 29.8893 24.9243 30.0154 24.769C30.1415 24.6137 30.3248 24.5652 30.5651 24.6237C30.7709 24.6738 30.9063 24.7791 30.9714 24.9391C31.0365 25.0992 31.0211 25.375 30.926 25.7662L30.4562 27.6973L33.0305 28.3235L33.5797 26.0658C33.7471 25.3778 33.7489 24.7732 33.5847 24.2535C33.4199 23.7338 33.1269 23.3017 32.7043 22.9576C32.2818 22.6134 31.764 22.3668 31.1511 22.2177C30.0283 21.9445 29.1358 22.0841 28.4748 22.6367L28.474 22.6353Z" fill="#222222"/>
<path d="M36.694 23.691L33.5136 36.7642L36.0879 37.3905L37.6275 31.0617L37.4998 37.734L40.1844 38.3871L40.1578 30.875L43.0631 25.2405L40.4597 24.6071L37.9795 29.5505L39.2535 24.3137L36.694 23.691Z" fill="#222222"/>
<path d="M46.1126 33.96L48.5546 34.5541L49.1527 32.0957L46.7106 31.5016L47.3305 28.9537L49.8751 29.5728L50.4896 27.0472L45.3125 25.7877L42.132 38.8609L47.4787 40.1616L48.0985 37.6138L45.3843 36.9535L46.1126 33.96Z" fill="#222222"/>
<path d="M52.5919 27.5586L51.9811 30.0693L53.5177 30.4431L50.948 41.0057L53.5371 41.6355L56.1068 31.073L57.6439 31.4469L58.2547 28.9363L52.5919 27.5586Z" fill="#222222"/>
<path d="M5.08527 19.5977H64.9458C64.9458 19.6582 64.9471 19.7181 64.9497 19.7786C64.9738 20.4047 65.1239 21.0005 65.3765 21.5428C65.4013 21.5969 65.428 21.6504 65.4547 21.7032C65.6862 22.156 65.9915 22.5695 66.3541 22.9289C66.3929 22.9675 66.433 23.0055 66.4737 23.0435C66.8369 23.3804 67.2529 23.6657 67.7089 23.8866C67.7604 23.9117 67.8119 23.9356 67.8647 23.9594C68.3609 24.1797 68.9009 24.3253 69.4695 24.3819C69.5376 24.3884 69.6063 24.3942 69.675 24.398C69.7818 24.4045 69.89 24.4077 69.9994 24.4077V24.7246C69.5363 24.7265 69.161 25.0846 69.161 25.5258C69.161 25.967 69.5134 26.3032 69.9568 26.3258C69.9707 26.3264 69.9847 26.3271 69.9987 26.3271V27.1605C69.5357 27.1625 69.1604 27.5206 69.1604 27.9618C69.1604 28.403 69.535 28.7611 69.9987 28.763V29.5965C69.5357 29.5984 69.1604 29.9565 69.1604 30.3977C69.1604 30.8389 69.535 31.197 69.9987 31.1989V32.0324C69.5357 32.0343 69.1604 32.3924 69.1604 32.8336C69.1604 33.2748 69.535 33.633 69.9987 33.6349V34.4683C69.7526 34.4696 69.5312 34.5707 69.3779 34.7324L69.3748 34.7356C69.3627 34.7479 69.3512 34.7614 69.341 34.7749C69.2304 34.9128 69.161 35.0828 69.161 35.2702C69.161 35.7114 69.5357 36.0695 69.9994 36.0715V36.9049C69.8384 36.9056 69.6883 36.9494 69.5605 37.0247C69.4072 37.1149 69.2863 37.2508 69.2196 37.4131C69.1814 37.5039 69.161 37.6031 69.161 37.7068C69.161 38.148 69.5357 38.5061 69.9994 38.508V39.3415C69.8785 39.3421 69.764 39.3666 69.6604 39.4111C69.4256 39.5109 69.2475 39.7093 69.1858 39.9521C69.1699 40.0133 69.1617 40.0777 69.1617 40.1434C69.1617 40.5846 69.5363 40.9427 70 40.9446V41.7781C69.9103 41.7787 69.8245 41.7922 69.743 41.8174C69.4409 41.9108 69.2132 42.1632 69.1699 42.4705C69.1649 42.5065 69.1617 42.5426 69.1617 42.58C69.1617 43.0212 69.5363 43.3793 70 43.3812V44.2147C69.9364 44.2147 69.8741 44.2217 69.8149 44.2353C69.6546 44.27 69.5121 44.348 69.4015 44.4562C69.3709 44.4852 69.343 44.5174 69.3182 44.5509C69.2266 44.6726 69.1706 44.8194 69.1623 44.9785C69.1617 44.9908 69.161 45.0037 69.161 45.0165C69.161 45.4577 69.5357 45.8159 69.9994 45.8178V46.6512C69.9587 46.6512 69.9192 46.6545 69.8804 46.6596C69.7666 46.6751 69.6603 46.7131 69.5662 46.7672C69.4085 46.8586 69.2844 46.9978 69.2177 47.1639C69.1814 47.2535 69.1617 47.3507 69.1617 47.4525C69.1617 47.4608 69.1617 47.4699 69.1623 47.4782C69.1865 47.9072 69.5459 48.2518 70 48.2544V49.0878C69.9803 49.0878 69.9612 49.0885 69.9421 49.0897C69.8442 49.0962 69.7513 49.1194 69.6654 49.1554C69.4276 49.2546 69.2469 49.4562 69.1852 49.7023C69.1699 49.7622 69.1617 49.8246 69.1617 49.8891C69.1617 49.9174 69.1636 49.9457 69.1661 49.9734C69.21 50.3753 69.5662 50.6884 69.9994 50.6909V51.5244C69.9116 51.525 69.8264 51.5386 69.7462 51.563C69.4409 51.6558 69.2113 51.9102 69.1687 52.2206C69.1636 52.2554 69.161 52.2909 69.161 52.3263C69.161 52.3733 69.1655 52.4197 69.1738 52.4648C69.2425 52.8403 69.5853 53.1262 69.9994 53.1282V53.4309C69.2787 53.4309 68.5924 53.5745 67.9722 53.8334C67.8457 53.8863 67.7223 53.9436 67.6014 54.0061C66.4711 54.587 65.5991 55.5667 65.1945 56.7473C65.1519 56.871 65.115 56.9959 65.0832 57.1234C64.9936 57.4816 64.9458 57.8551 64.9458 58.2396H5.08527C5.08527 58.1469 5.08272 58.0554 5.077 57.964C5.07255 57.8873 5.06619 57.8113 5.05792 57.7353C4.99304 57.1421 4.81431 56.5805 4.54334 56.071C4.51599 56.0195 4.488 55.9686 4.45875 55.9184C4.20623 55.4829 3.88502 55.0888 3.50847 54.75C3.46776 54.7126 3.42641 54.6766 3.38443 54.6411C3.00407 54.3197 2.57218 54.0524 2.10213 53.8508C2.0487 53.8283 1.99464 53.8057 1.94057 53.7851C1.42154 53.5829 0.859898 53.4612 0.272175 53.4354C0.200936 53.4322 0.129061 53.4302 0.0578217 53.4302H0.0323792V53.1275H0.0342873C0.1615 53.1275 0.281716 53.1005 0.389847 53.0528C0.614377 52.9536 0.785478 52.7623 0.849085 52.5298C0.867531 52.4648 0.876436 52.3965 0.876436 52.3263C0.876436 51.8838 0.49925 51.525 0.0342873 51.525H0.0323792V50.6916H0.0342873C0.129061 50.6916 0.220654 50.6768 0.305887 50.6484C0.599748 50.5538 0.820462 50.3084 0.866895 50.0095C0.873255 49.9702 0.876436 49.9309 0.876436 49.8897C0.876436 49.4472 0.49925 49.0885 0.0342873 49.0885H0.0323792V48.255H0.0342873C0.102982 48.255 0.169133 48.2473 0.232739 48.2325C0.587027 48.152 0.853537 47.8576 0.875163 47.5008C0.876436 47.4853 0.876436 47.4692 0.876436 47.4538C0.876436 47.0113 0.49925 46.6525 0.0342873 46.6525H0.0323792V45.8191H0.0342873C0.0788118 45.8191 0.1227 45.8159 0.165953 45.8094C0.282352 45.792 0.391119 45.7521 0.487165 45.6935C0.632823 45.6052 0.747951 45.4751 0.814101 45.3212C0.854809 45.2278 0.877072 45.1247 0.877072 45.0178C0.877072 45.012 0.877072 45.0069 0.877072 45.0011C0.859898 44.5663 0.494161 44.2166 0.0349234 44.2166H0.0330152V43.3831H0.0349234C0.0584578 43.3831 0.0819921 43.3825 0.10489 43.3806C0.204752 43.3728 0.299526 43.3484 0.38603 43.3104C0.614377 43.2105 0.787387 43.0173 0.850357 42.7816C0.867531 42.7178 0.876436 42.6508 0.876436 42.5819C0.876436 42.5561 0.875163 42.5304 0.872619 42.5052C0.832547 42.0982 0.472535 41.7806 0.0342873 41.7806H0.0323792V40.9472H0.0342873C0.0381037 40.9472 0.0425562 40.9472 0.0463725 40.9472C0.135421 40.9466 0.22129 40.9317 0.30207 40.906C0.599112 40.8119 0.821734 40.564 0.867531 40.2619C0.873891 40.2239 0.876436 40.1852 0.876436 40.146C0.876436 40.1015 0.872619 40.0577 0.864986 40.0146C0.799472 39.6346 0.452817 39.3441 0.0342873 39.3441H0.0323792V38.5106H0.0342873C0.101074 38.5106 0.166589 38.5035 0.229559 38.4887C0.58639 38.4089 0.855445 38.1119 0.875163 37.7532C0.876436 37.7384 0.876436 37.7242 0.876436 37.7094C0.876436 37.6469 0.868803 37.5857 0.854173 37.5271C0.767669 37.1722 0.433735 36.9075 0.0342873 36.9075H0.0323792V36.074H0.0342873C0.0775397 36.074 0.120792 36.0708 0.162772 36.065C0.566673 36.0064 0.876436 35.6741 0.876436 35.2728C0.876436 35.2664 0.876436 35.2599 0.876436 35.2528C0.874527 35.18 0.862442 35.1092 0.841452 35.0422C0.737774 34.7118 0.415925 34.4709 0.0349234 34.4709H0.0330152V33.6375H0.0349234C0.0571856 33.6375 0.0794479 33.6368 0.10171 33.6349C0.535505 33.6027 0.877072 33.2574 0.877072 32.8362C0.877072 32.8098 0.8758 32.7834 0.873255 32.757C0.866259 32.6887 0.849721 32.623 0.826186 32.5605C0.708515 32.254 0.398752 32.035 0.0349234 32.035H0.0330152V31.2015H0.0349234C0.0349234 31.2015 0.041284 31.2015 0.0438283 31.2015C0.504974 31.197 0.877072 30.8402 0.877072 30.4003C0.877072 30.3545 0.873255 30.3101 0.864986 30.2663C0.854173 30.2019 0.834455 30.1401 0.807741 30.0815C0.67862 29.7968 0.380942 29.5984 0.0349234 29.5984H0.0330152V28.7649H0.0349234C0.499886 28.7649 0.877072 28.4062 0.877072 27.9637C0.877072 27.8999 0.869439 27.8387 0.854809 27.7795C0.84018 27.7183 0.817282 27.6597 0.788023 27.6049C0.649997 27.3422 0.36504 27.1625 0.0349234 27.1625H0.0330152V26.329H0.0349234C0.499886 26.329 0.877072 25.9703 0.877072 25.5278C0.877072 25.4466 0.86435 25.3687 0.840816 25.2952C0.82237 25.2373 0.796928 25.1819 0.76576 25.1304C0.620738 24.8888 0.347867 24.7265 0.0342873 24.7265H0.0323792V24.4096C0.582574 24.4096 1.11178 24.3259 1.60791 24.1713C1.71477 24.1378 1.82035 24.1011 1.92403 24.0612C3.46903 23.4673 4.63557 22.1669 4.98032 20.5805C5.00258 20.4768 5.0223 20.3712 5.03693 20.2656C5.06873 20.0479 5.08527 19.8263 5.08527 19.6009V19.5977Z" fill="#2CCD70"/>
<path d="M7.43174 55.2485C7.34587 55.0475 7.2511 54.8491 7.14806 54.6559C7.09908 54.5638 7.05137 54.4775 7.00558 54.4002C6.60041 53.702 6.08774 53.0708 5.48284 52.524C5.40969 52.457 5.34291 52.3997 5.28185 52.3475C4.82579 51.9623 4.33157 51.6313 3.80554 51.3575C3.77247 48.7026 3.80809 27.5373 3.82272 26.4765C5.45486 25.6263 6.72762 24.2576 7.43301 22.5933H62.6001C62.6319 22.6686 62.665 22.7427 62.6993 22.8161C62.7419 22.9076 62.7864 22.999 62.8329 23.0886C63.2056 23.8177 63.6947 24.4843 64.2863 25.0704C64.3601 25.1432 64.4218 25.2025 64.4815 25.2572C65.0012 25.7383 65.5832 26.1486 66.2142 26.4784V51.364C64.5719 52.2225 63.3061 53.588 62.6001 55.2491H7.43174V55.2485Z" stroke="#292B1F" stroke-linecap="round" stroke-linejoin="round"/>
<path d="M14 34.6189H15.5315V45.1432H18.1107V34.6189H19.6422V32.1174H14V34.6189Z" fill="#222222"/>
<path d="M24.2352 32.1174H21.7435V45.1427H24.2352V32.1174Z" fill="#222222"/>
<path d="M27.4032 33.0055C26.9073 33.6765 26.6596 34.6438 26.6596 35.9068V41.9164C26.6596 42.9722 26.944 43.7939 27.5132 44.3808C28.0824 44.9683 28.8331 45.2617 29.7664 45.2617C30.7922 45.2617 31.591 45.0037 32.1624 44.4882C32.7338 43.9727 33.0198 43.1428 33.0198 41.9978V39.5333H30.4259V41.8793C30.4259 42.1705 30.3805 42.4075 30.2903 42.5897C30.2 42.7724 30.0448 42.8637 29.8249 42.8637C29.6297 42.8637 29.4794 42.7895 29.3744 42.6417C29.2694 42.4939 29.2169 42.2397 29.2169 41.8793V35.3592C29.2169 35.0679 29.2585 34.8348 29.3416 34.6599C29.4247 34.4849 29.586 34.3974 29.8255 34.3974C30.0305 34.3974 30.182 34.4655 30.2799 34.6012C30.3777 34.7368 30.4264 34.9998 30.4264 35.3896V37.3137H32.9914V35.0641C32.9914 34.3786 32.8547 33.8094 32.5813 33.3582C32.3073 32.9069 31.9328 32.5675 31.4565 32.3405C30.9803 32.1135 30.4368 32 29.826 32C28.7073 32 27.8997 32.3355 27.4043 33.0066L27.4032 33.0055Z" fill="#222222"/>
<path d="M35.3775 32.1174V45.1432H37.9425V38.8374L39.3493 45.1432H42.0242L40.2799 38.0827L41.7234 32.1174H39.1295L37.9277 37.3352V32.1174H35.3775Z" fill="#222222"/>
<path d="M46.5876 39.6219H49.0208V37.1725H46.5876V34.6338H49.123V32.1174H43.9647V45.1432H49.292V42.6046H46.5876V39.6219Z" fill="#222222"/>
<path d="M51.2178 32.1174V34.6189H52.7487V45.1432H55.3285V34.6189H56.86V32.1174H51.2178Z" fill="#222222"/>
</svg>
