<svg width="81" height="80" viewBox="0 0 81 80" fill="none" xmlns="http://www.w3.org/2000/svg">
<g clip-path="url(#clip0_40_7771)">
<path d="M46.5477 77.0792L47.322 94.3771C47.322 94.3771 43.2652 93.8126 43.0476 97.3838C42.8365 100.955 46.023 101.145 46.023 101.145C46.023 101.145 53.7207 102.268 54.4181 98.2845C55.1156 94.301 54.6741 77.5613 54.6741 77.5613L46.5477 77.0792Z" fill="#F0514F"/>
<path d="M48.3394 101.78C47.0597 101.78 46.0679 101.64 45.9527 101.627C45.9527 101.627 42.3246 101.348 42.5614 97.3584C42.6254 96.242 43.0413 95.373 43.7835 94.764C44.7625 93.9711 46.0487 93.8506 46.8101 93.8633L46.0615 77.0982C46.0615 76.965 46.1063 76.8318 46.2087 76.7366C46.3046 76.6415 46.439 76.5907 46.5798 76.5971L54.7061 77.0792C54.9557 77.0919 55.154 77.2948 55.1604 77.5486C55.1796 78.2336 55.5955 94.3834 54.8981 98.3669C54.3926 101.259 50.8157 101.773 48.3394 101.773V101.78ZM46.7333 94.8274C46.1255 94.8274 45.1209 94.9289 44.4042 95.5125C43.8795 95.9438 43.5852 96.5782 43.534 97.4155C43.3548 100.448 45.9463 100.663 46.0551 100.67C46.1639 100.682 53.3368 101.684 53.9447 98.2084C54.5654 94.6752 54.2646 80.6885 54.2006 78.018L47.0533 77.593L47.8019 94.358C47.8019 94.4976 47.7507 94.6371 47.642 94.7323C47.5396 94.8274 47.3924 94.8718 47.2516 94.8528C47.2516 94.8528 47.0405 94.8274 46.727 94.8274H46.7333Z" fill="black"/>
<path d="M32.6371 77.0792L33.4113 94.3771C33.4113 94.3771 29.3546 93.8126 29.137 97.3838C28.9258 100.955 32.1124 101.145 32.1124 101.145C32.1124 101.145 39.81 102.268 40.5075 98.2845C41.205 94.301 40.7634 77.5613 40.7634 77.5613L32.6371 77.0792Z" fill="#F0514F"/>
<path d="M34.4283 101.78C33.1485 101.78 32.1568 101.64 32.0416 101.627C32.0416 101.627 28.4135 101.348 28.6503 97.3584C28.7142 96.242 29.1302 95.373 29.8724 94.764C30.8514 93.9711 32.1376 93.8506 32.899 93.8633L32.1504 77.0982C32.1504 76.965 32.1951 76.8318 32.2975 76.7366C32.3935 76.6415 32.5279 76.5907 32.6686 76.5971L40.795 77.0792C41.0445 77.0919 41.2429 77.2948 41.2493 77.5486C41.2685 78.2336 41.6844 94.3834 40.987 98.3669C40.4815 101.259 36.9046 101.773 34.4283 101.773V101.78ZM32.8222 94.8274C32.2143 94.8274 31.2097 94.9289 30.4931 95.5125C29.9684 95.9438 29.6741 96.5782 29.6229 97.4155C29.4437 100.448 32.0352 100.663 32.144 100.67C32.2527 100.682 39.4257 101.684 40.0336 98.2084C40.6542 94.6752 40.3535 80.6885 40.2895 78.018L33.1422 77.593L33.8908 94.358C33.8908 94.4976 33.8396 94.6371 33.7308 94.7323C33.6285 94.8274 33.4813 94.8718 33.3405 94.8528C33.3405 94.8528 33.1294 94.8274 32.8158 94.8274H32.8222Z" fill="black"/>
<path d="M32.1953 11.6872C32.1953 11.6872 17.2479 15.233 16.2881 30.3742C15.3283 45.5154 29.5398 53.3747 32.5408 53.7552L24.792 79.997C24.792 79.997 30.7748 85.6298 43.7449 85.4395C56.7151 85.2492 63.6897 79.3564 63.6897 79.3564L54.3284 52.3153C54.3284 52.3153 68.6871 47.4184 73.7996 38.5506C73.7996 38.5506 68.8151 3.644 32.2017 11.6935L32.1953 11.6872Z" fill="black"/>
<path d="M43.0921 85.9153C30.5251 85.9153 24.7023 80.568 24.4527 80.3396C24.3184 80.2128 24.2672 80.0288 24.3184 79.8575L31.92 54.1169C27.5689 52.9878 14.8995 44.583 15.8017 30.3425C16.7743 15.0237 31.9328 11.2559 32.0864 11.2178C32.0864 11.2178 32.0864 11.2178 32.0928 11.2178C43.3609 8.73761 52.8182 10.0507 60.1831 15.1125C71.9759 23.2128 74.2538 38.3223 74.273 38.4745C74.2858 38.5824 74.273 38.6902 74.2154 38.779C71.5216 43.4539 66.2874 47.0125 62.3778 49.1692C59.0313 51.015 56.0431 52.1885 54.9361 52.6008L64.1439 79.1979C64.2079 79.3818 64.1503 79.5911 63.9967 79.718C63.7088 79.9654 56.7406 85.725 43.7448 85.9153C43.5273 85.9153 43.3033 85.9153 43.0857 85.9153H43.0921ZM25.3421 79.8258C26.5003 80.771 32.2591 84.9511 43.1113 84.9511C43.3161 84.9511 43.5273 84.9511 43.7384 84.9511C55.0193 84.7862 61.7635 80.2001 63.1201 79.1852L53.8676 52.4676C53.778 52.2202 53.9123 51.9411 54.1683 51.8587C54.3091 51.8079 68.2518 46.9681 73.2876 38.4492C73.0125 36.8253 70.421 23.3079 59.62 15.8927C52.4918 10.9958 43.3033 9.73984 32.3103 12.1503C32.0224 12.22 17.6893 15.8737 16.7743 30.3996C15.8209 45.4013 30.058 52.956 32.5983 53.2732C32.739 53.2922 32.867 53.3684 32.9438 53.4889C33.0206 53.6094 33.0462 53.7489 33.0014 53.8885L25.3421 79.8322V79.8258Z" fill="black"/>
<path d="M41.595 21.4303C41.595 21.4303 25.8734 20.574 23.3331 33.4063C20.7928 46.2386 33.3854 50.0191 33.3854 50.0191C33.3854 50.0191 42.6892 53.0575 53.8421 48.9852C64.995 44.9192 62.3396 32.9432 62.3396 32.9432C62.3396 32.9432 60.3176 20.9673 41.595 21.4303Z" fill="#EBABAB"/>
<path d="M41.7744 51.6049C36.7834 51.6049 33.4625 50.552 33.2321 50.4758C33.1105 50.4378 20.2555 46.4225 22.8534 33.3111C25.4065 20.4408 40.9234 20.9229 41.5952 20.9483C47.0277 20.815 54.5142 21.7094 59.3324 26.6825C62.2502 29.6892 62.7941 32.7339 62.8133 32.8671C62.8389 32.9686 65.424 45.2744 54.0087 49.4356C49.4464 51.0975 45.2105 51.5986 41.7744 51.5986V51.6049ZM41.0065 21.9061C39.7844 21.9061 36.7322 22.0266 33.5393 23.0732C28.094 24.862 24.8242 28.3698 23.8068 33.5014C21.3817 45.7502 33.0274 49.4102 33.5265 49.5624C33.6288 49.5941 42.8238 52.4993 53.676 48.5412C64.2914 44.6718 61.9687 33.5268 61.8663 33.0511C61.7767 32.5563 59.6715 21.4747 41.6016 21.9124C41.5888 21.9124 41.576 21.9124 41.5632 21.9124C41.5568 21.9124 41.3585 21.8997 41.0065 21.8997V21.9061Z" fill="black"/>
<mask id="mask0_40_7771" style="mask-type:luminance" maskUnits="userSpaceOnUse" x="23" y="22" width="40" height="29">
<path d="M41.7615 22.0393C41.7615 22.0393 26.4558 21.2083 23.9859 33.5776C21.5096 45.9405 33.7759 49.5815 33.7759 49.5815C33.7759 49.5815 42.8365 52.5057 53.6951 48.5856C64.5537 44.6655 61.9622 33.1335 61.9622 33.1335C61.9622 33.1335 59.9914 21.5953 41.7679 22.0393H41.7615Z" fill="white"/>
</mask>
<g mask="url(#mask0_40_7771)">
<path opacity="0.25" d="M58.5101 44.8993C60.9892 43.2115 61.8506 40.1859 60.4341 38.1413C59.0177 36.0967 55.8598 35.8075 53.3808 37.4952C50.9017 39.183 50.0403 42.2086 51.4568 44.2532C52.8732 46.2977 56.0311 46.587 58.5101 44.8993Z" fill="url(#paint0_radial_40_7771)"/>
<path opacity="0.25" d="M33.8918 44.5969C35.5147 42.7092 34.9771 39.6131 32.6909 37.6816C30.4048 35.75 27.2358 35.7145 25.6129 37.6022C23.99 39.49 24.5276 42.5861 26.8138 44.5176C29.0999 46.4491 32.2689 46.4847 33.8918 44.5969Z" fill="url(#paint1_radial_40_7771)"/>
</g>
<path d="M41.832 44.8367C41.2817 44.8367 39.9764 44.7479 39.1318 43.9931C38.6391 43.5491 38.3767 42.9592 38.3639 42.2424C38.3447 41.5827 38.5687 41.0245 39.0294 40.5995C40.1748 39.5211 42.4335 39.6861 42.5295 39.6924C42.7982 39.7114 42.9966 39.9461 42.971 40.2062C42.9518 40.4726 42.7214 40.6629 42.4527 40.6502C41.9216 40.6122 40.3859 40.6502 39.6949 41.2972C39.4453 41.5319 39.3237 41.8364 39.3365 42.2233C39.3493 42.6737 39.4965 43.0226 39.7908 43.2827C40.4307 43.8535 41.6209 43.9043 42.024 43.8726C42.2991 43.8535 42.5231 44.0502 42.5423 44.3166C42.5615 44.583 42.3631 44.8114 42.0944 44.8304C42.0752 44.8304 41.9856 44.8367 41.8384 44.8367H41.832Z" fill="black"/>
<path d="M41.9282 48.0844C36.9244 48.0844 34.0514 46.2132 33.8722 46.0927C33.6483 45.9468 33.5907 45.6423 33.7443 45.4266C33.8978 45.2046 34.1922 45.1475 34.4161 45.2998C34.4161 45.2998 35.9902 46.3337 38.78 46.8348C41.3523 47.2979 45.5243 47.3993 50.8096 45.249C51.0527 45.1475 51.3407 45.268 51.4431 45.5091C51.5454 45.7565 51.4239 46.0356 51.1807 46.1371C47.5974 47.596 44.4877 48.0844 41.9346 48.0844H41.9282Z" fill="black"/>
<path d="M29.3736 30.019C29.2136 30.019 29.06 29.9429 28.9641 29.797C28.8169 29.575 28.8873 29.2769 29.1112 29.131C29.2392 29.0485 32.3362 27.1011 35.6891 28.0399C35.9451 28.1097 36.0986 28.3761 36.0218 28.6298C35.9514 28.8836 35.6827 29.0358 35.4268 28.9597C32.4962 28.1414 29.6679 29.9112 29.6359 29.9302C29.5527 29.9809 29.4632 30.0063 29.3736 30.0063V30.019Z" fill="black"/>
<path d="M53.6248 29.3149C53.548 29.3149 53.4712 29.2959 53.4009 29.2578C53.3689 29.2451 50.3935 27.7037 47.5524 28.7504C47.3029 28.8392 47.0214 28.7186 46.9318 28.4649C46.8358 28.2175 46.9638 27.9384 47.2197 27.8496C50.483 26.6508 53.7272 28.3381 53.8616 28.4142C54.0983 28.541 54.1879 28.8265 54.0599 29.0612C53.9703 29.2198 53.804 29.3149 53.6312 29.3149H53.6248Z" fill="black"/>
<path d="M50.359 39.9509C53.1816 39.6286 55.2813 37.7451 55.0488 35.7439C54.8163 33.7428 52.3396 32.3818 49.517 32.7041C46.6944 33.0263 44.5947 34.9098 44.8272 36.911C45.0597 38.9121 47.5364 40.2731 50.359 39.9509Z" fill="white"/>
<path d="M38.6552 36.9153C38.8877 34.9142 36.788 33.0307 33.9654 32.7084C31.1428 32.3861 28.6662 33.7471 28.4337 35.7483C28.2012 37.7494 30.3009 39.6329 33.1235 39.9552C35.9461 40.2774 38.4227 38.9164 38.6552 36.9153Z" fill="white"/>
<path d="M31.4659 32.7974C32.7392 33.3556 33.6351 34.694 33.6351 36.2544C33.6351 37.8909 32.6497 39.2801 31.2867 39.7876C29.2263 39.0518 28.0682 37.4977 28.2537 35.8358C28.4201 34.3388 29.6359 33.1843 31.4659 32.791V32.7974Z" fill="#005CA3"/>
<path d="M48.032 32.9369C49.1454 33.5649 49.9133 34.8335 49.9133 36.2988C49.9133 38.132 48.7167 39.6607 47.1298 40.0096C45.6389 39.5084 44.6727 38.4301 44.5256 37.0917C44.3272 35.2839 45.6773 33.5966 48.032 32.9369Z" fill="#005CA3"/>
<path d="M34.07 40.6439C33.7437 40.6439 33.411 40.6249 33.0654 40.5868C29.8277 40.2189 27.6777 38.2271 27.9529 35.8484C28.0872 34.7067 28.7719 33.7235 29.8853 33.0828C30.9986 32.4421 32.432 32.2011 34.0188 32.385C35.6057 32.569 36.943 33.1209 37.8836 33.9962C38.8243 34.8716 39.2658 35.9816 39.1378 37.1234C39.0034 38.2652 38.3188 39.2484 37.2054 39.889C36.3288 40.3902 35.2602 40.6439 34.0764 40.6439H34.07ZM33.0398 33.2858C32.0224 33.2858 31.0946 33.5015 30.378 33.9138C29.5333 34.3958 29.015 35.119 28.9191 35.9563C28.7079 37.7768 30.4995 39.3245 33.1806 39.629C34.5435 39.7812 35.7977 39.5782 36.7191 39.0517C37.5637 38.5697 38.082 37.8465 38.178 37.0092C38.274 36.1719 37.9348 35.3537 37.2246 34.694C36.4503 33.9708 35.273 33.4888 33.9101 33.3365C33.6157 33.3048 33.3214 33.2858 33.0398 33.2858Z" fill="black"/>
<path d="M49.408 40.6439C48.2243 40.6439 47.1557 40.3901 46.279 39.889C45.1657 39.2484 44.4746 38.2715 44.3466 37.1234C44.2123 35.9816 44.6602 34.8716 45.6008 33.9962C46.5414 33.1208 47.8787 32.569 49.4656 32.385C52.7097 32.0171 55.2564 33.4697 55.5316 35.8484C55.8067 38.2271 53.6567 40.2189 50.419 40.5868C50.0799 40.6248 49.7407 40.6439 49.4144 40.6439H49.408ZM50.4446 33.2858C50.1631 33.2858 49.8687 33.3048 49.568 33.3365C48.2115 33.4887 47.0341 33.9708 46.2535 34.694C45.5432 35.3536 45.2041 36.1783 45.3 37.0092C45.396 37.8465 45.9143 38.5696 46.7589 39.0517C47.6804 39.5782 48.9345 39.7812 50.2974 39.629C52.9785 39.3245 54.7701 37.7767 54.559 35.9562C54.3734 34.3387 52.6905 33.2858 50.4382 33.2858H50.4446Z" fill="black"/>
<path d="M48.2881 40.2823C48.1537 40.2823 48.0193 40.2252 47.9234 40.1174C47.7442 39.9208 47.7634 39.6163 47.9681 39.4387C47.9809 39.426 49.3759 38.1764 49.4015 36.3559C49.4271 34.5861 48.3457 33.7805 48.3009 33.7488C48.0833 33.5902 48.0385 33.2921 48.1921 33.0828C48.3457 32.8671 48.6464 32.8164 48.864 32.9686C48.928 33.013 50.4061 34.0787 50.3677 36.3749C50.3357 38.6331 48.672 40.1047 48.6016 40.1681C48.512 40.2506 48.3969 40.2887 48.2817 40.2887L48.2881 40.2823Z" fill="black"/>
<path d="M31.9781 40.2823C31.8437 40.2823 31.7158 40.2316 31.6198 40.1237C31.4406 39.9271 31.4598 39.6226 31.6582 39.445C31.671 39.4323 33.0723 38.151 33.0979 36.2798C33.1235 34.4593 32.0357 33.6346 31.9909 33.5966C31.7797 33.438 31.735 33.1399 31.8885 32.9242C32.0485 32.7085 32.3428 32.6641 32.5604 32.8164C32.6244 32.8608 34.0961 33.9455 34.0641 36.2861C34.0321 38.5887 32.3748 40.092 32.3044 40.1491C32.2149 40.2316 32.0933 40.2696 31.9781 40.2696V40.2823Z" fill="black"/>
<path d="M43.1049 83.4541C45.5236 78.9758 47.488 77.149 52.2551 74.3199C58.385 70.6853 62.269 66.3275 62.141 60.847C62.0131 55.3665 57.4252 51.0277 51.8903 51.1546C47.4112 51.2561 43.6936 54.2627 42.5034 58.316C41.1277 54.3262 37.2693 51.4971 32.7902 51.6049C27.2617 51.7318 22.885 56.2799 23.013 61.7667C23.141 67.2473 27.2297 71.4147 33.5261 74.764C38.4211 77.3647 40.4686 79.1027 43.0985 83.4605L43.1049 83.4541Z" fill="#F27AA3"/>
<g clip-path="url(#clip1_40_7771)">
<path d="M47.1285 68.7761C44.6822 68.7761 42.6934 66.813 42.6934 64.4018C42.6934 61.9905 44.6822 60.0275 47.1285 60.0275C48.1236 60.0275 49.0652 60.3463 49.8488 60.9473C50.2421 61.2485 50.3121 61.8069 50.0067 62.1933C49.7013 62.5812 49.1352 62.6503 48.7434 62.3491C48.2786 61.992 47.7199 61.8039 47.1285 61.8039C45.6759 61.8039 44.4945 62.9691 44.4945 64.4018C44.4945 65.8344 45.6759 66.9996 47.1285 66.9996C48.2652 66.9996 49.235 66.287 49.6045 65.2893H47.7422C47.2447 65.2893 46.8409 64.8911 46.8409 64.4018C46.8409 63.9125 47.2447 63.5143 47.7422 63.5143H50.6637C51.1613 63.5143 51.5635 63.9125 51.5635 64.4018C51.5635 66.8145 49.5747 68.7761 47.1285 68.7761Z" fill="white"/>
<path d="M35.2895 69.0846C34.8187 69.0846 34.4224 68.7246 34.3911 68.2544C34.3658 67.8709 34.1572 64.462 34.555 62.8854L34.5595 62.8692C34.9498 61.1604 36.5185 59.9232 38.2973 59.9232C40.4099 59.9232 42.1291 61.6188 42.1291 63.7009C42.1291 64.8338 41.6196 65.8535 40.8166 66.547L42.1246 66.9658C42.5969 67.1172 42.8561 67.6182 42.7026 68.0855C42.5492 68.5513 42.0412 68.8069 41.5674 68.6556L37.7983 67.4478C37.3856 67.3155 37.1264 66.9114 37.1845 66.4868C37.2411 66.0622 37.5971 65.7389 38.0307 65.7169L38.2526 65.7051C38.2675 65.7051 38.2839 65.7051 38.2988 65.7051C39.4177 65.7051 40.3294 64.8073 40.3294 63.7024C40.3294 62.5974 39.4191 61.7011 38.2988 61.7011C37.3528 61.7011 36.52 62.3608 36.3174 63.2689C36.3144 63.2807 36.3115 63.2909 36.3085 63.3012L36.3025 63.3247C36.0254 64.4238 36.1282 67.173 36.1908 68.1398C36.2236 68.6291 35.8466 69.0523 35.3505 69.0832C35.3312 69.0832 35.3103 69.0846 35.2909 69.0846H35.2895Z" fill="white"/>
<path d="M42.9555 72.2262C42.8721 72.2262 42.7872 72.2056 42.7127 72.1659C39.9 70.698 35.3263 71.9455 35.2801 71.9573C35.012 72.0322 34.7304 71.8853 34.6529 71.6296C34.574 71.3739 34.7289 71.1065 34.9956 71.0316C35.1952 70.9757 39.8002 69.7209 42.9734 71.2079C43.8598 70.8611 47.0554 69.8193 50.9035 71.0683C51.1687 71.1535 51.3102 71.4283 51.2194 71.6795C51.1285 71.9323 50.8425 72.066 50.5773 71.9808C46.5221 70.6642 43.2103 72.16 43.176 72.1762C43.106 72.2085 43.03 72.2247 42.9555 72.2247V72.2262Z" fill="white"/>
<path d="M42.9634 70.629C42.941 70.629 42.9172 70.6245 42.8963 70.6143C39.6873 69.1111 34.9945 70.3865 34.7964 70.4409C34.7129 70.4644 34.6265 70.4159 34.6027 70.3336C34.5789 70.2513 34.628 70.1661 34.7115 70.1426C34.847 70.1059 36.0806 69.7723 37.697 69.6342C39.8184 69.452 41.5913 69.6783 42.9693 70.3057C43.9779 69.9222 47.2555 68.9127 51.1736 70.1837C51.2555 70.2102 51.3002 70.2983 51.2734 70.3792C51.2466 70.46 51.1572 70.5041 51.0753 70.4776C47.1705 69.211 43.9243 70.2645 43.0215 70.6172C43.0036 70.6245 42.9827 70.6275 42.9634 70.6275V70.629Z" fill="white"/>
</g>
<path d="M43.105 83.9362C42.9322 83.9362 42.7786 83.8474 42.6891 83.7015C40.2 79.5721 38.2676 77.8214 33.3022 75.1826C26.1804 71.3957 22.6611 67.0126 22.5331 61.7731C22.3988 56.0388 26.993 51.256 32.7839 51.1228C36.9622 51.015 40.6991 53.3366 42.4779 56.9776C44.0776 53.2542 47.712 50.774 51.884 50.6788C57.6876 50.5329 62.493 55.1 62.6274 60.8406C62.749 66.0738 59.4409 70.6218 52.5111 74.7322C47.6736 77.5993 45.8308 79.4389 43.5401 83.6825C43.4569 83.8347 43.2969 83.9299 43.1242 83.9362C43.1242 83.9362 43.1178 83.9362 43.1114 83.9362H43.105ZM33.0398 52.0807C32.963 52.0807 32.8862 52.0807 32.8095 52.0807C27.5561 52.2012 23.3842 56.5399 23.5057 61.7477C23.6209 66.6066 26.9738 70.7233 33.7629 74.3326C38.6259 76.9206 40.6863 78.6904 43.0858 82.4963C45.3061 78.5825 47.2769 76.7176 52.012 73.9076C58.6218 69.9875 61.7764 65.7185 61.6612 60.8596C61.5396 55.6519 57.1629 51.5161 51.9096 51.6366C47.7312 51.7318 44.1416 54.472 42.977 58.4492C42.9194 58.6522 42.7338 58.7918 42.5227 58.7981C42.3179 58.8171 42.1196 58.6712 42.0556 58.4746C40.7311 54.6306 37.1286 52.0807 33.0398 52.0807Z" fill="black"/>
<path d="M20.5624 62.5406C20.5624 62.5406 19.865 58.1511 23.4994 58.6712C27.1339 59.1914 26.7116 60.5552 26.7116 60.5552C26.7116 60.5552 26.7436 61.8809 22.962 61.4242C22.962 61.4242 26.7564 61.3544 26.6028 62.8958C26.6028 62.8958 26.878 64.2786 23.4291 64.0186C23.4291 64.0186 26.5324 64.1391 26.3725 65.4648C26.2125 66.7905 23.1539 66.264 23.1539 66.264C23.1539 66.264 21.0551 66.4543 20.556 62.5406H20.5624Z" fill="#F4B6B3"/>
<path d="M24.4276 66.8539C23.8325 66.8539 23.3142 66.7778 23.1286 66.7525C22.6679 66.7525 20.5947 66.5304 20.0892 62.6167C20.0637 62.4391 19.7373 60.1428 20.9659 58.9059C21.5865 58.2843 22.4632 58.0496 23.5765 58.2082C25.3746 58.4682 26.5263 58.9694 26.9934 59.7115C27.2558 60.1238 27.2302 60.4854 27.1982 60.6376C27.1854 60.7898 27.1086 61.0943 26.7887 61.3798C26.6799 61.4813 26.5455 61.5701 26.3984 61.6462C26.5263 61.7286 26.6415 61.8238 26.7375 61.9253C26.9934 62.198 27.115 62.5342 27.0958 62.8958C27.115 63.1368 27.0446 63.492 26.7695 63.7965C26.6159 63.9678 26.4048 64.1137 26.1552 64.2279C26.3088 64.323 26.4496 64.4372 26.5583 64.564C26.8015 64.8431 26.9039 65.1793 26.8591 65.5346C26.8143 65.8898 26.6351 66.1879 26.3408 66.4099C25.8545 66.7651 25.093 66.8603 24.4276 66.8603V66.8539ZM23.1606 65.7883C23.1606 65.7883 23.2246 65.7883 23.2502 65.7946C23.9733 65.9215 25.2914 65.9849 25.7713 65.6297C25.8801 65.5536 25.8993 65.4775 25.9057 65.414C25.9185 65.3252 25.8929 65.2555 25.8289 65.1793C25.5089 64.8114 24.4788 64.5894 23.7045 64.5196C23.6085 64.5196 23.5062 64.507 23.4038 64.5006C23.1414 64.4816 22.9431 64.2532 22.9559 63.9932C22.9687 63.7331 23.199 63.5174 23.455 63.5428C23.4998 63.5428 23.6021 63.5491 23.7557 63.5618C25.4066 63.6506 25.9121 63.3081 26.0528 63.1495C26.1232 63.0734 26.1424 62.9909 26.1424 62.9909C26.136 62.9465 26.1296 62.8958 26.136 62.8514C26.1488 62.7436 26.1168 62.6547 26.0336 62.5659C25.7585 62.2678 25.0866 62.0965 24.4148 62.0014C23.9733 62.0014 23.4678 61.9697 22.9175 61.9063C22.6679 61.8745 22.476 61.6589 22.4888 61.4051C22.5016 61.1514 22.7063 60.9548 22.9623 60.9484C23.103 60.9484 23.7493 60.9421 24.4916 61.0436C25.7969 61.0245 26.2 60.6884 26.232 60.5298C26.232 60.479 26.232 60.4663 26.2512 60.4219C26.2512 60.4283 26.264 60.3395 26.1424 60.1746C25.9441 59.9081 25.3298 59.4261 23.4358 59.1533C22.6359 59.0391 22.0537 59.1787 21.6569 59.5783C20.7483 60.4854 21.0427 62.4518 21.0491 62.4708C21.0491 62.4708 21.0491 62.4771 21.0491 62.4835C21.4778 65.8327 23.0582 65.7883 23.135 65.7883C23.1414 65.7883 23.1542 65.7883 23.167 65.7883H23.1606Z" fill="black"/>
<path d="M64.6562 61.4306C64.6562 61.4306 65.1489 57.0157 61.54 57.7071C57.9311 58.3985 58.4174 59.7369 58.4174 59.7369C58.4174 59.7369 58.443 61.0626 62.1991 60.4283C62.1991 60.4283 58.4046 60.5362 58.6286 62.0649C58.6286 62.0649 58.4174 63.4604 61.8535 63.0417C61.8535 63.0417 58.7566 63.3081 58.9805 64.6212C59.1981 65.9406 62.231 65.2682 62.231 65.2682C62.231 65.2682 64.3362 65.3633 64.6498 61.4242L64.6562 61.4306Z" fill="#F4B6B3"/>
<path d="M60.6954 65.9216C60.1131 65.9216 59.4924 65.8391 59.0701 65.5537C58.7629 65.3507 58.571 65.0526 58.5134 64.7037C58.4558 64.3485 58.5454 64.0123 58.7693 63.7205C58.8717 63.5873 59.0061 63.4668 59.1533 63.3653C58.8909 63.2638 58.6798 63.1306 58.5198 62.9657C58.2319 62.6739 58.1423 62.325 58.1551 62.084C58.1167 61.7224 58.2255 61.3862 58.4686 61.1008C58.5582 60.9929 58.6734 60.8914 58.7949 60.8026C58.6414 60.7329 58.507 60.6504 58.3918 60.5553C58.0591 60.2825 57.9759 59.9844 57.9503 59.8321C57.9119 59.6799 57.8671 59.3183 58.1103 58.8933C58.5454 58.1322 59.6716 57.574 61.4568 57.2378C62.5574 57.0284 63.4468 57.2187 64.0995 57.815C65.3856 58.9885 65.168 61.2974 65.1489 61.4814C64.8289 65.4459 62.7429 65.7376 62.3014 65.7567C62.0903 65.8011 61.4184 65.9279 60.7018 65.9279L60.6954 65.9216ZM61.6168 63.5492C60.8425 63.6507 59.8251 63.9235 59.5244 64.3104C59.4604 64.3865 59.4412 64.4563 59.4604 64.5451C59.4732 64.6086 59.4988 64.6847 59.6076 64.7545C60.1003 65.0843 61.4184 64.9574 62.1287 64.7989C62.1735 64.7925 62.2118 64.7862 62.2566 64.7862C62.3206 64.7862 63.9011 64.7545 64.1699 61.3862C64.1699 61.3862 64.1699 61.3799 64.1699 61.3735C64.1699 61.3545 64.3746 59.3754 63.4212 58.5127C63.0053 58.1322 62.4166 58.0243 61.6232 58.1766C59.7419 58.5381 59.1533 59.0519 58.9677 59.3247C58.8525 59.4896 58.8781 59.5974 58.8781 59.6038C58.8973 59.6545 58.8973 59.6736 58.8973 59.7306C58.9357 59.8512 59.3452 60.1683 60.657 60.1176C61.3992 59.978 62.0519 59.959 62.1863 59.9526C62.1863 59.9526 62.1927 59.9526 62.1991 59.9526C62.4486 59.9526 62.6534 60.1366 62.679 60.384C62.7045 60.6377 62.5254 60.8597 62.2758 60.9041C61.7191 60.9993 61.2137 61.0564 60.7593 61.0754C60.0875 61.2023 59.4476 61.4116 59.1917 61.7161C59.1149 61.8112 59.0893 61.8937 59.1021 62.0015C59.1085 62.0459 59.1021 62.0966 59.1021 62.1411C59.1021 62.1411 59.1149 62.2235 59.2173 62.3187C59.3772 62.4582 59.9147 62.7563 61.508 62.6041C61.6552 62.5851 61.7575 62.5724 61.8023 62.5724C62.0711 62.547 62.295 62.7373 62.327 62.9974C62.359 63.2575 62.1671 63.4922 61.9047 63.5239C61.8023 63.5366 61.7064 63.5492 61.604 63.5556L61.6168 63.5492Z" fill="black"/>
</g>
<defs>
<radialGradient id="paint0_radial_40_7771" cx="0" cy="0" r="1" gradientUnits="userSpaceOnUse" gradientTransform="translate(52.8713 45.7813) rotate(-35.5236) scale(5.41722 4.51727)">
<stop stop-color="#D9315C" stop-opacity="0.8"/>
<stop offset="0.14" stop-color="#D9315D" stop-opacity="0.78"/>
<stop offset="0.26" stop-color="#D93160" stop-opacity="0.73"/>
<stop offset="0.38" stop-color="#D93166" stop-opacity="0.65"/>
<stop offset="0.49" stop-color="#D9316F" stop-opacity="0.54"/>
<stop offset="0.54" stop-color="#D93174" stop-opacity="0.47"/>
<stop offset="0.58" stop-color="#D9366F" stop-opacity="0.42"/>
<stop offset="0.77" stop-color="#DB4F5A" stop-opacity="0.19"/>
<stop offset="0.91" stop-color="#DD5E4D" stop-opacity="0.05"/>
<stop offset="1" stop-color="#DE6449" stop-opacity="0"/>
</radialGradient>
<radialGradient id="paint1_radial_40_7771" cx="0" cy="0" r="1" gradientUnits="userSpaceOnUse" gradientTransform="translate(36.4665 50.0407) rotate(-138.448) scale(5.41238 4.52131)">
<stop stop-color="#D9315C" stop-opacity="0.8"/>
<stop offset="0.14" stop-color="#D9315D" stop-opacity="0.78"/>
<stop offset="0.26" stop-color="#D93160" stop-opacity="0.73"/>
<stop offset="0.38" stop-color="#D93166" stop-opacity="0.65"/>
<stop offset="0.49" stop-color="#D9316F" stop-opacity="0.54"/>
<stop offset="0.54" stop-color="#D93174" stop-opacity="0.47"/>
<stop offset="0.58" stop-color="#D9366F" stop-opacity="0.42"/>
<stop offset="0.77" stop-color="#DB4F5A" stop-opacity="0.19"/>
<stop offset="0.91" stop-color="#DD5E4D" stop-opacity="0.05"/>
<stop offset="1" stop-color="#DE6449" stop-opacity="0"/>
</radialGradient>
<clipPath id="clip0_40_7771">
<rect width="80" height="80" fill="white" transform="translate(0.755859)"/>
</clipPath>
<clipPath id="clip1_40_7771">
<rect width="17.2487" height="12.8613" fill="white" transform="translate(34.3149 59.9232)"/>
</clipPath>
</defs>
</svg>
