<svg width="81" height="80" viewBox="0 0 81 80" fill="none" xmlns="http://www.w3.org/2000/svg">
<g clip-path="url(#clip0_40_7812)">
<path d="M12.0747 74.6875C12.0747 74.6875 16.1492 75.3627 18.904 73.337L19.3939 77.2082C19.3939 77.2082 15.9706 81.0151 12.5703 78.2821L12.0747 74.681V74.6875Z" fill="#FFF4F0"/>
<path d="M11.1602 71.7697C11.1602 71.7697 15.5127 72.6857 19.0293 70.3708L19.3942 73.6016C19.3942 73.6016 14.5108 76.3079 11.545 74.9173L11.1602 71.7697Z" fill="#97999C"/>
<path d="M11.0303 72.0546L4.75586 26.2892C4.75586 26.2892 8.4899 27.7321 12.2048 24.8877L18.4793 70.6531C18.4793 70.6531 15.0261 73.1937 11.0303 72.0546Z" fill="#EF4640"/>
<path d="M4.75586 26.4577L7.36895 16.9775L12.075 25.0621C12.075 25.0621 8.47183 27.8967 4.75586 26.4577Z" fill="#FDCCA9"/>
<path d="M15.3466 80.2584C14.4026 80.2584 13.3487 80.0371 12.2172 79.4425C12.1332 79.3941 12.0685 79.3111 12.0556 79.2074L4.75586 26.2307C4.75586 26.1893 4.75586 26.1409 4.76233 26.0994L7.47791 16.2121C7.51023 16.0945 7.60722 16.0046 7.71713 15.9908C7.82705 15.977 7.94343 16.0323 8.00162 16.136L12.9802 24.758C12.9996 24.7926 13.0125 24.8341 13.019 24.8756L20.3058 77.7623C20.3187 77.8522 20.2929 77.949 20.2347 78.0182C20.2088 78.0458 18.3079 80.2584 15.3466 80.2584ZM12.6116 78.9516C16.4199 80.8461 19.1808 78.2532 19.7109 77.7001L12.4565 25.0346L7.85291 17.0556L5.34424 26.2031L12.6116 78.9516Z" fill="black"/>
<path d="M7.58224 26.8652C5.95913 26.8652 4.98011 26.3951 4.90282 26.362C4.76112 26.2956 4.71603 26.1408 4.79333 26.0246C4.87062 25.9029 5.05096 25.8642 5.18622 25.9306C5.31504 25.9914 8.23921 27.3574 12.5417 24.9296C12.677 24.8522 12.8573 24.8854 12.9411 25.0015C13.0313 25.1176 12.9926 25.2725 12.8573 25.3444C10.7512 26.5334 8.93483 26.8652 7.5758 26.8652H7.58224Z" fill="black"/>
<path d="M13.8822 72.3483C12.3602 72.3483 11.413 71.9789 11.3411 71.9476C11.1909 71.885 11.119 71.7222 11.1843 71.5781C11.2497 71.4341 11.4195 71.3652 11.5698 71.4279C11.6024 71.4404 14.7902 72.6614 18.9577 70.4072C19.1014 70.3321 19.2778 70.3759 19.3562 70.5137C19.4346 70.6514 19.3889 70.8205 19.2452 70.8956C17.1352 72.0415 15.2735 72.3421 13.8887 72.3421L13.8822 72.3483Z" fill="black"/>
<path d="M13.8822 75.3146C12.3602 75.3146 11.413 74.9451 11.3411 74.9138C11.1909 74.8512 11.119 74.6884 11.1843 74.5444C11.2497 74.4004 11.4195 74.3315 11.5698 74.3941C11.5698 74.3941 14.7902 75.6276 18.9577 73.3735C19.1014 73.2983 19.2778 73.3422 19.3562 73.4799C19.4346 73.6177 19.3889 73.7867 19.2452 73.8619C17.1352 75.0077 15.2735 75.3083 13.8887 75.3083L13.8822 75.3146Z" fill="black"/>
<path d="M6.58594 21.6245C6.58594 21.6245 8.32885 22.6207 10.2455 20.9627L7.82932 15.9887L6.58594 21.6245Z" fill="black"/>
<path d="M42.528 58.4671C42.4365 58.4671 17.967 51.2034 17.967 51.2034C17.967 51.2034 17.9017 48.3414 15.6083 48.6398C13.3149 48.9382 14.0009 51.1899 14.0009 51.1899C14.0009 51.1899 14.3341 52.3835 16.0068 52.2954L16.6798 56.7241L43.1814 66.4157L42.528 58.4603V58.4671Z" fill="#1B9749"/>
<path d="M42.8925 66.4157C42.8604 66.4157 42.8284 66.4157 42.7964 66.395L16.8161 56.5049C16.7136 56.4703 16.6431 56.3734 16.6303 56.2627L16.009 52.0063C14.382 51.9716 14.0233 50.7051 14.0105 50.6497C13.9977 50.6082 13.6838 49.4939 14.2027 48.615C14.5229 48.0821 15.0674 47.7568 15.8232 47.653C16.5022 47.563 17.0787 47.7291 17.5271 48.1443C18.2253 48.7949 18.3982 49.8677 18.4494 50.3383C26.6099 52.8645 41.7843 57.543 42.3032 57.6815C42.4313 57.7022 42.5273 57.8199 42.5402 57.9583L43.1807 66.0766C43.1871 66.1804 43.1487 66.2842 43.0718 66.3465C43.0206 66.388 42.9565 66.4088 42.8925 66.4088V66.4157ZM17.1684 55.9858L42.5658 65.6544L41.9765 58.2282C41.0349 57.9583 36.9034 56.6987 18.0907 50.8781C17.969 50.8435 17.8858 50.7259 17.8794 50.5875C17.8794 50.5736 17.8409 49.2655 17.1427 48.615C16.8225 48.3174 16.4125 48.1997 15.8937 48.2689C15.3108 48.3451 14.9073 48.5734 14.6831 48.9472C14.3116 49.577 14.555 50.4629 14.555 50.4698C14.5678 50.5113 14.856 51.4595 16.2332 51.3834C16.3805 51.3834 16.5086 51.4872 16.5342 51.6464L17.1684 55.9858Z" fill="black"/>
<path d="M8.8951 50.7805C8.8951 50.7805 11.3306 50.0261 11.6566 51.564C11.9826 53.1018 9.91606 53.2904 9.91606 53.2904C9.91606 53.2904 12.0933 52.7971 12.0748 54.7339C12.0502 56.6707 9.37483 56.5256 9.37483 56.5256C9.37483 56.5256 7.90489 56.6562 7.54817 53.9868C7.1976 51.3173 8.8951 50.7878 8.8951 50.7878V50.7805Z" fill="#1B9749"/>
<path d="M9.53596 56.5216C9.47551 56.5216 9.43154 56.5216 9.41506 56.5216C9.22272 56.5216 7.87087 56.4432 7.54664 53.9865C7.20044 51.3535 8.91498 50.7786 8.93147 50.772C8.99192 50.7524 10.3932 50.3212 11.1901 50.8831C11.4593 51.0726 11.6297 51.3405 11.7011 51.6933C11.7836 52.0853 11.7341 52.4512 11.5527 52.7517C11.4648 52.8954 11.3494 53.0196 11.223 53.1241C11.3769 53.1895 11.5253 53.2809 11.6517 53.4116C11.9374 53.6991 12.0803 54.1042 12.0748 54.6268C12.0748 55.0842 11.9264 55.4697 11.6517 55.7767C11.0362 56.4693 9.90964 56.5281 9.53046 56.5281L9.53596 56.5216ZM9.42055 55.9335C9.42055 55.9335 9.42605 55.9335 9.43154 55.9335C9.44254 55.9335 10.7394 55.9924 11.3219 55.339C11.4978 55.143 11.5857 54.9012 11.5857 54.6072C11.5857 54.2675 11.5088 54.0192 11.3384 53.8493C11.0417 53.5553 10.5251 53.5357 10.1899 53.5619C10.0525 53.588 9.9591 53.6011 9.92613 53.6011C9.79973 53.6141 9.67883 53.5031 9.66235 53.3463C9.64586 53.1895 9.73379 53.0457 9.86018 53.0196C9.87117 53.0196 9.96459 52.9934 10.1075 52.9804C10.4372 52.9085 10.9428 52.7386 11.1516 52.3924C11.245 52.2355 11.2725 52.0461 11.223 51.8239C11.1791 51.6279 11.0856 51.4842 10.9373 51.3797C10.4207 51.0203 9.40956 51.2228 9.05786 51.3339C8.99741 51.3535 7.75547 51.7978 8.03023 53.8885C8.31049 55.9989 9.38758 55.9335 9.39857 55.927C9.40407 55.927 9.40956 55.927 9.41506 55.927L9.42055 55.9335Z" fill="black"/>
<path d="M51.4155 23.09C51.4155 23.09 55.7825 15.3791 57.7781 16.0274C59.7668 16.6757 58.0378 25.8763 58.0378 25.8763L51.4224 23.09H51.4155Z" fill="#9BCEE6"/>
<path d="M57.7952 25.8763C57.7574 25.8763 57.7195 25.8699 57.688 25.8569L51.5878 23.2352C51.5122 23.2027 51.4555 23.1378 51.4303 23.0599C51.4051 22.9821 51.4114 22.8912 51.4555 22.8198C51.4681 22.8004 52.4827 20.9703 53.7179 19.2377C55.4635 16.7847 56.7491 15.7399 57.6502 16.0384C59.6227 16.6938 58.356 24.1502 58.0787 25.6362C58.0598 25.7206 58.0094 25.7985 57.9338 25.8374C57.8897 25.8634 57.8456 25.8699 57.8015 25.8699L57.7952 25.8763ZM52.1046 22.8198L57.5809 25.1755C58.1859 21.7036 58.5388 16.9469 57.4738 16.59C56.3961 16.2331 53.7494 19.9255 52.1046 22.8198Z" fill="black"/>
<path d="M69.7134 74.0723C69.7134 74.0723 72.8463 69.8653 73.9322 70.4214C75.0181 70.9776 73.2707 76.3034 73.2707 76.3034L69.7134 74.0723Z" fill="#9BCEE6"/>
<path d="M73.8154 77.2782C73.762 77.2782 73.7086 77.2644 73.6619 77.2366L69.8582 74.8682C69.7848 74.8196 69.7315 74.7432 69.7181 74.6599C69.7048 74.5696 69.7181 74.4793 69.7782 74.4098C70.599 73.3125 73.3817 69.7981 74.6629 70.451C75.9642 71.1108 74.5628 75.6878 74.1024 77.0768C74.0757 77.1671 74.0089 77.2366 73.9222 77.2713C73.8888 77.2852 73.8555 77.2921 73.8221 77.2921L73.8154 77.2782ZM70.4588 74.514L73.6486 76.5004C74.4427 73.9931 74.9165 71.2706 74.3893 71.0066C73.8488 70.7288 71.9736 72.5554 70.4588 74.514Z" fill="black"/>
<path d="M75.2026 77.6555C75.2026 77.6555 78.3356 72.7473 79.4215 73.3961C80.5074 74.045 78.7599 80.2584 78.7599 80.2584L75.2026 77.6555Z" fill="#9BCEE6"/>
<path d="M79.3047 80.2445C79.2513 80.2445 79.1979 80.2306 79.1512 80.2028L75.3475 77.8345C75.2741 77.7859 75.2207 77.7095 75.2074 77.6261C75.194 77.5358 75.2074 77.4455 75.2674 77.3761C76.0882 76.2787 78.8709 72.7644 80.1522 73.4172C81.4534 74.0771 80.0521 78.654 79.5916 80.0431C79.5649 80.1334 79.4982 80.2028 79.4114 80.2375C79.3781 80.2514 79.3447 80.2584 79.3114 80.2584L79.3047 80.2445ZM75.9481 77.4803L79.1379 79.4666C79.932 76.9594 80.4057 74.2368 79.8786 73.9729C79.338 73.6951 77.4629 75.5217 75.9481 77.4803Z" fill="black"/>
<path d="M80.6919 80.6218C80.6919 80.6218 83.8248 75.7137 84.9107 76.3625C85.9967 77.0113 84.2492 83.2248 84.2492 83.2248L80.6919 80.6218Z" fill="#9BCEE6"/>
<path d="M84.7939 83.2109C84.7406 83.2109 84.6872 83.197 84.6405 83.1692L80.8368 80.8008C80.7634 80.7522 80.71 80.6758 80.6966 80.5925C80.6833 80.5022 80.6966 80.4119 80.7567 80.3424C81.5775 79.2451 84.3602 75.7308 85.6414 76.3836C86.9427 77.0434 85.5413 81.6204 85.0809 83.0095C85.0542 83.0997 84.9875 83.1692 84.9007 83.2039C84.8673 83.2178 84.834 83.2248 84.8006 83.2248L84.7939 83.2109ZM81.4373 80.4466L84.6271 82.433C85.4212 79.9257 85.895 77.2032 85.3678 76.9392C84.8273 76.6614 82.9521 78.488 81.4373 80.4466Z" fill="black"/>
<path d="M34.9473 22.7022C34.9473 22.7022 35.9966 15.0909 37.5979 15.0008C39.1992 14.9106 40.4366 22.9101 40.4366 22.9101L34.9533 22.7022H34.9473Z" fill="#9BCEE6"/>
<path d="M40.1497 23.8989C40.1497 23.8989 40.1497 23.8989 40.1433 23.8989L34.313 23.682C34.2293 23.682 34.152 23.6387 34.1004 23.5664C34.0489 23.4941 34.0231 23.4001 34.036 23.3062C34.2293 21.9401 35.2794 15.1096 37.1218 15.0012C38.9708 14.8928 40.2077 22.0702 40.4332 23.5158C40.446 23.6098 40.4267 23.7109 40.3687 23.7832C40.3108 23.8555 40.2334 23.8989 40.1497 23.8989ZM34.6609 23.046L39.8018 23.2339C38.9386 17.9936 37.7532 15.6517 37.1669 15.6517C37.1669 15.6517 37.1605 15.6517 37.154 15.6517C36.5614 15.6879 35.4082 18.0081 34.6609 23.046Z" fill="black"/>
<path d="M86.5557 82.341C78.7245 79.8543 72.055 74.9085 68.8957 72.2905C68.9021 72.2353 68.9148 72.1869 68.9212 72.1386C70.504 61.6736 71.0784 43.9833 66.9108 32.7032C62.7431 21.4231 47.1319 19.8965 41.2537 19.9449C41.2537 19.9449 16.6179 20.2212 19.6431 39.0512L18.5134 38.996C18.5134 38.996 17.0901 51.6161 32.6822 51.6714C32.6822 51.6714 30.4037 83.2943 40.9474 86.7274C51.491 90.1604 61.3964 86.382 61.3964 86.382C61.3964 86.382 62.5325 85.6636 63.9366 83.9781C76.797 89.2003 89.1086 87.7842 89.766 85.5807C90.4234 83.3703 86.5557 82.348 86.5557 82.348V82.341Z" fill="#1B9749"/>
<path d="M50.7547 88.1617C47.831 88.1617 44.5675 87.7988 41.2527 86.7306C38.7458 85.9295 36.7454 83.5536 35.3028 79.685C34.1679 76.6381 33.3665 72.6394 32.9241 67.8191C32.2637 60.575 32.6291 53.5773 32.7253 51.9957C27.4037 51.9203 23.4798 50.4003 21.0627 47.4698C18.0236 43.7929 18.498 39.2807 18.5173 39.089C18.5365 38.9315 18.6583 38.8151 18.8186 38.822L19.6008 38.8631C18.9661 34.4673 19.8188 30.7219 22.1526 27.7298C28.032 20.1844 41.0924 19.9516 41.6502 19.9447C43.3429 19.931 49.3313 20.0406 55.2748 22.0673C61.6736 24.2515 65.8539 27.8599 67.7005 32.7829C69.5855 37.8223 70.6947 44.7241 70.8998 52.7351C71.0601 59.1234 70.6434 66.1416 69.7458 72.0095C73.0477 74.6867 79.5875 79.4043 87.243 81.8076C87.4161 81.8555 89.7883 82.506 90.5321 83.9233C90.7757 84.3889 90.8206 84.8888 90.6667 85.4023C90.5513 85.7789 90.2051 86.1212 89.6409 86.4157C86.2171 88.1822 75.3302 88.3602 64.5267 84.0808C63.1611 85.6556 62.0839 86.3403 62.039 86.3677C62.0198 86.3746 62.007 86.3883 61.9878 86.3951C61.9172 86.4225 57.1598 88.1685 50.7675 88.1685L50.7547 88.1617ZM19.0687 39.4451C19.0238 40.479 19.0494 44.1079 21.4986 47.0658C23.8517 49.9073 27.7371 51.3589 33.0331 51.3794C33.11 51.3794 33.187 51.4137 33.2447 51.4753C33.2959 51.5369 33.328 51.6259 33.3216 51.7081C33.2959 52.0162 31.1737 82.8484 41.4194 86.1349C51.5305 89.3804 61.1735 86.0185 61.7569 85.8063C61.9236 85.6967 62.9623 84.9778 64.219 83.4988C64.2959 83.403 64.4242 83.3756 64.5331 83.4167C76.1445 88.0726 86.6018 87.2784 89.3716 85.8474C89.923 85.5598 90.064 85.3201 90.1025 85.2037C90.2051 84.8545 90.1795 84.5259 90.0128 84.2109C89.3844 83.0058 87.1083 82.3965 87.0827 82.3896C87.0827 82.3896 87.0763 82.3896 87.0698 82.3896C79.2093 79.9247 72.522 75.0564 69.2393 72.3793C69.1559 72.3108 69.111 72.1944 69.1302 72.0848L69.1559 71.9342C72.0411 53.1323 69.2521 38.6234 67.1491 33.0089C62.552 20.7253 43.7661 20.5336 41.6438 20.5541C41.6118 20.5541 38.2649 20.602 34.2513 21.5675C30.571 22.4507 25.5572 24.3063 22.5822 28.1201C20.2997 31.0506 19.5046 34.7548 20.2163 39.1301C20.2292 39.2191 20.2035 39.315 20.1458 39.3834C20.0881 39.4519 20.0047 39.493 19.915 39.4861L19.0558 39.4451H19.0687Z" fill="black"/>
<path d="M31.9533 36.7528C31.8856 36.7528 31.8122 36.7161 31.7614 36.6428L29.5212 33.3419C29.4309 33.2026 29.4365 32.9972 29.5437 32.8798C29.651 32.7625 29.809 32.7698 29.8992 32.9092L32.1395 36.21C32.2298 36.3494 32.2242 36.5547 32.117 36.6721C32.0662 36.7308 32.0097 36.7528 31.9477 36.7528H31.9533Z" fill="black"/>
<path d="M28.8496 36.7528C28.7682 36.7528 28.68 36.7121 28.6189 36.6308C28.5103 36.4762 28.5171 36.2484 28.646 36.1183L31.6992 32.8888C31.8281 32.7586 32.0181 32.7668 32.1266 32.9213C32.2352 33.0759 32.2284 33.3036 32.0995 33.4338L29.0463 36.6633C28.9853 36.7284 28.9174 36.7528 28.8428 36.7528H28.8496Z" fill="black"/>
<path d="M25.549 36.7528C25.4813 36.7528 25.4079 36.7161 25.3572 36.6428L23.1169 33.3419C23.0266 33.2026 23.0322 32.9972 23.1394 32.8798C23.2467 32.7625 23.4047 32.7698 23.495 32.9092L25.7352 36.21C25.8255 36.3494 25.8199 36.5547 25.7127 36.6721C25.6619 36.7308 25.6054 36.7528 25.5434 36.7528H25.549Z" fill="black"/>
<path d="M22.4458 35.764C22.3644 35.764 22.2762 35.7335 22.2151 35.6725C22.1065 35.5566 22.1133 35.3858 22.2422 35.2881L25.2954 32.866C25.4243 32.7684 25.6142 32.7745 25.7228 32.8904C25.8314 33.0063 25.8246 33.1772 25.6957 33.2748L22.6425 35.6969C22.5815 35.7457 22.5136 35.764 22.439 35.764H22.4458Z" fill="black"/>
<path d="M58.8572 71.346C58.798 71.346 58.7507 71.3392 58.7034 71.3257C58.4846 71.2647 58.3072 71.109 58.189 70.8788C58.047 70.6011 57.9997 70.2219 57.9997 69.8292C57.7514 70.2355 57.4498 70.5876 57.1305 70.7298C56.8998 70.8314 56.6633 70.811 56.4504 70.6892C56.2376 70.5605 56.0897 70.3506 56.0188 70.073C55.9241 69.6938 55.9774 69.213 56.0897 68.7525C55.7645 69.0573 55.4156 69.2942 55.0785 69.3417C54.8183 69.3755 54.5818 69.301 54.3926 69.1182C53.7362 68.4952 54.6469 66.6195 54.9544 66.0304C56.687 61.6019 56.1607 55.941 56.1548 55.8801C56.137 55.7108 56.2435 55.5618 56.3913 55.5415C56.5332 55.5212 56.6692 55.6431 56.687 55.8124C56.7106 56.0494 57.2369 61.7103 55.4393 66.2945C55.4393 66.3081 55.4274 66.3148 55.4215 66.3284C54.8834 67.3441 54.5522 68.4749 54.7356 68.651C54.8124 68.7255 54.9011 68.7525 55.0135 68.739C55.4452 68.6781 56.0838 68.0551 56.7224 67.0665C56.8052 66.9378 56.9649 66.9039 57.0832 66.992C57.2014 67.08 57.2369 67.2561 57.1719 67.3983C56.9353 67.8723 56.3676 69.2401 56.5391 69.9037C56.5687 70.0256 56.6219 70.1068 56.7106 70.1542C56.7875 70.2016 56.8644 70.2084 56.959 70.1678C57.4439 69.9646 58.0175 68.7322 58.2658 68.0077C58.319 67.8587 58.461 67.7775 58.597 67.8316C58.733 67.8858 58.8039 68.0483 58.7685 68.2041C58.6029 68.8744 58.4255 70.1068 58.6679 70.5808C58.7152 70.6688 58.7685 70.723 58.8453 70.7433C58.9045 70.7569 58.9932 70.723 59.0878 70.6418C59.8802 69.9714 61.3526 66.3148 61.8611 56.8755C61.873 56.7062 61.9972 56.5775 62.145 56.5911C62.2928 56.6046 62.4052 56.7468 62.3933 56.9161C61.9084 65.9424 60.5306 70.1745 59.4012 71.1361C59.1942 71.3121 59.0109 71.3595 58.869 71.3595L58.8572 71.346Z" fill="black"/>
<path d="M36.1886 40.7079C26.0388 40.7079 18.9562 39.644 18.8353 39.6211C18.5999 39.5868 18.4472 39.3866 18.4853 39.1749C18.5235 38.9633 18.7462 38.826 18.9817 38.8603C19.179 38.8889 39.0713 41.8805 60.0454 37.7507C60.2745 37.7049 60.5036 37.8365 60.5545 38.0424C60.6054 38.2483 60.459 38.4542 60.2299 38.5C51.6138 40.1988 43.1757 40.7021 36.1886 40.7021V40.7079Z" fill="black"/>
<path d="M36.7772 31.809C38.7984 31.809 40.4368 29.5955 40.4368 26.8651C40.4368 24.1347 38.7984 21.9213 36.7772 21.9213C34.7561 21.9213 33.1177 24.1347 33.1177 26.8651C33.1177 29.5955 34.7561 31.809 36.7772 31.809Z" fill="#FFF200"/>
<path d="M37.2347 32.7977C34.9665 32.7977 33.1177 30.3594 33.1177 27.3595C33.1177 24.3596 34.9665 21.9213 37.2347 21.9213C39.5029 21.9213 41.3517 24.3596 41.3517 27.3595C41.3517 30.3594 39.5029 32.7977 37.2347 32.7977ZM37.2347 22.5682C35.2778 22.5682 33.6895 24.7222 33.6895 27.3666C33.6895 30.0111 35.2778 32.1651 37.2347 32.1651C39.1916 32.1651 40.7799 30.0111 40.7799 27.3666C40.7799 24.7222 39.1916 22.5682 37.2347 22.5682Z" fill="black"/>
<path d="M43.6385 32.7977C45.9123 32.7977 47.7555 30.363 47.7555 27.3595C47.7555 24.3561 45.9123 21.9213 43.6385 21.9213C41.3647 21.9213 39.5215 24.3561 39.5215 27.3595C39.5215 30.363 41.3647 32.7977 43.6385 32.7977Z" fill="#FFF200"/>
<path d="M43.6385 32.7977C41.3689 32.7977 39.5215 30.3625 39.5215 27.3595C39.5215 24.3565 41.3689 21.9213 43.6385 21.9213C45.9081 21.9213 47.7555 24.3565 47.7555 27.3595C47.7555 30.3625 45.9081 32.7977 43.6385 32.7977ZM43.6385 22.5438C41.6687 22.5438 40.0721 24.7054 40.0721 27.3664C40.0721 30.0273 41.6748 32.1889 43.6385 32.1889C45.6022 32.1889 47.205 30.0273 47.205 27.3664C47.205 24.7054 45.6022 22.5438 43.6385 22.5438Z" fill="black"/>
<path d="M43.6389 28.8428C44.3969 28.8428 45.0113 27.9574 45.0113 26.8652C45.0113 25.7731 44.3969 24.8877 43.6389 24.8877C42.881 24.8877 42.2666 25.7731 42.2666 26.8652C42.2666 27.9574 42.881 28.8428 43.6389 28.8428Z" fill="black"/>
<path d="M37.2346 28.8428C37.9926 28.8428 38.607 27.9574 38.607 26.8652C38.607 25.7731 37.9926 24.8877 37.2346 24.8877C36.4767 24.8877 35.8623 25.7731 35.8623 26.8652C35.8623 27.9574 36.4767 28.8428 37.2346 28.8428Z" fill="black"/>
</g>
<defs>
<clipPath id="clip0_40_7812">
<rect width="80" height="80" fill="white" transform="translate(0.755859)"/>
</clipPath>
</defs>
</svg>
