<svg width="81" height="80" viewBox="0 0 81 80" fill="none" xmlns="http://www.w3.org/2000/svg">
<g clip-path="url(#clip0_40_7857)">
<mask id="path-1-outside-1_40_7857" maskUnits="userSpaceOnUse" x="4.68388" y="19.3424" width="25.7616" height="25.771" fill="black">
<rect fill="white" x="4.68388" y="19.3424" width="25.7616" height="25.771"/>
<path d="M26.6777 32.4163L25.3975 31.3068C25.1834 31.1212 25.0368 30.8698 24.9806 30.5919L24.829 29.8408C24.7728 29.5627 24.8105 29.2737 24.936 29.0194L25.6863 27.4994L25.793 27.2831L25.6586 27.0829L24.7502 25.7303L24.6157 25.5301L24.3753 25.5474L22.686 25.669C22.4032 25.6894 22.1217 25.6152 21.8856 25.4582L21.248 25.0341C21.0121 24.8772 20.8349 24.6464 20.744 24.3778L20.2009 22.7724L20.1236 22.5439L19.8871 22.4975L18.2892 22.184L18.0527 22.1376L17.895 22.32L16.7865 23.6014C16.6012 23.8157 16.35 23.9625 16.0724 24.0187L15.322 24.1705C15.0442 24.2267 14.7555 24.189 14.5014 24.0633L12.9829 23.3123L12.7668 23.2055L12.5668 23.3401L11.2155 24.2493L11.0155 24.3839L11.0328 24.6246L11.1543 26.3156C11.1746 26.5986 11.1005 26.8803 10.9437 27.1167L10.52 27.7549C10.3632 27.9911 10.1326 28.1685 9.86436 28.2594L8.26051 28.8031L8.03228 28.8805L7.98593 29.1172L7.67276 30.7166L7.62642 30.9534L7.80858 31.1112L9.08876 32.2207C9.30286 32.4063 9.44944 32.6577 9.5056 32.9356L9.65727 33.6867C9.71345 33.9648 9.67576 34.2538 9.5502 34.5081L8.79997 36.0281L8.69321 36.2444L8.82768 36.4446L9.73606 37.7972L9.87053 37.9974L10.1109 37.9801L11.8003 37.8585C12.083 37.8381 12.3645 37.9123 12.6006 38.0693L13.2382 38.4934C13.4741 38.6503 13.6514 38.8811 13.7422 39.1497L14.2854 40.7551L14.3627 40.9836L14.5992 41.03L16.1971 41.3435L16.4335 41.3899L16.5913 41.2075L17.6997 39.9261C17.8851 39.7118 18.1362 39.565 18.4139 39.5088L19.1642 39.357C19.4421 39.3008 19.7307 39.3385 19.9848 39.4642L21.5033 40.2152L21.7194 40.322L21.9194 40.1874L23.2708 39.2782L23.4708 39.1436L23.4534 38.9029L23.332 37.2119C23.3116 36.9289 23.3857 36.6472 23.5426 36.4108L23.9663 35.7726C24.123 35.5364 24.3536 35.359 24.6219 35.2681L26.2257 34.7244L26.454 34.647L26.5003 34.4103L26.8135 32.8109L26.8598 32.5741L26.6777 32.4163ZM16.3749 36.272C13.8875 35.7921 12.2598 33.3846 12.7392 30.8948C13.2154 28.4219 15.6407 26.7789 18.1113 27.2555C20.5987 27.7355 22.2264 30.1429 21.747 32.6327C21.2708 35.1056 18.8455 36.7487 16.3749 36.272Z"/>
</mask>
<path d="M26.6777 32.4163L25.3975 31.3068C25.1834 31.1212 25.0368 30.8698 24.9806 30.5919L24.829 29.8408C24.7728 29.5627 24.8105 29.2737 24.936 29.0194L25.6863 27.4994L25.793 27.2831L25.6586 27.0829L24.7502 25.7303L24.6157 25.5301L24.3753 25.5474L22.686 25.669C22.4032 25.6894 22.1217 25.6152 21.8856 25.4582L21.248 25.0341C21.0121 24.8772 20.8349 24.6464 20.744 24.3778L20.2009 22.7724L20.1236 22.5439L19.8871 22.4975L18.2892 22.184L18.0527 22.1376L17.895 22.32L16.7865 23.6014C16.6012 23.8157 16.35 23.9625 16.0724 24.0187L15.322 24.1705C15.0442 24.2267 14.7555 24.189 14.5014 24.0633L12.9829 23.3123L12.7668 23.2055L12.5668 23.3401L11.2155 24.2493L11.0155 24.3839L11.0328 24.6246L11.1543 26.3156C11.1746 26.5986 11.1005 26.8803 10.9437 27.1167L10.52 27.7549C10.3632 27.9911 10.1326 28.1685 9.86436 28.2594L8.26051 28.8031L8.03228 28.8805L7.98593 29.1172L7.67276 30.7166L7.62642 30.9534L7.80858 31.1112L9.08876 32.2207C9.30286 32.4063 9.44944 32.6577 9.5056 32.9356L9.65727 33.6867C9.71345 33.9648 9.67576 34.2538 9.5502 34.5081L8.79997 36.0281L8.69321 36.2444L8.82768 36.4446L9.73606 37.7972L9.87053 37.9974L10.1109 37.9801L11.8003 37.8585C12.083 37.8381 12.3645 37.9123 12.6006 38.0693L13.2382 38.4934C13.4741 38.6503 13.6514 38.8811 13.7422 39.1497L14.2854 40.7551L14.3627 40.9836L14.5992 41.03L16.1971 41.3435L16.4335 41.3899L16.5913 41.2075L17.6997 39.9261C17.8851 39.7118 18.1362 39.565 18.4139 39.5088L19.1642 39.357C19.4421 39.3008 19.7307 39.3385 19.9848 39.4642L21.5033 40.2152L21.7194 40.322L21.9194 40.1874L23.2708 39.2782L23.4708 39.1436L23.4534 38.9029L23.332 37.2119C23.3116 36.9289 23.3857 36.6472 23.5426 36.4108L23.9663 35.7726C24.123 35.5364 24.3536 35.359 24.6219 35.2681L26.2257 34.7244L26.454 34.647L26.5003 34.4103L26.8135 32.8109L26.8598 32.5741L26.6777 32.4163ZM16.3749 36.272C13.8875 35.7921 12.2598 33.3846 12.7392 30.8948C13.2154 28.4219 15.6407 26.7789 18.1113 27.2555C20.5987 27.7355 22.2264 30.1429 21.747 32.6327C21.2708 35.1056 18.8455 36.7487 16.3749 36.272Z" fill="#CFCFCF"/>
<path d="M26.6777 32.4163L26.023 33.172L26.023 33.172L26.6777 32.4163ZM25.3975 31.3068L24.7428 32.0624L24.7428 32.0624L25.3975 31.3068ZM24.9806 30.5919L24.0005 30.7895L24.0005 30.7897L24.9806 30.5919ZM24.829 29.8408L25.8091 29.6431L25.8091 29.6431L24.829 29.8408ZM24.936 29.0194L25.8327 29.4624L25.8327 29.4623L24.936 29.0194ZM25.6863 27.4994L26.5829 27.9423L26.583 27.9423L25.6863 27.4994ZM25.793 27.2831L26.6897 27.726C26.8483 27.4047 26.8228 27.0231 26.623 26.7256L25.793 27.2831ZM25.6586 27.0829L24.8285 27.6403L24.8286 27.6404L25.6586 27.0829ZM24.7502 25.7303L25.5802 25.1729L25.5802 25.1728L24.7502 25.7303ZM24.6157 25.5301L25.4457 24.9726C25.2456 24.6747 24.9013 24.5068 24.5435 24.5326L24.6157 25.5301ZM24.3753 25.5474L24.4474 26.5449L24.4476 26.5449L24.3753 25.5474ZM22.686 25.669L22.6138 24.6715L22.6138 24.6715L22.686 25.669ZM21.8856 25.4582L21.3321 26.2909L21.3322 26.2909L21.8856 25.4582ZM21.248 25.0341L21.8015 24.2014L21.8015 24.2014L21.248 25.0341ZM20.744 24.3778L21.6912 24.0577L21.6912 24.0576L20.744 24.3778ZM20.2009 22.7724L19.2537 23.0926L19.2537 23.0927L20.2009 22.7724ZM20.1236 22.5439L21.0708 22.2237C20.9558 21.8839 20.6677 21.6316 20.3157 21.5625L20.1236 22.5439ZM19.8871 22.4975L19.6949 23.4789L19.6949 23.4789L19.8871 22.4975ZM18.2892 22.184L18.4813 21.2027L18.4813 21.2027L18.2892 22.184ZM18.0527 22.1376L18.2448 21.1563C17.8929 21.0872 17.5309 21.212 17.2963 21.4832L18.0527 22.1376ZM17.895 22.32L18.6513 22.9744L18.6513 22.9744L17.895 22.32ZM16.7865 23.6014L17.5428 24.2559L17.5429 24.2559L16.7865 23.6014ZM16.0724 24.0187L16.271 24.9989L16.2711 24.9988L16.0724 24.0187ZM15.322 24.1705L15.1234 23.1903L15.1233 23.1903L15.322 24.1705ZM14.5014 24.0633L14.9445 23.1669L14.9444 23.1669L14.5014 24.0633ZM12.9829 23.3123L13.4259 22.4159L13.4258 22.4159L12.9829 23.3123ZM12.7668 23.2055L13.2097 22.309C12.8881 22.15 12.506 22.1754 12.2084 22.3757L12.7668 23.2055ZM12.5668 23.3401L13.1252 24.1699L13.1252 24.1699L12.5668 23.3401ZM11.2155 24.2493L10.6571 23.4195L10.6571 23.4196L11.2155 24.2493ZM11.0155 24.3839L10.457 23.5542C10.1598 23.7542 9.99239 24.098 10.0181 24.4554L11.0155 24.3839ZM11.0328 24.6246L12.0302 24.5532L12.0301 24.5531L11.0328 24.6246ZM11.1543 26.3156L10.1569 26.3869L10.1569 26.3869L11.1543 26.3156ZM10.9437 27.1167L11.7768 27.67L11.7768 27.6699L10.9437 27.1167ZM10.52 27.7549L9.68685 27.2016L9.68683 27.2016L10.52 27.7549ZM9.86436 28.2594L9.54319 27.3122L9.54309 27.3122L9.86436 28.2594ZM8.26051 28.8031L7.93923 27.8559L7.93917 27.856L8.26051 28.8031ZM8.03228 28.8805L7.71094 27.9333C7.3716 28.0484 7.11983 28.3363 7.05098 28.688L8.03228 28.8805ZM7.98593 29.1172L8.96723 29.3097L8.96723 29.3097L7.98593 29.1172ZM7.67276 30.7166L6.69146 30.5241L6.69146 30.5241L7.67276 30.7166ZM7.62642 30.9534L6.64511 30.7609C6.57626 31.1126 6.70087 31.4743 6.97176 31.7091L7.62642 30.9534ZM7.80858 31.1112L8.46329 30.3555L8.46324 30.3555L7.80858 31.1112ZM9.08876 32.2207L9.74348 31.4651L9.74346 31.4651L9.08876 32.2207ZM9.5056 32.9356L10.4857 32.738L10.4857 32.7378L9.5056 32.9356ZM9.65727 33.6867L8.67712 33.8844L8.67714 33.8844L9.65727 33.6867ZM9.5502 34.5081L8.65358 34.0651L8.65354 34.0652L9.5502 34.5081ZM8.79997 36.0281L7.9033 35.5852L7.90329 35.5852L8.79997 36.0281ZM8.69321 36.2444L7.79653 35.8015C7.63798 36.1228 7.66342 36.5044 7.86324 36.8019L8.69321 36.2444ZM8.82768 36.4446L9.6577 35.8872L9.65766 35.8871L8.82768 36.4446ZM9.73606 37.7972L8.90604 38.3546L8.90609 38.3547L9.73606 37.7972ZM9.87053 37.9974L9.04056 38.5549C9.24065 38.8528 9.58494 39.0207 9.94277 38.9949L9.87053 37.9974ZM10.1109 37.9801L10.0388 36.9826L10.0387 36.9826L10.1109 37.9801ZM11.8003 37.8585L11.8724 38.856L11.8724 38.856L11.8003 37.8585ZM12.6006 38.0693L13.1541 37.2366L13.154 37.2366L12.6006 38.0693ZM13.2382 38.4934L12.6847 39.3261L12.6847 39.3261L13.2382 38.4934ZM13.7422 39.1497L12.795 39.4698L12.795 39.4699L13.7422 39.1497ZM14.2854 40.7551L15.2326 40.4349L15.2325 40.4348L14.2854 40.7551ZM14.3627 40.9836L13.4155 41.3038C13.5304 41.6436 13.8185 41.8959 14.1705 41.965L14.3627 40.9836ZM14.5992 41.03L14.7913 40.0486L14.7913 40.0486L14.5992 41.03ZM16.1971 41.3435L16.0049 42.3248L16.0049 42.3248L16.1971 41.3435ZM16.4335 41.3899L16.2414 42.3712C16.5934 42.4403 16.9553 42.3155 17.1899 42.0443L16.4335 41.3899ZM16.5913 41.2075L15.8349 40.5531L15.8349 40.5531L16.5913 41.2075ZM17.6997 39.9261L16.9434 39.2716L16.9434 39.2716L17.6997 39.9261ZM18.4139 39.5088L18.2153 38.5286L18.2151 38.5287L18.4139 39.5088ZM19.1642 39.357L19.3628 40.3372L19.3629 40.3372L19.1642 39.357ZM19.9848 39.4642L19.5418 40.3606L19.5418 40.3606L19.9848 39.4642ZM21.5033 40.2152L21.0604 41.1116L21.0604 41.1116L21.5033 40.2152ZM21.7194 40.322L21.2765 41.2185C21.5981 41.3775 21.9803 41.3521 22.2779 41.1518L21.7194 40.322ZM21.9194 40.1874L21.3611 39.3576L21.361 39.3576L21.9194 40.1874ZM23.2708 39.2782L23.8291 40.108L23.8292 40.1079L23.2708 39.2782ZM23.4708 39.1436L24.0292 39.9733C24.3264 39.7733 24.4938 39.4295 24.4681 39.0721L23.4708 39.1436ZM23.4534 38.9029L22.4561 38.9743L22.4561 38.9744L23.4534 38.9029ZM23.332 37.2119L24.3293 37.1406L24.3293 37.1406L23.332 37.2119ZM23.5426 36.4108L22.7095 35.8575L22.7094 35.8576L23.5426 36.4108ZM23.9663 35.7726L24.7994 36.3259L24.7994 36.3259L23.9663 35.7726ZM24.6219 35.2681L24.9431 36.2153L24.9432 36.2153L24.6219 35.2681ZM26.2257 34.7244L26.547 35.6716L26.5471 35.6715L26.2257 34.7244ZM26.454 34.647L26.7753 35.5942C27.1146 35.4791 27.3664 35.1912 27.4353 34.8395L26.454 34.647ZM26.5003 34.4103L25.519 34.2178L25.519 34.2178L26.5003 34.4103ZM26.8135 32.8109L27.7948 33.0034L27.7948 33.0034L26.8135 32.8109ZM26.8598 32.5741L27.8411 32.7666C27.91 32.4149 27.7854 32.0532 27.5145 31.8184L26.8598 32.5741ZM27.3324 31.6606L26.0522 30.5511L24.7428 32.0624L26.023 33.172L27.3324 31.6606ZM26.0522 30.5511C26.0054 30.5105 25.9731 30.4554 25.9608 30.3941L24.0005 30.7897C24.1005 31.2842 24.3614 31.7319 24.7428 32.0624L26.0522 30.5511ZM25.9608 30.3942L25.8091 29.6431L23.8488 30.0385L24.0005 30.7895L25.9608 30.3942ZM25.8091 29.6431C25.7968 29.582 25.805 29.5184 25.8327 29.4624L24.0394 28.5764C23.8159 29.0291 23.7488 29.5434 23.8488 30.0385L25.8091 29.6431ZM25.8327 29.4623L26.5829 27.9423L24.7896 27.0565L24.0394 28.5765L25.8327 29.4623ZM26.583 27.9423L26.6897 27.726L24.8963 26.8402L24.7896 27.0565L26.583 27.9423ZM26.623 26.7256L26.4885 26.5254L24.8286 27.6404L24.963 27.8406L26.623 26.7256ZM26.4886 26.5255L25.5802 25.1729L23.9202 26.2877L24.8285 27.6403L26.4886 26.5255ZM25.5802 25.1728L25.4457 24.9726L23.7857 26.0875L23.9202 26.2877L25.5802 25.1728ZM24.5435 24.5326L24.3031 24.5499L24.4476 26.5449L24.688 26.5276L24.5435 24.5326ZM24.3032 24.5499L22.6138 24.6715L22.7581 26.6665L24.4474 26.5449L24.3032 24.5499ZM22.6138 24.6715C22.5522 24.676 22.4907 24.6598 22.4391 24.6255L21.3322 26.2909C21.7527 26.5706 22.2542 26.7028 22.7581 26.6665L22.6138 24.6715ZM22.4392 24.6255L21.8015 24.2014L20.6945 25.8668L21.3321 26.2909L22.4392 24.6255ZM21.8015 24.2014C21.7501 24.1672 21.7112 24.1167 21.6912 24.0577L19.7968 24.698C19.9585 25.176 20.2741 25.5872 20.6945 25.8668L21.8015 24.2014ZM21.6912 24.0576L21.148 22.4522L19.2537 23.0927L19.7969 24.6981L21.6912 24.0576ZM21.1481 22.4522L21.0708 22.2237L19.1764 22.8641L19.2537 23.0926L21.1481 22.4522ZM20.3157 21.5625L20.0792 21.5161L19.6949 23.4789L19.9314 23.5253L20.3157 21.5625ZM20.0792 21.5162L18.4813 21.2027L18.097 23.1654L19.6949 23.4789L20.0792 21.5162ZM18.4813 21.2027L18.2448 21.1563L17.8606 23.119L18.097 23.1654L18.4813 21.2027ZM17.2963 21.4832L17.1386 21.6656L18.6513 22.9744L18.809 22.7921L17.2963 21.4832ZM17.1387 21.6655L16.0302 22.947L17.5429 24.2559L18.6513 22.9744L17.1387 21.6655ZM16.0303 22.9469C15.9895 22.994 15.9344 23.0262 15.8736 23.0385L16.2711 24.9988C16.7656 24.8987 17.2128 24.6374 17.5428 24.2559L16.0303 22.9469ZM15.8738 23.0384L15.1234 23.1903L15.5206 25.1507L16.271 24.9989L15.8738 23.0384ZM15.1233 23.1903C15.0628 23.2025 14.9999 23.1943 14.9445 23.1669L14.0584 24.9597C14.5111 25.1837 15.0255 25.2509 15.5207 25.1507L15.1233 23.1903ZM14.9444 23.1669L13.4259 22.4159L12.5399 24.2088L14.0584 24.9597L14.9444 23.1669ZM13.4258 22.4159L13.2097 22.309L12.3239 24.1019L12.54 24.2088L13.4258 22.4159ZM12.2084 22.3757L12.0084 22.5103L13.1252 24.1699L13.3252 24.0353L12.2084 22.3757ZM12.0084 22.5103L10.6571 23.4195L11.7738 25.0792L13.1252 24.1699L12.0084 22.5103ZM10.6571 23.4196L10.457 23.5542L11.5739 25.2137L11.7739 25.0791L10.6571 23.4196ZM10.0181 24.4554L10.0354 24.696L12.0301 24.5531L12.0128 24.3125L10.0181 24.4554ZM10.0354 24.6959L10.1569 26.3869L12.1516 26.2442L12.0302 24.5532L10.0354 24.6959ZM10.1569 26.3869C10.1614 26.4492 10.1451 26.5113 10.1105 26.5634L11.7768 27.6699C12.0559 27.2494 12.1878 26.748 12.1516 26.2442L10.1569 26.3869ZM10.1106 26.5633L9.68685 27.2016L11.3531 28.3083L11.7768 27.67L10.1106 26.5633ZM9.68683 27.2016C9.65242 27.2535 9.60184 27.2923 9.54319 27.3122L10.1855 29.2066C10.6634 29.0446 11.074 28.7287 11.3531 28.3082L9.68683 27.2016ZM9.54309 27.3122L7.93923 27.8559L8.58178 29.7502L10.1856 29.2065L9.54309 27.3122ZM7.93917 27.856L7.71094 27.9333L8.35362 29.8276L8.58185 29.7502L7.93917 27.856ZM7.05098 28.688L7.00463 28.9247L8.96723 29.3097L9.01358 29.073L7.05098 28.688ZM7.00464 28.9247L6.69146 30.5241L8.65406 30.9091L8.96723 29.3097L7.00464 28.9247ZM6.69146 30.5241L6.64511 30.7609L8.60772 31.1458L8.65406 30.9091L6.69146 30.5241ZM6.97176 31.7091L7.15393 31.8669L8.46324 30.3555L8.28107 30.1976L6.97176 31.7091ZM7.15388 31.8669L8.43406 32.9764L9.74346 31.4651L8.46329 30.3555L7.15388 31.8669ZM8.43403 32.9764C8.48084 33.017 8.5131 33.0721 8.52549 33.1334L10.4857 32.7378C10.3858 32.2433 10.1249 31.7956 9.74348 31.4651L8.43403 32.9764ZM8.52546 33.1333L8.67712 33.8844L10.6374 33.489L10.4857 32.738L8.52546 33.1333ZM8.67714 33.8844C8.68948 33.9455 8.68121 34.0091 8.65358 34.0651L10.4468 34.9511C10.6703 34.4984 10.7374 33.9841 10.6374 33.489L8.67714 33.8844ZM8.65354 34.0652L7.9033 35.5852L9.69663 36.471L10.4469 34.951L8.65354 34.0652ZM7.90329 35.5852L7.79653 35.8015L9.58989 36.6873L9.69665 36.471L7.90329 35.5852ZM7.86324 36.8019L7.9977 37.0021L9.65766 35.8871L9.52319 35.6869L7.86324 36.8019ZM7.99766 37.002L8.90604 38.3546L10.5661 37.2398L9.6577 35.8872L7.99766 37.002ZM8.90609 38.3547L9.04056 38.5549L10.7005 37.44L10.566 37.2398L8.90609 38.3547ZM9.94277 38.9949L10.1832 38.9776L10.0387 36.9826L9.79829 36.9999L9.94277 38.9949ZM10.183 38.9776L11.8724 38.856L11.7282 36.861L10.0388 36.9826L10.183 38.9776ZM11.8724 38.856C11.934 38.8515 11.9955 38.8677 12.0472 38.902L13.154 37.2366C12.7335 36.9569 12.232 36.8247 11.7281 36.861L11.8724 38.856ZM12.0471 38.902L12.6847 39.3261L13.7918 37.6607L13.1541 37.2366L12.0471 38.902ZM12.6847 39.3261C12.7362 39.3603 12.775 39.4108 12.795 39.4698L14.6894 38.8295C14.5277 38.3515 14.2121 37.9403 13.7917 37.6607L12.6847 39.3261ZM12.795 39.4699L13.3382 41.0753L15.2325 40.4348L14.6894 38.8294L12.795 39.4699ZM13.3382 41.0753L13.4155 41.3038L15.3099 40.6634L15.2326 40.4349L13.3382 41.0753ZM14.1705 41.965L14.407 42.0114L14.7913 40.0486L14.5548 40.0022L14.1705 41.965ZM14.407 42.0113L16.0049 42.3248L16.3892 40.3621L14.7913 40.0486L14.407 42.0113ZM16.0049 42.3248L16.2414 42.3712L16.6257 40.4085L16.3892 40.3621L16.0049 42.3248ZM17.1899 42.0443L17.3476 41.8619L15.8349 40.5531L15.6772 40.7354L17.1899 42.0443ZM17.3476 41.862L18.456 40.5805L16.9434 39.2716L15.8349 40.5531L17.3476 41.862ZM18.456 40.5806C18.4967 40.5335 18.5518 40.5013 18.6126 40.489L18.2151 38.5287C17.7207 38.6288 17.2734 38.8901 16.9434 39.2716L18.456 40.5806ZM18.6124 40.4891L19.3628 40.3372L18.9657 38.3768L18.2153 38.5286L18.6124 40.4891ZM19.3629 40.3372C19.4235 40.325 19.4864 40.3332 19.5418 40.3606L20.4279 38.5678C19.9751 38.3438 19.4607 38.2766 18.9656 38.3768L19.3629 40.3372ZM19.5418 40.3606L21.0604 41.1116L21.9463 39.3187L20.4278 38.5678L19.5418 40.3606ZM21.0604 41.1116L21.2765 41.2185L22.1624 39.4256L21.9463 39.3187L21.0604 41.1116ZM22.2779 41.1518L22.4779 41.0172L21.361 39.3576L21.161 39.4922L22.2779 41.1518ZM22.4778 41.0172L23.8291 40.108L22.7124 38.4483L21.3611 39.3576L22.4778 41.0172ZM23.8292 40.1079L24.0292 39.9733L22.9123 38.3138L22.7123 38.4484L23.8292 40.1079ZM24.4681 39.0721L24.4508 38.8315L22.4561 38.9744L22.4734 39.215L24.4681 39.0721ZM24.4508 38.8316L24.3293 37.1406L22.3346 37.2833L22.4561 38.9743L24.4508 38.8316ZM24.3293 37.1406C24.3248 37.0783 24.3412 37.0162 24.3757 36.9641L22.7094 35.8576C22.4303 36.2781 22.2984 36.7795 22.3346 37.2833L24.3293 37.1406ZM24.3757 36.9642L24.7994 36.3259L23.1332 35.2192L22.7095 35.8575L24.3757 36.9642ZM24.7994 36.3259C24.8338 36.274 24.8844 36.2352 24.9431 36.2153L24.3007 34.3209C23.8228 34.4829 23.4122 34.7988 23.1332 35.2193L24.7994 36.3259ZM24.9432 36.2153L26.547 35.6716L25.9045 33.7773L24.3006 34.321L24.9432 36.2153ZM26.5471 35.6715L26.7753 35.5942L26.1326 33.6999L25.9044 33.7773L26.5471 35.6715ZM27.4353 34.8395L27.4816 34.6028L25.519 34.2178L25.4727 34.4545L27.4353 34.8395ZM27.4816 34.6028L27.7948 33.0034L25.8322 32.6184L25.519 34.2178L27.4816 34.6028ZM27.7948 33.0034L27.8411 32.7666L25.8785 32.3817L25.8322 32.6184L27.7948 33.0034ZM27.5145 31.8184L27.3323 31.6606L26.023 33.172L26.2052 33.3299L27.5145 31.8184ZM16.564 35.2901C14.6197 34.9149 13.3459 33.0326 13.7211 31.0843L11.7573 30.7054C11.1736 33.7367 13.1553 36.6693 16.1858 37.254L16.564 35.2901ZM13.7211 31.0843C14.0931 29.1529 15.9947 27.8656 17.9222 28.2375L18.3004 26.2736C15.2867 25.6921 12.3378 27.691 11.7573 30.7054L13.7211 31.0843ZM17.9222 28.2375C19.8665 28.6126 21.1403 30.495 20.7651 32.4433L22.7289 32.8222C23.3126 29.7909 21.331 26.8583 18.3004 26.2736L17.9222 28.2375ZM20.7651 32.4433C20.3932 34.3747 18.4915 35.662 16.564 35.2901L16.1858 37.254C19.1996 37.8355 22.1484 35.8366 22.7289 32.8222L20.7651 32.4433Z" fill="black" mask="url(#path-1-outside-1_40_7857)"/>
<g clip-path="url(#clip1_40_7857)">
<path d="M46.4917 24.4952C46.4917 24.4952 35.1183 24.2956 32.4118 38.9717C32.4118 38.9717 31.5532 43.6621 28.909 40.7805C26.2647 37.8989 23.1538 31.3312 20.7086 34.8801C18.2635 38.4353 23.4338 47.6726 28.1126 53.1801C30.3649 55.8309 27.845 64.8436 27.845 64.8436C27.845 64.8436 23.944 75.9707 29.1018 77.0435C29.1018 77.0435 31.6154 77.7109 33.4633 74.3616C35.3174 71.0122 37.6941 71.9478 37.6941 71.9478C37.6941 71.9478 39.0816 72.6838 39.2122 76.1703C39.3429 79.6569 43.1133 79.5883 43.1133 79.5883C43.1133 79.5883 46.1558 79.9251 48.8 75.5653C51.4443 71.2055 53.1615 74.4239 53.1615 74.4239C53.1615 74.4239 56.6644 81.5967 63.807 78.0415C70.9496 74.4863 66.1899 66.0411 66.1899 66.0411C66.1899 66.0411 61.3867 53.7352 59.6011 39.2025C59.6011 39.2025 57.915 23.9089 46.4855 24.4827L46.4917 24.4952Z" fill="#9DD4D1"/>
<path d="M43.2878 80C43.2069 80 43.1447 80 43.1136 80C41.6701 80.0187 38.945 79.2453 38.833 76.1953C38.721 73.2639 37.6882 72.4281 37.5326 72.3158C37.2651 72.2285 35.3861 71.7358 33.8244 74.5612C31.8459 78.1413 29.127 77.4677 29.0088 77.4366C28.032 77.237 27.2667 76.6756 26.7627 75.7775C24.834 72.3595 27.3662 65.0308 27.4782 64.7189C28.1564 62.2926 29.5501 55.4816 27.8142 53.4483C23.1416 47.9471 17.7473 38.4853 20.3792 34.6556C20.9204 33.8698 21.5488 33.4643 22.2519 33.4581C22.2581 33.4581 22.2644 33.4581 22.2768 33.4581C23.938 33.4581 25.593 35.7284 27.1858 37.9239C27.8889 38.8969 28.5546 39.8138 29.2017 40.5124C29.5998 40.949 30.1847 41.4355 30.6762 41.292C31.4602 41.0675 31.9206 39.4458 32.0201 38.8969C32.8103 34.6245 34.8821 28.905 40.2764 25.8799C43.4309 24.1086 46.2431 24.0898 46.4858 24.0961C58.1454 23.516 59.9871 39.0154 59.9995 39.1714C61.723 53.1739 66.3146 65.2553 66.5511 65.8853C66.7751 66.2844 68.9589 70.401 67.8141 74.1433C67.2479 75.9958 65.96 77.4303 63.9877 78.4095C61.7852 79.5073 59.6822 79.7256 57.7472 79.0707C54.4746 77.9542 52.8756 74.7483 52.8071 74.6111C52.8071 74.6111 52.3032 73.7067 51.5254 73.688C50.7975 73.6693 49.9824 74.3928 49.1425 75.7775C46.7596 79.7006 44.0468 80 43.2816 80H43.2878ZM43.126 79.1954C43.126 79.1954 43.1571 79.1954 43.1696 79.1954C43.2816 79.2079 46.0067 79.42 48.4705 75.3596C49.4847 73.688 50.53 72.8584 51.5566 72.8834C52.8009 72.9208 53.4915 74.1807 53.5226 74.2369C53.5413 74.2805 55.0594 77.3056 58.0148 78.3098C59.7382 78.896 61.6359 78.684 63.6393 77.686C65.4125 76.8066 66.5635 75.528 67.0613 73.9001C68.1439 70.3698 65.8729 66.2844 65.848 66.2408C65.8418 66.2221 65.8293 66.2096 65.8231 66.1909C65.7733 66.0661 60.9826 53.6728 59.2094 39.2525C59.2094 39.2088 58.7676 35.4353 56.9695 31.7865C54.5928 26.9777 51.065 24.6512 46.5107 24.882C46.5045 24.882 46.492 24.882 46.4858 24.882C46.044 24.882 35.4172 24.882 32.7978 39.0342C32.7481 39.3024 32.2814 41.6475 30.894 42.0467C30.1847 42.2525 29.4132 41.9157 28.6106 41.0425C27.9386 40.3065 27.2605 39.3772 26.5387 38.3855C25.1264 36.4457 23.5336 34.244 22.2706 34.244C22.2706 34.244 22.2644 34.244 22.2581 34.244C21.8226 34.244 21.4244 34.5309 21.0324 35.0985C18.7677 38.3917 23.8634 47.5604 28.4115 52.9119C30.7695 55.6875 28.3306 64.563 28.2248 64.9435C28.1937 65.0432 25.6926 72.2659 27.4471 75.372C27.8391 76.0706 28.4053 76.4823 29.183 76.6444C29.295 76.6694 31.4539 77.1746 33.1214 74.162C35.1186 70.5445 37.8188 71.5611 37.8437 71.5736C37.8562 71.5736 37.8686 71.5861 37.8873 71.5923C38.049 71.6796 39.4801 72.5404 39.6169 76.1517C39.7351 79.2141 42.9767 79.1892 43.1136 79.1892C43.1136 79.1892 43.1136 79.1892 43.1198 79.1892L43.126 79.1954Z" fill="black"/>
<path d="M50.0695 42.6517C52.09 42.6517 53.728 40.6188 53.728 38.111C53.728 35.6033 52.09 33.5704 50.0695 33.5704C48.0491 33.5704 46.4111 35.6033 46.4111 38.111C46.4111 40.6188 48.0491 42.6517 50.0695 42.6517Z" fill="white"/>
<path d="M50.0507 43.0135C47.8109 43.0135 45.9941 40.7805 45.9941 38.0362C45.9941 35.2918 47.8171 33.0589 50.0507 33.0589C52.2844 33.0589 54.1074 35.2918 54.1074 38.0362C54.1074 40.7805 52.2844 43.0135 50.0507 43.0135ZM50.0507 33.8573C48.2527 33.8573 46.7905 35.7347 46.7905 38.0362C46.7905 40.3377 48.2527 42.2151 50.0507 42.2151C51.8488 42.2151 53.311 40.3377 53.311 38.0362C53.311 35.7347 51.8488 33.8573 50.0507 33.8573Z" fill="black"/>
<path d="M41.3278 42.6517C43.3483 42.6517 44.9863 40.6188 44.9863 38.111C44.9863 35.6033 43.3483 33.5704 41.3278 33.5704C39.3074 33.5704 37.6694 35.6033 37.6694 38.111C37.6694 40.6188 39.3074 42.6517 41.3278 42.6517Z" fill="white"/>
<path d="M41.3091 43.0135C39.0692 43.0135 37.2524 40.7805 37.2524 38.0362C37.2524 35.2918 39.0754 33.0589 41.3091 33.0589C43.5427 33.0589 45.3657 35.2918 45.3657 38.0362C45.3657 40.7805 43.5427 43.0135 41.3091 43.0135ZM41.3091 33.8573C39.511 33.8573 38.0488 35.7347 38.0488 38.0362C38.0488 40.3377 39.511 42.2151 41.3091 42.2151C43.1071 42.2151 44.5693 40.3377 44.5693 38.0362C44.5693 35.7347 43.1071 33.8573 41.3091 33.8573Z" fill="black"/>
<path d="M45.434 47.9221C40.4255 47.9221 37.2461 44.9719 37.2026 44.922C36.9662 44.6975 36.9537 44.317 37.1839 44.08C37.4141 43.843 37.7874 43.8305 38.0239 44.0613C38.2914 44.3108 44.5256 50.049 53.4726 43.9989C53.7463 43.8118 54.1134 43.8866 54.3001 44.1611C54.4867 44.4355 54.4121 44.8035 54.1383 44.9906C50.8905 47.1923 47.929 47.9283 45.434 47.9283V47.9221Z" fill="black"/>
<path d="M49.8582 10.4491C49.8582 10.4491 47.2388 9.52596 44.6692 15.6259C42.0996 21.7259 41.8507 22.2623 41.8507 22.2623C41.8507 22.2623 29.3698 24.4017 29.8862 28.5182C29.8862 28.5182 30.4835 30.6388 36.2075 30.0027C41.9316 29.3665 46.9339 29.7656 46.9339 29.7656C46.9339 29.7656 55.6755 30.8759 60.6343 32.9154C65.5993 34.9612 64.5789 31.3187 64.5789 31.3187C64.5789 31.3187 64.1558 28.3997 53.2615 23.7468L51.9922 13.6113C51.9922 13.6113 51.8242 10.7297 49.8582 10.4366V10.4491Z" fill="black"/>
<path d="M41.8569 22.1064L43.008 19.5741C43.008 19.5741 51.7496 20.2165 52.7326 20.8527L53.0748 23.5222L41.8569 22.1064Z" fill="#497F44"/>
<path d="M63.067 33.9446C62.3702 33.9446 61.4991 33.7263 60.4352 33.2896C55.576 31.2875 46.9215 30.1773 46.8344 30.1648C46.8033 30.1648 41.8196 29.7781 36.2013 30.4018C30.3155 31.0567 29.5253 28.88 29.4569 28.6242C29.4569 28.6055 29.4507 28.5868 29.4445 28.5681C28.9156 24.3767 39.4926 22.2685 41.521 21.9068C41.7138 21.4577 42.3422 19.9982 44.2523 15.47C46.7908 9.4511 49.4973 9.95008 49.8955 10.0561C52.1291 10.4116 52.3344 13.4616 52.3406 13.5926L53.5788 23.4723C63.907 27.9132 64.8402 30.7948 64.9211 31.2314C64.9709 31.4247 65.2695 32.747 64.442 33.483C64.0998 33.7886 63.6456 33.9383 63.067 33.9383V33.9446ZM42.9769 29.2479C45.3287 29.2479 46.8904 29.3665 46.9152 29.3727C47.2948 29.4226 55.7813 30.5141 60.7401 32.5537C62.308 33.2023 63.4403 33.3208 63.9132 32.8967C64.4171 32.4476 64.1496 31.4434 64.1496 31.431C64.1496 31.4123 64.1434 31.3998 64.1372 31.3811C64.1372 31.3686 63.4279 28.5494 53.0562 24.121C52.9255 24.0648 52.8322 23.9463 52.8197 23.8029L51.5505 13.6674C51.5505 13.6175 51.37 11.079 49.7524 10.842C49.7275 10.842 49.7088 10.8358 49.6839 10.8233C49.6342 10.8108 47.3383 10.1996 44.9865 15.7756C42.4418 21.8132 42.1742 22.3995 42.168 22.4245C42.112 22.543 42.0063 22.6303 41.8756 22.649C38.522 23.2228 29.936 25.3809 30.2346 28.4246C30.3155 28.5993 31.1866 30.1523 36.1204 29.6097C38.6652 29.329 41.0854 29.2479 42.9831 29.2479H42.9769Z" fill="black"/>
<path d="M52.72 21.2831C52.6764 21.2831 52.6391 21.2768 52.5955 21.2644C50.225 20.4785 43.0824 20.0045 43.0077 20.0045C42.79 19.992 42.622 19.7986 42.6344 19.5803C42.6469 19.362 42.8398 19.1936 43.0575 19.2061C43.3562 19.2248 50.3743 19.6926 52.8382 20.5097C53.0435 20.5783 53.1617 20.8028 53.0933 21.0149C53.0373 21.1833 52.8817 21.2893 52.7137 21.2893L52.72 21.2831Z" fill="black"/>
<path d="M50.225 40.7057C51.2937 40.7057 52.16 39.5245 52.16 38.0673C52.16 36.6102 51.2937 35.429 50.225 35.429C49.1564 35.429 48.29 36.6102 48.29 38.0673C48.29 39.5245 49.1564 40.7057 50.225 40.7057Z" fill="#0090CF"/>
<path d="M50.2253 41.1049C48.9374 41.1049 47.8921 39.7452 47.8921 38.0674C47.8921 36.3896 48.9374 35.0298 50.2253 35.0298C51.5132 35.0298 52.5584 36.3896 52.5584 38.0674C52.5584 39.7452 51.5132 41.1049 50.2253 41.1049ZM50.2253 35.8282C49.3915 35.8282 48.6885 36.8511 48.6885 38.0674C48.6885 39.2836 49.3915 40.3065 50.2253 40.3065C51.059 40.3065 51.762 39.2836 51.762 38.0674C51.762 36.8511 51.059 35.8282 50.2253 35.8282Z" fill="black"/>
<path d="M41.1908 40.7556C42.2595 40.7556 43.1258 39.5744 43.1258 38.1173C43.1258 36.6602 42.2595 35.4789 41.1908 35.4789C40.1222 35.4789 39.2559 36.6602 39.2559 38.1173C39.2559 39.5744 40.1222 40.7556 41.1908 40.7556Z" fill="#0090CF"/>
<path d="M41.1911 41.1548C39.9032 41.1548 38.8579 39.7951 38.8579 38.1173C38.8579 36.4395 39.9032 35.0798 41.1911 35.0798C42.479 35.0798 43.5243 36.4395 43.5243 38.1173C43.5243 39.7951 42.479 41.1548 41.1911 41.1548ZM41.1911 35.8781C40.3574 35.8781 39.6543 36.901 39.6543 38.1173C39.6543 39.3335 40.3574 40.3564 41.1911 40.3564C42.0248 40.3564 42.7279 39.3335 42.7279 38.1173C42.7279 36.901 42.0248 35.8781 41.1911 35.8781Z" fill="black"/>
</g>
</g>
<defs>
<clipPath id="clip0_40_7857">
<rect width="80" height="80" fill="white" transform="translate(0.755859)"/>
</clipPath>
<clipPath id="clip1_40_7857">
<rect width="48.4615" height="70" fill="white" transform="translate(19.6885 10)"/>
</clipPath>
</defs>
</svg>
