<svg width="81" height="80" viewBox="0 0 81 80" fill="none" xmlns="http://www.w3.org/2000/svg">
<g clip-path="url(#clip0_40_7880)">
<path d="M30.2243 29.0036C30.2827 28.8777 30.3285 28.7494 30.3689 28.6235H31.3431C31.7459 28.6235 32.0987 28.3152 32.0987 27.8995V25.8214C32.0987 25.4064 31.7461 25.0974 31.3431 25.0974H30.3666C30.2499 24.7515 30.1053 24.424 29.9265 24.1094L30.5969 23.4808C30.9046 23.1924 30.9046 22.7263 30.5969 22.4378L29.0351 20.9736C28.7443 20.6918 28.2658 20.6917 27.9748 20.9732L27.2812 21.6175C26.9414 21.4488 26.5774 21.3112 26.204 21.2043V20.3091C26.204 19.8911 25.8487 19.5851 25.4409 19.5851H23.2323C22.8295 19.5851 22.4767 19.8934 22.4767 20.3091V21.2061C22.0983 21.3178 21.7363 21.4571 21.3914 21.631L20.7064 20.9887C20.4155 20.7068 19.9366 20.7068 19.6457 20.9887L18.0855 22.4514C17.7758 22.7323 17.7756 23.2084 18.085 23.4895L18.7551 24.1239C18.5808 24.4346 18.4341 24.7677 18.3248 25.112H17.3515C16.9511 25.112 16.5884 25.418 16.5884 25.843V27.9135C16.5884 28.3333 16.9542 28.6375 17.3515 28.6375H18.3278C18.4444 28.9846 18.5883 29.3163 18.763 29.6322L18.0994 30.2605C17.79 30.5416 17.7902 31.0177 18.0999 31.2986L19.6601 32.7613C19.9508 33.0431 20.4294 33.0432 20.7203 32.7617L21.4136 32.1182C21.7507 32.2872 22.1111 32.429 22.4912 32.5338V33.4263C22.4912 33.8373 22.839 34.1573 23.2467 34.1573H25.4634C25.8713 34.1573 26.219 33.8366 26.219 33.4263V32.5285C26.3501 32.4891 26.4801 32.4457 26.6033 32.398L26.9745 32.2546L26.6842 31.9825L25.1518 30.5459L25.0607 30.4605L24.9377 30.482C24.745 30.5158 24.5493 30.5296 24.3432 30.5296C22.1639 30.5296 20.4246 28.8766 20.4246 26.8715C20.4246 24.8659 22.1645 23.2063 24.3432 23.2063C26.5229 23.2063 28.2694 24.8597 28.2694 26.8715C28.2694 27.0629 28.2548 27.2432 28.2199 27.4211L28.1931 27.5574L28.2947 27.6521L29.827 29.0811L30.0791 29.3161L30.2243 29.0036Z" fill="#CFCFCF" stroke="black" stroke-width="0.5"/>
<path d="M26.9249 27.6709C27.0616 27.2839 27.1025 26.8558 27.0195 26.411C26.8442 25.4728 26.0786 24.6837 25.1015 24.4232C24.5763 24.2832 24.073 24.2967 23.617 24.4172C23.4423 24.4637 23.3835 24.6696 23.512 24.7902L24.5601 25.7727C24.9418 26.1311 24.9418 26.7115 24.5601 27.0693C24.1785 27.4271 23.5593 27.4271 23.1771 27.0693L22.1296 26.0873C22.001 25.9668 21.7814 26.0219 21.7318 26.1857C21.6027 26.6132 21.5877 27.0855 21.7364 27.579C22.012 28.4956 22.8554 29.2134 23.8562 29.3755C24.3313 29.4528 24.7884 29.4139 25.2012 29.2858L29.872 33.6647C30.0542 33.8354 30.3499 33.8354 30.5321 33.6647L31.5951 32.668C31.7773 32.4972 31.7773 32.22 31.5951 32.0492L26.9249 27.6709Z" fill="#F1614E" stroke="black" stroke-width="0.5"/>
<g clip-path="url(#clip1_40_7880)">
<path d="M69.4615 63.1638C69.4615 63.1638 78.8019 69.4671 77.1387 73.2763C75.4756 77.0854 73.5873 76.959 72.82 76.6361C72.0527 76.3133 70.2379 74.4227 72.503 71.2453C72.503 71.2453 68.1291 68.5921 66.7324 67.3052C66.7324 67.3052 68.8826 65.9856 69.4661 63.1638H69.4615Z" fill="#032640"/>
<path d="M73.5782 77.0619C73.1923 77.0619 72.8937 76.9683 72.7145 76.8935C72.1953 76.6782 71.5153 76.009 71.2489 75.0544C71.0283 74.2636 71.01 72.9908 72.1126 71.3295C71.1524 70.7399 67.7755 68.6341 66.5488 67.511C66.4845 67.4502 66.4523 67.366 66.4615 67.2771C66.4707 67.1882 66.5166 67.1133 66.5902 67.0665C66.6085 67.0524 68.6484 65.7656 69.1998 63.1029C69.2181 63.014 69.2779 62.9392 69.3606 62.9017C69.4433 62.869 69.5398 62.8783 69.6133 62.9251C70.0038 63.1872 79.1237 69.4016 77.387 73.3792C76.0454 76.4489 74.5477 77.0526 73.5782 77.0526V77.0619ZM67.1736 67.3285C68.7587 68.6435 72.5996 70.9832 72.641 71.0066C72.7053 71.0488 72.7512 71.1143 72.7696 71.1891C72.7834 71.264 72.7696 71.3436 72.7237 71.4091C71.8186 72.6772 71.4924 73.8845 71.7726 74.9C72.0024 75.7283 72.5858 76.2383 72.9212 76.3787C73.4312 76.5893 75.2184 76.9871 76.8908 73.1592C77.6856 71.3389 75.6136 68.7979 73.739 66.9869C72.1126 65.4193 70.3484 64.1184 69.6362 63.613C69.0895 65.658 67.7755 66.8606 67.1782 67.3239L67.1736 67.3285Z" fill="black"/>
<path d="M40.8934 68.0446C40.8934 68.0446 32.9221 77.8528 28.9709 75.5224C25.0197 73.192 25.3781 71.0722 25.8192 70.2392C26.2602 69.4063 28.5345 67.5813 31.7322 70.52C31.7322 70.52 35.1412 65.8967 36.7079 64.4647C36.7079 64.4647 37.8933 67.0525 40.898 68.0446H40.8934Z" fill="#032640"/>
<path d="M30.3356 76.1541C29.798 76.1541 29.288 76.0325 28.8286 75.761C24.4088 73.1546 25.222 70.7774 25.5758 70.1082C25.8698 69.5513 26.6692 68.8728 27.7305 68.6856C28.6127 68.5312 30.0002 68.6622 31.6817 70.1175C32.4076 69.1442 35.1367 65.5223 36.515 64.2588C36.5794 64.2026 36.6667 64.1746 36.7494 64.1933C36.8321 64.212 36.9056 64.2681 36.9423 64.3477C36.9515 64.3711 38.1185 66.8419 40.967 67.7825C41.0543 67.8105 41.1186 67.8807 41.1462 67.9696C41.1692 68.0586 41.1508 68.1521 41.0957 68.2223C40.8016 68.5827 34.5946 76.1541 30.331 76.1541H30.3356ZM28.3186 69.191C28.1532 69.191 27.9878 69.205 27.8224 69.2331C26.8806 69.3969 26.2466 70.0052 26.0536 70.3749C25.7595 70.9318 25.1071 72.9299 29.0997 75.2837C31.0018 76.4068 34.0295 74.3619 36.2302 72.4479C38.1644 70.768 39.8138 68.8915 40.4249 68.1755C38.2058 67.3098 37.0434 65.6299 36.6299 64.9186C35.0127 66.5377 31.9758 70.651 31.9436 70.6931C31.8977 70.754 31.8288 70.7961 31.7506 70.8008C31.6771 70.8054 31.599 70.782 31.5439 70.7306C30.4412 69.7198 29.3386 69.191 28.3186 69.191Z" fill="black"/>
<path d="M40.1586 38.8912C40.1586 38.8912 33.6805 32.9856 31.7784 30.4025C31.7784 30.4025 30.7079 28.9332 30.0969 29.4339C29.4858 29.9346 30.3358 30.9407 30.3358 30.9407C30.3358 30.9407 29.4169 29.5555 28.737 30.1452C28.057 30.7348 29.1964 31.7175 29.1964 31.7175C29.1964 31.7175 28.2637 30.4212 27.7032 31.198C27.1427 31.9748 30.3358 36.4251 36.5704 43.2946" fill="white"/>
<path d="M36.5702 43.5707C36.4967 43.5707 36.4232 43.5426 36.3727 43.4817C31.8288 38.4793 26.6004 32.2556 27.4825 31.0342C27.6984 30.7347 27.9557 30.6739 28.1349 30.6739C28.1763 30.6739 28.2176 30.6739 28.2544 30.6833C28.2544 30.6552 28.2544 30.6271 28.2544 30.5944C28.2544 30.337 28.36 30.1077 28.5668 29.9299C28.7598 29.7614 28.9895 29.6912 29.2376 29.7286C29.3662 29.7474 29.4903 29.7942 29.6097 29.855C29.6097 29.841 29.6097 29.8316 29.6097 29.8176C29.6327 29.5789 29.743 29.3683 29.9267 29.2139C30.0875 29.0829 30.2805 29.0267 30.4964 29.0548C31.1902 29.1437 31.9161 30.1217 31.9988 30.234C33.8641 32.7656 40.2779 38.6244 40.3422 38.6806C40.4525 38.7835 40.4617 38.9566 40.3652 39.0736C40.2641 39.1859 40.0941 39.1953 39.9793 39.097C39.7128 38.8537 33.4598 33.1447 31.5623 30.5663C31.3096 30.22 30.7767 29.6538 30.4275 29.607C30.3586 29.5976 30.3127 29.607 30.2667 29.6491C30.1932 29.7099 30.1565 29.7754 30.1473 29.869C30.1289 30.089 30.2759 30.3791 30.4045 30.5756C30.4872 30.6786 30.5424 30.7581 30.5562 30.7862C30.6389 30.9079 30.6113 31.0717 30.4964 31.1606C30.3816 31.2495 30.2208 31.2308 30.1243 31.1231C30.1059 31.0997 30.037 31.0202 29.9543 30.8985C29.7338 30.6271 29.4122 30.3183 29.1503 30.2808C29.0584 30.2668 28.9803 30.2902 28.9068 30.3557C28.8241 30.4259 28.7873 30.5008 28.7873 30.599C28.7873 30.7535 28.8792 30.936 28.9941 31.0997C29.2192 31.3056 29.3754 31.5162 29.4076 31.5583C29.4903 31.6706 29.4765 31.8297 29.3754 31.9233C29.2743 32.0169 29.1181 32.0216 29.0124 31.9327C28.9711 31.8999 28.7781 31.7221 28.5944 31.4788C28.4381 31.3431 28.2682 31.2308 28.1257 31.2308C28.0706 31.2308 28.0017 31.2448 27.9144 31.3665C27.7122 31.6987 28.9022 34.4503 36.7632 43.1121C36.8643 43.2244 36.8597 43.3975 36.7494 43.5051C36.6989 43.5566 36.63 43.58 36.5656 43.58L36.5702 43.5707Z" fill="black"/>
<path d="M75.3286 54.75C76.22 54.5207 76.2567 53.6269 76.2567 53.6129C76.2567 53.1637 76.1327 52.8033 75.88 52.5413C75.7054 52.3635 75.5032 52.2605 75.324 52.1997C76.2659 51.8721 76.174 50.9269 76.174 50.9128C76.1189 50.4683 75.9443 50.1267 75.6594 49.9067C75.4757 49.7617 75.2735 49.6915 75.0943 49.654C75.9213 49.2282 75.7605 48.3438 75.7559 48.3344C75.6594 47.8945 75.4573 47.5716 75.1541 47.3751C74.9335 47.23 74.6946 47.1832 74.5016 47.1692C75.3378 46.6123 75.0162 45.7186 75.0116 45.7045C74.8462 45.288 74.5935 45.0026 74.2627 44.8622C74.0606 44.7733 73.8584 44.7546 73.6793 44.7593C74.4603 44.0948 74.0192 43.2384 74.0146 43.2291C73.7987 42.836 73.5139 42.588 73.1647 42.4897C72.9304 42.4242 72.7052 42.4382 72.5215 42.4757C73.1831 41.7363 72.6685 40.9595 72.6593 40.9455C72.402 40.5805 72.0942 40.3652 71.7358 40.3044C71.5015 40.2669 71.2856 40.3044 71.111 40.3558C71.6347 39.5603 71.0513 38.8677 71.0467 38.8584C70.5459 38.2968 70.0313 38.2734 69.65 38.3858C70.1186 37.6932 69.6683 37.0147 69.6591 37.0053C69.3973 36.6403 69.0894 36.4297 68.7311 36.3736C68.6392 36.3595 68.5565 36.3595 68.4738 36.3642C69.0022 35.8167 68.7541 35.1101 68.7495 35.1007C68.5841 34.6843 68.336 34.3988 68.0052 34.2537C67.9133 34.2163 67.826 34.1929 67.7387 34.1742C68.3865 33.7764 68.313 33.023 68.313 33.0137C68.2533 32.5691 68.0787 32.2322 67.7938 32.0076C67.6422 31.8906 67.486 31.8251 67.3344 31.783C68.1568 31.4694 68.1292 30.6131 68.1292 30.599C68.1017 30.1498 67.95 29.8035 67.679 29.5602C67.5228 29.4198 67.3436 29.3356 67.1828 29.2841C68.0098 28.9378 67.9408 28.0674 67.9408 28.0534C67.8903 27.6088 67.7203 27.2672 67.4401 27.0379C67.2609 26.8929 67.0633 26.818 66.8887 26.7806C67.7571 26.3641 67.5917 25.4563 67.5871 25.4422C67.4952 25.0023 67.293 24.6795 66.9898 24.4829C66.806 24.3612 66.6085 24.3051 66.4385 24.2817C67.2609 23.795 67.0266 22.9059 67.022 22.8966C66.8933 22.466 66.6682 22.1619 66.3512 21.9887C66.1444 21.8764 65.9285 21.839 65.7447 21.8343C66.5304 21.2587 66.195 20.393 66.1904 20.379C66.0158 19.9672 65.7585 19.6864 65.4277 19.5507C65.2164 19.4618 65.005 19.4478 64.8212 19.4618C65.5012 18.7833 65.0602 17.9831 65.0556 17.969C64.8258 17.5853 64.5364 17.3466 64.1872 17.2577C63.9437 17.1969 63.7186 17.2203 63.5348 17.2671C64.1275 16.4669 63.544 15.7369 63.5348 15.7275C62.9835 15.0818 62.3632 15.1052 61.9222 15.297C62.3403 14.4219 61.6557 13.8183 61.6465 13.8089C60.9252 13.2146 60.3095 13.4486 59.9604 13.6873C60.2314 12.7092 59.4136 12.2507 59.4044 12.2413C58.5729 11.8061 58.0169 12.1664 57.7275 12.4799C57.778 11.4739 56.8867 11.2071 56.8729 11.2024C56.1286 11.0059 55.6784 11.296 55.4211 11.6096C55.4211 11.4598 55.3844 11.3007 55.2971 11.1603C55.1684 10.9497 54.9387 10.814 54.6217 10.7672C54.6125 10.7672 53.8223 10.6924 53.4961 11.3662C53.4409 11.2165 53.3536 11.0667 53.2158 10.9451C52.9907 10.7532 52.6782 10.6737 52.2831 10.7111C52.2739 10.7111 51.4056 10.8234 51.2586 11.7499C51.0335 11.4037 50.5648 10.9778 49.7103 11.2024C49.7011 11.2024 48.8052 11.4692 48.8557 12.4753C48.58 12.1805 48.0149 11.8014 47.1788 12.2413C47.1696 12.246 46.3518 12.7046 46.6228 13.6826C46.2691 13.4346 45.658 13.21 44.9367 13.8089C44.9275 13.8136 44.2429 14.4219 44.6656 15.3017C44.2751 15.1286 43.6457 15.0303 43.0484 15.7275C43.0438 15.7369 42.4557 16.4669 43.0484 17.2671C42.6625 17.1735 42.0009 17.1688 41.5276 17.9737C41.523 17.9831 41.0774 18.7833 41.762 19.4618C41.353 19.4337 40.7374 19.546 40.3882 20.379C40.3882 20.3883 40.0528 21.254 40.8385 21.8296C40.4296 21.8437 39.8185 22.0168 39.5566 22.8919C39.5566 22.9012 39.3177 23.7903 40.1447 24.277C39.7404 24.3332 39.1753 24.5718 38.9915 25.4375C38.9915 25.4469 38.8261 26.3547 39.6945 26.7712C39.2856 26.8648 38.7388 27.1549 38.6378 28.0487C38.6378 28.0581 38.5642 28.9285 39.3958 29.2747C39.0007 29.3964 38.5045 29.724 38.4494 30.5897C38.4494 30.599 38.4218 31.4554 39.2396 31.7689C38.8445 31.8765 38.3713 32.1807 38.261 32.9996C38.261 33.009 38.1829 33.7624 38.8353 34.1602C38.477 34.2257 38.0681 34.455 37.82 35.0867C37.82 35.0961 37.5673 35.798 38.091 36.3455C37.7281 36.3268 37.2916 36.4578 36.9057 36.9913C36.9011 37.0006 36.4462 37.6745 36.9149 38.367C36.5335 38.2547 36.0235 38.2828 35.5182 38.8443C35.5136 38.8537 34.9301 39.5416 35.4538 40.3371C35.0495 40.2061 34.4247 40.1874 33.9055 40.9267C33.9009 40.9361 33.3818 41.7129 34.0434 42.4523C33.6528 42.3727 33.0004 42.3961 32.5548 43.2057C32.5502 43.215 32.1091 44.0714 32.8902 44.7359C32.4721 44.7218 31.884 44.8669 31.5624 45.6858C31.5624 45.6952 31.2362 46.589 32.0678 47.1458C31.6543 47.1739 31.0156 47.3798 30.8181 48.311C30.8181 48.3204 30.6527 49.2048 31.4797 49.6306C31.0754 49.7149 30.5149 49.9956 30.4 50.8941C30.4 50.9035 30.3081 51.8487 31.25 52.1763C30.8502 52.3073 30.3127 52.663 30.3219 53.5895C30.3219 53.5989 30.3586 54.4927 31.25 54.7219C30.8594 54.8904 30.3724 55.2882 30.4505 56.196C30.4505 56.2054 30.5654 57.1647 31.5762 57.2676C31.227 57.4829 30.7676 57.9508 30.9743 58.8493C30.9743 58.8586 31.2086 59.7431 32.1551 59.7477C31.7599 60.0894 31.521 60.6509 31.8151 61.3949C31.8151 61.4043 32.1964 62.2887 33.1888 62.0875C32.9131 62.4104 32.6558 62.9719 33.0923 63.7441C33.0969 63.7534 33.5977 64.5723 34.5487 64.2354C34.4385 64.4039 34.3328 64.6285 34.3098 64.8952C34.2777 65.2602 34.4063 65.6205 34.6866 65.9668C34.6958 65.9762 35.2793 66.65 36.12 66.2382C36.0465 66.3973 35.9868 66.5986 35.9914 66.8232C36.0006 67.1835 36.166 67.5204 36.4922 67.8293C36.506 67.8433 36.8735 68.1756 37.3881 68.1475C37.5994 68.1381 37.797 68.0586 37.9899 67.9322C37.9256 68.1054 37.8797 68.3206 37.9118 68.5546C37.9578 68.9102 38.1599 69.2238 38.5229 69.4858C38.5275 69.4858 38.8537 69.7151 39.2764 69.7151C39.5015 69.7151 39.7542 69.6496 39.9977 69.4577C39.9564 69.6402 39.9426 69.8508 39.9977 70.0754C40.085 70.4217 40.3193 70.7119 40.7006 70.9318C40.7052 70.9318 40.9625 71.0675 41.3025 71.0675C41.569 71.0675 41.886 70.9833 42.1709 70.6978C42.1479 70.8756 42.1525 71.0815 42.226 71.2968C42.3454 71.6337 42.6073 71.8958 43.0162 72.0783C43.0208 72.0783 43.2368 72.1719 43.5262 72.1719C43.8156 72.1719 44.1832 72.0783 44.4772 71.7086C44.4726 71.8864 44.4956 72.0923 44.5921 72.2889C44.7437 72.6071 45.0332 72.8364 45.4559 72.9674C45.4559 72.9674 45.6029 73.0048 45.805 73.0048C46.1128 73.0048 46.5631 72.9112 46.8709 72.462C46.8847 72.6305 46.9261 72.8223 47.0317 73.0001C47.2109 73.3043 47.5187 73.5055 47.9506 73.5944C47.9506 73.5944 48.0379 73.6132 48.1711 73.6132C48.4744 73.6132 49.0257 73.5243 49.3289 72.9487C49.3611 73.1078 49.4208 73.2809 49.5357 73.44C49.7424 73.7255 50.0686 73.8939 50.5097 73.9407C50.5097 73.9407 50.5327 73.9407 50.5832 73.9407C50.8129 73.9407 51.5159 73.8799 51.8145 73.1686C51.8604 73.3277 51.9386 73.5009 52.0718 73.6506C52.3061 73.9127 52.6461 74.0484 53.0872 74.0484C53.0872 74.0484 54.0795 74.025 54.3276 73.0891C54.4884 73.5009 54.8652 74.0203 55.7381 74.025C55.7703 74.025 56.51 73.9969 56.9556 73.4962C57.1027 73.3324 57.1945 73.1312 57.2405 72.9019C57.5391 73.5102 58.1042 73.5991 58.4167 73.5991C58.5453 73.5991 58.6326 73.5851 58.6372 73.5804C59.0691 73.4915 59.3815 73.2903 59.5561 72.9861C59.6617 72.8083 59.7031 72.6164 59.7169 72.448C60.0247 72.9019 60.4749 72.9908 60.7828 72.9908C60.9849 72.9908 61.1273 72.9534 61.1365 72.9487C61.5592 72.8176 61.8441 72.593 61.9957 72.2701C62.0876 72.0689 62.1151 71.8677 62.1106 71.6899C62.4046 72.0596 62.7676 72.1532 63.0616 72.1532C63.3556 72.1532 63.567 72.0642 63.5716 72.0596C63.9759 71.8771 64.2424 71.615 64.3572 71.2781C64.4307 71.0675 64.4353 70.8569 64.4123 70.6791C64.6972 70.9646 65.0142 71.0488 65.2807 71.0488C65.6207 71.0488 65.8826 70.9178 65.8871 70.9131C66.2685 70.6931 66.5028 70.4077 66.5901 70.0567C66.6452 69.8321 66.6269 69.6215 66.5901 69.439C66.8382 69.6309 67.0909 69.6964 67.3114 69.6964C67.7341 69.6964 68.0603 69.4718 68.0649 69.4671C68.4233 69.2051 68.6254 68.8915 68.6714 68.5359C68.7035 68.3019 68.6576 68.0867 68.5933 67.9135C68.7862 68.0399 68.9838 68.1147 69.1951 68.1288C69.2135 68.1288 69.2365 68.1288 69.2548 68.1288C69.7373 68.1288 70.0726 67.8246 70.091 67.8059C70.4172 67.5017 70.5872 67.1648 70.5918 66.8045C70.5918 66.5798 70.5367 66.3786 70.4632 66.2195C70.6561 66.3131 70.8399 66.3552 71.0053 66.3552C71.5475 66.3552 71.892 65.9575 71.9012 65.9481C72.1861 65.6018 72.3101 65.2462 72.278 64.8812C72.255 64.6051 72.1447 64.3805 72.0299 64.212C72.1953 64.2728 72.3469 64.3009 72.4847 64.3009C73.1463 64.3009 73.4909 63.7347 73.4955 63.7253C73.716 63.3369 73.7803 62.9579 73.6838 62.6069C73.6241 62.387 73.5139 62.2045 73.3944 62.0688C73.4955 62.0875 73.592 62.1015 73.6793 62.1015C74.4603 62.1015 74.7681 61.3903 74.7727 61.3762C75.0851 60.5947 74.7957 60.0472 74.4373 59.729C75.3792 59.7197 75.6089 58.8352 75.6135 58.8259C75.7146 58.3907 75.6686 58.007 75.4757 57.6981C75.347 57.4875 75.1724 57.3472 75.0116 57.2489C76.0224 57.1459 76.1327 56.1866 76.1373 56.1773C76.174 55.728 76.0775 55.363 75.8478 55.0823C75.6962 54.8951 75.5078 54.7828 75.3378 54.7079L75.3286 54.75Z" fill="white"/>
<path d="M53.0824 74.3666C52.554 74.3666 52.1451 74.1981 51.8603 73.8799C51.8281 73.8425 51.796 73.8051 51.7684 73.7629C51.3503 74.2122 50.7714 74.2543 50.5693 74.2543C50.5003 74.2543 50.4682 74.2543 50.4636 74.2543C49.9444 74.1981 49.5539 73.9922 49.3012 73.6413C49.2782 73.6085 49.2553 73.5711 49.2323 73.5383C48.6993 74.025 48.0056 73.9267 47.8861 73.908C47.8815 73.908 47.8723 73.908 47.8677 73.908C47.367 73.8051 46.9994 73.5617 46.7789 73.1874C46.7513 73.1406 46.7283 73.0938 46.7054 73.0423C46.4481 73.2295 46.1311 73.3278 45.7819 73.3278C45.5384 73.3278 45.3684 73.281 45.3592 73.2763C44.8538 73.1219 44.5092 72.8458 44.3255 72.4527C44.3025 72.4012 44.2795 72.3451 44.2611 72.2889C43.9947 72.448 43.719 72.4901 43.5077 72.4901C43.1631 72.4901 42.9058 72.3825 42.892 72.3778C42.4096 72.1626 42.0972 71.8443 41.9547 71.4325C41.9364 71.3717 41.918 71.3156 41.9042 71.25C41.7112 71.339 41.5045 71.3858 41.2886 71.3858C40.8751 71.3858 40.5626 71.222 40.5581 71.2173C40.1032 70.9552 39.8229 70.6043 39.7173 70.1831C39.6989 70.1129 39.6897 70.0381 39.6805 69.9679C39.5427 70.01 39.4049 70.0334 39.2578 70.0334C38.7341 70.0334 38.3481 69.7526 38.3435 69.7526C37.9255 69.4438 37.682 69.0647 37.6268 68.6342C37.6176 68.5687 37.613 68.5032 37.613 68.433C37.5395 68.4517 37.4614 68.4611 37.3833 68.4657C36.7723 68.5032 36.3404 68.1194 36.2944 68.0773C35.9085 67.717 35.711 67.3146 35.7018 66.8747C35.7018 66.8092 35.7018 66.7484 35.711 66.6828C35.1275 66.7437 34.6634 66.4208 34.4659 66.1915C34.1305 65.7844 33.9789 65.3539 34.0202 64.914C34.0294 64.8204 34.0432 64.7268 34.0708 64.6332C33.4459 64.6285 33.0094 64.2074 32.8441 63.9266C32.4903 63.2995 32.5316 62.7895 32.6787 62.4151C32.0125 62.3215 31.6403 61.7834 31.5438 61.5354C31.3187 60.9645 31.3463 60.417 31.6173 59.9724C30.8822 59.715 30.6939 58.957 30.6893 58.9476C30.5239 58.2316 30.726 57.745 30.9879 57.4314C30.2528 57.0852 30.1609 56.2709 30.1609 56.2616C30.0966 55.5222 30.3631 55.0683 30.6617 54.7969C30.1931 54.4646 30.0415 53.9312 30.0323 53.6317C30.0277 52.8829 30.3263 52.4524 30.6571 52.2044C30.1747 51.8113 30.0828 51.217 30.115 50.8988C30.2069 50.1688 30.556 49.7851 30.9052 49.5839C30.4825 49.1253 30.4871 48.5263 30.5377 48.2877C30.6709 47.67 31.0109 47.2348 31.4979 47.0289C31.0247 46.3971 31.282 45.6625 31.2957 45.625C31.5576 44.9652 31.9711 44.6798 32.3479 44.5628C32.0171 44.0012 32.1503 43.3976 32.3065 43.1074C32.6603 42.4663 33.1335 42.2417 33.5332 42.1902C33.3081 41.6193 33.5011 41.0625 33.671 40.8051C34.0983 40.1968 34.5899 40.033 34.9942 40.0236C34.8105 39.2749 35.2975 38.6993 35.3067 38.6946C35.7064 38.2501 36.1153 38.0957 36.4644 38.077C36.3404 37.5622 36.5196 37.0896 36.6712 36.8696C36.9698 36.4532 37.3006 36.2473 37.6039 36.163C37.3466 35.5921 37.5487 35.0306 37.5533 35.0259C37.7463 34.5392 38.0219 34.2585 38.3022 34.0994C37.9163 33.608 37.9806 33.0137 37.9806 33.009C38.0541 32.4615 38.2884 32.0404 38.656 31.7783C38.2654 31.4227 38.1598 30.922 38.169 30.6225C38.2149 29.9159 38.5181 29.5134 38.8352 29.2841C38.3941 28.8723 38.3344 28.2921 38.3619 28.0581C38.4446 27.3375 38.78 26.9491 39.12 26.7432C38.6973 26.3126 38.656 25.7324 38.7157 25.4282C38.8627 24.731 39.2257 24.38 39.5794 24.2022C39.1705 23.7062 39.2165 23.0931 39.29 22.8498C39.4967 22.1526 39.9056 21.8344 40.2824 21.694C39.9424 21.1839 40.0113 20.6036 40.1262 20.3135C40.411 19.635 40.8567 19.3636 41.2472 19.27C40.9624 18.685 41.1553 18.0907 41.2794 17.8708C41.5964 17.3373 42.0466 17.0378 42.5658 16.991C42.3728 16.3827 42.6209 15.8352 42.8277 15.5872C43.3239 15.0069 43.843 14.8993 44.2565 14.9461C44.1784 14.291 44.5598 13.7996 44.7527 13.6358C45.3454 13.1445 45.883 13.1351 46.2873 13.2615C46.3286 12.4379 47.0316 12.0448 47.0408 12.0401C47.7299 11.6798 48.2675 11.8015 48.6304 12.0074C48.8142 11.3476 49.3793 11.0481 49.632 10.9779C50.3441 10.7907 50.8265 10.9919 51.139 11.254C51.4927 10.5614 52.2324 10.4678 52.2416 10.4678C52.7148 10.421 53.0962 10.5193 53.381 10.7626C53.427 10.8047 53.4729 10.8468 53.5143 10.8983C53.9461 10.4818 54.548 10.5146 54.6307 10.5193C55.0534 10.5848 55.3428 10.7579 55.5174 11.0434C55.5358 11.0715 55.5496 11.0995 55.568 11.1323C55.8804 10.9264 56.3214 10.8047 56.9325 10.9638C57.2449 11.0527 57.7595 11.371 57.9341 11.9886C58.3016 11.7781 58.8346 11.6658 59.5237 12.0261C59.7535 12.1477 60.2451 12.5736 60.2772 13.2521C60.6815 13.1258 61.2191 13.1351 61.8117 13.6218C62.0507 13.8277 62.3906 14.3144 62.3125 14.9367C62.7122 14.8946 63.2406 14.9976 63.7368 15.5732C63.939 15.8258 64.187 16.378 63.9987 16.977C64.0814 16.9817 64.1687 16.9957 64.2468 17.0191C64.6695 17.1268 65.0186 17.4075 65.2851 17.8568C65.4413 18.1329 65.5929 18.7038 65.3219 19.2559C65.3908 19.2747 65.4597 19.2934 65.524 19.3215C65.9283 19.4852 66.2362 19.8128 66.4383 20.2995C66.5578 20.6177 66.6221 21.1886 66.2867 21.6846C66.351 21.708 66.4153 21.7361 66.4751 21.7688C66.861 21.9747 67.1321 22.3351 67.2791 22.8404C67.3526 23.0838 67.3985 23.6968 66.9896 24.1928C67.0402 24.2162 67.0861 24.2443 67.1321 24.2771C67.4996 24.5157 67.7385 24.8994 67.8488 25.4095C67.9085 25.7417 67.8672 26.3126 67.4491 26.7385C67.5042 26.7712 67.5547 26.8087 67.6007 26.8461C67.9407 27.1222 68.1428 27.5246 68.2026 28.0487C68.2301 28.3436 68.1474 28.8911 67.7293 29.2795C67.7707 29.3075 67.812 29.3403 67.8488 29.3777C68.175 29.6679 68.3588 30.0843 68.3955 30.6084C68.4093 30.8939 68.3082 31.4086 67.9085 31.7736C67.9269 31.7877 67.9407 31.797 67.9591 31.8111C68.3036 32.0778 68.515 32.4803 68.5839 32.9997C68.6115 33.2664 68.5563 33.725 68.2623 34.0947C68.5885 34.2819 68.8412 34.5907 69.0066 35.0166C69.0204 35.0493 69.2133 35.6015 68.9606 36.163C69.3144 36.266 69.6268 36.5 69.8887 36.865C69.8933 36.8743 70.2654 37.4171 70.1 38.0816C70.4538 38.1004 70.8581 38.2548 71.2532 38.6946C71.4186 38.8818 71.7173 39.4106 71.5657 40.033C71.6392 40.033 71.7127 40.0424 71.7862 40.0517C72.2135 40.1219 72.5856 40.3746 72.8843 40.8051C73.0634 41.0672 73.2564 41.624 73.0267 42.1996C73.1002 42.209 73.1691 42.223 73.238 42.2417C73.6561 42.3587 73.9961 42.6535 74.2534 43.1074C74.405 43.4022 74.5382 44.0106 74.212 44.5674C74.2672 44.5815 74.3177 44.6049 74.3682 44.6236C74.768 44.7967 75.0666 45.129 75.2596 45.6203C75.356 45.8637 75.4525 46.4954 75.0574 47.0335C75.1401 47.071 75.2228 47.1131 75.2963 47.1599C75.6639 47.3986 75.9074 47.7776 76.0176 48.2923C76.0268 48.3345 76.1463 49.0504 75.6501 49.5932C75.7098 49.626 75.7649 49.6634 75.8201 49.7056C76.1647 49.977 76.376 50.3747 76.4403 50.8988C76.4771 51.2217 76.3852 51.8207 75.8982 52.2138C75.9579 52.2606 76.0176 52.312 76.0682 52.3635C76.3714 52.677 76.5276 53.1076 76.523 53.6317C76.523 53.6457 76.5 54.3804 75.8936 54.8062C75.9487 54.853 75.9947 54.9045 76.0406 54.9607C76.3209 55.2976 76.4403 55.7374 76.3944 56.2616C76.3576 56.5938 76.1371 57.1647 75.5674 57.4361C75.6133 57.4923 75.6547 57.5484 75.696 57.6139C75.9257 57.9883 75.9855 58.4375 75.866 58.9523C75.7879 59.2564 75.5077 59.7759 74.938 59.9818C75.209 60.4263 75.2366 60.9738 75.0115 61.5447C74.9977 61.5822 74.6807 62.3168 73.872 62.4292C73.895 62.4853 73.9134 62.5415 73.9272 62.6023C74.042 63.0281 73.9685 63.4774 73.7112 63.9313C73.6607 64.0108 73.2564 64.6379 72.4799 64.6472C72.5029 64.7408 72.5213 64.8298 72.5305 64.9233C72.5672 65.3632 72.4202 65.7937 72.0894 66.1962C72.071 66.2196 71.653 66.7016 70.9868 66.7016C70.9362 66.7016 70.8903 66.7016 70.8397 66.6922C70.8489 66.7577 70.8489 66.8185 70.8489 66.8841C70.8397 67.3239 70.6422 67.7264 70.2608 68.0867C70.2425 68.1054 69.7876 68.5125 69.1674 68.4798C69.0893 68.4798 69.0158 68.4657 68.9377 68.447C68.9377 68.5125 68.9377 68.5827 68.9239 68.6482C68.8687 69.0834 68.6252 69.4578 68.2072 69.7713C68.1888 69.7854 67.812 70.0521 67.2929 70.0521C67.1458 70.0521 67.008 70.0287 66.8702 69.9866C66.861 70.0615 66.8518 70.1316 66.8334 70.2018C66.7278 70.6277 66.4475 70.974 66.0018 71.2313C65.9559 71.2547 65.6527 71.4045 65.2621 71.4045C65.0462 71.4045 64.8349 71.3577 64.6465 71.2688C64.6327 71.3296 64.6189 71.3904 64.596 71.4513C64.4535 71.8631 64.1365 72.1813 63.6633 72.3918C63.6495 72.3965 63.3922 72.5088 63.043 72.5088C62.8317 72.5088 62.556 72.4667 62.2896 72.3076C62.2712 72.3638 62.2482 72.4199 62.2252 72.4714C62.0415 72.8645 61.6969 73.1406 61.2007 73.295C61.1593 73.3043 60.9939 73.3465 60.7688 73.3465C60.4196 73.3465 60.1026 73.2482 59.8453 73.061C59.8224 73.1125 59.7994 73.1593 59.7718 73.2061C59.5559 73.5804 59.1838 73.8238 58.6738 73.9314C58.6416 73.9361 58.5405 73.9548 58.3981 73.9548C57.9616 73.9548 57.5803 73.8097 57.2955 73.5383C57.2495 73.6179 57.1944 73.6881 57.1392 73.7583C56.6247 74.3385 55.8161 74.376 55.7288 74.3806C55.1315 74.3806 54.6537 74.1607 54.3321 73.7536C53.9783 74.2449 53.3948 74.3947 53.0732 74.3994L53.0824 74.3666ZM51.8005 72.93C51.8005 72.93 51.8097 72.93 51.8189 72.93C51.9338 72.9393 52.0303 73.0142 52.0624 73.1265C52.1038 73.2763 52.1727 73.4026 52.26 73.5009C52.4392 73.7021 52.7148 73.8051 53.0778 73.8097C53.1054 73.8097 53.8634 73.7817 54.0564 73.0563C54.0886 72.9394 54.185 72.8598 54.3045 72.8504C54.4194 72.8411 54.5296 72.9113 54.571 73.0236C54.7685 73.529 55.1591 73.7817 55.7334 73.7863C55.7334 73.7863 56.3812 73.7629 56.7487 73.3465C56.859 73.2248 56.9279 73.0704 56.9692 72.8832C56.9922 72.7662 57.0841 72.682 57.199 72.6633C57.3138 72.6492 57.4241 72.7101 57.4746 72.813C57.6998 73.2622 58.1041 73.3605 58.4073 73.3605C58.513 73.3605 58.5773 73.3465 58.5773 73.3465C58.9265 73.2716 59.1746 73.1172 59.3124 72.8832C59.3813 72.7615 59.4227 72.6211 59.4364 72.462C59.4456 72.345 59.5237 72.2468 59.6386 72.2187C59.7489 72.186 59.8683 72.2327 59.9326 72.3263C60.3278 72.9066 61.0537 72.7194 61.0583 72.7194C61.3937 72.6165 61.628 72.4386 61.7428 72.1906C61.8072 72.0596 61.8347 71.9052 61.8301 71.7367C61.8301 71.6197 61.899 71.5121 62.0093 71.47C62.1196 71.4279 62.2436 71.4653 62.3171 71.5542C62.5101 71.7929 62.7582 71.9145 63.0568 71.9145C63.2865 71.9145 63.4611 71.8443 63.4657 71.8443C63.7919 71.6993 64.0079 71.4887 64.0998 71.2266C64.1503 71.0863 64.1641 70.9272 64.1411 70.754C64.1273 70.637 64.187 70.5247 64.2881 70.4732C64.3892 70.4218 64.5178 70.4405 64.6005 70.5247C64.7935 70.7166 65.0232 70.8149 65.2759 70.8149C65.547 70.8149 65.7583 70.7072 65.7629 70.7072C66.0616 70.5341 66.2545 70.3048 66.3234 70.0334C66.3602 69.8836 66.3602 69.7198 66.3234 69.542C66.3005 69.4297 66.3464 69.3127 66.4429 69.2472C66.5394 69.1864 66.6634 69.1911 66.7553 69.2613C66.9253 69.3923 67.1137 69.4625 67.3158 69.4625C67.6466 69.4625 67.9131 69.2846 67.9177 69.28C68.2072 69.0647 68.3726 68.8167 68.4093 68.5406C68.4277 68.3862 68.4093 68.2224 68.345 68.0493C68.3036 67.937 68.3404 67.8106 68.4277 67.7357C68.5196 67.6609 68.6482 67.6562 68.7447 67.7217C68.9055 67.8293 69.0571 67.8855 69.2133 67.8902H69.2593C69.6314 67.8902 69.9071 67.6468 69.9117 67.6421C70.1782 67.3894 70.3206 67.1227 70.3252 66.8373C70.3252 66.6875 70.293 66.5331 70.2195 66.374C70.169 66.2664 70.1919 66.14 70.2746 66.0605C70.3573 65.9762 70.4814 65.9575 70.5825 66.009C70.7249 66.0792 70.8673 66.1166 71.0051 66.1166C71.414 66.1166 71.6943 65.8078 71.6943 65.8031C71.924 65.5223 72.0297 65.2322 72.0067 64.9421C71.9883 64.7596 71.924 64.5817 71.8046 64.4039C71.7402 64.3056 71.7402 64.1746 71.8138 64.081C71.8873 63.9874 72.0067 63.95 72.1216 63.9874C72.8705 64.2542 73.2518 63.6365 73.2656 63.6131C73.4448 63.2995 73.4999 62.9907 73.4264 62.7099C73.385 62.5602 73.3069 62.4151 73.1967 62.2794C73.1232 62.1905 73.1094 62.0595 73.1691 61.9612C73.2288 61.8629 73.3437 61.8068 73.4585 61.8302C73.5413 61.8489 73.6194 61.8536 73.6929 61.8536C74.2855 61.8536 74.5245 61.3201 74.5382 61.2967C74.8047 60.6275 74.5382 60.2064 74.2764 59.9724C74.1891 59.8975 74.1615 59.7759 74.1982 59.6682C74.235 59.5606 74.3361 59.4857 74.4509 59.4857C75.1631 59.4764 75.3469 58.8587 75.3652 58.7885C75.4479 58.4328 75.4112 58.124 75.2596 57.876C75.1723 57.7356 75.0482 57.6139 74.8874 57.5157C74.7863 57.4548 74.7358 57.3332 74.7634 57.2162C74.7909 57.0992 74.8874 57.015 75.0023 57.0009C75.7695 56.926 75.8752 56.2475 75.8844 56.1726C75.9166 55.8076 75.8385 55.5082 75.6547 55.2882C75.5536 55.1619 75.4158 55.0636 75.2458 54.9887C75.1401 54.9419 75.0712 54.8296 75.0804 54.7126C75.0896 54.5956 75.1723 54.4974 75.2825 54.4646C75.9625 54.2868 76.0038 53.6176 76.0038 53.5896C76.0038 53.2245 75.9074 52.9297 75.7052 52.7238C75.5904 52.6069 75.4387 52.5133 75.2596 52.4524C75.1493 52.415 75.0712 52.312 75.0712 52.1904C75.0712 52.0687 75.1447 51.9658 75.255 51.9283C75.9671 51.6803 75.9303 51.0065 75.9212 50.9316C75.8752 50.5713 75.7374 50.2952 75.5077 50.1174C75.3836 50.0191 75.232 49.9536 75.0574 49.9161C74.9425 49.8927 74.8553 49.7991 74.8415 49.6822C74.8277 49.5652 74.8828 49.4529 74.9885 49.3967C75.6225 49.0691 75.5122 48.4 75.5077 48.3719C75.4296 48.0162 75.2687 47.7542 75.0298 47.5951C74.8828 47.5015 74.7082 47.4453 74.5061 47.4313C74.3912 47.4219 74.2901 47.3424 74.2626 47.2254C74.235 47.1084 74.2764 46.9868 74.3774 46.9259C75.0069 46.5048 74.8047 45.8637 74.7817 45.7888C74.6485 45.4519 74.4464 45.2179 74.1845 45.1056C74.0466 45.0448 73.8904 45.0167 73.7204 45.026C73.5964 45.026 73.4999 44.9605 73.4585 44.8482C73.4172 44.7359 73.4494 44.6142 73.5367 44.5347C74.1247 44.0293 73.8399 43.4116 73.8077 43.3414C73.6331 43.0232 73.4034 42.822 73.1278 42.7424C72.9669 42.6956 72.8016 42.6956 72.6132 42.7331C72.4983 42.7565 72.3789 42.705 72.3237 42.5974C72.2686 42.4897 72.2778 42.3634 72.3605 42.2745C72.8567 41.7176 72.5167 41.1514 72.4753 41.0859C72.2686 40.7911 72.0159 40.6133 71.7357 40.5665C71.5794 40.5384 71.4094 40.5571 71.2349 40.6086C71.1246 40.6413 71.0051 40.6039 70.9362 40.5103C70.8673 40.4167 70.8627 40.2904 70.927 40.1921C71.3267 39.5838 70.8995 39.055 70.8811 39.0316C70.5457 38.6572 70.169 38.5262 69.7647 38.6432C69.6544 38.6759 69.5349 38.6338 69.4706 38.5402C69.4063 38.4466 69.4017 38.3203 69.4706 38.222C69.829 37.6932 69.4936 37.1785 69.4798 37.1551C69.2685 36.8603 69.0158 36.6871 68.7355 36.6403C68.6758 36.631 68.6115 36.631 68.5334 36.631C68.4231 36.6403 68.3174 36.5701 68.2715 36.4672C68.2255 36.3643 68.2485 36.2426 68.3266 36.1584C68.7263 35.7419 68.5471 35.2037 68.5379 35.1803C68.4047 34.8434 68.2026 34.6094 67.9407 34.4971C67.8809 34.469 67.8166 34.4503 67.7293 34.4363C67.6191 34.4176 67.5318 34.3287 67.5134 34.2117C67.495 34.0994 67.5456 33.9824 67.642 33.9262C68.1336 33.6221 68.0877 33.0512 68.0831 33.0278C68.0372 32.6674 67.8947 32.3913 67.6696 32.2135C67.5685 32.134 67.4491 32.0778 67.3021 32.0357C67.1872 32.0029 67.1091 31.9 67.0999 31.783C67.0953 31.6613 67.1642 31.5537 67.2745 31.5116C67.8993 31.2729 67.8901 30.6272 67.8901 30.5991C67.8672 30.2341 67.7477 29.9486 67.5318 29.7614C67.4215 29.6632 67.2883 29.593 67.1367 29.5415C67.0264 29.5088 66.9483 29.4058 66.9437 29.2888C66.9391 29.1718 67.0034 29.0642 67.1137 29.0221C67.7477 28.7554 67.7064 28.1002 67.7018 28.0721C67.6604 27.7118 67.5272 27.4311 67.3021 27.2486C67.1826 27.1503 67.031 27.0801 66.861 27.0427C66.7461 27.0146 66.6634 26.921 66.6497 26.804C66.6359 26.687 66.7002 26.5747 66.8059 26.5232C67.4629 26.2097 67.3664 25.5592 67.3526 25.4891C67.2791 25.1334 67.1183 24.8667 66.8748 24.7123C66.7461 24.628 66.5991 24.5765 66.4337 24.5531C66.3189 24.5391 66.227 24.4502 66.204 24.3332C66.181 24.2162 66.2316 24.0992 66.3326 24.0384C66.9621 23.664 66.7967 22.9949 66.7921 22.9668C66.6864 22.6158 66.5072 22.3678 66.2545 22.2321C66.1121 22.1572 65.9513 22.1151 65.7675 22.1104C65.6527 22.1104 65.5516 22.0309 65.5148 21.9139C65.4827 21.8016 65.5194 21.6752 65.6159 21.6097C66.2224 21.1652 65.9789 20.51 65.9697 20.482C65.8273 20.1497 65.6205 19.9204 65.3586 19.8128C65.2162 19.752 65.0508 19.7286 64.8762 19.7426C64.7614 19.7473 64.6557 19.6865 64.6097 19.5788C64.5638 19.4712 64.5868 19.3495 64.6695 19.2653C65.184 18.7552 64.89 18.175 64.8532 18.1095C64.6695 17.7959 64.4306 17.5994 64.1549 17.5292C63.9941 17.4871 63.8195 17.4918 63.6311 17.5386C63.5209 17.5666 63.4014 17.5198 63.3417 17.4216C63.2774 17.3233 63.282 17.1969 63.3509 17.1034C63.8011 16.4997 63.406 15.9662 63.3601 15.9054C62.8914 15.3532 62.3952 15.4094 62.0644 15.5544C61.9588 15.6012 61.8393 15.5732 61.7612 15.4889C61.6831 15.4047 61.6647 15.2783 61.7153 15.1754C62.0323 14.5156 61.5636 14.0664 61.5085 14.0196C61.0583 13.6452 60.5988 13.6124 60.1532 13.9166C60.0567 13.9821 59.9326 13.9774 59.8407 13.9119C59.7489 13.8417 59.7075 13.7247 59.7397 13.6124C59.9464 12.8731 59.3813 12.5221 59.317 12.4847C58.7932 12.2133 58.3384 12.2741 57.9662 12.6719C57.8881 12.7561 57.7687 12.7795 57.663 12.7374C57.5573 12.6906 57.493 12.5829 57.4976 12.4706C57.5344 11.7079 56.9095 11.4973 56.8406 11.4739C56.349 11.3429 55.9539 11.4505 55.6782 11.7921C55.6047 11.881 55.4853 11.9138 55.3796 11.8763C55.2739 11.8389 55.2004 11.736 55.1958 11.6236C55.1958 11.502 55.1637 11.3943 55.1131 11.3101C55.0258 11.1651 54.865 11.0808 54.6261 11.0434C54.5848 11.0434 54.0196 11.0106 53.7853 11.4926C53.7394 11.5909 53.6429 11.6517 53.528 11.647C53.4178 11.6424 53.3259 11.5722 53.2891 11.4645C53.2432 11.3382 53.1743 11.2352 53.087 11.1604C52.9216 11.0153 52.6735 10.9592 52.3565 10.9919C52.3381 10.9919 51.6857 11.0949 51.5708 11.7968C51.5525 11.9091 51.4698 11.998 51.3595 12.0214C51.2492 12.0448 51.139 11.998 51.0746 11.9044C50.7944 11.4739 50.3717 11.3288 49.8204 11.4739C49.756 11.4926 49.1312 11.7079 49.168 12.466C49.1726 12.5829 49.1082 12.6859 49.0026 12.7327C48.8969 12.7795 48.7774 12.7514 48.6993 12.6719C48.442 12.4004 47.9964 12.1477 47.3394 12.4894C47.2797 12.5221 46.7191 12.8731 46.9213 13.6078C46.9535 13.7201 46.9121 13.8417 46.8202 13.9072C46.7283 13.9774 46.6043 13.9774 46.5078 13.9072C46.0667 13.5984 45.6073 13.6358 45.1479 14.0196C45.0973 14.0617 44.6287 14.5109 44.9503 15.1754C45.0008 15.2783 44.9825 15.4047 44.9044 15.4889C44.8262 15.5732 44.7022 15.5966 44.6011 15.5498C44.1187 15.3345 43.6822 15.4562 43.2963 15.9054C43.255 15.9569 42.8598 16.4903 43.3101 17.094C43.379 17.1876 43.3836 17.3139 43.3193 17.4122C43.255 17.5105 43.1401 17.5573 43.0298 17.5292C42.5153 17.4075 42.1064 17.5994 41.8031 18.1095C41.7939 18.1282 41.4723 18.7365 41.9961 19.2559C42.0788 19.3355 42.1018 19.4618 42.0558 19.5648C42.0099 19.6724 41.8996 19.7379 41.7894 19.7286C41.2794 19.6958 40.9072 19.9438 40.6867 20.4773C40.6637 20.5381 40.4524 21.1605 41.0451 21.5957C41.1415 21.6659 41.1783 21.7876 41.1461 21.8999C41.114 22.0122 41.0129 22.0917 40.8934 22.0964C40.3789 22.1104 40.0297 22.4053 39.8643 22.9621C39.8597 22.9808 39.6943 23.6547 40.3283 24.029C40.4294 24.0899 40.4799 24.2069 40.457 24.3239C40.434 24.4408 40.3421 24.5298 40.2273 24.5438C39.7311 24.6093 39.4186 24.9322 39.3038 25.4891C39.2946 25.5546 39.2027 26.2003 39.8597 26.5139C39.9654 26.5653 40.0251 26.6776 40.0159 26.7946C40.0021 26.9116 39.9194 27.0099 39.8046 27.0333C39.3084 27.1456 39.0235 27.4966 38.9592 28.0721C38.9592 28.0909 38.9178 28.746 39.5473 29.0127C39.653 29.0595 39.7219 29.1672 39.7173 29.2841C39.7127 29.4011 39.6346 29.5041 39.5243 29.5368C39.0603 29.6819 38.8076 30.0422 38.7708 30.6038C38.7708 30.6225 38.7616 31.2636 39.3865 31.5069C39.4967 31.549 39.5657 31.6613 39.5611 31.7783C39.5565 31.9 39.4738 32.0029 39.3589 32.031C38.9133 32.1527 38.6514 32.4896 38.5779 33.0324C38.5779 33.0465 38.5319 33.6174 39.0235 33.9169C39.12 33.9777 39.1705 34.09 39.1522 34.2023C39.1338 34.3146 39.0465 34.4035 38.9362 34.4269C38.5687 34.4971 38.293 34.7498 38.123 35.185C38.1184 35.199 37.9392 35.7325 38.339 36.149C38.4171 36.2285 38.44 36.3502 38.3941 36.4578C38.3481 36.5655 38.2425 36.6263 38.1322 36.6216C37.7647 36.6029 37.4522 36.776 37.1812 37.1551C37.172 37.1691 36.8412 37.6839 37.1949 38.2127C37.2593 38.3109 37.2593 38.4373 37.1949 38.5309C37.126 38.6245 37.0112 38.6666 36.9009 38.6338C36.4966 38.5168 36.1199 38.6525 35.7799 39.0316C35.7661 39.0456 35.3388 39.5744 35.7385 40.1827C35.8028 40.281 35.7983 40.4074 35.7293 40.5009C35.6604 40.5945 35.541 40.6366 35.4307 40.5992C34.9391 40.4448 34.521 40.6086 34.1856 41.0859C34.1489 41.142 33.8043 41.7083 34.3051 42.2651C34.3832 42.354 34.397 42.4851 34.3418 42.588C34.2821 42.691 34.1672 42.7471 34.0524 42.7237C33.5378 42.6208 33.1335 42.8267 32.8532 43.3414C32.8211 43.4022 32.5362 44.0199 33.1289 44.5253C33.2162 44.6002 33.2484 44.7265 33.207 44.8389C33.1657 44.9512 33.06 45.0214 32.9451 45.0167C32.4535 44.998 32.0906 45.26 31.8792 45.7888C31.8563 45.8496 31.6541 46.4907 32.2835 46.9166C32.38 46.9821 32.426 47.1037 32.3984 47.216C32.3708 47.333 32.2698 47.4126 32.1549 47.4219C31.6173 47.4594 31.2774 47.7823 31.1487 48.3719C31.1487 48.3953 31.0339 49.0598 31.6679 49.3827C31.769 49.4341 31.8287 49.5511 31.8149 49.6681C31.8011 49.7851 31.7138 49.8787 31.599 49.9021C31.0982 50.005 30.8087 50.3513 30.7352 50.9269C30.7306 50.9924 30.6939 51.6663 31.4014 51.9143C31.5117 51.9517 31.5852 52.0594 31.5852 52.1763C31.5852 52.2933 31.5071 52.401 31.3968 52.4384C30.9006 52.6069 30.6479 52.9906 30.6525 53.5849C30.6525 53.6036 30.6939 54.2728 31.3738 54.4506C31.4887 54.4787 31.5668 54.5816 31.576 54.6986C31.5852 54.8156 31.5209 54.9279 31.4106 54.9747C30.9374 55.1806 30.7214 55.583 30.772 56.1726C30.7812 56.2428 30.8868 56.9167 31.6541 56.9916C31.769 57.0009 31.8654 57.0898 31.893 57.2068C31.9206 57.3238 31.87 57.4455 31.769 57.5063C31.3187 57.7824 31.1579 58.2129 31.2911 58.7885C31.2957 58.8072 31.4841 59.467 32.21 59.4717C32.3249 59.4717 32.426 59.5466 32.4627 59.6542C32.4995 59.7618 32.4719 59.8835 32.3846 59.9584C32.1135 60.1923 31.8517 60.6135 32.1181 61.292C32.1457 61.3575 32.4397 61.9706 33.1886 61.8161C33.3035 61.7927 33.4184 61.8442 33.4781 61.9472C33.5378 62.0501 33.524 62.1765 33.4505 62.2654C33.1243 62.6538 33.1013 63.103 33.3862 63.6037C33.4229 63.6599 33.7951 64.2308 34.5164 63.9734C34.6267 63.936 34.7507 63.9734 34.8196 64.067C34.8932 64.1606 34.8932 64.2916 34.8288 64.3899C34.714 64.563 34.6497 64.7408 34.6313 64.9233C34.6037 65.2135 34.714 65.5036 34.9483 65.7891C34.9621 65.8031 35.4123 66.3038 36.0555 65.9903C36.1612 65.9388 36.2807 65.9622 36.3634 66.0417C36.4461 66.1213 36.469 66.2476 36.4185 66.3553C36.3496 66.5097 36.3128 66.6641 36.3174 66.8185C36.322 67.0993 36.4644 67.3707 36.7309 67.6234C36.7309 67.6234 37.0296 67.8948 37.4247 67.8714C37.5809 67.8621 37.7325 67.8059 37.8933 67.703C37.9898 67.6375 38.1184 67.6468 38.2103 67.717C38.3022 67.7919 38.3344 67.9182 38.293 68.0305C38.2287 68.199 38.2103 68.3675 38.2287 68.5219C38.2654 68.798 38.4308 69.0507 38.7295 69.2659C38.7295 69.2659 38.9914 69.4438 39.3222 69.4438C39.5197 69.4438 39.7081 69.3782 39.8827 69.2425C39.9746 69.1723 40.0986 69.1677 40.1951 69.2285C40.2916 69.2893 40.3375 69.4063 40.3145 69.5233C40.2778 69.6964 40.2732 69.8649 40.3145 70.0147C40.3835 70.2907 40.5718 70.5154 40.8888 70.6979C40.8888 70.6979 41.0956 70.7961 41.3575 70.7961C41.6194 70.7961 41.8445 70.6979 42.0374 70.506C42.1201 70.4218 42.2442 70.4031 42.3499 70.4545C42.4555 70.506 42.5153 70.6183 42.4969 70.7353C42.4739 70.9038 42.4877 71.0629 42.5382 71.2033C42.6301 71.4653 42.8461 71.6759 43.1815 71.8256C43.1815 71.8256 43.356 71.8958 43.5812 71.8958C43.8798 71.8958 44.1279 71.7742 44.3209 71.5355C44.3944 71.4419 44.5184 71.4091 44.6287 71.4513C44.739 71.4934 44.8079 71.601 44.8079 71.718C44.8033 71.8865 44.8308 72.0409 44.8952 72.1719C45.01 72.4152 45.2443 72.5977 45.5889 72.7054C45.5889 72.7054 45.7038 72.7334 45.86 72.7334C46.1127 72.7334 46.4664 72.6586 46.7054 72.3076C46.7697 72.2093 46.8891 72.1672 46.9994 72.2C47.1097 72.2327 47.1924 72.331 47.2016 72.4433C47.2153 72.6024 47.2567 72.7428 47.3256 72.8645C47.4634 73.0984 47.7115 73.2529 48.0653 73.3278H48.0699C48.0699 73.3278 48.1342 73.3371 48.2353 73.3371C48.5293 73.3371 48.929 73.2482 49.1542 72.8177C49.2093 72.7147 49.3196 72.6586 49.4344 72.6773C49.5493 72.696 49.6366 72.7849 49.6596 72.8972C49.6871 73.047 49.7423 73.1733 49.8158 73.281C49.972 73.5009 50.2385 73.6319 50.5968 73.674C50.5968 73.674 50.6152 73.674 50.6428 73.674C50.8633 73.674 51.3962 73.6132 51.626 73.0704C51.6673 72.9674 51.7684 72.9019 51.8741 72.9019L51.8005 72.93Z" fill="black"/>
<path d="M46.3698 25.6388C44.8445 25.6388 43.604 24.1647 43.604 22.3491C43.604 20.5334 44.8445 19.0594 46.3698 19.0594C47.8952 19.0594 49.1357 20.5334 49.1357 22.3491C49.1357 24.1647 47.8952 25.6388 46.3698 25.6388ZM46.3698 19.6162C45.1431 19.6162 44.1461 20.8423 44.1461 22.3491C44.1461 23.8559 45.1431 25.0819 46.3698 25.0819C47.5965 25.0819 48.5935 23.8559 48.5935 22.3491C48.5935 20.8423 47.5965 19.6162 46.3698 19.6162Z" fill="black"/>
<path d="M47.1696 24.9462C48.04 24.9462 48.7455 23.7436 48.7455 22.2601C48.7455 20.7767 48.04 19.5741 47.1696 19.5741C46.2993 19.5741 45.5938 20.7767 45.5938 22.2601C45.5938 23.7436 46.2993 24.9462 47.1696 24.9462Z" fill="black"/>
<path d="M53.7072 25.6388C52.1819 25.6388 50.9414 24.1647 50.9414 22.3491C50.9414 20.5334 52.1819 19.0594 53.7072 19.0594C55.2326 19.0594 56.4731 20.5334 56.4731 22.3491C56.4731 24.1647 55.2326 25.6388 53.7072 25.6388ZM53.7072 19.6162C52.4805 19.6162 51.4835 20.8423 51.4835 22.3491C51.4835 23.8559 52.4805 25.0819 53.7072 25.0819C54.9339 25.0819 55.9309 23.8559 55.9309 22.3491C55.9309 20.8423 54.9339 19.6162 53.7072 19.6162Z" fill="black"/>
<path d="M54.5065 24.9462C55.3769 24.9462 56.0824 23.7436 56.0824 22.2601C56.0824 20.7767 55.3769 19.5741 54.5065 19.5741C53.6362 19.5741 52.9307 20.7767 52.9307 22.2601C52.9307 23.7436 53.6362 24.9462 54.5065 24.9462Z" fill="black"/>
<path d="M50.0687 29.4432C51.3247 29.4432 52.3429 28.4983 52.3429 27.3328C52.3429 26.1672 51.3247 25.2223 50.0687 25.2223C48.8126 25.2223 47.7944 26.1672 47.7944 27.3328C47.7944 28.4983 48.8126 29.4432 50.0687 29.4432Z" fill="#F1614E"/>
<path d="M50.0684 29.7193C48.6626 29.7193 47.5186 28.6477 47.5186 27.3328C47.5186 26.0178 48.6626 24.9462 50.0684 24.9462C51.4743 24.9462 52.6183 26.0178 52.6183 27.3328C52.6183 28.6477 51.4743 29.7193 50.0684 29.7193ZM50.0684 25.4984C48.9612 25.4984 48.0653 26.322 48.0653 27.3328C48.0653 28.3436 48.9658 29.1672 50.0684 29.1672C51.1711 29.1672 52.0716 28.3436 52.0716 27.3328C52.0716 26.322 51.1711 25.4984 50.0684 25.4984Z" fill="black"/>
<path d="M52.6875 35.0961C57.6725 34.8902 58.6694 33.3646 58.6694 33.3646C58.6694 33.3646 59.4183 32.6019 59.1656 31.5443C58.9175 30.4821 58.2376 30.2528 58.2376 30.2528C58.2376 30.2528 57.3554 29.7895 55.8347 30.3463C54.3185 30.8985 51.2587 31.0202 51.2587 31.0202H49.0855C49.0855 31.0202 46.0257 30.8985 44.5095 30.3463C42.9934 29.7942 42.1066 30.2528 42.1066 30.2528C42.1066 30.2528 41.4267 30.4821 41.1786 31.5443C40.9305 32.6066 41.6748 33.3646 41.6748 33.3646C41.6748 33.3646 42.6717 34.8855 47.6567 35.0961H52.6875Z" fill="#F1614E"/>
<path d="M52.6919 35.3722H47.6564C42.869 35.1709 41.6285 33.7577 41.4677 33.5425C41.3483 33.4114 40.6499 32.5972 40.9118 31.4788C41.1691 30.3744 41.8629 30.0515 41.9961 29.9954C42.1385 29.9299 43.0804 29.5274 44.5965 30.0796C46.0575 30.6131 49.0623 30.7348 49.0944 30.7394H51.2538C51.2538 30.7394 54.2769 30.6131 55.7379 30.0796C57.2541 29.5274 58.1959 29.9252 58.3384 29.9954C58.4716 30.0469 59.1654 30.3744 59.4227 31.4788C59.6845 32.6019 58.9862 33.4161 58.8667 33.5425C58.7059 33.7577 57.4654 35.1709 52.6919 35.3722ZM43.0804 30.3464C42.5336 30.3464 42.2396 30.4961 42.235 30.4961L42.1982 30.5101C42.1982 30.5101 41.6561 30.7207 41.4494 31.6051C41.238 32.4943 41.8491 33.14 41.8766 33.1681L41.9088 33.2102C41.9088 33.2102 42.9517 34.6188 47.6748 34.8153H52.6873C57.4057 34.6188 58.4395 33.2196 58.4486 33.2055L58.4808 33.1681C58.5038 33.14 59.1148 32.4989 58.9081 31.6051C58.7013 30.7207 58.1776 30.5195 58.1546 30.5101L58.1178 30.4961C58.1178 30.4961 57.3046 30.103 55.9309 30.6037C54.3918 31.1653 51.4008 31.2869 51.2722 31.2963H49.0898C48.952 31.2916 45.9611 31.17 44.4219 30.6037C43.8798 30.4072 43.4295 30.3464 43.085 30.3464H43.0804Z" fill="black"/>
<path d="M50.1973 33.2664C46.1174 33.2664 43.0484 32.4615 43.0024 32.4475C42.8554 32.41 42.7727 32.2556 42.8095 32.1105C42.8462 31.9608 42.9978 31.8766 43.1403 31.914C43.2092 31.9327 49.9859 33.7063 56.7305 31.914C56.8729 31.8766 57.0245 31.9655 57.0613 32.1105C57.0981 32.2603 57.0108 32.41 56.8683 32.4475C54.562 33.0605 52.251 33.2664 50.1973 33.2664Z" fill="black"/>
<path d="M65.9834 41.8439C65.9834 41.8439 72.4615 35.9384 74.3636 33.3553C74.3636 33.3553 75.4341 31.8859 76.0451 32.3866C76.6562 32.8873 75.8062 33.8934 75.8062 33.8934C75.8062 33.8934 76.7251 32.5083 77.4051 33.0979C78.085 33.6875 76.9456 34.6702 76.9456 34.6702C76.9456 34.6702 77.8783 33.374 78.4388 34.1508C78.9993 34.9276 75.8062 39.3778 69.5716 46.2474" fill="white"/>
<path d="M69.5719 46.5234C69.5076 46.5234 69.4387 46.5 69.3882 46.4486C69.2779 46.3456 69.2733 46.1678 69.3744 46.0555C77.2308 37.3984 78.4254 34.6421 78.2232 34.3099C78.1359 34.1882 78.0624 34.1742 78.0119 34.1742C77.874 34.1742 77.6994 34.2818 77.5478 34.4175C77.364 34.6655 77.1665 34.8434 77.1251 34.8761C77.0195 34.965 76.8633 34.965 76.7622 34.8668C76.6611 34.7732 76.6473 34.6141 76.73 34.5018C76.7622 34.4596 76.9184 34.2491 77.1435 34.0432C77.263 33.8747 77.3549 33.6922 77.3549 33.5425C77.3549 33.4489 77.3181 33.374 77.2354 33.3038C77.1573 33.2383 77.0838 33.2149 76.9919 33.2289C76.7346 33.2664 76.4084 33.5752 76.1879 33.8466C76.1052 33.9683 76.0409 34.0525 76.0179 34.0712C75.926 34.1835 75.7606 34.1976 75.6457 34.1087C75.5309 34.0198 75.5033 33.856 75.586 33.7343C75.6044 33.7062 75.6549 33.6267 75.7376 33.5237C75.8663 33.3272 76.0133 33.0417 75.9949 32.8171C75.9857 32.7235 75.949 32.658 75.8755 32.5972C75.8295 32.5598 75.7836 32.5504 75.7147 32.5551C75.3655 32.6019 74.8325 33.1681 74.5798 33.5144C72.6824 36.0928 66.4294 41.8018 66.1629 42.0451C66.0526 42.1481 65.878 42.1387 65.777 42.0217C65.6759 41.9094 65.6851 41.7316 65.7999 41.6287C65.8643 41.5678 72.278 35.7091 74.1434 33.1775C74.2215 33.0698 74.952 32.0918 75.6457 31.9982C75.8571 31.9701 76.0546 32.0263 76.2154 32.1573C76.4038 32.3117 76.5141 32.5176 76.5325 32.761C76.5325 32.775 76.5325 32.7844 76.5325 32.7984C76.6519 32.7329 76.776 32.6908 76.9046 32.6721C77.1481 32.6393 77.3824 32.7095 77.5754 32.8733C77.7775 33.0511 77.8878 33.2804 77.8878 33.5378C77.8878 33.5659 77.8878 33.5939 77.8878 33.6267C77.9292 33.622 77.9659 33.6173 78.0073 33.6173C78.1864 33.6173 78.4437 33.6782 78.6597 33.9776C79.5418 35.199 74.3134 41.4228 69.7741 46.4252C69.719 46.486 69.6455 46.5141 69.5765 46.5141L69.5719 46.5234Z" fill="black"/>
</g>
<path d="M21.4224 7.8432C19.5618 7.61399 17.7319 7.77047 16.0291 8.24871C13.4721 8.9657 11.1973 10.4083 9.47028 12.3616C8.60511 13.3394 7.87943 14.4482 7.32654 15.6569C6.77366 16.8657 6.38706 18.1794 6.21564 19.5605C6.09388 20.525 6.7811 21.3997 7.7549 21.5196C8.7287 21.6396 9.61233 20.9584 9.73409 19.9939C9.90731 18.6218 10.3493 17.3586 11.0062 16.2356C11.987 14.5519 13.4503 13.1958 15.1791 12.3243C16.0464 11.889 16.9778 11.5752 17.9506 11.4006C18.9233 11.226 19.9399 11.1938 20.9807 11.3191C21.9545 11.439 22.8381 10.7578 22.9599 9.79335C23.0816 8.82885 22.3944 7.95418 21.4206 7.83423L21.4224 7.8432Z" fill="#BCBCBC"/>
<path d="M21.3393 14.3136C20.2901 14.1843 19.2547 14.2725 18.2903 14.5443C16.8441 14.9492 15.5637 15.7652 14.5884 16.8694C14.1008 17.4215 13.6888 18.05 13.3762 18.7315C13.0602 19.4156 12.8486 20.1591 12.7475 20.9367C12.6258 21.9012 13.3155 22.7791 14.2868 22.8958C15.2606 23.0158 16.1442 22.3346 16.266 21.3701C16.3377 20.8017 16.5178 20.2846 16.7881 19.8223C17.1931 19.1318 17.7938 18.5702 18.5104 18.2096C18.8684 18.0321 19.2527 17.9016 19.6505 17.8282C20.0509 17.758 20.4678 17.7423 20.8968 17.7952C21.8706 17.9151 22.7542 17.2339 22.876 16.2694C22.9977 15.3049 22.3105 14.4303 21.3367 14.3103L21.3393 14.3136Z" fill="#BCBCBC"/>
</g>
<defs>
<clipPath id="clip0_40_7880">
<rect width="80" height="80" fill="white" transform="translate(0.755859)"/>
</clipPath>
<clipPath id="clip1_40_7880">
<rect width="53.4742" height="66.6082" fill="white" transform="translate(25.2817 10.4537)"/>
</clipPath>
</defs>
</svg>
