<svg width="81" height="80" viewBox="0 0 81 80" fill="none" xmlns="http://www.w3.org/2000/svg">
<g clip-path="url(#clip0_40_7910)">
<path d="M59.3842 33.9743C59.3842 33.9743 72.2313 33.7486 78.4323 46.0681C84.6333 58.3812 72.8805 64.8826 72.8805 64.8826C72.8805 64.8826 64.6517 69.2587 54.5928 62.9579C44.534 56.6571 36.3794 60.8639 36.3794 60.8639C36.3794 60.8639 28.6513 64.1554 24.1444 55.3217C19.6374 46.4818 46.5124 32.4759 59.3842 33.9806V33.9743Z" fill="#F68E57"/>
<mask id="mask0_40_7910" style="mask-type:luminance" maskUnits="userSpaceOnUse" x="23" y="33" width="58" height="34">
<path d="M59.3037 33.8802C59.3037 33.8802 72.1507 33.6545 78.3517 45.9739C84.5527 58.2871 72.7999 64.7885 72.7999 64.7885C72.7999 64.7885 64.5711 69.1646 54.5123 62.8638C44.4535 56.563 36.2988 60.7698 36.2988 60.7698C36.2988 60.7698 28.5708 64.0612 24.0638 55.2276C19.5568 46.3877 46.4318 32.3818 59.3037 33.8865V33.8802Z" fill="white"/>
</mask>
<g mask="url(#mask0_40_7910)">
<path d="M71.4091 68.7069C70.8836 68.0736 70.7228 67.1708 71.0691 66.3621C75.9841 54.7825 67.5265 48.1243 67.44 48.0554C66.457 47.303 66.2653 45.8861 67.0072 44.8893C67.7491 43.8925 69.1463 43.6981 70.1293 44.4504C74.0737 47.4723 80.1943 56.3122 75.168 68.1489C74.6796 69.2962 73.3689 69.8228 72.2375 69.3275C71.9099 69.1833 71.6317 68.9702 71.4153 68.7069H71.4091Z" fill="black"/>
<path d="M60.7442 72.7632C60.3114 72.061 60.2805 71.1456 60.738 70.3933C67.2296 59.6412 59.7859 51.8295 59.7117 51.748C58.8462 50.864 58.8524 49.4283 59.7241 48.5506C60.5958 47.6729 62.0116 47.6792 62.8771 48.5632C66.3578 52.1179 71.1801 61.754 64.5402 72.7443C63.8972 73.8101 62.5247 74.1424 61.4737 73.4904C61.1646 73.3023 60.9235 73.0453 60.7442 72.7569V72.7632Z" fill="black"/>
<path d="M50.939 73.6786C50.5062 72.9764 50.4753 72.061 50.9328 71.3087C57.4244 60.5567 49.9807 52.7449 49.9065 52.6634C49.041 51.7795 49.0472 50.3438 49.9189 49.466C50.7906 48.5883 52.2064 48.5946 53.0719 49.4786C56.5527 53.0333 61.375 62.6694 54.735 73.6597C54.092 74.7256 52.7195 75.0578 51.6685 74.4058C51.3594 74.2177 51.1183 73.9607 50.939 73.6723V73.6786Z" fill="black"/>
</g>
<path d="M65.8016 66.8763C62.6176 66.8763 58.6362 66.0989 54.3641 63.4218C44.6515 57.3405 36.7132 61.3028 36.6329 61.3467C36.5216 61.3968 28.3979 64.7321 23.7363 55.585C22.741 53.6353 23.0934 51.3093 24.7564 48.8642C30.3515 40.6387 49.1338 32.3255 59.4461 33.5104C60.2189 33.5104 72.8063 33.7486 78.9084 45.8737C85.2515 58.4753 73.27 65.2901 73.1525 65.3591C73.0969 65.3904 70.2097 66.8763 65.8078 66.8763H65.8016ZM43.2233 58.9956C46.4073 58.9956 50.4568 59.7918 54.8834 62.5629C64.5898 68.6443 72.6023 64.5127 72.6826 64.4688C73.1401 64.218 83.9285 58.0552 78.0243 46.3251C72.0458 34.4446 59.5635 34.5072 59.4275 34.5072H59.3966H59.3657C49.548 33.3599 30.9079 41.5917 25.5787 49.4347C24.1135 51.5852 23.7981 53.4973 24.6266 55.1211C28.8616 63.4281 35.9281 60.5567 36.231 60.4313C36.4041 60.3373 39.0935 58.9956 43.2357 58.9956H43.2233Z" fill="black"/>
<path d="M43.8786 58.1491C43.8786 58.1491 41.7457 63.685 40.6699 62.7258C39.5942 61.7666 42.7658 57.8043 42.7658 57.8043L43.8724 58.1491H43.8786Z" fill="black"/>
<path d="M40.9482 63.3403C40.7318 63.3403 40.5216 63.2588 40.3485 63.102C39.0564 61.9484 41.3439 58.7887 42.3887 57.4846C42.5123 57.3279 42.7225 57.2589 42.9142 57.3216L44.0209 57.6664C44.1507 57.704 44.262 57.8044 44.3238 57.9297C44.3856 58.0551 44.3918 58.1993 44.3423 58.331C43.9219 59.4219 42.4567 62.9954 41.1769 63.3152C41.1028 63.334 41.0224 63.3403 40.9482 63.3403ZM42.9513 58.3874C41.6406 60.0927 40.7009 61.9547 40.9791 62.3246C41.4242 62.1553 42.4134 60.4438 43.2233 58.4689L42.9513 58.3874Z" fill="black"/>
<path d="M42.0301 60.5504C42.0301 60.5504 49.1832 63.8606 50.7288 60.1867C50.7288 60.1867 52.2559 57.3529 48.4722 55.2966C44.6886 53.2402 37.1089 50.6133 36.1939 54.0678C35.2789 57.5222 38.7905 59.1773 42.0301 60.5504Z" fill="#875A4D"/>
<path d="M47.514 62.4187C44.9483 62.4187 42.0611 61.1084 41.8385 61.0081C38.976 59.7919 34.6607 57.9486 35.7241 53.9362C35.9343 53.1463 36.4289 52.5757 37.2017 52.2372C39.9281 51.046 45.5789 53.1463 48.7134 54.8515C50.1477 55.629 51.0441 56.6133 51.3904 57.7794C51.8108 59.2151 51.1987 60.3749 51.174 60.4251C50.8525 61.1962 50.2528 61.7793 49.412 62.1053C48.837 62.331 48.1879 62.4187 47.5202 62.4187H47.514ZM39.1862 52.8829C38.568 52.8829 38.0239 52.9644 37.5973 53.1525C37.1089 53.3657 36.8122 53.7042 36.6823 54.187C35.9034 57.1211 38.7349 58.5881 42.228 60.0802H42.2404C42.2836 60.1053 46.6546 62.1053 49.0534 61.1649C49.6407 60.9329 50.0426 60.5442 50.2837 59.9862C50.3517 59.8483 51.5264 57.516 48.2497 55.7355C45.7705 54.3876 41.8138 52.8892 39.1924 52.8892L39.1862 52.8829Z" fill="black"/>
<path d="M50.1599 56.5379C50.1599 56.5379 44.9419 56.9642 38.8027 52.4126C38.8027 52.4126 39.4828 46.4003 45.7827 46.2373C45.7827 46.2373 47.2294 46.1996 47.7734 45.3533C47.7734 45.3533 48.0887 46.7576 48.6823 47.2027C49.4798 47.7983 53.0842 51.6666 50.1599 56.5379Z" fill="#B3887F"/>
<path d="M49.7518 57.052C48.3361 57.052 43.7672 56.7197 38.506 52.8202C38.3638 52.7136 38.2834 52.538 38.3081 52.3562C38.3143 52.2935 39.1119 45.9112 45.7703 45.7357C46.098 45.7232 47.0316 45.5852 47.3592 45.0774C47.4705 44.9081 47.6684 44.8204 47.86 44.858C48.0578 44.8956 48.2124 45.0461 48.2557 45.2404C48.3731 45.7482 48.6699 46.5695 48.979 46.7952C50.0919 47.6228 53.6159 51.7481 50.5865 56.795C50.5061 56.9329 50.3639 57.0207 50.2031 57.0332C50.1722 57.0332 50.0177 57.0457 49.758 57.0457L49.7518 57.052ZM39.3344 52.1869C44.4102 55.8483 48.7936 56.0552 49.8693 56.0426C52.5896 51.1776 48.435 47.6353 48.3917 47.604C47.9898 47.3031 47.7054 46.7388 47.5323 46.2561C46.8152 46.6949 45.9311 46.7388 45.8013 46.7388C40.6884 46.8705 39.557 51.0334 39.3406 52.1869H39.3344Z" fill="black"/>
<path d="M15.5629 53.0898C15.5629 53.0898 10.1904 50.7137 11.1734 49.6604C12.1564 48.6072 15.94 51.9801 15.94 51.9801L15.5567 53.0898H15.5629Z" fill="black"/>
<path d="M15.5631 53.5913C15.4951 53.5913 15.4271 53.5787 15.3653 53.5474C14.3081 53.0772 10.8398 51.4534 10.5801 50.1431C10.5183 49.8359 10.6048 49.5412 10.815 49.3093C12.0021 48.0428 15.0253 50.4879 16.2679 51.5976C16.4163 51.7355 16.472 51.9487 16.4101 52.1368L16.033 53.2465C15.9897 53.3781 15.8908 53.4847 15.7672 53.5411C15.7053 53.5662 15.6373 53.585 15.5693 53.585L15.5631 53.5913ZM11.5569 49.9864C11.7115 50.444 13.356 51.5098 15.2726 52.4064L15.3653 52.1368C13.7393 50.745 11.9402 49.7168 11.5569 49.9864Z" fill="black"/>
<path d="M13.263 51.1275C13.263 51.1275 9.72042 58.2433 13.2877 59.9548C13.2877 59.9548 16.0203 61.6099 18.1965 57.8608C20.3728 54.1054 23.2538 46.532 19.8843 45.4662C16.5149 44.4004 14.7529 47.8987 13.2691 51.1275H13.263Z" fill="#875A4D"/>
<path d="M14.7531 60.8199C13.7639 60.8199 13.0715 60.4062 13.0344 60.3874C12.2863 60.03 11.7423 59.4031 11.4455 58.5379C10.4872 55.6978 12.682 51.1901 12.818 50.908C14.1287 48.0554 16.1132 43.7546 20.0267 44.9896C20.7934 45.2342 21.3374 45.7608 21.6403 46.557C22.7099 49.3657 20.4162 55.0082 18.6171 58.1178C17.7949 59.541 16.7871 60.4124 15.631 60.7134C15.3219 60.7949 15.0251 60.8262 14.7531 60.8262V60.8199ZM18.6975 45.7733C16.4718 45.7733 15.1117 48.2999 13.7145 51.3343V51.3468C13.6836 51.3907 11.5506 55.7417 12.3852 58.2056C12.5893 58.8137 12.954 59.2338 13.5043 59.4971C13.6403 59.5723 15.8907 60.8513 17.7701 57.5975C19.5321 54.5568 21.6094 49.234 20.7253 46.9081C20.5337 46.4065 20.2122 46.0868 19.7423 45.9426C19.3776 45.8298 19.0314 45.7733 18.7037 45.7733H18.6975Z" fill="black"/>
<path d="M16.8985 59.516C16.8985 59.516 16.6821 54.2121 21.4055 48.1683C21.4055 48.1683 27.3035 49.0899 27.217 55.4848C27.217 55.4848 27.1984 56.9518 28.0145 57.5349C28.0145 57.5349 26.6173 57.7982 26.1598 58.3875C25.5415 59.1712 21.591 62.6695 16.9047 59.516H16.8985Z" fill="#B3887F"/>
<path d="M20.8612 61.3153C19.5629 61.3153 18.1286 60.9454 16.6263 59.9361C16.4964 59.8483 16.4099 59.6978 16.4037 59.5411C16.3975 59.3154 16.2368 53.9801 21.0158 47.8611C21.1271 47.7169 21.3064 47.648 21.4795 47.6793C21.5413 47.6919 27.7979 48.7451 27.7114 55.4973C27.7114 55.8296 27.8103 56.7825 28.2987 57.1336C28.4595 57.2527 28.5398 57.4534 28.4965 57.6477C28.4533 57.8421 28.2987 57.9988 28.1071 58.0364C27.6001 58.1305 26.784 58.4063 26.5491 58.7072C25.9556 59.4596 23.767 61.3279 20.8674 61.3279L20.8612 61.3153ZM17.3991 59.2401C22.0854 62.1868 25.7392 58.1116 25.7701 58.0678C26.0792 57.6728 26.6542 57.4095 27.1302 57.2465C26.7222 56.5004 26.7222 55.6039 26.7222 55.4722C26.7902 50.2874 22.7345 48.9771 21.6093 48.7138C17.8133 53.6917 17.43 58.1493 17.3991 59.2401Z" fill="black"/>
<path d="M26.24 40.8894C26.24 40.8894 19.2477 58.2118 26.24 63.6161C33.2324 69.0141 38.6234 62.9265 38.6234 62.9265C38.6234 62.9265 44.0083 57.3404 36.6451 41.1465C36.6451 41.1465 31.2602 38.3816 26.2462 40.8957L26.24 40.8894Z" fill="#F68E57"/>
<path d="M32.0946 66.3434C30.2708 66.3434 28.1811 65.7415 25.9431 64.0174C22.8828 61.6538 21.9369 56.9894 23.1301 50.1432C24.0018 45.1402 25.7638 40.7453 25.7824 40.7014C25.8256 40.5886 25.9122 40.4945 26.0235 40.4444C31.1982 37.8488 36.6387 40.5823 36.8675 40.6951C36.9664 40.7453 37.0467 40.8331 37.0962 40.9334C44.5213 57.2527 39.2106 63.0394 38.9818 63.2776C38.9509 63.309 36.2059 66.3434 32.1008 66.3434H32.0946ZM26.6293 41.2594C25.9246 43.0838 20.2924 58.3937 26.5428 63.2149C33.0838 68.2618 38.0483 62.8199 38.2585 62.588C38.3203 62.519 43.2601 57.0019 36.2739 41.5164C35.396 41.1152 30.8643 39.2469 26.6355 41.2531L26.6293 41.2594Z" fill="black"/>
<path d="M25.1624 16.444C25.1985 13.0578 22.5043 10.2829 19.1447 10.2461C15.785 10.2092 13.0322 12.9243 12.9961 16.3105C12.96 19.6966 15.6542 22.4715 19.0138 22.5083C22.3735 22.5452 25.1263 19.8301 25.1624 16.444Z" fill="black"/>
<path d="M19.0805 22.7645C19.0805 22.7645 19.0311 22.7645 19.0063 22.7645C15.5133 22.7269 12.7064 19.8305 12.7435 16.3133C12.7806 12.815 15.6122 10 19.0743 10C19.0991 10 19.1238 10 19.1423 10C22.6354 10.0376 25.4422 12.9341 25.4052 16.4512C25.3866 18.1565 24.7127 19.7552 23.501 20.9464C22.3078 22.1251 20.7374 22.7645 19.0743 22.7645H19.0805ZM19.0805 10.4953C15.8904 10.4953 13.2814 13.0908 13.2443 16.3133C13.2072 19.5546 15.7976 22.2254 19.0187 22.2567C20.5643 22.2693 22.0481 21.6799 23.1671 20.5765C24.2799 19.4794 24.9044 18.0061 24.9229 16.4387C24.96 13.1974 22.3696 10.5266 19.1485 10.4953C19.13 10.4953 19.1053 10.4953 19.0867 10.4953H19.0805Z" fill="black"/>
<path d="M48.969 16.7052C49.0052 13.3191 46.311 10.5442 42.9513 10.5074C39.5917 10.4705 36.8389 13.1856 36.8027 16.5717C36.7666 19.9579 39.4608 22.7328 42.8205 22.7696C46.1801 22.8065 48.9329 20.0914 48.969 16.7052Z" fill="black"/>
<path d="M42.8893 23.0216C42.8893 23.0216 42.8398 23.0216 42.8213 23.0216C39.3282 22.984 36.5214 20.0875 36.5585 16.5704C36.577 14.8651 37.2509 13.2664 38.4627 12.0752C39.6744 10.884 41.2571 10.2382 42.9635 10.2571C46.4565 10.2947 49.2634 13.1911 49.2263 16.7083C49.1892 20.2066 46.3576 23.0216 42.8955 23.0216H42.8893ZM42.8893 10.7523C41.356 10.7523 39.9094 11.3479 38.8089 12.4325C37.696 13.5297 37.0716 15.003 37.0531 16.5704C37.016 19.8117 39.6064 22.4824 42.8275 22.5138C42.846 22.5138 42.8707 22.5138 42.8893 22.5138C46.0794 22.5138 48.6884 19.9182 48.7255 16.6958C48.7626 13.4545 46.1722 10.7837 42.9511 10.7523C42.9264 10.7523 42.9078 10.7523 42.8831 10.7523H42.8893Z" fill="black"/>
<path d="M49.1192 30.9805C49.2079 22.6675 41.2698 15.8406 31.3889 15.7322C21.508 15.6238 13.4261 22.2749 13.3374 30.5879C13.2487 38.9009 21.1868 45.7278 31.0677 45.8362C40.9486 45.9447 49.0305 39.2935 49.1192 30.9805Z" fill="#F68E57"/>
<path d="M31.31 46.3376C31.2296 46.3376 31.1493 46.3376 31.0689 46.3376C26.1724 46.2812 21.5912 44.6261 18.1538 41.6732C14.6916 38.6952 12.806 34.758 12.8554 30.5888C12.8987 26.4196 14.8647 22.5201 18.3949 19.6236C21.8942 16.7459 26.5433 15.1974 31.4089 15.2413C41.5481 15.3541 49.7213 22.4198 49.6286 30.9963C49.5358 39.5039 41.3441 46.3439 31.3224 46.3439L31.31 46.3376ZM31.1554 16.2381C26.5804 16.2381 22.2775 17.7114 19.0131 20.3947C15.7179 23.1031 13.8817 26.7269 13.8446 30.5951C13.8014 34.4633 15.5633 38.1247 18.7968 40.9083C22.0549 43.7107 26.4197 45.2843 31.0813 45.3345C31.1616 45.3345 31.2358 45.3345 31.3162 45.3345C40.8 45.3345 48.5466 38.9334 48.6332 30.9775C48.7197 22.9589 40.9855 16.3447 31.3966 16.2381C31.3162 16.2381 31.242 16.2381 31.1616 16.2381H31.1554Z" fill="black"/>
<path d="M13.733 29.8992C13.733 29.8992 27.4519 25.6798 49.3439 30.2377C48.9667 22.263 41.214 15.8368 31.6312 15.7365C22.0484 15.6362 14.5306 21.5985 13.665 29.2973C13.6836 29.4979 13.7083 29.6985 13.733 29.8992Z" fill="black"/>
<path d="M49.6033 30.5512L49.288 30.4885C27.7051 25.9933 13.9368 30.0998 13.8008 30.1437L13.5226 30.2314L13.4855 29.9368C13.4608 29.7424 13.4422 29.5543 13.4175 29.3662V29.2722C14.283 21.5107 22.1594 15.492 31.396 15.492C31.4764 15.492 31.5506 15.492 31.6309 15.492C41.3188 15.5986 49.2076 22.0749 49.5909 30.2377L49.6094 30.5637L49.6033 30.5512ZM29.6155 27.8867C34.988 27.8867 41.5599 28.3882 49.0716 29.9305C48.509 22.1877 40.9169 16.0939 31.6247 15.9873C22.5551 15.8807 14.7776 21.7301 13.9121 29.2973C13.9244 29.3976 13.9306 29.4916 13.943 29.5794C15.2289 29.2346 20.8179 27.8867 29.6216 27.8867H29.6155Z" fill="black"/>
<path d="M31.1675 27.7488C31.1675 27.7488 34.8213 27.3726 41.5664 29.3161C41.5664 29.3161 43.5448 21.5295 51.5325 22.4762C59.5202 23.4166 60.8185 30.0747 60.8185 30.0747C60.8185 30.0747 63.2976 40.6826 55.9282 43.6355C48.5587 46.5884 43.2975 42.0681 43.2975 42.0681C43.2975 42.0681 39.52 46.0241 32.0949 45.8988H30.9821C23.5508 46.0241 19.7795 42.0681 19.7795 42.0681C19.7795 42.0681 14.5182 46.5884 7.14878 43.6355C-0.22068 40.6826 2.25848 30.0747 2.25848 30.0747C2.25848 30.0747 3.55679 23.4229 11.5445 22.4762C19.5322 21.5358 21.5106 29.3161 21.5106 29.3161C28.2556 27.3726 31.9094 27.7488 31.9094 27.7488H31.1675Z" fill="#F68E57"/>
<path d="M30.6292 46.394C24.4406 46.394 20.8177 43.6606 19.7543 42.7139C18.4313 43.6857 13.5286 46.7201 6.97523 44.0932C-0.703357 41.0274 1.75107 30.0685 1.78198 29.9556C1.79435 29.9055 3.24103 22.9464 11.4946 21.9746C18.6044 21.1345 21.2196 26.9526 21.844 28.7017C27.1176 27.2284 30.4252 27.1783 31.5504 27.2221C32.6694 27.1783 35.977 27.2284 41.2568 28.7017C41.8751 26.9526 44.484 21.1345 51.6062 21.9746C59.8536 22.9464 61.3064 29.8992 61.3188 29.9744C61.3435 30.0685 63.8041 41.0212 56.1256 44.0994C49.566 46.7263 44.6695 43.6919 43.3465 42.7202C42.2646 43.6794 38.5242 46.4944 32.1068 46.394H31.0002C30.8827 46.394 30.759 46.394 30.6416 46.394H30.6292ZM19.8161 41.3722L20.1376 41.7108C20.1747 41.7484 23.7605 45.3909 30.6478 45.3909C30.759 45.3909 30.8703 45.3909 30.9816 45.3909H32.1068C39.229 45.5226 42.9199 41.7547 42.957 41.7171L43.2785 41.3785L43.6309 41.6794C43.8349 41.855 48.7685 45.9615 55.7546 43.1653C62.6295 40.413 60.3667 30.2879 60.342 30.1876C60.2863 29.9117 58.9942 23.8617 51.4826 22.9777C44.008 22.0938 42.1285 29.1469 42.0543 29.4478L41.9245 29.9431L41.4361 29.8051C36.5273 28.3883 33.2444 28.2127 31.9152 28.2253V28.2503H31.1733V28.2253C29.844 28.2127 26.5612 28.3883 21.6523 29.8051L21.1639 29.9431L21.0341 29.4478C20.9537 29.1469 19.0557 22.1 11.6059 22.9777C4.09421 23.8617 2.80208 29.918 2.74644 30.175C2.72171 30.2942 0.452758 40.413 7.33381 43.1716C14.3447 45.9803 19.4081 41.7296 19.4576 41.6857L19.81 41.3848L19.8161 41.3722Z" fill="black"/>
<path d="M31.7854 28.1696C31.7964 25.5035 29.854 23.3339 27.4468 23.3236C25.0396 23.3134 23.0793 25.4664 23.0683 28.1325C23.0573 30.7987 24.9997 32.9683 27.4069 32.9785C29.8141 32.9887 31.7744 30.8357 31.7854 28.1696Z" fill="#FFE800"/>
<path d="M27.4211 33.479H27.4026C26.0981 33.479 24.874 32.9085 23.959 31.8866C23.0563 30.8772 22.5617 29.5418 22.5679 28.1249C22.5679 26.708 23.0811 25.3789 23.9899 24.3758C24.9111 23.3601 26.1476 22.821 27.4459 22.8147C30.1229 22.8272 32.2867 25.2284 32.2805 28.1625C32.2805 29.5794 31.7674 30.9085 30.8586 31.9116C29.9436 32.921 28.7194 33.4727 27.4211 33.4727V33.479ZM27.4211 23.8241C26.401 23.8241 25.4428 24.2629 24.7132 25.0654C23.9713 25.8804 23.5571 26.9713 23.5509 28.1374C23.5509 29.3036 23.9466 30.3944 24.6823 31.2157C25.4057 32.0245 26.3701 32.4759 27.3964 32.4759H27.4088C28.4289 32.4759 29.3872 32.037 30.1167 31.2345C30.8586 30.4195 31.2728 29.3286 31.279 28.1625C31.2913 25.7739 29.5603 23.8303 27.4335 23.8178H27.4211V23.8241Z" fill="black"/>
<path d="M39.0677 28.327C39.0787 25.6609 37.1362 23.4913 34.729 23.4811C32.3219 23.4709 30.3615 25.6239 30.3505 28.29C30.3395 30.9561 32.282 33.1257 34.6891 33.1359C37.0963 33.1462 39.0566 30.9932 39.0677 28.327Z" fill="#FFE800"/>
<path d="M34.7102 33.6358H34.6917C33.3872 33.6358 32.163 33.0652 31.248 32.0433C30.3454 31.0339 29.8508 29.6986 29.857 28.2817C29.857 26.8648 30.3701 25.5357 31.279 24.5326C32.2001 23.5169 33.4366 22.9527 34.7349 22.9715C37.4119 22.984 39.5758 25.3852 39.5696 28.3193C39.5572 31.2534 37.381 33.6295 34.7102 33.6295V33.6358ZM34.7102 23.9808C33.6901 23.9808 32.7318 24.4197 32.0023 25.2222C31.2604 26.0372 30.8462 27.1281 30.8462 28.2942C30.8462 29.4603 31.2419 30.5512 31.9776 31.3725C32.7009 32.1812 33.6654 32.6326 34.6917 32.6326H34.704C36.8246 32.6326 38.5619 30.7017 38.568 28.3256C38.5804 25.9432 36.8493 23.9934 34.7226 23.9808H34.7102Z" fill="black"/>
<path d="M36.7936 28.0957C36.7981 27.0085 36.0074 26.1238 35.0274 26.1196C34.0475 26.1155 33.2494 26.9935 33.2449 28.0807C33.2405 29.1679 34.0312 30.0526 35.0112 30.0568C35.9911 30.061 36.7891 29.183 36.7936 28.0957Z" fill="black"/>
<path d="M35.0192 30.3067H35.0131C33.894 30.3067 32.9914 29.3035 32.9976 28.0747C32.9976 27.4854 33.2078 26.9337 33.5911 26.5137C33.9744 26.0936 34.4814 25.8616 35.0254 25.8616H35.0316C35.5757 25.8616 36.0888 26.0999 36.4659 26.5262C36.8431 26.9462 37.0471 27.5042 37.0471 28.0935C37.0471 28.6829 36.8369 29.2346 36.4536 29.6546C36.0703 30.0747 35.5633 30.3067 35.0192 30.3067ZM35.0192 26.3695C34.6174 26.3695 34.2403 26.545 33.9497 26.8585C33.6529 27.1845 33.4922 27.6171 33.4922 28.081C33.4922 29.0277 34.1723 29.8051 35.0131 29.8051C35.4273 29.8051 35.7982 29.6296 36.0888 29.3161C36.3856 28.9901 36.5463 28.5575 36.5463 28.0935C36.5463 27.6296 36.3856 27.197 36.095 26.871C35.8106 26.5513 35.4273 26.3757 35.0254 26.3695H35.0192Z" fill="black"/>
<path d="M29.1701 28.2593C29.1746 27.1721 28.3838 26.2874 27.4039 26.2832C26.4239 26.279 25.6259 27.157 25.6214 28.2442C25.6169 29.3315 26.4077 30.2162 27.3876 30.2204C28.3676 30.2245 29.1656 29.3465 29.1701 28.2593Z" fill="black"/>
<path d="M27.3899 30.4697H27.3837C26.2646 30.4697 25.362 29.4666 25.3682 28.2378C25.3682 27.0152 26.2832 26.0247 27.396 26.0247H27.4022C28.5212 26.0247 29.4239 27.0278 29.4177 28.2566C29.4177 29.4791 28.5027 30.4697 27.3899 30.4697ZM27.3899 26.5325C26.549 26.5325 25.8628 27.2974 25.8566 28.244C25.8566 29.1907 26.5367 29.9681 27.3775 29.9681C28.2183 29.9681 28.9045 29.2033 28.9107 28.2566C28.9107 27.3099 28.2307 26.5325 27.3899 26.5325Z" fill="black"/>
<path d="M34.0273 34.0108C34.0424 32.5878 32.7428 31.4198 31.1245 31.4021C29.5061 31.3843 28.1818 32.5235 28.1667 33.9465C28.1515 35.3695 29.4511 36.5375 31.0695 36.5552C32.6878 36.573 34.0121 35.4338 34.0273 34.0108Z" fill="#EF3831"/>
<path d="M31.106 37.0589C31.106 37.0589 31.0751 37.0589 31.0627 37.0589C30.1601 37.0463 29.3131 36.7266 28.6763 36.1561C28.0209 35.5667 27.6624 34.7831 27.6685 33.943C27.6747 33.1091 28.0518 32.3317 28.7195 31.7549C29.3687 31.197 30.2281 30.8835 31.1245 30.9023C33.0163 30.9211 34.5372 32.3192 34.5187 34.0182C34.5001 35.7047 32.9731 37.0589 31.0998 37.0589H31.106ZM31.0874 31.9117C30.4383 31.9117 29.8262 32.1311 29.3625 32.5261C28.9174 32.9085 28.6639 33.4226 28.6577 33.9618C28.6577 34.5009 28.8927 35.015 29.3316 35.41C29.7891 35.8238 30.4074 36.0558 31.0751 36.062C31.0874 36.062 31.0936 36.062 31.106 36.062C32.4352 36.062 33.5233 35.153 33.5357 34.0182C33.548 32.8772 32.4661 31.9367 31.1183 31.9179C31.106 31.9179 31.0936 31.9179 31.0874 31.9179V31.9117Z" fill="black"/>
<path d="M42.6233 40.5572C42.4626 40.5572 42.308 40.482 42.2153 40.3378C40.0885 37.1341 40.7439 32.5762 40.7748 32.3881C40.8181 32.1123 41.0715 31.9242 41.3374 31.9681C41.6094 32.012 41.7949 32.2627 41.7516 32.5386C41.7454 32.5825 41.1272 36.9084 43.0376 39.7798C43.1921 40.0118 43.1303 40.319 42.9015 40.4757C42.815 40.5321 42.7223 40.5635 42.6233 40.5635V40.5572Z" fill="black"/>
<path d="M19.5319 40.5572C19.4391 40.5572 19.3402 40.5321 19.2537 40.4694C19.0249 40.3127 18.9693 39.9992 19.1176 39.7735C21.028 36.8958 20.4098 32.5762 20.4036 32.5323C20.3603 32.2565 20.5458 31.9994 20.8178 31.9618C21.096 31.9179 21.3433 32.106 21.3804 32.3818C21.4113 32.5762 22.0667 37.1341 19.9399 40.3315C19.8472 40.4757 19.6864 40.5509 19.5319 40.5509V40.5572Z" fill="black"/>
<path d="M31.1181 39.6481C26.6482 39.6481 23.6807 36.6826 23.6374 36.6388C23.4457 36.4444 23.4457 36.1247 23.6374 35.9303C23.829 35.736 24.1444 35.736 24.336 35.9303C24.5833 36.1811 30.4504 41.9928 38.1661 35.8864C38.3825 35.7171 38.6916 35.7548 38.8585 35.9742C39.0255 36.1936 38.9884 36.5071 38.772 36.6764C35.9652 38.8957 33.35 39.6418 31.112 39.6418L31.1181 39.6481Z" fill="black"/>
<path d="M52.5957 55.8232C52.5957 55.8232 53.9064 50.0303 55.112 50.8202C56.3113 51.6102 53.7456 55.9988 53.7456 55.9988L52.6019 55.8232H52.5957Z" fill="black"/>
<path d="M53.7458 56.5004C53.7458 56.5004 53.6963 56.5004 53.6716 56.5004L52.5279 56.3248C52.3918 56.306 52.2682 56.2245 52.194 56.1117C52.1136 55.9988 52.0889 55.8546 52.1198 55.7167C52.3795 54.5757 53.313 50.8203 54.5371 50.3187C54.8215 50.1996 55.1245 50.2309 55.3841 50.4002C56.8308 51.3469 55.0194 54.8139 54.1724 56.2559C54.0796 56.4126 53.9189 56.5004 53.7458 56.5004ZM53.2079 55.4095L53.4861 55.4534C54.5371 53.5726 55.1987 51.5914 54.871 51.2654C54.4568 51.5036 53.7272 53.3406 53.2079 55.4095Z" fill="black"/>
<path d="M54.0794 53.1713C54.0794 53.1713 46.5306 50.9519 45.5291 54.8201C45.5291 54.8201 44.4286 57.8483 48.4657 59.3216C52.5029 60.7949 60.3793 62.2745 60.7873 58.7197C61.1954 55.1649 57.4859 54.049 54.0856 53.165L54.0794 53.1713Z" fill="#875A4D"/>
<path d="M56.5834 61.4282C53.8508 61.4282 50.5123 60.6069 48.299 59.7981C46.7657 59.2401 45.7394 58.4 45.2325 57.2966C44.6081 55.9361 45.047 54.6948 45.0656 54.6446C45.2758 53.8359 45.7827 53.1713 46.5679 52.7199C49.1398 51.2403 53.9188 52.5945 54.2156 52.6823C57.2202 53.466 61.7581 54.6446 61.2821 58.7762C61.1894 59.5849 60.7813 60.2244 60.0641 60.6758C59.211 61.2087 57.9807 61.4219 56.5896 61.4219L56.5834 61.4282ZM49.7519 53.0397C48.7627 53.0397 47.7797 53.1839 47.0501 53.5977C46.4999 53.9111 46.1599 54.3562 46.0053 54.9456C45.9558 55.096 45.1336 57.5725 48.6328 58.8514C51.9033 60.0489 57.449 61.1398 59.5386 59.8232C59.99 59.5411 60.2373 59.1586 60.2929 58.6633C60.6391 55.6477 57.6283 54.607 53.9559 53.6541H53.9435C53.9126 53.6415 51.8044 53.0334 49.7519 53.0334V53.0397Z" fill="black"/>
<path d="M46.6171 58.3436C46.6171 58.3436 51.7176 57.1524 58.4503 60.7448C58.4503 60.7448 58.6419 66.7885 52.4286 67.8856C52.4286 67.8856 51.0004 68.1364 50.5862 69.058C50.5862 69.058 50.0731 67.7164 49.4177 67.3653C48.546 66.8951 44.4223 63.6036 46.6171 58.3498V58.3436Z" fill="#B3887F"/>
<path d="M50.5863 69.5533H50.5739C50.3761 69.5533 50.1968 69.4216 50.1288 69.2335C49.9433 68.7445 49.5291 67.9796 49.1952 67.8041C47.9773 67.1458 43.8969 63.591 46.172 58.1492C46.2339 57.9987 46.3637 57.8921 46.5182 57.8545C46.7346 57.8044 51.8784 56.6633 58.6915 60.2996C58.8522 60.3811 58.9511 60.5504 58.9573 60.7259C58.9573 60.7886 59.0871 67.221 52.5276 68.3809C52.1999 68.4373 51.2973 68.7132 51.05 69.2649C50.9696 69.4467 50.7903 69.5595 50.5987 69.5595L50.5863 69.5533ZM46.9757 58.7824C44.9788 63.9986 49.6033 66.8825 49.6527 66.9138C50.0917 67.1521 50.4565 67.6724 50.6976 68.1176C51.3467 67.5784 52.2123 67.4029 52.3421 67.384C57.3622 66.5001 57.8939 62.2118 57.9496 61.0394C52.4287 58.1805 48.0391 58.6131 46.9757 58.7824Z" fill="black"/>
<path d="M13.6032 62.8701C13.6032 62.8701 8.65722 66.0612 8.3481 64.6443C8.03897 63.2275 12.9107 61.9297 12.9107 61.9297L13.6032 62.8701Z" fill="black"/>
<path d="M8.88585 65.497C8.70655 65.497 8.54581 65.4719 8.4098 65.4155C8.12541 65.2963 7.92757 65.0581 7.85956 64.7509C7.48862 63.0456 11.1733 61.8732 12.7808 61.4406C12.9786 61.3905 13.1826 61.4595 13.3001 61.6225L13.9925 62.5629C14.0729 62.6757 14.11 62.8136 14.0853 62.9516C14.0605 63.0895 13.9802 63.2086 13.8627 63.2839C12.9972 63.8418 10.3202 65.4907 8.87966 65.4907L8.88585 65.497ZM8.82402 64.5001C9.27534 64.6255 11.0744 63.8418 12.8797 62.7321L12.7128 62.5064C10.6602 63.0958 8.81784 64.0362 8.82402 64.5001Z" fill="black"/>
<path d="M10.7163 63.7039C10.7163 63.7039 14.5556 70.663 17.9497 68.6191C17.9497 68.6191 20.8308 67.2461 18.976 63.3215C17.1213 59.3968 12.5401 52.7387 9.78893 54.9769C7.03775 57.215 8.91102 60.6507 10.7163 63.7039Z" fill="#875A4D"/>
<path d="M16.6387 69.4969C16.3481 69.4969 16.0576 69.4593 15.7546 69.3715C12.8984 68.5941 10.4377 64.2243 10.2832 63.9484C8.68193 61.2526 6.27078 57.1775 9.47328 54.5756C10.1039 54.0678 10.8396 53.9048 11.6557 54.0929C14.5491 54.7637 17.8814 59.842 19.4146 63.0958C20.1194 64.5816 20.2678 65.917 19.866 67.0581C19.3714 68.4687 18.1967 69.0392 18.1472 69.0643C17.6836 69.3464 17.1704 69.4906 16.6325 69.4906L16.6387 69.4969ZM11.0189 55.027C10.6727 55.027 10.3697 55.1399 10.0915 55.3656C7.75457 57.2652 9.18271 60.1492 11.1364 63.4406V63.4532C11.1673 63.497 13.529 67.7226 16.0081 68.3997C16.6202 68.569 17.1704 68.4938 17.6897 68.1803C17.8257 68.1113 20.1256 66.9327 18.5244 63.5284C17.022 60.3498 13.8319 55.6226 11.4331 55.0709C11.2909 55.0396 11.1487 55.0208 11.0189 55.0208V55.027Z" fill="black"/>
<path d="M19.6065 65.3402C19.6065 65.3402 15.149 62.5566 12.8491 55.2089C12.8491 55.2089 16.8986 50.7701 22.0795 54.4126C22.0795 54.4126 23.2727 55.2465 24.2001 54.8891C24.2001 54.8891 23.6375 56.212 23.86 56.9267C24.1568 57.8859 24.8059 63.1648 19.6065 65.3402Z" fill="#B3887F"/>
<path d="M19.6065 65.8418C19.5137 65.8418 19.4272 65.8167 19.3468 65.7665C19.1552 65.6474 14.7038 62.7948 12.373 55.3593C12.3174 55.19 12.3607 55.0019 12.4843 54.864C12.5276 54.8139 16.8924 50.1494 22.3638 53.9988C22.6359 54.1869 23.4705 54.6383 24.0269 54.4189C24.2124 54.3436 24.4226 54.3938 24.5586 54.5443C24.6946 54.6885 24.7317 54.9016 24.6575 55.0897C24.4535 55.5725 24.2186 56.4126 24.3299 56.7762C24.7441 58.1116 25.183 63.5472 19.7981 65.8042C19.7363 65.8292 19.6745 65.8418 19.6065 65.8418ZM13.4117 55.3468C15.3715 61.3403 18.7904 64.1365 19.6621 64.7697C24.6946 62.4751 23.4025 57.1273 23.3839 57.0771C23.2356 56.5944 23.3407 55.9674 23.4767 55.4721C22.642 55.3969 21.9063 54.9016 21.7951 54.8264C17.5972 51.8735 14.2525 54.5505 13.4117 55.3468Z" fill="black"/>
<path d="M6.6725 70.2805C6.6725 70.2805 1.72655 73.4716 1.41743 72.0547C1.10831 70.6379 5.98007 69.3401 5.98007 69.3401L6.6725 70.2805Z" fill="black"/>
<path d="M1.95567 72.9074C1.77638 72.9074 1.61564 72.8823 1.47962 72.8259C1.19523 72.7067 0.997392 72.4685 0.929386 72.1613C0.55844 70.456 4.24317 69.2836 5.8506 68.851C6.04844 68.8009 6.25246 68.8699 6.36993 69.0329L7.06236 69.9733C7.14273 70.0861 7.17983 70.224 7.1551 70.362C7.13037 70.4999 7.04999 70.619 6.93253 70.6943C6.06699 71.2522 3.38999 72.9011 1.94949 72.9011L1.95567 72.9074ZM1.89385 71.9105C2.34516 72.0359 4.14425 71.2522 5.94952 70.1425L5.7826 69.9168C3.73003 70.5062 1.88766 71.4466 1.89385 71.9105Z" fill="black"/>
<path d="M3.77928 71.1081C3.77928 71.1081 7.61857 78.0671 11.0127 76.0233C11.0127 76.0233 13.8937 74.6503 12.039 70.7256C10.1843 66.801 5.6031 60.1429 2.85192 62.381C0.100735 64.6192 1.97401 68.0549 3.77928 71.1081Z" fill="#875A4D"/>
<path d="M9.70855 76.9073C9.41797 76.9073 9.1274 76.8697 8.82446 76.7819C5.96817 76.0045 3.50757 71.6347 3.35301 71.3588C1.75175 68.663 -0.659394 64.5879 2.54311 61.986C3.17371 61.4782 3.90942 61.3152 4.72551 61.5033C7.61888 62.1741 10.9512 67.2524 12.4845 70.5062C13.1893 71.992 13.3376 73.3274 12.9358 74.4685C12.4412 75.8791 11.2665 76.4496 11.2171 76.4747C10.7534 76.7568 10.2402 76.901 9.70236 76.901L9.70855 76.9073ZM4.08871 62.4374C3.7425 62.4374 3.43956 62.5503 3.16135 62.776C0.82439 64.6756 2.25253 67.5596 4.20618 70.851V70.8635C4.23709 70.9074 6.59878 75.133 9.07794 75.8101C9.69 75.9794 10.2402 75.9042 10.7596 75.5907C10.8956 75.5217 13.1954 74.3431 11.5942 70.9388C10.0919 67.7602 6.90172 63.033 4.50294 62.4813C4.36074 62.45 4.21855 62.4312 4.08871 62.4312V62.4374Z" fill="black"/>
<path d="M12.6695 72.7444C12.6695 72.7444 8.21197 69.9608 5.91211 62.613C5.91211 62.613 9.9616 58.1743 15.1425 61.8168C15.1425 61.8168 16.3357 62.6506 17.2631 62.2933C17.2631 62.2933 16.7005 63.6161 16.923 64.3308C17.2198 65.2901 17.8689 70.5689 12.6695 72.7444Z" fill="#B3887F"/>
<path d="M12.6699 73.2459C12.5772 73.2459 12.4907 73.2208 12.4103 73.1707C12.2186 73.0515 7.76728 70.199 5.4365 62.7634C5.38086 62.5941 5.42414 62.4061 5.54779 62.2681C5.59106 62.218 9.95586 57.5473 15.4273 61.403C15.6993 61.591 16.534 62.0424 17.0904 61.823C17.2759 61.7478 17.4861 61.7979 17.6221 61.9484C17.7581 62.0926 17.7952 62.3057 17.721 62.4938C17.517 62.9766 17.282 63.8167 17.3933 64.1803C17.8075 65.5157 18.2465 70.9513 12.8616 73.2083C12.7998 73.2334 12.738 73.2459 12.6699 73.2459ZM6.47515 62.7509C8.43498 68.7445 11.8539 71.5406 12.7256 72.1738C17.7581 69.8792 16.466 64.5314 16.4474 64.4812C16.299 63.9985 16.4041 63.3716 16.5402 62.8763C15.7055 62.801 14.9698 62.3057 14.8585 62.2305C10.6607 59.2776 7.31596 61.9547 6.47515 62.7509Z" fill="black"/>
<path d="M26.4069 52.77C26.4069 52.77 24.3915 47.1902 25.8258 47.184C27.2601 47.1777 27.4641 52.281 27.4641 52.281L26.4069 52.77Z" fill="black"/>
<path d="M26.4072 53.2715C26.3454 53.2715 26.2774 53.259 26.2156 53.2339C26.0857 53.1775 25.9868 53.0772 25.9435 52.9455C25.5479 51.8484 24.3176 48.1808 25.0656 47.0836C25.2449 46.8266 25.5108 46.6824 25.8199 46.6824C27.5386 46.6824 27.8848 50.582 27.9466 52.2622C27.9528 52.469 27.8415 52.6571 27.6561 52.7386L26.5989 53.2277C26.5309 53.259 26.4629 53.2715 26.3948 53.2715H26.4072ZM25.857 47.6918C25.6344 48.1181 26.0115 50.0616 26.6916 52.0866L26.9451 51.9675C26.8153 49.8108 26.3021 47.7858 25.8508 47.6918H25.857Z" fill="black"/>
<path d="M26.2212 49.7293C26.2212 49.7293 18.6972 52.0427 19.9398 55.842C19.9398 55.842 20.6446 58.9892 24.824 57.9924C29.0033 56.9956 36.3975 53.8797 34.8333 50.676C33.2692 47.4723 29.5535 48.5883 26.2274 49.7293H26.2212Z" fill="#875A4D"/>
<path d="M23.2913 58.6884C22.4196 58.6884 21.6591 58.4878 21.0162 58.0803C19.7611 57.2841 19.4644 56.0051 19.452 55.9487C19.1924 55.1524 19.2604 54.3186 19.6746 53.5036C21.0347 50.8391 25.7705 49.3344 26.0672 49.2467C29.0101 48.2373 33.4429 46.7201 35.2667 50.4504C35.6253 51.1839 35.6253 51.9425 35.2667 52.7136C34.0055 55.4346 28.3918 57.6477 24.9297 58.4752C24.3485 58.6132 23.7983 58.6821 23.2851 58.6821L23.2913 58.6884ZM31.279 49.0711C29.8818 49.0711 28.194 49.5852 26.3763 50.2059H26.364C26.3207 50.2247 21.7395 51.6604 20.5587 53.9738C20.2681 54.5443 20.2186 55.1023 20.4103 55.6853C20.4474 55.8358 21.0904 58.3687 24.7071 57.5098C28.0889 56.7073 33.3254 54.5569 34.3702 52.2999C34.599 51.8108 34.599 51.3594 34.3826 50.908C33.7273 49.5664 32.6392 49.0774 31.279 49.0774V49.0711Z" fill="black"/>
<path d="M22.7471 58.1868C22.7471 58.1868 26.3823 54.3687 33.9558 53.6603C33.9558 53.6603 37.3685 58.6257 32.7502 62.9766C32.7502 62.9766 31.6869 63.9797 31.8352 64.9766C31.8352 64.9766 30.6791 64.1365 29.9496 64.1992C28.9666 64.287 23.7363 63.8042 22.7533 58.1868H22.7471Z" fill="#B3887F"/>
<path d="M31.8288 65.4781C31.7299 65.4781 31.6248 65.4468 31.5382 65.3841C31.1178 65.0769 30.3698 64.6756 29.9803 64.7007C28.6078 64.8261 23.2723 64.0988 22.2522 58.2745C22.2213 58.1178 22.2708 57.9548 22.3821 57.8357C22.5366 57.6727 26.2337 53.8734 33.8999 53.1587C34.0792 53.1462 34.2523 53.2214 34.3512 53.3719C34.3883 53.422 37.9494 58.7448 33.0715 63.3402C32.8304 63.5722 32.2245 64.2995 32.311 64.9013C32.3419 65.102 32.2492 65.2963 32.0761 65.4029C31.9957 65.453 31.9092 65.4781 31.8164 65.4781H31.8288ZM30.0235 63.6976C30.4934 63.6976 31.0127 63.917 31.4269 64.1365C31.6804 63.3214 32.3172 62.7008 32.41 62.613C36.1441 59.0958 34.2832 55.2025 33.7021 54.1932C27.5073 54.8514 24.0822 57.6413 23.2847 58.3686C24.4161 63.8481 29.8566 63.7101 29.8999 63.7039C29.9432 63.7039 29.9803 63.7039 30.0235 63.7039V63.6976Z" fill="black"/>
<path d="M39.4829 55.353C39.4829 55.353 39.8971 49.4221 41.2078 50.0177C42.5185 50.6133 40.6452 55.3467 40.6452 55.3467H39.4891L39.4829 55.353Z" fill="black"/>
<path d="M39.483 55.8546C39.3469 55.8546 39.2171 55.7982 39.1244 55.6978C39.0316 55.5975 38.9822 55.4596 38.9945 55.3217C39.0749 54.1556 39.4335 50.2999 40.5587 49.6102C40.8245 49.4472 41.1275 49.4284 41.4119 49.5601C42.9822 50.2685 41.721 53.9738 41.1089 55.5348C41.0348 55.7229 40.8555 55.8483 40.6514 55.8483H39.4891V55.8546H39.483ZM41.0348 50.488C40.6638 50.7889 40.2187 52.7136 40.0208 54.8452H40.3052C41.0595 52.8202 41.4057 50.7575 41.0348 50.488Z" fill="black"/>
<path d="M40.5463 52.5005C40.5463 52.5005 32.7502 51.4848 32.3484 55.4659C32.3484 55.4659 31.7178 58.6319 35.9342 59.4595C40.1506 60.2871 48.1507 60.5128 48.0147 56.9392C47.8786 53.3656 44.0394 52.8453 40.5463 52.5005Z" fill="#875A4D"/>
<path d="M41.3008 60.4752C39.3471 60.4752 37.3564 60.2495 35.8355 59.9485C34.2405 59.6351 33.0905 58.9642 32.4228 57.9611C31.6006 56.7135 31.8479 55.422 31.854 55.3656C31.9344 54.5318 32.3363 53.7982 33.0411 53.2277C35.3595 51.3657 40.2869 51.955 40.5898 51.9926C43.681 52.2936 48.3426 52.7512 48.4971 56.9079C48.5281 57.7229 48.2189 58.4188 47.5821 58.9768C46.3086 60.0865 43.8356 60.4689 41.2884 60.4689L41.3008 60.4752ZM38.4507 52.8892C36.8927 52.8892 34.8278 53.0898 33.6655 54.0239C33.1709 54.4252 32.8989 54.9142 32.837 55.5223C32.8123 55.6791 32.3734 58.2558 36.0272 58.9705C39.4399 59.6413 45.0844 59.8545 46.9515 58.2245C47.3534 57.8734 47.545 57.4596 47.5203 56.958C47.4029 53.9236 44.2745 53.3719 40.4971 53.002H40.4785C40.4785 53.002 39.5883 52.8892 38.4445 52.8892H38.4507Z" fill="black"/>
<path d="M33.9559 58.7761C33.9559 58.7761 38.8153 56.8013 46.0116 59.2965C46.0116 59.2965 47.1244 65.2399 41.1522 67.2963C41.1522 67.2963 39.7797 67.7728 39.5077 68.7382C39.5077 68.7382 38.7967 67.4906 38.0981 67.2461C37.1645 66.9201 32.5895 64.3058 33.9559 58.7761Z" fill="#B3887F"/>
<path d="M39.5074 69.2399C39.3343 69.2399 39.1674 69.1458 39.0808 68.9891C38.8212 68.5377 38.2957 67.848 37.9371 67.7227C36.6326 67.265 32.0638 64.3873 33.4795 58.6571C33.5166 58.5003 33.6279 58.3749 33.7763 58.3122C33.9803 58.2307 38.8892 56.2935 46.1721 58.8263C46.339 58.8828 46.4627 59.0332 46.4997 59.2088C46.5121 59.2715 47.6188 65.6099 41.3127 67.7728C40.9974 67.8794 40.1504 68.2932 39.9896 68.8762C39.934 69.0706 39.7733 69.2148 39.5754 69.2399C39.5569 69.2399 39.5321 69.2399 39.5136 69.2399H39.5074ZM34.376 59.1586C33.2013 64.6256 38.2091 66.7509 38.2586 66.7697C38.7284 66.9327 39.1674 67.3904 39.4765 67.7979C40.0329 67.1584 40.8676 66.8575 40.9912 66.8136C45.8135 65.1522 45.6898 60.8326 45.5662 59.6664C39.6743 57.7041 35.4023 58.8201 34.3822 59.1524L34.376 59.1586Z" fill="black"/>
<path d="M28.7564 69.5094C28.7564 69.5094 23.2046 71.4091 23.2355 69.9608C23.2664 68.5126 28.3051 68.4248 28.3051 68.4248L28.7564 69.5031V69.5094Z" fill="black"/>
<path d="M24.2865 70.9952C23.7919 70.9952 23.3777 70.92 23.1181 70.7257C22.8708 70.5376 22.7347 70.2617 22.7409 69.9482C22.778 68.2053 26.6359 67.9546 28.2927 67.9232C28.5091 67.9232 28.6761 68.0423 28.7564 68.2304L29.2139 69.3088C29.2696 69.4404 29.2696 69.5846 29.2139 69.71C29.1583 69.8354 29.0532 69.9357 28.9234 69.9796C28.1011 70.2617 25.8198 70.989 24.2927 70.989L24.2865 70.9952ZM23.7363 69.9357C24.1505 70.1677 26.0794 69.8417 28.0887 69.1959L27.9774 68.9326C25.8445 69.0078 23.8352 69.478 23.7363 69.9357Z" fill="black"/>
<path d="M25.7514 69.6159C25.7514 69.6159 27.8411 77.3022 31.6185 76.1361C31.6185 76.1361 34.7406 75.5029 33.8627 71.2397C32.9848 66.9765 30.0976 59.403 26.9013 60.9139C23.705 62.4249 24.7127 66.2116 25.7514 69.6159Z" fill="#875A4D"/>
<path d="M30.8525 76.7632C30.3393 76.7632 29.82 76.6252 29.3131 76.3431C26.7226 74.8949 25.3563 70.0611 25.2759 69.7602C24.3548 66.7571 22.9699 62.2181 26.6917 60.4626C27.4212 60.1178 28.1693 60.1366 28.9236 60.5191C31.5758 61.867 33.6222 67.6098 34.3456 71.1395C34.6794 72.757 34.5125 74.0861 33.851 75.0955C33.0349 76.3494 31.7675 76.619 31.7118 76.6252C31.4275 76.713 31.1369 76.7569 30.8463 76.7569L30.8525 76.7632ZM27.7427 61.2212C27.5325 61.2212 27.3223 61.2714 27.1121 61.3717C24.398 62.6507 25.1028 65.7979 26.228 69.4655V69.4781C26.2466 69.5282 27.5449 74.2052 29.7953 75.4591C30.3455 75.7663 30.8958 75.829 31.4769 75.6535C31.6253 75.6221 34.1415 75.0328 33.3811 71.3401C32.6701 67.8919 30.6794 62.5316 28.4846 61.4093C28.2311 61.2777 27.9838 61.215 27.7427 61.215V61.2212Z" fill="black"/>
<path d="M34.0053 73.3525C34.0053 73.3525 30.3268 69.5721 29.8198 61.8795C29.8198 61.8795 34.7967 58.5442 38.9698 63.334C38.9698 63.334 39.9343 64.4311 40.9173 64.312C40.9173 64.312 40.0579 65.4593 40.1074 66.2054C40.1692 67.2085 39.5633 72.4936 34.0053 73.3525Z" fill="#B3887F"/>
<path d="M34.005 73.8541C33.8752 73.8541 33.7453 73.804 33.6526 73.7037C33.498 73.5407 29.8442 69.6975 29.3249 61.9109C29.3125 61.7291 29.3991 61.5598 29.5475 61.4595C29.6031 61.4219 34.9324 57.9423 39.3466 63.0018C39.5692 63.2525 40.2864 63.8857 40.8675 63.8105C41.0653 63.7854 41.257 63.8857 41.3559 64.0613C41.4548 64.2368 41.4425 64.4563 41.325 64.613C41.0159 65.0268 40.5893 65.7917 40.614 66.1741C40.7006 67.5659 39.8536 72.9576 34.0916 73.8479C34.0668 73.8479 34.0421 73.8479 34.0174 73.8479L34.005 73.8541ZM30.3388 62.1491C30.8334 68.4185 33.498 71.9796 34.1967 72.8134C39.6248 71.804 39.6248 66.2932 39.6186 66.2368C39.5877 65.729 39.835 65.1459 40.0823 64.7008C39.2848 64.4249 38.6913 63.7666 38.6047 63.6663C35.2291 59.7918 31.3466 61.5786 30.3388 62.1491Z" fill="black"/>
<path d="M43.9834 69.6348C43.9834 69.6348 38.4316 71.5344 38.4625 70.0862C38.4934 68.6379 43.5321 68.5502 43.5321 68.5502L43.9834 69.6285V69.6348Z" fill="black"/>
<path d="M39.5136 71.1206C39.019 71.1206 38.6048 71.0454 38.3451 70.851C38.0978 70.6629 37.9618 70.3871 37.968 70.0736C38.0051 68.3307 41.8629 68.0799 43.5198 68.0486H43.526C43.7238 68.0486 43.9031 68.1677 43.9835 68.3558L44.441 69.4341C44.4966 69.5658 44.4966 69.71 44.441 69.8354C44.3853 69.9608 44.2802 70.0611 44.1504 70.105C43.3281 70.3871 41.0468 71.1143 39.5198 71.1143L39.5136 71.1206ZM38.9633 70.0611C39.3776 70.293 41.3065 69.967 43.3158 69.3213L43.2045 69.058C41.0716 69.1332 39.0623 69.6034 38.9633 70.0611Z" fill="black"/>
<path d="M40.9789 69.7414C40.9789 69.7414 43.0686 77.4277 46.8461 76.2616C46.8461 76.2616 49.9682 75.6284 49.0903 71.3652C48.2124 67.102 45.3252 59.5285 42.1289 61.0394C38.9325 62.5504 39.9403 66.3371 40.9789 69.7414Z" fill="#875A4D"/>
<path d="M46.0795 76.8885C45.5664 76.8885 45.0471 76.7506 44.5401 76.4685C41.9497 75.0202 40.5834 70.1865 40.503 69.8856C39.5818 66.8825 38.1969 62.3434 41.9188 60.588C42.6483 60.2432 43.3964 60.262 44.1506 60.6444C46.8029 61.9924 48.8493 67.7352 49.5726 71.2648C49.9065 72.8824 49.7395 74.2115 49.078 75.2209C48.2619 76.4747 46.9945 76.7443 46.9389 76.7506C46.6545 76.8384 46.3639 76.8822 46.0734 76.8822L46.0795 76.8885ZM42.9698 61.3466C42.7596 61.3466 42.5494 61.3968 42.3392 61.4971C39.6251 62.776 40.3299 65.9233 41.4551 69.5909V69.6034C41.4736 69.6536 42.7719 74.3306 45.0223 75.5845C45.5726 75.8917 46.1228 75.9544 46.704 75.7788C46.8523 75.7475 49.3686 75.1582 48.6082 71.4655C47.8972 68.0173 45.9064 62.6569 43.7117 61.5347C43.4582 61.403 43.2109 61.3403 42.9698 61.3403V61.3466Z" fill="black"/>
<path d="M49.2324 73.4779C49.2324 73.4779 45.5538 69.6974 45.0469 62.0049C45.0469 62.0049 50.0237 58.6695 54.1969 63.4594C54.1969 63.4594 55.1613 64.5565 56.1443 64.4374C56.1443 64.4374 55.285 65.5847 55.3344 66.3308C55.3963 67.3339 54.7904 72.619 49.2324 73.4779Z" fill="#B3887F"/>
<path d="M49.2325 73.9795C49.1027 73.9795 48.9729 73.9293 48.8801 73.829C48.7256 73.666 45.0718 69.8229 44.5524 62.0362C44.5401 61.8544 44.6266 61.6852 44.775 61.5848C44.8306 61.5472 50.1599 58.0677 54.5742 63.1271C54.7967 63.3779 55.5139 64.0111 56.095 63.9359C56.2929 63.9108 56.4845 64.0111 56.5835 64.1867C56.6824 64.3622 56.67 64.5816 56.5525 64.7384C56.2434 65.1521 55.8168 65.917 55.8416 66.2994C55.9281 67.6913 55.0811 73.083 49.3191 73.9732C49.2944 73.9732 49.2696 73.9732 49.2449 73.9732L49.2325 73.9795ZM45.5664 62.2745C46.061 68.5439 48.7256 72.1049 49.4242 72.9388C54.8524 71.9294 54.8524 66.4186 54.8462 66.3621C54.8153 65.8543 55.0626 65.2713 55.3099 64.8261C54.5123 64.5503 53.9188 63.892 53.8323 63.7917C50.4567 59.9172 46.5741 61.704 45.5664 62.2745Z" fill="black"/>
<path d="M23.0131 72.3557C23.0131 72.3557 24.0826 78.1988 22.673 77.9606C21.2634 77.7223 21.894 72.6566 21.894 72.6566L23.0131 72.3557Z" fill="black"/>
<path d="M22.7593 78.4684C22.7037 78.4684 22.6542 78.4684 22.5986 78.4559C20.8984 78.1738 21.2013 74.2616 21.4054 72.594C21.4301 72.3934 21.5723 72.2241 21.7701 72.1739L22.8892 71.873C23.0252 71.8354 23.1612 71.8605 23.2786 71.9357C23.3961 72.0109 23.4765 72.13 23.5012 72.268C23.7114 73.4153 24.3297 77.2396 23.4023 78.1926C23.223 78.3744 23.0004 78.4747 22.7531 78.4747L22.7593 78.4684ZM22.3513 73.0516C22.1225 75.2021 22.2956 77.2835 22.7284 77.4528C23.019 77.0703 22.9633 75.0892 22.6233 72.9764L22.3513 73.0516Z" fill="black"/>
<path d="M22.6974 75.3838C22.6974 75.3838 30.4934 74.3682 29.8937 70.4185C29.8937 70.4185 29.7144 67.196 25.43 67.4718C21.1456 67.7477 13.3434 69.5784 14.3635 73.0015C15.3836 76.4246 19.229 75.9481 22.6912 75.3838H22.6974Z" fill="#875A4D"/>
<path d="M18.9759 76.2867C16.7502 76.2867 14.642 75.6535 13.8939 73.1457C13.659 72.362 13.7888 71.6097 14.2648 70.9138C15.9588 68.4436 21.8507 67.2023 25.3994 66.9703C27.0192 66.8637 28.299 67.2211 29.1954 68.0236C30.3021 69.0204 30.3886 70.3307 30.3886 70.3871C30.5185 71.2147 30.3083 72.0297 29.7704 72.757C27.9898 75.1519 23.0748 75.8415 22.7719 75.8791C21.6343 76.061 20.2865 76.2804 18.9759 76.2804V76.2867ZM25.9373 67.9609C25.7889 67.9609 25.6282 67.9609 25.4674 67.9797C21.9991 68.2054 16.4843 69.4404 15.0809 71.4906C14.778 71.9357 14.6976 72.3808 14.8398 72.8636C15.7053 75.7726 18.8769 75.503 22.6173 74.8949H22.6297C22.6791 74.8886 27.4272 74.2428 28.9729 72.1614C29.35 71.6473 29.4922 71.1081 29.3994 70.5C29.3871 70.3495 29.1892 67.9609 25.9249 67.9609H25.9373Z" fill="black"/>
<path d="M27.5139 67.6286C27.5139 67.6286 23.3037 70.7821 15.7178 70.2053C15.7178 70.2053 13.1645 64.7384 18.4319 61.2212C18.4319 61.2212 19.6437 60.4125 19.6622 59.4031C19.6622 59.4031 20.6638 60.425 21.3995 60.4877C22.3887 60.5692 27.4583 61.9234 27.5139 67.6286Z" fill="#B3887F"/>
<path d="M17.5721 70.7821C16.9663 70.7821 16.3356 70.757 15.6803 70.7068C15.501 70.6943 15.3465 70.5815 15.2723 70.4184C15.2475 70.362 12.6015 64.5126 18.1656 60.8011C18.4377 60.6131 19.161 59.9987 19.1734 59.3905C19.1734 59.1899 19.297 59.0081 19.4825 58.9329C19.668 58.8576 19.8782 58.9015 20.0204 59.0457C20.3851 59.4156 21.0652 59.9485 21.4423 59.9799C22.8148 60.0864 27.9586 61.7039 28.0143 67.616C28.0143 67.779 27.9401 67.9295 27.8102 68.0235C27.6495 68.1426 24.0575 70.7695 17.5721 70.7695V70.7821ZM16.0574 69.7288C22.2522 70.1238 26.1039 67.9483 27.0127 67.3652C26.7901 61.7729 21.4176 60.9955 21.362 60.9892C20.8674 60.9516 20.3295 60.6193 19.9276 60.3059C19.5443 61.0645 18.8148 61.5723 18.7097 61.6413C14.45 64.4813 15.6494 68.6317 16.0574 69.7225V69.7288Z" fill="black"/>
<path d="M61.3934 70.4749C61.3934 70.4749 62.463 76.318 61.0534 76.0797C59.6438 75.8415 60.2744 70.7758 60.2744 70.7758L61.3934 70.4749Z" fill="black"/>
<path d="M61.1338 76.5877C61.0782 76.5877 61.0287 76.5877 60.9731 76.5752C59.2729 76.293 59.5759 72.3809 59.7799 70.7132C59.8046 70.5126 59.9468 70.3433 60.1446 70.2932L61.2637 69.9923C61.3997 69.9546 61.5357 69.9797 61.6532 70.055C61.7706 70.1302 61.851 70.2493 61.8757 70.3872C62.0859 71.5345 62.7042 75.3589 61.7768 76.3118C61.5975 76.4937 61.3749 76.594 61.1276 76.594L61.1338 76.5877ZM60.7258 71.1709C60.497 73.3213 60.6701 75.4028 61.1029 75.572C61.3935 75.1896 61.3378 73.2085 60.9978 71.0957L60.7258 71.1709Z" fill="black"/>
<path d="M61.0782 73.5031C61.0782 73.5031 68.8743 72.4875 68.2746 68.5377C68.2746 68.5377 68.0953 65.3152 63.8109 65.5911C59.5265 65.8669 51.7242 67.6976 52.7443 71.1207C53.7644 74.5438 57.6099 74.0674 61.0721 73.5031H61.0782Z" fill="#875A4D"/>
<path d="M57.3562 74.3996C55.1306 74.3996 53.0223 73.7664 52.2743 71.2586C52.0393 70.4749 52.1692 69.7226 52.6452 69.0267C54.3392 66.5565 60.2311 65.3152 63.7798 65.0832C65.3996 64.9766 66.6793 65.334 67.5758 66.1365C68.6824 67.1333 68.769 68.4436 68.769 68.5C68.8988 69.3276 68.6886 70.1426 68.1508 70.8699C66.3702 73.2648 61.4552 73.9544 61.1522 73.9921C60.0147 74.1739 58.6669 74.3933 57.3562 74.3933V74.3996ZM64.3176 66.0738C64.1693 66.0738 64.0085 66.0738 63.8478 66.0926C60.3794 66.3183 54.8647 67.5534 53.4613 69.6035C53.1584 70.0486 53.078 70.4937 53.2202 70.9765C54.0857 73.8855 57.2573 73.6159 60.9977 73.0078H61.01C61.0595 73.0015 65.8076 72.3557 67.3532 70.2743C67.7304 69.7602 67.8725 69.221 67.7798 68.6129C67.7674 68.4624 67.5696 66.0738 64.3053 66.0738H64.3176Z" fill="black"/>
<path d="M65.8884 65.7478C65.8884 65.7478 61.6782 68.9013 54.0923 68.3246C54.0923 68.3246 51.539 62.8576 56.8064 59.3405C56.8064 59.3405 58.0182 58.5317 58.0367 57.5223C58.0367 57.5223 59.0383 58.5443 59.774 58.607C60.7632 58.6885 65.8328 60.0426 65.8884 65.7478Z" fill="#B3887F"/>
<path d="M55.9466 68.9013C55.3408 68.9013 54.7102 68.8763 54.0548 68.8261C53.8755 68.8136 53.721 68.7007 53.6468 68.5377C53.622 68.4813 50.976 62.6319 56.5402 58.9204C56.8122 58.7323 57.5355 58.1179 57.5479 57.5098C57.5479 57.3092 57.6715 57.1274 57.857 57.0521C58.0425 56.9769 58.2527 57.0208 58.3949 57.165C58.7597 57.5349 59.4397 58.0678 59.8168 58.0991C61.1894 58.2057 66.3331 59.8232 66.3888 65.7353C66.3888 65.8983 66.3146 66.0487 66.1848 66.1428C66.024 66.2619 62.432 68.8888 55.9466 68.8888V68.9013ZM54.432 67.8481C60.6267 68.243 64.4784 66.0676 65.3872 65.4845C65.1647 59.8922 59.7921 59.1148 59.7365 59.1085C59.2419 59.0709 58.704 58.7386 58.3022 58.4251C57.9188 59.1837 57.1893 59.6915 57.0842 59.7605C52.8245 62.6006 54.0239 66.7509 54.432 67.8418V67.8481Z" fill="black"/>
</g>
<defs>
<clipPath id="clip0_40_7910">
<rect width="80" height="80" fill="white" transform="translate(0.755859)"/>
</clipPath>
</defs>
</svg>
