<svg width="81" height="80" viewBox="0 0 81 80" fill="none" xmlns="http://www.w3.org/2000/svg">
<g clip-path="url(#clip0_40_8015)">
<path d="M54.7639 68.2317C54.7639 68.2317 61.72 73.0045 62.1241 74.0517C62.5283 75.0989 62.7056 69.1008 66.2935 70.6181C69.8885 72.1283 67.1657 76.5593 67.1657 76.5593C67.1657 76.5593 64.9605 81.04 59.1673 79.0027C53.3741 76.9653 48.9141 71.9004 48.9141 71.9004L54.7639 68.2317Z" fill="#3E2B2F"/>
<path d="M62.0106 79.9998C61.1313 79.9998 60.1315 79.836 59.0112 79.4442C53.1684 77.3925 48.7437 72.4202 48.5594 72.2136L48.1978 71.8005L54.7709 67.683L55.0191 67.8539C56.4443 68.8299 60.6704 71.7791 62.0956 73.2822C62.4147 72.292 62.9394 70.7105 64.2016 70.1264C64.8681 69.8201 65.6268 69.8415 66.4636 70.1905C67.4846 70.6179 68.1512 71.3018 68.4419 72.2208C69.0942 74.2581 67.6123 76.7015 67.5484 76.8013C67.5484 76.8084 65.9247 79.9927 62.0035 79.9927L62.0106 79.9998ZM49.6301 71.9999C50.8142 73.2252 54.6503 76.9295 59.3161 78.5679C64.6625 80.4486 66.6621 76.5235 66.7401 76.3596C66.7755 76.3026 68.0802 74.137 67.5626 72.5128C67.3499 71.8575 66.8748 71.3802 66.109 71.0596C65.5134 70.8103 65.017 70.7818 64.5916 70.9812C63.6698 71.4087 63.2231 72.812 62.9536 73.6526C62.7551 74.2724 62.6345 74.6428 62.2233 74.6571C62.0815 74.6642 61.8262 74.6143 61.6773 74.2368C61.422 73.6526 57.9972 71.0525 54.7354 68.8014L49.623 72.007L49.6301 71.9999Z" fill="black"/>
<path d="M25.8262 68.2317C25.8262 68.2317 18.8702 73.0045 18.466 74.0517C18.0618 75.0989 17.8845 69.1008 14.2966 70.6181C10.7016 72.1283 13.4245 76.5593 13.4245 76.5593C13.4245 76.5593 15.6297 81.04 21.4228 79.0027C27.216 76.9653 31.6761 71.9004 31.6761 71.9004L25.8262 68.2317Z" fill="#3E2B2F"/>
<path d="M18.5801 80C14.6589 80 13.0352 76.8086 13.0139 76.7658C12.9713 76.7017 11.4894 74.2654 12.1417 72.2209C12.4325 71.302 13.099 70.6181 14.1201 70.1907C14.9568 69.8345 15.7226 69.8131 16.382 70.1266C17.6442 70.7107 18.176 72.2922 18.488 73.2824C19.9203 71.7721 24.1393 68.8301 25.5645 67.847L25.8127 67.676L32.3859 71.7935L32.0242 72.2067C31.8399 72.4204 27.4152 77.3856 21.5724 79.4372C20.4521 79.829 19.4523 79.9928 18.573 79.9928L18.5801 80ZM15.3893 70.8389C15.1128 70.8389 14.8079 70.9102 14.4746 71.0526C13.7088 71.3732 13.2337 71.8505 13.021 72.5059C12.5034 74.1372 13.8081 76.2957 13.8222 76.317C13.9286 76.5236 15.9495 80.4416 21.2675 78.5681C25.9403 76.9225 29.7694 73.2254 30.9535 72.0001L25.8411 68.7944C22.5864 71.0455 19.1545 73.6457 18.8992 74.2298C18.7574 74.6074 18.5021 74.6572 18.3532 74.6501C17.942 74.6358 17.8214 74.2654 17.6229 73.6457C17.3534 72.8051 16.9067 71.4017 15.9849 70.9743C15.8006 70.8888 15.5949 70.8461 15.3822 70.8461L15.3893 70.8389Z" fill="black"/>
<path d="M57.3301 45.0655C57.5073 45.0655 63.0665 42.387 65.2079 40.4066C67.3493 38.4263 67.4699 36.0398 69.1504 36.624C70.8309 37.2081 68.9164 39.5945 68.9164 39.5945C68.9164 39.5945 70.6536 37.2081 71.4052 38.3693C72.1569 39.5304 70.3062 40.9908 70.3062 40.9908C70.3062 40.9908 72.3341 39.3025 72.9723 40.5277C73.6105 41.753 71.5258 43.2632 71.5258 43.2632C71.5258 43.2632 65.3285 48.4991 59.5282 51.4697" fill="#F280A1"/>
<path d="M59.536 51.9327C59.3658 51.9327 59.2027 51.8401 59.1247 51.6763C59.0113 51.4483 59.0964 51.1634 59.3304 51.0494C65.0101 48.1358 71.1719 42.9498 71.2358 42.8999C71.7179 42.5437 72.9375 41.4395 72.5688 40.7343C72.4979 40.599 72.4199 40.5633 72.3419 40.5491C71.8952 40.4636 71.0798 40.9694 70.6827 41.2828C70.6543 41.3042 70.626 41.3327 70.5976 41.3541C70.3991 41.5108 70.1083 41.4752 69.9523 41.2757C69.7963 41.0762 69.8247 40.7842 70.0162 40.6274C70.0303 40.6203 70.0516 40.599 70.08 40.5776C70.5054 40.2214 71.4343 39.2455 71.023 38.6186C70.9521 38.5117 70.9096 38.5117 70.8812 38.5117C70.5267 38.4975 69.846 39.16 69.4134 39.7085C69.3496 39.794 69.3071 39.851 69.2858 39.8795C69.1298 40.0789 68.8391 40.1145 68.6405 39.9578C68.442 39.8011 68.3995 39.5162 68.5484 39.3167C68.5767 39.274 68.6264 39.217 68.6831 39.1386C69.066 38.6043 69.4843 37.7994 69.3567 37.3719C69.3284 37.2722 69.2645 37.1511 69.0022 37.0585C68.4066 36.8519 68.1726 37.1084 67.4351 38.2909C66.9884 39.0104 66.4282 39.908 65.5206 40.7485C63.4288 42.6791 57.7704 45.5285 57.3237 45.5285C57.0684 45.5285 56.8628 45.3219 56.8628 45.0655C56.8628 44.8447 57.0188 44.6523 57.2315 44.6096C57.6924 44.4457 62.8474 41.9596 64.8966 40.0647C65.7121 39.3167 66.2084 38.5117 66.648 37.7994C67.3146 36.7237 67.9457 35.7121 69.3 36.1823C69.924 36.396 70.158 36.8092 70.2431 37.1155C70.2998 37.3078 70.3069 37.5144 70.2927 37.721C70.4983 37.6284 70.704 37.5785 70.9025 37.5856C71.1578 37.5928 71.5194 37.6925 71.7959 38.1199C72.115 38.6186 72.1079 39.1528 71.9236 39.6444C72.1292 39.6088 72.3277 39.6016 72.5192 39.6444C72.895 39.7227 73.1928 39.9507 73.3843 40.314C74.1855 41.8527 72.0441 43.4627 71.7959 43.6408C71.7605 43.6693 65.5135 48.9265 59.7416 51.8828C59.6778 51.9185 59.5998 51.9327 59.5289 51.9327H59.536Z" fill="black"/>
<path d="M22.4868 45.0655C22.3095 45.0655 16.7504 42.387 14.609 40.4066C12.4676 38.4263 12.347 36.0398 10.6665 36.624C8.986 37.2081 10.9005 39.5945 10.9005 39.5945C10.9005 39.5945 9.16327 37.2081 8.41165 38.3693C7.66003 39.5304 9.51072 40.9908 9.51072 40.9908C9.51072 40.9908 7.48276 39.3025 6.84459 40.5277C6.20642 41.753 8.29111 43.2632 8.29111 43.2632C8.29111 43.2632 14.4884 48.4991 20.2887 51.4697" fill="#F280A1"/>
<path d="M20.2879 51.9327C20.217 51.9327 20.1461 51.9185 20.0751 51.8828C14.3033 48.9265 8.05631 43.6693 7.99249 43.6194C7.77268 43.4627 5.63127 41.8456 6.43252 40.314C6.61688 39.9578 6.92179 39.7227 7.2976 39.6444C7.48905 39.6088 7.68759 39.6088 7.89322 39.6444C7.70886 39.1457 7.70177 38.6115 8.02085 38.1199C8.29739 37.6925 8.65902 37.5928 8.91429 37.5856C9.11283 37.5856 9.32555 37.6355 9.5241 37.721C9.50282 37.5144 9.517 37.3078 9.57373 37.1155C9.65882 36.8092 9.8999 36.396 10.5168 36.1823C11.8711 35.7121 12.5022 36.7237 13.1687 37.7994C13.6084 38.5046 14.1047 39.3096 14.9202 40.0647C16.9694 41.9596 22.1244 44.4457 22.5853 44.6096C22.7909 44.6523 22.954 44.8447 22.954 45.0655C22.954 45.3219 22.7484 45.5285 22.4931 45.5285C22.0464 45.5285 16.395 42.6791 14.2962 40.7485C13.3886 39.9151 12.8355 39.0175 12.3817 38.2909C11.6442 37.1084 11.4173 36.8519 10.8146 37.0585C10.5523 37.1511 10.4813 37.2722 10.4601 37.3719C10.3254 37.8278 10.8075 38.6756 11.1408 39.1457C11.1975 39.217 11.2401 39.2811 11.2684 39.3167C11.4173 39.5233 11.3748 39.8082 11.1762 39.9578C10.9777 40.1145 10.6941 40.0789 10.531 39.8795C10.5097 39.851 10.4601 39.794 10.4033 39.7085C9.92118 39.0959 9.27592 38.5188 8.93556 38.5117C8.9072 38.5117 8.86465 38.5117 8.79375 38.6186C8.32576 39.3452 9.60209 40.4636 9.77227 40.599C9.78645 40.6061 9.79354 40.6132 9.80064 40.6203C9.99918 40.7842 10.0275 41.0691 9.86445 41.2686C9.70846 41.468 9.41773 41.5037 9.21919 41.3469C9.19083 41.3256 9.16247 41.2971 9.12701 41.2757C8.65193 40.9053 7.87904 40.4636 7.46777 40.5491C7.39687 40.5633 7.31178 40.599 7.24087 40.7343C6.87215 41.4395 8.09176 42.5437 8.55266 42.8785C8.63775 42.9498 14.8067 48.1358 20.4864 51.0494C20.7133 51.1634 20.8055 51.4483 20.692 51.6763C20.607 51.8401 20.451 51.9327 20.2808 51.9327H20.2879Z" fill="black"/>
<path d="M39.5895 23.4879C41.4685 17.9457 44.1701 16.6634 44.1701 16.6634C48.694 14.5548 50.1901 18.3802 50.1901 18.3802C52.8421 24.8699 39.5469 27.7621 39.5469 27.7621L39.398 27.7051C39.398 27.7051 26.2872 24.8699 28.9391 18.3802C28.9391 18.3802 30.4282 14.5548 34.9592 16.6634C34.9592 16.6634 37.6608 17.9385 39.5398 23.4879H39.5965H39.5895Z" fill="#F5333F"/>
<path d="M39.504 28.2536L39.2629 28.1538C38.5609 27.9971 30.754 26.1806 28.6481 22.1628C27.9957 20.9162 27.9461 19.5841 28.5062 18.2092C28.5275 18.1451 29.1728 16.5423 30.8604 15.8655C32.0942 15.3669 33.5407 15.4951 35.1503 16.2431C35.2637 16.2929 37.6817 17.4826 39.5678 22.2198C41.4469 17.4897 43.8719 16.3001 43.9783 16.2502C45.595 15.5022 47.0344 15.374 48.2682 15.8655C49.9558 16.5494 50.594 18.1522 50.6223 18.2163C51.1754 19.5698 51.1258 20.8948 50.4805 22.1343C48.3037 26.2946 40.0004 28.1467 39.6458 28.2251L39.504 28.2536ZM32.4345 16.4995C32.002 16.4995 31.5978 16.5779 31.2149 16.7275C29.9031 17.2546 29.3713 18.5511 29.3642 18.5583C28.9033 19.6909 28.9388 20.7239 29.4635 21.7283C31.4276 25.4682 39.4118 27.2349 39.4898 27.2563L39.5749 27.2847C40.6527 27.0283 47.8144 25.2118 49.6509 21.6998C50.1756 20.7025 50.2111 19.6767 49.7573 18.5654C49.7502 18.544 49.2184 17.2546 47.9066 16.7275C46.921 16.3357 45.7297 16.4568 44.3612 17.0908C44.3399 17.0979 41.8014 18.3944 40.0216 23.6374L39.9153 23.9509H39.1991L39.0928 23.6374C37.2988 18.3374 34.7816 17.0979 34.7532 17.0908C33.9094 16.699 33.1294 16.4995 32.4274 16.4995H32.4345Z" fill="black"/>
<path d="M40.1421 73.9733C40.1421 73.9733 23.7837 74.4506 18.7422 61.4997C18.7422 61.4997 14.1332 46.4759 22.7556 34.7005C22.7556 34.7005 28.8749 25.5822 40.0641 25.8529H39.9081C51.2321 25.7104 57.2167 34.7005 57.2167 34.7005C65.4065 46.191 61.0528 61.8345 61.0528 61.8345C57.6137 74.187 39.8372 73.9733 39.8372 73.9733" fill="#F280A1"/>
<path d="M39.9863 74.4434C38.2207 74.4434 23.1316 74.0659 18.3099 61.6707C18.2532 61.4855 13.7222 46.2551 22.3871 34.4227C22.4367 34.3443 28.7404 25.1405 40.0218 25.3827C40.0714 25.3827 40.1211 25.3827 40.1636 25.3827C51.4379 25.3827 57.536 34.3514 57.5998 34.4369C65.818 45.963 61.5422 61.7989 61.4997 61.9557C58.2663 73.5672 42.6312 74.3793 40.1565 74.4292C40.1565 74.4292 40.0927 74.4292 39.9863 74.4292V74.4434ZM39.5822 26.316C29.0878 26.316 23.2025 34.8786 23.1458 34.9641C14.7503 46.4332 19.1466 61.2148 19.1891 61.3644C23.6776 72.9047 37.6464 73.4889 39.8445 73.5102C40.0147 73.5102 57.3091 73.5672 60.6134 61.7063C60.6559 61.5496 64.8111 46.134 56.8482 34.9712C56.7843 34.8715 50.9416 26.316 40.1778 26.316C40.1423 26.316 40.1069 26.316 40.0785 26.316H39.9225C39.8162 26.316 39.7027 26.316 39.5963 26.316H39.5822Z" fill="black"/>
<path d="M32.8745 37.9632C32.683 37.9632 32.5129 37.8492 32.442 37.6568L31.4989 35.1066C31.4067 34.8644 31.5343 34.6008 31.7683 34.5082C32.0094 34.4156 32.2718 34.5438 32.364 34.7789L33.307 37.3291C33.3992 37.5714 33.2716 37.8349 33.0376 37.9275C32.9809 37.9489 32.9312 37.956 32.8745 37.956V37.9632Z" fill="black"/>
<path d="M36.9588 37.2865C36.9588 37.2865 36.9021 37.2865 36.8738 37.2794C36.6185 37.2366 36.4554 36.9944 36.4979 36.738L36.9021 34.5011C36.9447 34.2447 37.1928 34.0808 37.441 34.1236C37.6963 34.1663 37.8594 34.4085 37.8168 34.665L37.4127 36.9018C37.3701 37.1298 37.1787 37.2865 36.9588 37.2865Z" fill="black"/>
<path d="M34.8668 37.1155C34.6257 37.1155 34.4201 36.9232 34.4059 36.6739L34.2854 34.4228C34.2712 34.1663 34.4697 33.9455 34.725 33.9313C34.9874 33.917 35.2001 34.1165 35.2143 34.3729L35.3348 36.624C35.349 36.8805 35.1505 37.1013 34.8952 37.1155C34.8881 37.1155 34.881 37.1155 34.8668 37.1155Z" fill="black"/>
<path d="M46.4537 37.9632C46.397 37.9632 46.3474 37.9561 46.2907 37.9347C46.0496 37.8421 45.929 37.5785 46.0212 37.3363L46.9643 34.7861C47.0565 34.5439 47.3188 34.4228 47.5599 34.5154C47.801 34.608 47.9215 34.8715 47.8293 35.1138L46.8863 37.664C46.8154 37.8492 46.6381 37.9703 46.4537 37.9703V37.9632Z" fill="black"/>
<path d="M42.3759 37.2864C42.1561 37.2864 41.9576 37.1297 41.9221 36.9017L41.518 34.6649C41.4754 34.4085 41.6385 34.1663 41.8938 34.1235C42.149 34.0737 42.3901 34.2446 42.4327 34.5011L42.8368 36.7379C42.8794 36.9944 42.7163 37.2366 42.461 37.2793C42.4327 37.2793 42.4043 37.2864 42.3759 37.2864Z" fill="black"/>
<path d="M44.4604 37.1155C44.4604 37.1155 44.4462 37.1155 44.432 37.1155C44.1768 37.1013 43.9782 36.8805 43.9924 36.624L44.113 34.3729C44.1271 34.1165 44.354 33.917 44.6022 33.9313C44.8575 33.9455 45.056 34.1663 45.0418 34.4228L44.9213 36.6739C44.9071 36.9232 44.7015 37.1155 44.4604 37.1155Z" fill="black"/>
<path d="M43.8299 48.1785C46.8062 48.1785 49.2189 45.474 49.2189 42.1377C49.2189 38.8014 46.8062 36.0968 43.8299 36.0968C40.8536 36.0968 38.4409 38.8014 38.4409 42.1377C38.4409 45.474 40.8536 48.1785 43.8299 48.1785Z" fill="#FFD200"/>
<path d="M43.8294 48.6487C40.6031 48.6487 37.9795 45.728 37.9795 42.1448C37.9795 38.5616 40.6031 35.6409 43.8294 35.6409C47.0557 35.6409 49.6792 38.5616 49.6792 42.1448C49.6792 45.728 47.0557 48.6487 43.8294 48.6487ZM43.8294 36.5669C41.1136 36.5669 38.9013 39.0674 38.9013 42.1448C38.9013 45.2222 41.1136 47.7226 43.8294 47.7226C46.5451 47.7226 48.7574 45.2222 48.7574 42.1448C48.7574 39.0674 46.5451 36.5669 43.8294 36.5669Z" fill="black"/>
<path d="M35.1718 48.0004C37.9327 48.0004 40.1708 45.4936 40.1708 42.4012C40.1708 39.3089 37.9327 36.802 35.1718 36.802C32.411 36.802 30.1729 39.3089 30.1729 42.4012C30.1729 45.4936 32.411 48.0004 35.1718 48.0004Z" fill="#FFD200"/>
<path d="M35.1718 48.4705C32.1582 48.4705 29.7119 45.7493 29.7119 42.4012C29.7119 39.053 32.1582 36.3318 35.1718 36.3318C38.1854 36.3318 40.6317 39.053 40.6317 42.4012C40.6317 45.7493 38.1854 48.4705 35.1718 48.4705ZM35.1718 37.265C32.6759 37.265 30.6408 39.5659 30.6408 42.4012C30.6408 45.2364 32.6759 47.5373 35.1718 47.5373C37.6677 47.5373 39.7028 45.2364 39.7028 42.4012C39.7028 39.5659 37.6677 37.265 35.1718 37.265Z" fill="black"/>
<path d="M39.1714 54.1268C41.6777 54.1268 43.7095 52.3535 43.7095 50.1661C43.7095 47.9786 41.6777 46.2053 39.1714 46.2053C36.6651 46.2053 34.6333 47.9786 34.6333 50.1661C34.6333 52.3535 36.6651 54.1268 39.1714 54.1268Z" fill="#F5333F"/>
<path d="M39.1711 54.5898C36.4128 54.5898 34.165 52.6023 34.165 50.166C34.165 47.7297 36.4128 45.7422 39.1711 45.7422C41.9294 45.7422 44.1772 47.7297 44.1772 50.166C44.1772 52.6023 41.9294 54.5898 39.1711 54.5898ZM39.1711 46.6683C36.9233 46.6683 35.0939 48.2355 35.0939 50.166C35.0939 52.0965 36.9233 53.6637 39.1711 53.6637C41.4189 53.6637 43.2483 52.0965 43.2483 50.166C43.2483 48.2355 41.4189 46.6683 39.1711 46.6683Z" fill="black"/>
<path d="M35.3989 44.9016C36.6599 44.9016 37.6822 43.6546 37.6822 42.1163C37.6822 40.578 36.6599 39.3309 35.3989 39.3309C34.138 39.3309 33.1157 40.578 33.1157 42.1163C33.1157 43.6546 34.138 44.9016 35.3989 44.9016Z" fill="black"/>
<path d="M44.0845 44.9016C45.3455 44.9016 46.3677 43.6546 46.3677 42.1163C46.3677 40.578 45.3455 39.3309 44.0845 39.3309C42.8235 39.3309 41.8013 40.578 41.8013 42.1163C41.8013 43.6546 42.8235 44.9016 44.0845 44.9016Z" fill="black"/>
<path d="M39.1919 59.1631C32.6117 59.1631 30.0732 54.953 29.9669 54.7678C29.8038 54.49 29.8959 54.1338 30.1725 53.9699C30.449 53.8061 30.8036 53.8987 30.9667 54.1765C31.0659 54.3404 33.3917 58.1444 39.589 57.9948C39.6812 57.9948 45.1127 58.1587 48.1759 53.8987C48.3603 53.6351 48.729 53.5781 48.9843 53.7705C49.2466 53.9557 49.3034 54.3261 49.1119 54.5826C45.68 59.3554 39.823 59.1702 39.5748 59.1631C39.4472 59.1631 39.3196 59.1631 39.1919 59.1631Z" fill="black"/>
<path d="M9.57095 44.6856C9.57095 44.6856 9.13244 46.5521 7.44054 46.4004C7.44054 46.4004 6.11464 46.1534 6.22513 44.3998C6.22513 44.3998 5.07878 45.663 4.0809 45.0913C3.08303 44.5197 3.55262 42.8472 4.12579 42.3709C4.12579 42.3709 1.86417 43.2107 1.51197 41.5876C1.15978 39.9645 2.98635 39.5234 2.98635 39.5234C2.98635 39.5234 0.918083 38.9589 1.15978 37.7063C1.40148 36.4537 3.30056 36.7077 3.30056 36.7077C3.30056 36.7077 1.65699 35.8186 1.95394 34.7212C2.25089 33.6239 4.4331 34.5236 4.4331 34.5236C4.4331 34.5236 3.68382 33.0099 4.78874 32.6147C5.89366 32.2231 6.61185 32.6535 6.98476 33.5462C6.98476 33.5462 6.99857 31.5209 8.51092 31.6338C8.51092 31.6338 9.5744 31.7008 9.67799 32.9993C9.67799 32.9993 10.9003 31.468 11.8015 32.2442C12.7027 33.0205 12.0087 34.3295 12.0087 34.3295C12.0087 34.3295 13.3173 33.3522 14.0217 34.3331C14.7261 35.3175 13.6557 36.3125 13.6557 36.3125C13.6557 36.3125 15.4408 35.748 15.6963 36.99C15.9518 38.2356 14.3877 38.7578 14.3877 38.7578C14.3877 38.7578 16.1245 39.1353 15.9 40.3456C15.6756 41.5558 13.9423 41.4853 13.9423 41.4853C13.9423 41.4853 15.2785 42.5509 14.5672 43.4224C13.856 44.2904 12.1192 43.7117 12.1192 43.7117C12.1192 43.7117 13.3518 45.4654 11.9051 45.8429C10.4583 46.2205 9.5675 44.6856 9.5675 44.6856H9.57095Z" fill="#FFE800"/>
<mask id="path-29-outside-1_40_8015" maskUnits="userSpaceOnUse" x="0.140137" y="31.4092" width="16" height="16" fill="black">
<rect fill="white" x="0.140137" y="31.4092" width="16" height="16"/>
<path d="M8.39148 31.6292C8.01957 31.6292 7.70127 31.7524 7.44663 31.992C7.13838 32.2829 6.97755 32.697 6.89714 33.046C6.41801 32.4472 5.70099 32.2829 4.8265 32.5943C4.50819 32.7072 4.29041 32.9092 4.17984 33.1966C4.03912 33.5559 4.09943 33.9769 4.18654 34.2883C3.68731 34.1377 2.89993 33.97 2.39065 34.2267C2.16281 34.3431 2.00534 34.5347 1.93832 34.7845C1.73729 35.5237 2.27003 36.1534 2.73575 36.5435C2.1226 36.6017 1.33188 36.8447 1.16435 37.7002C0.980068 38.6516 1.88807 39.23 2.52132 39.514C1.90147 39.8425 1.27492 40.4962 1.50275 41.5605C1.59657 41.9883 1.81435 42.3031 2.15946 42.4947C2.63524 42.7617 3.25174 42.7274 3.70741 42.6453C3.50638 43.0457 3.39581 43.5454 3.43267 43.98C3.47623 44.4933 3.70741 44.8834 4.10278 45.1093C4.8466 45.5337 5.63063 45.0853 6.0796 44.7329C6.22703 46.1565 7.41647 46.3995 7.42987 46.3995C8.63607 46.509 9.31623 45.6705 9.61108 44.9861C9.99639 45.4413 10.7838 46.136 11.8593 45.8553C12.2681 45.7492 12.5328 45.5337 12.6467 45.2085C12.8008 44.7808 12.6366 44.2743 12.4624 43.9115C13.0621 44.021 14.0338 44.0758 14.5565 43.4358C14.7508 43.1963 14.8346 42.9259 14.8044 42.6282C14.7642 42.2278 14.5163 41.8616 14.2918 41.605C14.8647 41.5228 15.7292 41.2525 15.8967 40.349C16.0508 39.5208 15.4142 38.9972 14.8111 38.7303C15.3372 38.4052 15.8699 37.8269 15.7024 37.0089C15.632 36.6702 15.4578 36.4135 15.1864 36.2492C14.8413 36.0439 14.4024 36.0268 14.0506 36.0644C14.322 35.599 14.4794 34.9556 14.0405 34.3465C13.7021 33.8742 13.1928 33.7202 12.5696 33.905C12.4791 33.9324 12.3954 33.9632 12.315 33.9974C12.4389 33.4567 12.4088 32.7654 11.8492 32.2829C11.6147 32.081 11.3433 31.9954 11.0418 32.0228C10.5459 32.0707 10.0735 32.4369 9.78196 32.7175C9.54072 31.9236 8.88736 31.66 8.5255 31.6395C8.48194 31.6395 8.43504 31.6361 8.39148 31.6361V31.6292ZM7.02781 33.9358C7.02781 33.9358 7.05461 33.9358 7.07136 33.9324C7.17188 33.9119 7.24559 33.8195 7.24894 33.7134C7.24894 33.7031 7.26235 32.7723 7.74482 32.3205C7.94251 32.1357 8.1871 32.057 8.49535 32.081C8.5322 32.081 9.34304 32.1597 9.4268 33.2C9.4335 33.2924 9.49381 33.3677 9.58092 33.3951C9.66469 33.4225 9.7585 33.3951 9.81546 33.3232C9.82216 33.3164 10.4655 32.5224 11.082 32.4643C11.2629 32.4472 11.4204 32.4985 11.5644 32.6217C12.2949 33.248 11.7186 34.3533 11.7119 34.367C11.6616 34.4594 11.6817 34.5723 11.7588 34.6408C11.8358 34.7092 11.9498 34.7161 12.0335 34.6545C12.0771 34.6203 13.1359 33.8503 13.682 34.61C14.2382 35.3868 13.3938 36.1979 13.357 36.2321C13.2833 36.304 13.2632 36.4169 13.3168 36.5093C13.3704 36.6017 13.4743 36.6428 13.5714 36.612C13.8194 36.5333 14.5498 36.3895 14.9619 36.6394C15.1261 36.7386 15.2266 36.8892 15.2702 37.1048C15.4745 38.1041 14.1578 38.5558 14.1444 38.5592C14.0506 38.59 13.9869 38.6824 13.9936 38.7851C14.0003 38.8843 14.0707 38.9699 14.1678 38.9938C14.1812 38.9938 15.6421 39.3292 15.4645 40.2703C15.2836 41.2422 13.8026 41.1943 13.7892 41.1943C13.692 41.1909 13.6083 41.2491 13.5748 41.3415C13.5413 41.4339 13.5714 41.5331 13.6451 41.5947C13.8294 41.7419 14.3186 42.2278 14.3655 42.683C14.3823 42.8575 14.3354 43.0115 14.2181 43.1552C13.7323 43.7507 12.506 43.5077 12.0771 43.364C11.9866 43.3332 11.8895 43.364 11.8325 43.4461C11.7755 43.5248 11.7755 43.6309 11.8325 43.7096C11.9967 43.9423 12.3853 44.637 12.2312 45.0648C12.1675 45.2428 12.0101 45.3625 11.7487 45.431C10.5191 45.7492 9.7317 44.4249 9.72165 44.4112C9.67474 44.3325 9.58763 44.2914 9.50051 44.3051C9.4134 44.3188 9.33969 44.3872 9.31958 44.4728C9.30283 44.5446 8.91417 46.0846 7.49688 45.9683C7.38297 45.9409 6.41466 45.6774 6.50177 44.264C6.50847 44.1682 6.45486 44.0826 6.3711 44.045C6.28734 44.0073 6.18682 44.0279 6.12316 44.0997C6.11311 44.11 5.11799 45.188 4.31051 44.7294C4.04582 44.5789 3.89504 44.3153 3.86489 43.9526C3.81463 43.3708 4.09943 42.6966 4.38757 42.4571C4.47134 42.3886 4.49144 42.2689 4.44118 42.173C4.38757 42.0772 4.27701 42.0362 4.17649 42.0738C4.16644 42.0772 3.0306 42.4879 2.36719 42.1149C2.13601 41.9848 1.99528 41.7761 1.92827 41.4749C1.64013 40.1368 3.13447 39.7536 3.19813 39.7364C3.2953 39.7125 3.36566 39.6235 3.36566 39.5208C3.36566 39.4182 3.302 39.3292 3.20483 39.3018C3.18808 39.2984 1.39889 38.7919 1.59322 37.7995C1.78755 36.807 3.40921 37.0055 3.42597 37.0089C3.52983 37.0226 3.63035 36.9576 3.66386 36.8549C3.69736 36.7523 3.65045 36.6394 3.55664 36.588C3.54324 36.5812 2.11925 35.7975 2.35714 34.918C2.39065 34.7879 2.46436 34.699 2.58163 34.6408C3.06746 34.3944 4.10948 34.7263 4.47134 34.8769C4.5551 34.9111 4.65227 34.8906 4.71593 34.8222C4.77624 34.7537 4.79299 34.6545 4.74943 34.5689C4.65227 34.3704 4.43113 33.7681 4.58526 33.378C4.64892 33.2137 4.77624 33.1008 4.97057 33.0324C5.85511 32.7175 6.48167 32.981 6.82677 33.8126C6.86028 33.8947 6.94069 33.9495 7.02781 33.9495V33.9358Z"/>
</mask>
<path d="M8.39148 31.6292C8.01957 31.6292 7.70127 31.7524 7.44663 31.992C7.13838 32.2829 6.97755 32.697 6.89714 33.046C6.41801 32.4472 5.70099 32.2829 4.8265 32.5943C4.50819 32.7072 4.29041 32.9092 4.17984 33.1966C4.03912 33.5559 4.09943 33.9769 4.18654 34.2883C3.68731 34.1377 2.89993 33.97 2.39065 34.2267C2.16281 34.3431 2.00534 34.5347 1.93832 34.7845C1.73729 35.5237 2.27003 36.1534 2.73575 36.5435C2.1226 36.6017 1.33188 36.8447 1.16435 37.7002C0.980068 38.6516 1.88807 39.23 2.52132 39.514C1.90147 39.8425 1.27492 40.4962 1.50275 41.5605C1.59657 41.9883 1.81435 42.3031 2.15946 42.4947C2.63524 42.7617 3.25174 42.7274 3.70741 42.6453C3.50638 43.0457 3.39581 43.5454 3.43267 43.98C3.47623 44.4933 3.70741 44.8834 4.10278 45.1093C4.8466 45.5337 5.63063 45.0853 6.0796 44.7329C6.22703 46.1565 7.41647 46.3995 7.42987 46.3995C8.63607 46.509 9.31623 45.6705 9.61108 44.9861C9.99639 45.4413 10.7838 46.136 11.8593 45.8553C12.2681 45.7492 12.5328 45.5337 12.6467 45.2085C12.8008 44.7808 12.6366 44.2743 12.4624 43.9115C13.0621 44.021 14.0338 44.0758 14.5565 43.4358C14.7508 43.1963 14.8346 42.9259 14.8044 42.6282C14.7642 42.2278 14.5163 41.8616 14.2918 41.605C14.8647 41.5228 15.7292 41.2525 15.8967 40.349C16.0508 39.5208 15.4142 38.9972 14.8111 38.7303C15.3372 38.4052 15.8699 37.8269 15.7024 37.0089C15.632 36.6702 15.4578 36.4135 15.1864 36.2492C14.8413 36.0439 14.4024 36.0268 14.0506 36.0644C14.322 35.599 14.4794 34.9556 14.0405 34.3465C13.7021 33.8742 13.1928 33.7202 12.5696 33.905C12.4791 33.9324 12.3954 33.9632 12.315 33.9974C12.4389 33.4567 12.4088 32.7654 11.8492 32.2829C11.6147 32.081 11.3433 31.9954 11.0418 32.0228C10.5459 32.0707 10.0735 32.4369 9.78196 32.7175C9.54072 31.9236 8.88736 31.66 8.5255 31.6395C8.48194 31.6395 8.43504 31.6361 8.39148 31.6361V31.6292ZM7.02781 33.9358C7.02781 33.9358 7.05461 33.9358 7.07136 33.9324C7.17188 33.9119 7.24559 33.8195 7.24894 33.7134C7.24894 33.7031 7.26235 32.7723 7.74482 32.3205C7.94251 32.1357 8.1871 32.057 8.49535 32.081C8.5322 32.081 9.34304 32.1597 9.4268 33.2C9.4335 33.2924 9.49381 33.3677 9.58092 33.3951C9.66469 33.4225 9.7585 33.3951 9.81546 33.3232C9.82216 33.3164 10.4655 32.5224 11.082 32.4643C11.2629 32.4472 11.4204 32.4985 11.5644 32.6217C12.2949 33.248 11.7186 34.3533 11.7119 34.367C11.6616 34.4594 11.6817 34.5723 11.7588 34.6408C11.8358 34.7092 11.9498 34.7161 12.0335 34.6545C12.0771 34.6203 13.1359 33.8503 13.682 34.61C14.2382 35.3868 13.3938 36.1979 13.357 36.2321C13.2833 36.304 13.2632 36.4169 13.3168 36.5093C13.3704 36.6017 13.4743 36.6428 13.5714 36.612C13.8194 36.5333 14.5498 36.3895 14.9619 36.6394C15.1261 36.7386 15.2266 36.8892 15.2702 37.1048C15.4745 38.1041 14.1578 38.5558 14.1444 38.5592C14.0506 38.59 13.9869 38.6824 13.9936 38.7851C14.0003 38.8843 14.0707 38.9699 14.1678 38.9938C14.1812 38.9938 15.6421 39.3292 15.4645 40.2703C15.2836 41.2422 13.8026 41.1943 13.7892 41.1943C13.692 41.1909 13.6083 41.2491 13.5748 41.3415C13.5413 41.4339 13.5714 41.5331 13.6451 41.5947C13.8294 41.7419 14.3186 42.2278 14.3655 42.683C14.3823 42.8575 14.3354 43.0115 14.2181 43.1552C13.7323 43.7507 12.506 43.5077 12.0771 43.364C11.9866 43.3332 11.8895 43.364 11.8325 43.4461C11.7755 43.5248 11.7755 43.6309 11.8325 43.7096C11.9967 43.9423 12.3853 44.637 12.2312 45.0648C12.1675 45.2428 12.0101 45.3625 11.7487 45.431C10.5191 45.7492 9.7317 44.4249 9.72165 44.4112C9.67474 44.3325 9.58763 44.2914 9.50051 44.3051C9.4134 44.3188 9.33969 44.3872 9.31958 44.4728C9.30283 44.5446 8.91417 46.0846 7.49688 45.9683C7.38297 45.9409 6.41466 45.6774 6.50177 44.264C6.50847 44.1682 6.45486 44.0826 6.3711 44.045C6.28734 44.0073 6.18682 44.0279 6.12316 44.0997C6.11311 44.11 5.11799 45.188 4.31051 44.7294C4.04582 44.5789 3.89504 44.3153 3.86489 43.9526C3.81463 43.3708 4.09943 42.6966 4.38757 42.4571C4.47134 42.3886 4.49144 42.2689 4.44118 42.173C4.38757 42.0772 4.27701 42.0362 4.17649 42.0738C4.16644 42.0772 3.0306 42.4879 2.36719 42.1149C2.13601 41.9848 1.99528 41.7761 1.92827 41.4749C1.64013 40.1368 3.13447 39.7536 3.19813 39.7364C3.2953 39.7125 3.36566 39.6235 3.36566 39.5208C3.36566 39.4182 3.302 39.3292 3.20483 39.3018C3.18808 39.2984 1.39889 38.7919 1.59322 37.7995C1.78755 36.807 3.40921 37.0055 3.42597 37.0089C3.52983 37.0226 3.63035 36.9576 3.66386 36.8549C3.69736 36.7523 3.65045 36.6394 3.55664 36.588C3.54324 36.5812 2.11925 35.7975 2.35714 34.918C2.39065 34.7879 2.46436 34.699 2.58163 34.6408C3.06746 34.3944 4.10948 34.7263 4.47134 34.8769C4.5551 34.9111 4.65227 34.8906 4.71593 34.8222C4.77624 34.7537 4.79299 34.6545 4.74943 34.5689C4.65227 34.3704 4.43113 33.7681 4.58526 33.378C4.64892 33.2137 4.77624 33.1008 4.97057 33.0324C5.85511 32.7175 6.48167 32.981 6.82677 33.8126C6.86028 33.8947 6.94069 33.9495 7.02781 33.9495V33.9358Z" fill="black"/>
<path d="M8.39148 31.6292C8.01957 31.6292 7.70127 31.7524 7.44663 31.992C7.13838 32.2829 6.97755 32.697 6.89714 33.046C6.41801 32.4472 5.70099 32.2829 4.8265 32.5943C4.50819 32.7072 4.29041 32.9092 4.17984 33.1966C4.03912 33.5559 4.09943 33.9769 4.18654 34.2883C3.68731 34.1377 2.89993 33.97 2.39065 34.2267C2.16281 34.3431 2.00534 34.5347 1.93832 34.7845C1.73729 35.5237 2.27003 36.1534 2.73575 36.5435C2.1226 36.6017 1.33188 36.8447 1.16435 37.7002C0.980068 38.6516 1.88807 39.23 2.52132 39.514C1.90147 39.8425 1.27492 40.4962 1.50275 41.5605C1.59657 41.9883 1.81435 42.3031 2.15946 42.4947C2.63524 42.7617 3.25174 42.7274 3.70741 42.6453C3.50638 43.0457 3.39581 43.5454 3.43267 43.98C3.47623 44.4933 3.70741 44.8834 4.10278 45.1093C4.8466 45.5337 5.63063 45.0853 6.0796 44.7329C6.22703 46.1565 7.41647 46.3995 7.42987 46.3995C8.63607 46.509 9.31623 45.6705 9.61108 44.9861C9.99639 45.4413 10.7838 46.136 11.8593 45.8553C12.2681 45.7492 12.5328 45.5337 12.6467 45.2085C12.8008 44.7808 12.6366 44.2743 12.4624 43.9115C13.0621 44.021 14.0338 44.0758 14.5565 43.4358C14.7508 43.1963 14.8346 42.9259 14.8044 42.6282C14.7642 42.2278 14.5163 41.8616 14.2918 41.605C14.8647 41.5228 15.7292 41.2525 15.8967 40.349C16.0508 39.5208 15.4142 38.9972 14.8111 38.7303C15.3372 38.4052 15.8699 37.8269 15.7024 37.0089C15.632 36.6702 15.4578 36.4135 15.1864 36.2492C14.8413 36.0439 14.4024 36.0268 14.0506 36.0644C14.322 35.599 14.4794 34.9556 14.0405 34.3465C13.7021 33.8742 13.1928 33.7202 12.5696 33.905C12.4791 33.9324 12.3954 33.9632 12.315 33.9974C12.4389 33.4567 12.4088 32.7654 11.8492 32.2829C11.6147 32.081 11.3433 31.9954 11.0418 32.0228C10.5459 32.0707 10.0735 32.4369 9.78196 32.7175C9.54072 31.9236 8.88736 31.66 8.5255 31.6395C8.48194 31.6395 8.43504 31.6361 8.39148 31.6361V31.6292ZM7.02781 33.9358C7.02781 33.9358 7.05461 33.9358 7.07136 33.9324C7.17188 33.9119 7.24559 33.8195 7.24894 33.7134C7.24894 33.7031 7.26235 32.7723 7.74482 32.3205C7.94251 32.1357 8.1871 32.057 8.49535 32.081C8.5322 32.081 9.34304 32.1597 9.4268 33.2C9.4335 33.2924 9.49381 33.3677 9.58092 33.3951C9.66469 33.4225 9.7585 33.3951 9.81546 33.3232C9.82216 33.3164 10.4655 32.5224 11.082 32.4643C11.2629 32.4472 11.4204 32.4985 11.5644 32.6217C12.2949 33.248 11.7186 34.3533 11.7119 34.367C11.6616 34.4594 11.6817 34.5723 11.7588 34.6408C11.8358 34.7092 11.9498 34.7161 12.0335 34.6545C12.0771 34.6203 13.1359 33.8503 13.682 34.61C14.2382 35.3868 13.3938 36.1979 13.357 36.2321C13.2833 36.304 13.2632 36.4169 13.3168 36.5093C13.3704 36.6017 13.4743 36.6428 13.5714 36.612C13.8194 36.5333 14.5498 36.3895 14.9619 36.6394C15.1261 36.7386 15.2266 36.8892 15.2702 37.1048C15.4745 38.1041 14.1578 38.5558 14.1444 38.5592C14.0506 38.59 13.9869 38.6824 13.9936 38.7851C14.0003 38.8843 14.0707 38.9699 14.1678 38.9938C14.1812 38.9938 15.6421 39.3292 15.4645 40.2703C15.2836 41.2422 13.8026 41.1943 13.7892 41.1943C13.692 41.1909 13.6083 41.2491 13.5748 41.3415C13.5413 41.4339 13.5714 41.5331 13.6451 41.5947C13.8294 41.7419 14.3186 42.2278 14.3655 42.683C14.3823 42.8575 14.3354 43.0115 14.2181 43.1552C13.7323 43.7507 12.506 43.5077 12.0771 43.364C11.9866 43.3332 11.8895 43.364 11.8325 43.4461C11.7755 43.5248 11.7755 43.6309 11.8325 43.7096C11.9967 43.9423 12.3853 44.637 12.2312 45.0648C12.1675 45.2428 12.0101 45.3625 11.7487 45.431C10.5191 45.7492 9.7317 44.4249 9.72165 44.4112C9.67474 44.3325 9.58763 44.2914 9.50051 44.3051C9.4134 44.3188 9.33969 44.3872 9.31958 44.4728C9.30283 44.5446 8.91417 46.0846 7.49688 45.9683C7.38297 45.9409 6.41466 45.6774 6.50177 44.264C6.50847 44.1682 6.45486 44.0826 6.3711 44.045C6.28734 44.0073 6.18682 44.0279 6.12316 44.0997C6.11311 44.11 5.11799 45.188 4.31051 44.7294C4.04582 44.5789 3.89504 44.3153 3.86489 43.9526C3.81463 43.3708 4.09943 42.6966 4.38757 42.4571C4.47134 42.3886 4.49144 42.2689 4.44118 42.173C4.38757 42.0772 4.27701 42.0362 4.17649 42.0738C4.16644 42.0772 3.0306 42.4879 2.36719 42.1149C2.13601 41.9848 1.99528 41.7761 1.92827 41.4749C1.64013 40.1368 3.13447 39.7536 3.19813 39.7364C3.2953 39.7125 3.36566 39.6235 3.36566 39.5208C3.36566 39.4182 3.302 39.3292 3.20483 39.3018C3.18808 39.2984 1.39889 38.7919 1.59322 37.7995C1.78755 36.807 3.40921 37.0055 3.42597 37.0089C3.52983 37.0226 3.63035 36.9576 3.66386 36.8549C3.69736 36.7523 3.65045 36.6394 3.55664 36.588C3.54324 36.5812 2.11925 35.7975 2.35714 34.918C2.39065 34.7879 2.46436 34.699 2.58163 34.6408C3.06746 34.3944 4.10948 34.7263 4.47134 34.8769C4.5551 34.9111 4.65227 34.8906 4.71593 34.8222C4.77624 34.7537 4.79299 34.6545 4.74943 34.5689C4.65227 34.3704 4.43113 33.7681 4.58526 33.378C4.64892 33.2137 4.77624 33.1008 4.97057 33.0324C5.85511 32.7175 6.48167 32.981 6.82677 33.8126C6.86028 33.8947 6.94069 33.9495 7.02781 33.9495V33.9358Z" stroke="black" stroke-width="0.4" mask="url(#path-29-outside-1_40_8015)"/>
<path d="M70.5298 44.6856C70.5298 44.6856 71.0082 46.5521 72.8539 46.4004C72.8539 46.4004 74.3003 46.1534 74.1798 44.3998C74.1798 44.3998 75.4304 45.663 76.519 45.0913C77.6076 44.5197 77.0953 42.8472 76.47 42.3709C76.47 42.3709 78.9372 43.2107 79.3214 41.5876C79.7056 39.9645 77.713 39.5234 77.713 39.5234C77.713 39.5234 79.9693 38.9589 79.7056 37.7063C79.442 36.4537 77.3703 36.7077 77.3703 36.7077C77.3703 36.7077 79.1632 35.8186 78.8393 34.7212C78.5154 33.6239 76.1348 34.5236 76.1348 34.5236C76.1348 34.5236 76.9521 33.0099 75.7468 32.6147C74.5414 32.2195 73.7579 32.6535 73.3511 33.5462C73.3511 33.5462 73.3361 31.5209 71.6862 31.6338C71.6862 31.6338 70.5261 31.7008 70.4131 32.9993C70.4131 32.9993 69.0796 31.468 68.0965 32.2442C67.1134 33.0205 67.8705 34.3295 67.8705 34.3295C67.8705 34.3295 66.4429 33.3522 65.6745 34.3331C64.9061 35.314 66.0737 36.3125 66.0737 36.3125C66.0737 36.3125 64.1263 35.748 63.8476 36.99C63.5689 38.2356 65.2752 38.7578 65.2752 38.7578C65.2752 38.7578 63.3805 39.1353 63.6254 40.3456C63.8702 41.5558 65.7611 41.4853 65.7611 41.4853C65.7611 41.4853 64.3034 42.5509 65.0793 43.4224C65.8553 44.2904 67.75 43.7117 67.75 43.7117C67.75 43.7117 66.4052 45.4654 67.9835 45.8429C69.5618 46.2205 70.5336 44.6856 70.5336 44.6856H70.5298Z" fill="#FFE800"/>
<mask id="path-31-outside-2_40_8015" maskUnits="userSpaceOnUse" x="62.6035" y="31.4092" width="18" height="16" fill="black">
<rect fill="white" x="62.6035" y="31.4092" width="18" height="16"/>
<path d="M71.8124 31.6361C71.7649 31.6361 71.7174 31.6361 71.6663 31.6395C71.2752 31.6635 70.5625 31.9235 70.2993 32.7173C69.9777 32.4367 69.466 32.0706 68.925 32.0227C68.5961 31.9953 68.3 32.0809 68.0442 32.2827C67.4338 32.7652 67.4046 33.4563 67.5361 33.9969C67.4484 33.9626 67.3571 33.9319 67.2584 33.9045C66.5785 33.7232 66.023 33.8737 65.6538 34.3458C65.1787 34.9549 65.3468 35.5981 65.6429 36.0634C65.2591 36.0292 64.7767 36.0429 64.4038 36.2481C64.1041 36.4124 63.9141 36.669 63.841 37.0077C63.6582 37.8288 64.2357 38.4036 64.8132 38.7287C64.1553 38.9955 63.4609 39.5156 63.629 40.347C63.8117 41.2502 64.7547 41.524 65.3797 41.6027C65.1348 41.8593 64.868 42.2254 64.8205 42.6257C64.7876 42.9233 64.879 43.1936 65.091 43.4331C65.6612 44.0729 66.7211 44.0182 67.3753 43.9087C67.1853 44.2714 67.0062 44.7777 67.1743 45.2054C67.2986 45.527 67.5873 45.746 68.0332 45.852C69.2065 46.1326 70.069 45.4381 70.4857 44.983C70.8073 45.6707 71.542 46.509 72.8431 46.3995C72.876 46.396 74.1772 46.1531 74.338 44.7298C74.8278 45.0856 75.683 45.5304 76.4944 45.1062C76.9257 44.8804 77.1779 44.4903 77.2254 43.9771C77.2656 43.5426 77.145 43.0431 76.9257 42.6428C77.4228 42.7249 78.0953 42.7591 78.6143 42.4922C78.9871 42.3006 79.2284 41.9859 79.3307 41.5582C79.5829 40.4941 78.8958 39.8406 78.2196 39.5122C78.9104 39.2282 79.9045 38.65 79.6999 37.6988C79.5171 36.8469 78.6545 36.6006 77.9857 36.5424C78.4974 36.1524 79.0749 35.5228 78.8556 34.7838C78.7825 34.534 78.6107 34.339 78.3621 34.2261C77.8066 33.9695 76.944 34.1371 76.4031 34.2877C76.4981 33.9729 76.5639 33.5555 76.4104 33.1963C76.2861 32.9089 76.0485 32.707 75.705 32.5941C74.751 32.2827 73.9689 32.4435 73.4462 33.0457C73.3585 32.6967 73.1831 32.2827 72.8468 31.9919C72.5654 31.749 72.2218 31.6292 71.8161 31.6292L71.8124 31.6361ZM70.4455 33.4118C70.4674 33.4118 70.493 33.4118 70.5149 33.4015C70.6063 33.3742 70.6758 33.2989 70.6831 33.2065C70.7781 32.1527 71.6589 32.0877 71.6955 32.0877C72.0354 32.0638 72.3022 32.1425 72.5179 32.3272C73.0442 32.7823 73.0588 33.7129 73.0588 33.7197C73.0588 33.8258 73.1392 33.9147 73.2525 33.9387C73.3658 33.9592 73.4755 33.9045 73.5193 33.8053C73.8958 32.9739 74.5793 32.7104 75.5442 33.0252C75.7562 33.0936 75.895 33.2065 75.9645 33.3707C76.1326 33.7642 75.8914 34.363 75.7854 34.5614C75.7415 34.6435 75.7561 34.7462 75.8219 34.8146C75.8877 34.883 75.9937 34.907 76.0887 34.8693C76.4835 34.7222 77.6202 34.3903 78.1501 34.6332C78.2781 34.6914 78.3585 34.7804 78.395 34.9104C78.6509 35.7794 77.1048 36.5732 77.0866 36.58C76.9842 36.6313 76.9367 36.7408 76.9696 36.8469C77.0061 36.9495 77.1121 37.0145 77.2291 37.0009C77.2474 37.0009 79.0164 36.799 79.2284 37.7912C79.4403 38.7834 77.4886 39.2898 77.4703 39.2932C77.3643 39.3206 77.2912 39.4095 77.2949 39.5122C77.2949 39.6148 77.3716 39.7038 77.4776 39.7277C77.5471 39.7448 79.1772 40.128 78.8629 41.4658C78.7934 41.7669 78.6363 41.9756 78.3841 42.1056C77.6604 42.4785 76.425 42.068 76.4104 42.0645C76.3007 42.0269 76.1801 42.0714 76.1216 42.1638C76.0632 42.2561 76.0887 42.3793 76.1801 42.4477C76.4944 42.6872 76.8051 43.3578 76.7503 43.9429C76.7174 44.3056 76.5529 44.5656 76.2642 44.7196C75.3833 45.178 74.2978 44.1003 74.2869 44.09C74.2174 44.0216 74.1114 44.0011 74.0164 44.0353C73.925 44.0729 73.8665 44.1619 73.8738 44.2542C73.9725 45.7357 72.8285 45.9513 72.781 45.9581C71.2423 46.0813 70.8183 44.528 70.8 44.463C70.7781 44.374 70.6977 44.309 70.6027 44.2953C70.5076 44.2816 70.4126 44.3227 70.3614 44.4014C70.3249 44.4561 69.4879 45.7391 68.1502 45.4209C67.8651 45.3525 67.6897 45.2328 67.6239 45.0549C67.4594 44.6272 67.8834 43.9326 68.0625 43.7C68.1246 43.6213 68.1209 43.5152 68.0625 43.4365C68.0003 43.3578 67.8943 43.327 67.7956 43.3544C67.7774 43.3578 66.0997 43.8608 65.4601 43.1457C65.3322 43.002 65.281 42.848 65.2993 42.6736C65.3505 42.2185 65.8841 41.7361 66.0851 41.5855C66.1655 41.5274 66.1984 41.4247 66.1619 41.3324C66.1253 41.24 66.0303 41.1887 65.928 41.1852C65.9097 41.1852 64.2942 41.2297 64.1005 40.2615C63.9068 39.3137 65.5003 38.9853 65.515 38.9853C65.621 38.9647 65.6977 38.8792 65.705 38.78C65.7123 38.6808 65.6429 38.5884 65.5405 38.5542C65.4821 38.5371 64.0895 38.0957 64.3125 37.1001C64.36 36.8845 64.4696 36.734 64.6524 36.6348C65.1056 36.385 65.9024 36.5321 66.1692 36.6074C66.2752 36.6382 66.3921 36.5971 66.447 36.5048C66.5018 36.4124 66.4835 36.2995 66.3995 36.2276C66.3593 36.1934 65.4382 35.3825 66.0449 34.6059C66.637 33.8463 67.792 34.6161 67.8432 34.6504C67.9345 34.7119 68.0588 34.7051 68.1429 34.6367C68.2269 34.5682 68.2489 34.4553 68.194 34.363C68.1685 34.3185 67.5654 33.2442 68.3549 32.618C68.512 32.4949 68.6802 32.4435 68.8812 32.4607C69.444 32.5085 70.069 33.097 70.2627 33.3194C70.3103 33.3707 70.3761 33.4015 70.4492 33.4015L70.4455 33.4118Z"/>
</mask>
<path d="M71.8124 31.6361C71.7649 31.6361 71.7174 31.6361 71.6663 31.6395C71.2752 31.6635 70.5625 31.9235 70.2993 32.7173C69.9777 32.4367 69.466 32.0706 68.925 32.0227C68.5961 31.9953 68.3 32.0809 68.0442 32.2827C67.4338 32.7652 67.4046 33.4563 67.5361 33.9969C67.4484 33.9626 67.3571 33.9319 67.2584 33.9045C66.5785 33.7232 66.023 33.8737 65.6538 34.3458C65.1787 34.9549 65.3468 35.5981 65.6429 36.0634C65.2591 36.0292 64.7767 36.0429 64.4038 36.2481C64.1041 36.4124 63.9141 36.669 63.841 37.0077C63.6582 37.8288 64.2357 38.4036 64.8132 38.7287C64.1553 38.9955 63.4609 39.5156 63.629 40.347C63.8117 41.2502 64.7547 41.524 65.3797 41.6027C65.1348 41.8593 64.868 42.2254 64.8205 42.6257C64.7876 42.9233 64.879 43.1936 65.091 43.4331C65.6612 44.0729 66.7211 44.0182 67.3753 43.9087C67.1853 44.2714 67.0062 44.7777 67.1743 45.2054C67.2986 45.527 67.5873 45.746 68.0332 45.852C69.2065 46.1326 70.069 45.4381 70.4857 44.983C70.8073 45.6707 71.542 46.509 72.8431 46.3995C72.876 46.396 74.1772 46.1531 74.338 44.7298C74.8278 45.0856 75.683 45.5304 76.4944 45.1062C76.9257 44.8804 77.1779 44.4903 77.2254 43.9771C77.2656 43.5426 77.145 43.0431 76.9257 42.6428C77.4228 42.7249 78.0953 42.7591 78.6143 42.4922C78.9871 42.3006 79.2284 41.9859 79.3307 41.5582C79.5829 40.4941 78.8958 39.8406 78.2196 39.5122C78.9104 39.2282 79.9045 38.65 79.6999 37.6988C79.5171 36.8469 78.6545 36.6006 77.9857 36.5424C78.4974 36.1524 79.0749 35.5228 78.8556 34.7838C78.7825 34.534 78.6107 34.339 78.3621 34.2261C77.8066 33.9695 76.944 34.1371 76.4031 34.2877C76.4981 33.9729 76.5639 33.5555 76.4104 33.1963C76.2861 32.9089 76.0485 32.707 75.705 32.5941C74.751 32.2827 73.9689 32.4435 73.4462 33.0457C73.3585 32.6967 73.1831 32.2827 72.8468 31.9919C72.5654 31.749 72.2218 31.6292 71.8161 31.6292L71.8124 31.6361ZM70.4455 33.4118C70.4674 33.4118 70.493 33.4118 70.5149 33.4015C70.6063 33.3742 70.6758 33.2989 70.6831 33.2065C70.7781 32.1527 71.6589 32.0877 71.6955 32.0877C72.0354 32.0638 72.3022 32.1425 72.5179 32.3272C73.0442 32.7823 73.0588 33.7129 73.0588 33.7197C73.0588 33.8258 73.1392 33.9147 73.2525 33.9387C73.3658 33.9592 73.4755 33.9045 73.5193 33.8053C73.8958 32.9739 74.5793 32.7104 75.5442 33.0252C75.7562 33.0936 75.895 33.2065 75.9645 33.3707C76.1326 33.7642 75.8914 34.363 75.7854 34.5614C75.7415 34.6435 75.7561 34.7462 75.8219 34.8146C75.8877 34.883 75.9937 34.907 76.0887 34.8693C76.4835 34.7222 77.6202 34.3903 78.1501 34.6332C78.2781 34.6914 78.3585 34.7804 78.395 34.9104C78.6509 35.7794 77.1048 36.5732 77.0866 36.58C76.9842 36.6313 76.9367 36.7408 76.9696 36.8469C77.0061 36.9495 77.1121 37.0145 77.2291 37.0009C77.2474 37.0009 79.0164 36.799 79.2284 37.7912C79.4403 38.7834 77.4886 39.2898 77.4703 39.2932C77.3643 39.3206 77.2912 39.4095 77.2949 39.5122C77.2949 39.6148 77.3716 39.7038 77.4776 39.7277C77.5471 39.7448 79.1772 40.128 78.8629 41.4658C78.7934 41.7669 78.6363 41.9756 78.3841 42.1056C77.6604 42.4785 76.425 42.068 76.4104 42.0645C76.3007 42.0269 76.1801 42.0714 76.1216 42.1638C76.0632 42.2561 76.0887 42.3793 76.1801 42.4477C76.4944 42.6872 76.8051 43.3578 76.7503 43.9429C76.7174 44.3056 76.5529 44.5656 76.2642 44.7196C75.3833 45.178 74.2978 44.1003 74.2869 44.09C74.2174 44.0216 74.1114 44.0011 74.0164 44.0353C73.925 44.0729 73.8665 44.1619 73.8738 44.2542C73.9725 45.7357 72.8285 45.9513 72.781 45.9581C71.2423 46.0813 70.8183 44.528 70.8 44.463C70.7781 44.374 70.6977 44.309 70.6027 44.2953C70.5076 44.2816 70.4126 44.3227 70.3614 44.4014C70.3249 44.4561 69.4879 45.7391 68.1502 45.4209C67.8651 45.3525 67.6897 45.2328 67.6239 45.0549C67.4594 44.6272 67.8834 43.9326 68.0625 43.7C68.1246 43.6213 68.1209 43.5152 68.0625 43.4365C68.0003 43.3578 67.8943 43.327 67.7956 43.3544C67.7774 43.3578 66.0997 43.8608 65.4601 43.1457C65.3322 43.002 65.281 42.848 65.2993 42.6736C65.3505 42.2185 65.8841 41.7361 66.0851 41.5855C66.1655 41.5274 66.1984 41.4247 66.1619 41.3324C66.1253 41.24 66.0303 41.1887 65.928 41.1852C65.9097 41.1852 64.2942 41.2297 64.1005 40.2615C63.9068 39.3137 65.5003 38.9853 65.515 38.9853C65.621 38.9647 65.6977 38.8792 65.705 38.78C65.7123 38.6808 65.6429 38.5884 65.5405 38.5542C65.4821 38.5371 64.0895 38.0957 64.3125 37.1001C64.36 36.8845 64.4696 36.734 64.6524 36.6348C65.1056 36.385 65.9024 36.5321 66.1692 36.6074C66.2752 36.6382 66.3921 36.5971 66.447 36.5048C66.5018 36.4124 66.4835 36.2995 66.3995 36.2276C66.3593 36.1934 65.4382 35.3825 66.0449 34.6059C66.637 33.8463 67.792 34.6161 67.8432 34.6504C67.9345 34.7119 68.0588 34.7051 68.1429 34.6367C68.2269 34.5682 68.2489 34.4553 68.194 34.363C68.1685 34.3185 67.5654 33.2442 68.3549 32.618C68.512 32.4949 68.6802 32.4435 68.8812 32.4607C69.444 32.5085 70.069 33.097 70.2627 33.3194C70.3103 33.3707 70.3761 33.4015 70.4492 33.4015L70.4455 33.4118Z" fill="black"/>
<path d="M71.8124 31.6361C71.7649 31.6361 71.7174 31.6361 71.6663 31.6395C71.2752 31.6635 70.5625 31.9235 70.2993 32.7173C69.9777 32.4367 69.466 32.0706 68.925 32.0227C68.5961 31.9953 68.3 32.0809 68.0442 32.2827C67.4338 32.7652 67.4046 33.4563 67.5361 33.9969C67.4484 33.9626 67.3571 33.9319 67.2584 33.9045C66.5785 33.7232 66.023 33.8737 65.6538 34.3458C65.1787 34.9549 65.3468 35.5981 65.6429 36.0634C65.2591 36.0292 64.7767 36.0429 64.4038 36.2481C64.1041 36.4124 63.9141 36.669 63.841 37.0077C63.6582 37.8288 64.2357 38.4036 64.8132 38.7287C64.1553 38.9955 63.4609 39.5156 63.629 40.347C63.8117 41.2502 64.7547 41.524 65.3797 41.6027C65.1348 41.8593 64.868 42.2254 64.8205 42.6257C64.7876 42.9233 64.879 43.1936 65.091 43.4331C65.6612 44.0729 66.7211 44.0182 67.3753 43.9087C67.1853 44.2714 67.0062 44.7777 67.1743 45.2054C67.2986 45.527 67.5873 45.746 68.0332 45.852C69.2065 46.1326 70.069 45.4381 70.4857 44.983C70.8073 45.6707 71.542 46.509 72.8431 46.3995C72.876 46.396 74.1772 46.1531 74.338 44.7298C74.8278 45.0856 75.683 45.5304 76.4944 45.1062C76.9257 44.8804 77.1779 44.4903 77.2254 43.9771C77.2656 43.5426 77.145 43.0431 76.9257 42.6428C77.4228 42.7249 78.0953 42.7591 78.6143 42.4922C78.9871 42.3006 79.2284 41.9859 79.3307 41.5582C79.5829 40.4941 78.8958 39.8406 78.2196 39.5122C78.9104 39.2282 79.9045 38.65 79.6999 37.6988C79.5171 36.8469 78.6545 36.6006 77.9857 36.5424C78.4974 36.1524 79.0749 35.5228 78.8556 34.7838C78.7825 34.534 78.6107 34.339 78.3621 34.2261C77.8066 33.9695 76.944 34.1371 76.4031 34.2877C76.4981 33.9729 76.5639 33.5555 76.4104 33.1963C76.2861 32.9089 76.0485 32.707 75.705 32.5941C74.751 32.2827 73.9689 32.4435 73.4462 33.0457C73.3585 32.6967 73.1831 32.2827 72.8468 31.9919C72.5654 31.749 72.2218 31.6292 71.8161 31.6292L71.8124 31.6361ZM70.4455 33.4118C70.4674 33.4118 70.493 33.4118 70.5149 33.4015C70.6063 33.3742 70.6758 33.2989 70.6831 33.2065C70.7781 32.1527 71.6589 32.0877 71.6955 32.0877C72.0354 32.0638 72.3022 32.1425 72.5179 32.3272C73.0442 32.7823 73.0588 33.7129 73.0588 33.7197C73.0588 33.8258 73.1392 33.9147 73.2525 33.9387C73.3658 33.9592 73.4755 33.9045 73.5193 33.8053C73.8958 32.9739 74.5793 32.7104 75.5442 33.0252C75.7562 33.0936 75.895 33.2065 75.9645 33.3707C76.1326 33.7642 75.8914 34.363 75.7854 34.5614C75.7415 34.6435 75.7561 34.7462 75.8219 34.8146C75.8877 34.883 75.9937 34.907 76.0887 34.8693C76.4835 34.7222 77.6202 34.3903 78.1501 34.6332C78.2781 34.6914 78.3585 34.7804 78.395 34.9104C78.6509 35.7794 77.1048 36.5732 77.0866 36.58C76.9842 36.6313 76.9367 36.7408 76.9696 36.8469C77.0061 36.9495 77.1121 37.0145 77.2291 37.0009C77.2474 37.0009 79.0164 36.799 79.2284 37.7912C79.4403 38.7834 77.4886 39.2898 77.4703 39.2932C77.3643 39.3206 77.2912 39.4095 77.2949 39.5122C77.2949 39.6148 77.3716 39.7038 77.4776 39.7277C77.5471 39.7448 79.1772 40.128 78.8629 41.4658C78.7934 41.7669 78.6363 41.9756 78.3841 42.1056C77.6604 42.4785 76.425 42.068 76.4104 42.0645C76.3007 42.0269 76.1801 42.0714 76.1216 42.1638C76.0632 42.2561 76.0887 42.3793 76.1801 42.4477C76.4944 42.6872 76.8051 43.3578 76.7503 43.9429C76.7174 44.3056 76.5529 44.5656 76.2642 44.7196C75.3833 45.178 74.2978 44.1003 74.2869 44.09C74.2174 44.0216 74.1114 44.0011 74.0164 44.0353C73.925 44.0729 73.8665 44.1619 73.8738 44.2542C73.9725 45.7357 72.8285 45.9513 72.781 45.9581C71.2423 46.0813 70.8183 44.528 70.8 44.463C70.7781 44.374 70.6977 44.309 70.6027 44.2953C70.5076 44.2816 70.4126 44.3227 70.3614 44.4014C70.3249 44.4561 69.4879 45.7391 68.1502 45.4209C67.8651 45.3525 67.6897 45.2328 67.6239 45.0549C67.4594 44.6272 67.8834 43.9326 68.0625 43.7C68.1246 43.6213 68.1209 43.5152 68.0625 43.4365C68.0003 43.3578 67.8943 43.327 67.7956 43.3544C67.7774 43.3578 66.0997 43.8608 65.4601 43.1457C65.3322 43.002 65.281 42.848 65.2993 42.6736C65.3505 42.2185 65.8841 41.7361 66.0851 41.5855C66.1655 41.5274 66.1984 41.4247 66.1619 41.3324C66.1253 41.24 66.0303 41.1887 65.928 41.1852C65.9097 41.1852 64.2942 41.2297 64.1005 40.2615C63.9068 39.3137 65.5003 38.9853 65.515 38.9853C65.621 38.9647 65.6977 38.8792 65.705 38.78C65.7123 38.6808 65.6429 38.5884 65.5405 38.5542C65.4821 38.5371 64.0895 38.0957 64.3125 37.1001C64.36 36.8845 64.4696 36.734 64.6524 36.6348C65.1056 36.385 65.9024 36.5321 66.1692 36.6074C66.2752 36.6382 66.3921 36.5971 66.447 36.5048C66.5018 36.4124 66.4835 36.2995 66.3995 36.2276C66.3593 36.1934 65.4382 35.3825 66.0449 34.6059C66.637 33.8463 67.792 34.6161 67.8432 34.6504C67.9345 34.7119 68.0588 34.7051 68.1429 34.6367C68.2269 34.5682 68.2489 34.4553 68.194 34.363C68.1685 34.3185 67.5654 33.2442 68.3549 32.618C68.512 32.4949 68.6802 32.4435 68.8812 32.4607C69.444 32.5085 70.069 33.097 70.2627 33.3194C70.3103 33.3707 70.3761 33.4015 70.4492 33.4015L70.4455 33.4118Z" stroke="black" stroke-width="0.4" mask="url(#path-31-outside-2_40_8015)"/>
<path d="M57.9546 12.7383L59.3444 17.5111L64.2086 16.0009L62.2374 11.342L57.9546 12.7383Z" fill="#0095CC"/>
<path d="M59.3446 17.9813C59.2667 17.9813 59.1957 17.9599 59.1248 17.9243C59.0185 17.8673 58.9334 17.7675 58.8979 17.6464L57.5081 12.8736C57.4372 12.6314 57.572 12.3749 57.813 12.2966L62.103 10.9003C62.3299 10.8291 62.578 10.9359 62.6702 11.1639L64.6414 15.8228C64.6911 15.9439 64.6911 16.0792 64.6414 16.2003C64.5847 16.3214 64.4854 16.4069 64.3578 16.4497L59.4936 17.9599C59.451 17.9741 59.4014 17.9813 59.3588 17.9813H59.3446ZM58.5221 13.0446L59.6566 16.927L63.5849 15.7088L61.9824 11.919L58.5292 13.0446H58.5221Z" fill="black"/>
<path d="M6.48975 58.1445L7.87954 62.9174L12.7509 61.4072L10.7797 56.7483L6.48975 58.1445Z" fill="#289048"/>
<path d="M7.87931 63.3804C7.80132 63.3804 7.73041 63.359 7.6595 63.3234C7.55314 63.2664 7.46805 63.1667 7.4326 63.0455L6.04281 58.2727C5.9719 58.0305 6.10662 57.774 6.34771 57.6957L10.6376 56.2994C10.8645 56.2282 11.1127 56.3351 11.2049 56.563L13.1761 61.2219C13.2257 61.343 13.2257 61.4783 13.1761 61.5994C13.1194 61.7205 13.0201 61.806 12.8925 61.8488L8.02822 63.359C7.98567 63.3732 7.93604 63.3804 7.8935 63.3804H7.87931ZM7.05679 58.4437L8.19131 62.3261L12.1196 61.1079L10.5171 57.3181L7.06388 58.4437H7.05679Z" fill="black"/>
<path d="M17.3106 14.2556L14.999 18.4443L18.5869 20.1896L21.2531 14.9537L17.3106 14.2556Z" fill="#F065A5"/>
<path d="M18.5857 20.6598C18.5147 20.6598 18.4509 20.6456 18.3871 20.6099L14.7921 18.8646C14.6786 18.8077 14.5936 18.7079 14.551 18.5868C14.5156 18.4657 14.5227 18.3304 14.5865 18.2235L16.9051 14.0348C17.0044 13.8638 17.1959 13.7712 17.3944 13.7997L21.3369 14.4978C21.4787 14.5263 21.6063 14.6189 21.6701 14.7472C21.734 14.8825 21.734 15.0321 21.6701 15.1675L19.004 20.4034C18.9189 20.5672 18.7629 20.6598 18.5927 20.6598H18.5857ZM15.6359 18.2449L18.38 19.577L20.5569 15.3028L17.5575 14.7685L15.6359 18.2378V18.2449Z" fill="black"/>
<path d="M69.1893 58.6503L66.8706 62.839L70.4656 64.5843L73.1317 59.3484L69.1893 58.6503Z" fill="#B75CA3"/>
<path d="M70.465 65.0545C70.3941 65.0545 70.3303 65.0403 70.2665 65.0047L66.6715 63.2594C66.558 63.2024 66.473 63.1026 66.4304 62.9815C66.395 62.8604 66.402 62.7251 66.4659 62.6182L68.7845 58.4295C68.8838 58.2586 69.0753 58.1588 69.2738 58.1944L73.2163 58.8926C73.3581 58.921 73.4857 59.0137 73.5495 59.1419C73.6133 59.2772 73.6133 59.4268 73.5495 59.5622L70.8834 64.7981C70.7983 64.9619 70.6423 65.0545 70.4721 65.0545H70.465ZM67.5153 62.6396L70.2594 63.9717L72.4363 59.6975L69.4369 59.1633L67.5153 62.6325V62.6396Z" fill="black"/>
<path d="M29.0601 7.81223L33.4634 6.52997L35.2007 11.887L30.5633 13.1692L29.0601 7.81223Z" fill="#FFF200"/>
<path d="M30.5629 13.6323C30.3573 13.6323 30.1729 13.497 30.1162 13.2904L28.613 7.9334C28.5421 7.68407 28.6839 7.42762 28.9321 7.35638L33.3283 6.08837C33.5694 6.01713 33.8176 6.15248 33.8956 6.39468L35.6328 11.7517C35.6754 11.8728 35.6612 12.001 35.5974 12.115C35.5407 12.229 35.4343 12.3073 35.3137 12.3429L30.6764 13.6252C30.6338 13.6395 30.5913 13.6395 30.5558 13.6395L30.5629 13.6323ZM29.627 8.13286L30.882 12.5994L34.6047 11.5736L33.1582 7.10705L29.627 8.13286Z" fill="black"/>
</g>
<defs>
<clipPath id="clip0_40_8015">
<rect width="80" height="80" fill="white" transform="translate(0.755859)"/>
</clipPath>
</defs>
</svg>
