<svg width="81" height="80" viewBox="0 0 81 80" fill="none" xmlns="http://www.w3.org/2000/svg">
<g clip-path="url(#clip0_40_8060)">
<path d="M23.6948 22.8191C22.7665 22.2799 21.6213 21.8801 20.4037 21.8954L20.4034 21.8954C19.3477 21.9088 18.2535 22.1416 17.2516 22.6975L23.6948 22.8191ZM23.6948 22.8191C23.7102 22.8275 23.7254 22.8361 23.7405 22.845C24.9754 23.5744 26.132 24.7718 26.742 26.1576L26.7421 26.1579C27.3676 27.5796 27.4849 29.1049 27.2517 30.5453C27.1393 31.2402 26.9518 32.0177 26.7836 32.7149C26.6928 33.0913 26.6076 33.4443 26.543 33.7483C26.5036 33.9864 26.4811 34.2045 26.4773 34.4086C26.4877 34.4756 26.5011 34.5432 26.5175 34.6116C26.6449 34.9125 26.8215 35.2216 27.045 35.5679L27.0801 35.6194L27.1199 35.6776C27.4518 36.1581 27.8664 36.8568 27.8022 37.8547C27.7478 38.7002 27.3565 39.494 26.7202 40.0537C26.0839 40.6133 25.2458 40.901 24.3985 40.8486C24.0101 40.8246 23.5984 40.7234 23.2218 40.5525C22.8555 40.3863 22.407 40.101 22.0823 39.6307L23.6948 22.8191ZM13.5851 30.4997L13.585 30.4992C13.0933 28.5161 13.6695 26.3266 14.8538 24.7924L13.5851 30.4997ZM13.5851 30.4997C13.8424 31.5355 14.3415 32.5075 15.0807 33.3193L13.5851 30.4997ZM18.0214 35.2956L18.0213 35.2956C17.0022 34.8681 15.9484 34.2724 15.0808 33.3194L18.0214 35.2956ZM18.0214 35.2956C18.7621 35.6063 19.5137 35.5621 20.1455 35.3415M18.0214 35.2956L20.1455 35.3415M20.1455 35.3415C20.2413 36.0292 20.4254 36.6922 20.7196 37.3669L20.7199 37.3676C21.0719 38.1736 21.5768 38.9016 21.9766 39.478C22.0127 39.5301 22.048 39.5809 22.0822 39.6304L20.1455 35.3415ZM20.2602 29.2971L20.2574 29.296C20.2521 29.2937 20.2482 29.2921 20.2444 29.2905C20.1139 29.2191 19.9932 29.1435 19.8822 29.0634C19.8643 29.0445 19.8471 29.0257 19.8307 29.0071C19.8318 28.9901 19.8331 28.9732 19.8345 28.9563C19.8534 28.8928 19.8746 28.8302 19.8981 28.7683C19.9486 28.6828 20.0032 28.6001 20.0618 28.5201C20.1228 28.461 20.1857 28.4051 20.2505 28.3525C20.2863 28.3335 20.3227 28.3154 20.3598 28.2982C20.3673 28.3007 20.3748 28.3033 20.3823 28.3059C20.4552 28.3504 20.5276 28.3994 20.5995 28.453C20.6942 28.5463 20.7808 28.6416 20.8598 28.7395C20.8808 28.779 20.9004 28.8186 20.9189 28.8585C20.9322 28.9193 20.9436 28.982 20.9529 29.0466C20.9515 29.2346 20.9368 29.4307 20.9106 29.6381C20.6951 29.4976 20.474 29.3869 20.2602 29.2971ZM17.2511 22.6978C16.2664 23.244 15.5005 23.9546 14.854 24.7923L17.2511 22.6978Z" fill="white" stroke="#5B2390" stroke-width="3" stroke-linejoin="round"/>
<path d="M26.3283 38.9916C25.1012 40.0711 24.6168 42.085 25.873 43.5075C27.1288 44.9297 29.1918 44.7043 30.4194 43.6245C31.6468 42.5449 32.1307 40.5309 30.8744 39.1083C29.6177 37.6852 27.5553 37.9124 26.3283 38.9916Z" fill="white" stroke="#5B2390" stroke-width="3" stroke-linejoin="round"/>
<g clip-path="url(#clip1_40_8060)">
<path d="M64.726 49.503L78.352 34.2814L71.3642 35.0718L72.7388 25.6647L65.2084 29.2874L66.2333 19.8982L66.0404 19.7724L57.7804 24.4251L58.1422 16.1138L50.0027 21.0958L47.9649 14.4012L39.313 32.8802L64.726 49.503Z" fill="#FFF200"/>
<path d="M64.7261 49.9042C64.6477 49.9042 64.5754 49.8802 64.509 49.8383L39.102 33.2155C38.9332 33.1078 38.8729 32.8922 38.9573 32.7125L47.5971 14.2275C47.6695 14.0778 47.8263 13.988 47.989 14C48.1518 14.0119 48.2965 14.1257 48.3448 14.2814L50.2319 20.485L57.9312 15.7724C58.0578 15.6946 58.2146 15.6946 58.3472 15.7724C58.4738 15.8443 58.5522 15.988 58.5462 16.1317L58.2146 23.7245L65.8475 19.4251C65.9802 19.3533 66.1369 19.3592 66.2635 19.4371L66.4565 19.5628C66.5831 19.6467 66.6494 19.7904 66.6373 19.9401L65.6908 28.6107L72.564 25.2994C72.6967 25.2335 72.8534 25.2515 72.974 25.3353C73.0946 25.4251 73.1549 25.5688 73.1368 25.7125L71.8405 34.6107L78.3159 33.8802C78.4787 33.8563 78.6415 33.9461 78.7198 34.0958C78.7982 34.2455 78.7741 34.4191 78.6656 34.5449L65.0396 49.7664C64.9612 49.8563 64.8527 49.8982 64.7381 49.8982L64.7261 49.9042ZM39.8255 32.7365L64.6537 48.982L77.3572 34.7964L71.4125 35.467C71.2919 35.485 71.1653 35.4371 71.0809 35.3473C70.9964 35.2575 70.9542 35.1317 70.9723 35.0119L72.2385 26.3473L65.3953 29.6467C65.2627 29.7066 65.1059 29.6946 64.9914 29.6107C64.8708 29.5269 64.8105 29.3832 64.8226 29.2395L65.7872 20.3712L57.9854 24.7664C57.8588 24.8383 57.7021 24.8383 57.5815 24.7604C57.4549 24.6826 57.3825 24.5449 57.3886 24.4012L57.7202 16.8443L50.2198 21.4311C50.1113 21.497 49.9847 21.5089 49.8702 21.467C49.7556 21.4251 49.6652 21.3293 49.629 21.2095L47.8926 15.5089L39.8315 32.7305L39.8255 32.7365Z" fill="black"/>
<path d="M41.3929 51.2335C42.1164 53.7245 41.417 57.2695 40.38 59.3054C37.9743 63.3473 33.567 63.7964 29.5576 62.8982C26.8625 62.3234 24.9513 60.8683 23.6188 58.8922C22.0814 63.1317 21.798 68.1796 23.9504 72.6347C26.1993 77.2874 30.1002 79.2275 31.5291 79.8443L31.8788 79.018C31.7763 79.7006 31.6437 80.4611 31.3543 81.521C30.884 83.2275 30.7333 83.0898 30.5524 84.1856C30.3896 85.1856 29.9615 87.1976 31.0046 88.9222C31.5412 89.8084 32.1501 90.4491 32.8073 90.9042C34.5256 92.0958 36.3706 91.976 37.5222 91.8802C39.1139 91.7545 40.6935 91.5629 42.1526 91.3473L45.8846 53.8144L41.405 51.2275L41.3929 51.2335Z" fill="#37519B"/>
<path d="M56.689 81.2336C56.1162 71.8384 52.4746 57.3054 52.4746 57.3054C52.4746 57.3054 47.8442 58.6467 43.5092 55.9641C43.5092 55.9641 36.7565 66.1737 37.6368 75.9162C42.4842 80.4372 50.0207 81.3952 56.689 81.2276V81.2336Z" fill="black"/>
<path d="M55.3326 81.7485C47.2535 81.7485 41.1881 79.9102 37.2932 76.2815C37.2028 76.1977 37.1485 76.0839 37.1365 75.9641C36.2502 66.1617 42.81 56.1138 43.0933 55.6947C43.2441 55.4671 43.5455 55.4012 43.7746 55.545C47.8564 58.0659 52.2939 56.8444 52.3361 56.8264C52.4687 56.7905 52.6074 56.8084 52.728 56.8743C52.8486 56.9402 52.933 57.0539 52.9631 57.1857C52.9993 57.3294 56.6228 71.8683 57.1896 81.2036C57.1956 81.3414 57.1534 81.4731 57.0569 81.5689C56.9605 81.6647 56.8339 81.7246 56.7012 81.7306C56.237 81.7426 55.7848 81.7485 55.3326 81.7485ZM38.1192 75.6827C41.9598 79.1677 48.0131 80.8683 56.1526 80.7426C55.5617 72.4551 52.7219 60.4372 52.107 57.9042C50.7986 58.1677 47.2173 58.6228 43.6782 56.6408C42.4783 58.5989 37.4621 67.3533 38.1192 75.6827Z" fill="black"/>
<path d="M37.6305 75.9161C37.7632 77.5389 38.2033 79.9042 39.578 82.3652C40.2352 83.5389 41.2601 85.3293 43.3522 86.7784C44.7993 87.7844 46.0895 88.1676 47.4642 88.5569C50.7923 89.509 53.0894 89.7545 55.1574 88.9521C56.5984 88.3952 56.924 85.2934 56.6768 81.2275C50.0085 81.3892 42.472 80.4311 37.6245 75.9161H37.6305Z" fill="#7E8083"/>
<path d="M52.4264 89.9342C50.8768 89.9342 49.2007 89.5749 47.3257 89.036C45.9932 88.6527 44.6125 88.2575 43.069 87.1857C40.8443 85.6408 39.7771 83.7426 39.144 82.6048C38.0105 80.5749 37.3293 78.3414 37.1303 75.9581C37.1122 75.7545 37.2268 75.5569 37.4137 75.4671C37.6006 75.3773 37.8236 75.4132 37.9744 75.5509C41.8873 79.1977 48.1697 80.9402 56.6709 80.7306C56.9302 80.7186 57.1653 80.9282 57.1834 81.1977C57.4848 86.2036 56.9 88.8144 55.3445 89.4192C54.41 89.7785 53.4453 89.9342 52.4324 89.9342H52.4264ZM38.2819 77.1318C38.5713 78.9042 39.1501 80.5809 40.0183 82.1198C40.6091 83.1797 41.6039 84.9521 43.6418 86.3653C45.0526 87.3414 46.3489 87.7126 47.603 88.0719C51.0879 89.0719 53.1559 89.1857 54.9767 88.4851C55.5615 88.2635 56.478 87.0779 56.2067 81.7366C48.3566 81.8563 42.3335 80.3174 38.2819 77.1318Z" fill="black"/>
<path d="M60.1254 62.1198C61.5182 62.8144 62.9109 62.8323 64.3036 62.5748C64.2856 62.5629 64.2675 62.5449 64.2494 62.5329C67.4087 61.7844 70.1399 58.0479 67.8488 55.9401L58.7749 55.4491C58.7749 55.4491 55.1634 52.485 50.8465 56.6347C50.5691 56.9042 50.2978 57.2036 50.0386 57.5269C50.1592 58.2335 50.5089 58.9341 50.5089 58.9341C53.7164 61.3293 56.9239 60.1317 60.1254 62.1257V62.1198Z" fill="#D5D7D8"/>
<path d="M72.1598 84.5689C72.1296 84.3533 71.8824 82.6707 70.5982 81.9641C69.32 81.2635 67.9574 82.0479 67.6439 82.2515C67.457 81.5929 67.3304 80.9102 67.4088 80.4192L67.3786 80.3713C67.9092 79.3713 68.3192 78.2935 68.5543 77.1617C69.6818 71.7066 68.494 65.5809 64.3098 62.5749C62.917 62.8324 61.5243 62.8084 60.1315 62.1198C56.924 60.1258 53.7165 61.3234 50.515 58.9282C50.515 58.9282 50.1653 58.2276 50.0447 57.521C46.3006 62.2635 44.733 73.03 47.3255 83.0899C48.4952 87.6288 49.49 91.4851 52.8 93.6288C58.6725 97.4312 66.1969 92.2036 66.6853 91.8503C70.3088 89.8803 72.5215 86.9701 72.1658 84.5749L72.1598 84.5689Z" fill="#37519B"/>
<path d="M57.7984 56.3473C57.7984 56.3473 51.0879 61.6228 40.4163 55.1198C29.7506 48.6228 33.8927 37.8323 33.8927 37.8323C33.8927 37.8323 37.7513 24.7725 51.5823 29.6886C65.4193 34.6048 64.3642 49.6886 64.3642 49.6886C64.3642 49.6886 68.8921 51.5569 66.9025 55.2695C64.9129 58.982 60.0775 59.2575 57.7984 56.3413V56.3473Z" fill="#FAC3C1"/>
<path d="M50.7625 58.8862C47.9227 58.8862 44.3354 58.0958 40.1571 55.5449C29.2624 48.9102 33.3803 37.7665 33.4286 37.6587C33.4828 37.4611 35.165 31.9282 40.2536 29.3533C43.4973 27.7066 47.368 27.6647 51.7573 29.2216C64.6115 33.7904 64.9311 47.0659 64.8829 49.3773C65.5642 49.7246 67.1378 50.6647 67.7045 52.2515C68.0723 53.2814 67.9577 54.3773 67.3488 55.509C66.3238 57.4192 64.5392 58.6168 62.4471 58.7964C60.6383 58.9581 58.9019 58.2934 57.7141 57.012C56.8037 57.5988 54.386 58.8862 50.7685 58.8862H50.7625ZM45.7341 29.0838C43.9133 29.0838 42.2312 29.4671 40.7118 30.2395C36.0151 32.6168 34.3872 37.9282 34.3751 37.982C34.2003 38.4431 30.5044 48.503 40.6817 54.7006C50.9012 60.9222 57.2258 56.1617 57.4911 55.9581C57.5936 55.8743 57.7322 55.8383 57.8588 55.8563C57.9915 55.8743 58.1121 55.9401 58.1905 56.0419C59.1672 57.2874 60.7227 57.9461 62.3566 57.8024C64.1051 57.6527 65.6003 56.6467 66.4625 55.0359C66.9268 54.1617 67.0293 53.3413 66.7579 52.5868C66.1852 50.994 64.1955 50.1557 64.1774 50.1497C63.9785 50.0659 63.8579 49.8683 63.87 49.6527C63.882 49.503 64.7261 34.8862 51.4197 30.1557C49.3999 29.4371 47.5007 29.0779 45.7402 29.0779L45.7341 29.0838Z" fill="black"/>
<path d="M63.0077 55.0299C62.9414 55.0299 62.875 55.0179 62.8148 54.988C62.0008 54.6467 60.9638 54.2874 60.7106 54.2994C60.4393 54.3114 60.1921 54.1137 60.174 53.8443C60.1498 53.5748 60.3368 53.3353 60.6081 53.3114C61.1808 53.2515 62.6158 53.8263 63.2067 54.0718C63.4599 54.1796 63.5805 54.473 63.4719 54.7245C63.3936 54.9161 63.2066 55.0299 63.0077 55.0299Z" fill="black"/>
<path d="M41.2342 45.1946C41.5604 44.819 41.4692 44.2098 41.0305 43.8339C40.5917 43.4581 39.9716 43.4579 39.6454 43.8335C39.3192 44.2092 39.4103 44.8184 39.8491 45.1942C40.2878 45.5701 40.9079 45.5702 41.2342 45.1946Z" fill="black"/>
<path d="M49.1223 36.3892C48.9293 36.3892 48.7485 36.2755 48.664 36.0898C46.6201 31.4491 50.925 29.1677 50.9672 29.1437C51.2144 29.018 51.5159 29.1138 51.6425 29.3593C51.7691 29.6048 51.6726 29.9042 51.4314 30.03C51.2867 30.1078 47.9225 31.9162 49.5865 35.6886C49.695 35.9401 49.5865 36.2336 49.3273 36.3473C49.2609 36.3773 49.1946 36.3892 49.1283 36.3892H49.1223Z" fill="black"/>
<path d="M45.6493 33.509C45.6493 33.509 45.6071 33.509 45.583 33.509C45.3056 33.473 45.1127 33.2275 45.1489 32.9521C45.4926 30.2455 48.3504 28.7425 48.471 28.6766C48.7182 28.5509 49.0196 28.6467 49.1462 28.8922C49.2729 29.1377 49.1764 29.4371 48.9352 29.5629C48.9111 29.5748 46.4271 30.8922 46.1437 33.0778C46.1136 33.3293 45.8965 33.515 45.6493 33.515V33.509Z" fill="black"/>
<path d="M42.2851 32.8862C42.2851 32.8862 42.2428 32.8862 42.2187 32.8862C41.9414 32.8503 41.7485 32.6048 41.7846 32.3293C42.1343 29.5808 44.8414 28.5389 44.956 28.497C45.2152 28.4012 45.5046 28.5329 45.6011 28.7904C45.6976 29.0479 45.5649 29.3353 45.3117 29.4311C45.2755 29.4431 43.0508 30.3173 42.7794 32.4551C42.7493 32.7066 42.5323 32.8922 42.2851 32.8922V32.8862Z" fill="black"/>
<path d="M56.4778 39.3054C56.3451 39.3054 56.2065 39.2515 56.11 39.1437C52.7759 35.5629 54.4761 31.3952 54.5484 31.2156C54.657 30.9641 54.9464 30.8383 55.2056 30.9461C55.4589 31.0539 55.5794 31.3413 55.4769 31.5988C55.4167 31.7485 53.9636 35.3653 56.8516 38.4671C57.0385 38.6707 57.0264 38.982 56.8215 39.1736C56.725 39.2635 56.6044 39.3054 56.4838 39.3054H56.4778Z" fill="black"/>
<path d="M59.4987 40.6407C59.3479 40.6407 59.2032 40.5749 59.1068 40.4491C56.9604 37.7485 57.5211 33.7066 57.5512 33.5389C57.5934 33.2695 57.8406 33.0779 58.118 33.1198C58.3893 33.1617 58.5822 33.4132 58.54 33.6826C58.54 33.7186 58.0215 37.4731 59.8906 39.8323C60.0594 40.0479 60.0232 40.3593 59.8062 40.5329C59.7157 40.6048 59.6072 40.6407 59.4987 40.6407Z" fill="black"/>
<path d="M52.0465 37.1437C51.8476 37.1437 51.6546 37.024 51.5763 36.8264C50.4307 33.8743 52.4746 30.3593 52.565 30.2096C52.7037 29.9701 53.0112 29.8922 53.2524 30.03C53.4935 30.1677 53.5719 30.4731 53.4333 30.7126C53.4152 30.7425 51.5461 33.9641 52.5168 36.4671C52.6193 36.7246 52.4867 37.012 52.2274 37.1138C52.1671 37.1377 52.1068 37.1497 52.0465 37.1497V37.1437Z" fill="black"/>
<path d="M38.3723 34.5449C38.2276 34.5449 38.0889 34.467 38.0166 34.3293C37.9141 34.1317 37.9864 33.8922 38.1854 33.7904C38.2819 33.7365 40.6272 32.5389 42.8882 33.6706C43.0871 33.7724 43.1655 34.0119 43.063 34.2036C42.9605 34.3952 42.7254 34.479 42.5264 34.3772C40.6272 33.4251 38.5773 34.479 38.5532 34.491C38.4929 34.5209 38.4266 34.5389 38.3663 34.5389L38.3723 34.5449Z" fill="black"/>
<path d="M54.7838 44.1497C54.603 44.1497 54.4402 44.0299 54.398 43.8503C54.3919 43.8264 53.7287 41.2695 51.6004 40.1617C51.4015 40.0599 51.3291 39.8204 51.4316 39.6228C51.5341 39.4252 51.7753 39.3533 51.9742 39.4551C54.4281 40.7305 55.1456 43.5389 55.1757 43.6587C55.23 43.8743 55.0974 44.0898 54.8803 44.1437C54.8502 44.1497 54.814 44.1557 54.7838 44.1557V44.1497Z" fill="black"/>
<mask id="mask0_40_8060" style="mask-type:luminance" maskUnits="userSpaceOnUse" x="45" y="42" width="8" height="7">
<path d="M52.383 47.6517C53.242 46.2779 52.3721 44.1982 50.4401 43.0066C48.508 41.815 46.2454 41.9627 45.3864 43.3366C44.5274 44.7104 45.3973 46.7901 47.3293 47.9817C49.2614 49.1733 51.524 49.0256 52.383 47.6517Z" fill="white"/>
</mask>
<g mask="url(#mask0_40_8060)">
<path d="M52.383 47.6516C53.242 46.2778 52.3721 44.1981 50.4401 43.0065C48.508 41.8149 46.2454 41.9626 45.3864 43.3364C44.5274 44.7103 45.3973 46.79 47.3293 47.9816C49.2614 49.1732 51.524 49.0254 52.383 47.6516Z" fill="white"/>
<path d="M49.5967 45.9124C50.6422 44.4921 50.4743 42.6034 49.2217 41.6938C47.969 40.7843 46.106 41.1984 45.0605 42.6186C44.015 44.0389 44.1829 45.9276 45.4356 46.8372C46.6882 47.7467 48.5512 47.3327 49.5967 45.9124Z" fill="black"/>
</g>
<path d="M49.9723 49.3413C49.0378 49.3413 48.043 49.0299 47.0783 48.4371C44.8475 47.0658 43.9733 44.8802 44.9922 43.2395C46.0112 41.5988 48.3686 41.4012 50.5994 42.7664C52.8302 44.1377 53.7044 46.3233 52.6855 47.964C52.1971 48.7544 51.353 49.2395 50.322 49.3233C50.2075 49.3353 50.0929 49.3353 49.9784 49.3353L49.9723 49.3413ZM47.6752 42.6586C46.807 42.6586 46.0835 42.994 45.6675 43.6586C44.8958 44.9101 45.6615 46.6287 47.4943 47.7544C48.4228 48.3233 49.3996 48.5988 50.2497 48.5269C51.0214 48.461 51.6424 48.1137 51.9982 47.5389C52.7759 46.2874 52.0042 44.5688 50.1713 43.4431C49.3152 42.9161 48.4409 42.6526 47.6752 42.6526V42.6586Z" fill="black"/>
<mask id="mask1_40_8060" style="mask-type:luminance" maskUnits="userSpaceOnUse" x="35" y="35" width="8" height="8">
<path d="M42.1633 41.3654C43.1787 40.187 42.6649 38.0952 41.0155 36.6931C39.366 35.291 37.2057 35.1097 36.1903 36.288C35.1748 37.4664 35.6887 39.5582 37.3381 40.9603C38.9875 42.3624 41.1478 42.5437 42.1633 41.3654Z" fill="white"/>
</mask>
<g mask="url(#mask1_40_8060)">
<path d="M41.9906 41.5638C43.1045 40.5052 42.869 38.4655 41.4646 37.008C40.0603 35.5505 38.0189 35.2272 36.905 36.2858C35.7911 37.3444 36.0266 39.3842 37.431 40.8417C38.8353 42.2991 40.8767 42.6225 41.9906 41.5638Z" fill="white"/>
<path d="M40.3142 42.4251C39.446 42.4251 38.5296 42.0478 37.6794 41.3412C35.9732 39.9161 35.4667 37.8622 36.4736 36.461C36.8896 35.8802 37.4925 35.5269 38.21 35.4311C39.1747 35.3113 40.2418 35.6826 41.2065 36.4909C42.9128 37.9161 43.4192 39.97 42.4124 41.3712C41.9963 41.952 41.3934 42.3053 40.676 42.4011C40.5554 42.4131 40.4348 42.4251 40.3142 42.4251ZM38.5778 35.8083C38.4753 35.8083 38.3668 35.8143 38.2643 35.8263C37.6614 35.9041 37.1549 36.2035 36.7992 36.6885C35.9129 37.9161 36.3892 39.7484 37.9327 41.0359C38.8129 41.7664 39.7595 42.1137 40.6217 42.0059C41.2246 41.9281 41.7311 41.6287 42.0868 41.1436C42.9731 39.9161 42.4968 38.0838 40.9533 36.7963C40.1816 36.1496 39.3495 35.8083 38.5778 35.8083Z" fill="black"/>
<path d="M40.3598 39.196C41.3042 37.7903 41.1558 36.0451 40.0284 35.2981C38.9011 34.5511 37.2216 35.0851 36.2773 36.4909C35.3329 37.8966 35.4813 39.6418 36.6087 40.3888C37.736 41.1358 39.4155 40.6018 40.3598 39.196Z" fill="black"/>
</g>
<path d="M39.8858 42.515C38.9814 42.515 38.0228 42.1258 37.1486 41.3953C35.376 39.9043 34.8635 37.7426 35.9307 36.2516C36.3768 35.6288 37.04 35.2336 37.8057 35.1378C38.8247 35.012 39.928 35.4013 40.9228 36.2336C42.6954 37.7246 43.2079 39.8863 42.1407 41.3773C41.6946 42.0001 41.0314 42.3953 40.2656 42.4911C40.139 42.509 40.0124 42.515 39.8858 42.515ZM38.1916 35.9102C38.0951 35.9102 38.0047 35.9102 37.9082 35.9282C37.3596 35.9941 36.9014 36.2695 36.5818 36.7126C35.7618 37.8563 36.214 39.5689 37.661 40.7845C38.481 41.4731 39.3733 41.8025 40.1632 41.7007C40.7118 41.6348 41.17 41.3593 41.4896 40.9162C42.3095 39.7725 41.8574 38.0599 40.4104 36.8444C39.6868 36.2336 38.9091 35.9102 38.1916 35.9102Z" fill="#231F20"/>
<path d="M40.9285 50.9461C40.8501 50.9461 40.7777 50.9282 40.7054 50.8922C40.4582 50.7665 40.3617 50.4671 40.4823 50.2216C40.5185 50.1437 40.6029 49.9461 40.5486 49.7066C40.5004 49.509 40.3858 49.3833 40.3255 49.3234C40.1206 49.1378 40.1085 48.8204 40.2954 48.6168C40.4823 48.4132 40.8019 48.4012 41.0008 48.5869C41.2601 48.8264 41.447 49.1378 41.5254 49.4791C41.652 50.012 41.4832 50.4551 41.3746 50.6647C41.2842 50.8384 41.1093 50.9401 40.9285 50.9401V50.9461Z" fill="black"/>
<path d="M51.6484 60.7246C52.6252 61.3713 53.8913 61.9401 55.4468 62.0419C56.6587 62.1258 57.7319 61.9042 58.6242 61.5689C56.3994 60.479 53.8732 59.497 51.6484 60.7186V60.7246Z" fill="#37519B"/>
<path d="M59.6435 56.6108C59.1551 55.9221 57.8769 54.3293 55.9174 54.0299C53.566 53.6706 51.6789 55.3952 50.8408 56.1856C50.1716 56.8144 49.5687 57.6227 49.02 58.5688C49.1285 58.5569 49.2371 58.5509 49.3516 58.5389C49.5385 58.8024 50.3223 59.8383 51.6487 60.7245C53.8735 59.503 56.3998 60.485 58.6245 61.5748C60.2042 60.982 61.2352 60.0359 61.5185 59.7665C60.8915 58.7126 60.2705 57.6647 59.6435 56.6108Z" fill="#D5D7D8"/>
<path d="M68.3734 84.7725C68.1805 84.7725 67.9996 84.6647 67.9152 84.4791C67.7102 84.024 66.7094 81.6827 66.9083 80.3533C66.9505 80.0839 67.2038 79.8863 67.4751 79.9342C67.7464 79.9761 67.9393 80.2276 67.8971 80.4971C67.7645 81.3773 68.4518 83.2216 68.8256 84.0719C68.9402 84.3234 68.8256 84.6168 68.5724 84.7306C68.5061 84.7605 68.4398 84.7725 68.3674 84.7725H68.3734Z" fill="black"/>
<path d="M29.4067 63.8503C33.4161 64.7725 37.8235 64.3114 40.2291 60.1497C41.2661 58.0539 41.9655 54.4012 41.242 51.8384L40.9345 51.6587L40.6753 51.8264C40.0844 50.5869 39.2343 49.497 38.2455 48.8623C34.4893 46.4551 29.2017 50.7905 26.8383 53.6348C25.4696 55.2815 24.2879 57.3833 23.4619 59.7246C24.7944 61.7545 26.7056 63.2575 29.4007 63.8503H29.4067Z" fill="#37519B"/>
<mask id="mask2_40_8060" style="mask-type:luminance" maskUnits="userSpaceOnUse" x="21" y="48" width="25" height="45">
<path d="M40.9888 51.5329C41.5495 53.4491 41.2601 55.994 40.621 57.994C41.1516 56.0838 41.3505 53.7964 40.838 52.0359L40.5306 51.8623L40.2713 52.0239C39.6804 50.8204 38.8303 49.7665 37.8415 49.1497C34.0853 46.8084 28.7977 51.024 26.4343 53.7844C25.1621 55.2695 24.0528 57.1497 23.2388 59.2335C23.2268 59.2216 23.2207 59.2096 23.2087 59.1916C21.6712 63.4311 21.3879 68.479 23.5403 72.9341C25.7892 77.5868 29.6901 79.5269 31.119 80.1437L31.4687 79.3174C31.3662 80 31.2335 80.7605 30.9441 81.8204C30.4739 83.5269 30.3231 83.3892 30.1423 84.485C29.9795 85.485 29.5514 87.497 30.5944 89.2216C31.131 90.1078 31.74 90.7485 32.3972 91.2036C34.1155 92.3952 35.9604 92.2754 37.112 92.1796C38.7037 92.0539 40.2834 91.8623 41.7424 91.6467L45.4745 54.1138L40.9948 51.5269L40.9888 51.5329Z" fill="white"/>
</mask>
<g mask="url(#mask2_40_8060)">
<path d="M34.6942 53.467L34.0129 50.0658L31.2335 51.8682L28.0742 50.7245L29.274 54.3113L27.6943 57.3472L31.3179 56.6646L33.6813 59.8502L34.4591 56.3173L37.7028 55.1377L34.6942 53.467Z" fill="#FFF200"/>
<path d="M33.6815 60.3473C33.5247 60.3473 33.374 60.2754 33.2775 60.1437L31.101 57.2096L27.7849 57.8383C27.598 57.8742 27.4051 57.7964 27.2906 57.6467C27.176 57.491 27.1579 57.2874 27.2483 57.1197L28.7255 54.2694L27.592 50.8802C27.5317 50.7006 27.58 50.497 27.7186 50.3652C27.8573 50.2335 28.0563 50.1856 28.2371 50.2515L31.1613 51.3054L33.7358 49.6407C33.8744 49.5509 34.0493 49.5329 34.206 49.5988C34.3568 49.6646 34.4713 49.7964 34.5015 49.9581L35.1345 53.1317L37.9441 54.6946C38.113 54.7904 38.2154 54.976 38.1974 55.1676C38.1793 55.3593 38.0527 55.5269 37.8718 55.5988L34.8873 56.6826L34.1699 59.9461C34.1277 60.1377 33.9769 60.2874 33.784 60.3293C33.7478 60.3353 33.7116 60.3413 33.6815 60.3413V60.3473ZM31.3181 56.1676C31.4748 56.1676 31.6255 56.2395 31.722 56.3712L33.4283 58.6706L33.9709 56.2096C34.0071 56.0419 34.1277 55.9042 34.2904 55.8503L36.5092 55.0419L34.4532 53.8982C34.3266 53.8263 34.2362 53.7006 34.206 53.5628L33.6694 50.8862L31.505 52.2874C31.3723 52.3712 31.2095 52.3892 31.0588 52.3353L28.8702 51.5449L29.7444 54.1557C29.7866 54.2814 29.7746 54.4251 29.7143 54.5449L28.6109 56.6706L31.2216 56.1796C31.2517 56.1796 31.2819 56.1736 31.3181 56.1736V56.1676Z" fill="black"/>
<path d="M29.6898 68.503L29.0146 65.1078L26.2291 66.9042L23.0698 65.7665L24.2696 69.3533L22.6899 72.3892L26.3135 71.7006L28.6769 74.8862L29.4547 71.3593L32.6984 70.1796L29.6898 68.503Z" fill="#FFF200"/>
<path d="M28.6771 75.3891C28.5203 75.3891 28.3696 75.3173 28.2731 75.1856L26.0966 72.2514L22.7805 72.8802C22.5876 72.9161 22.4007 72.8383 22.2862 72.6886C22.1716 72.5329 22.1535 72.3293 22.244 72.1616L23.7211 69.3113L22.5876 65.9221C22.5273 65.7424 22.5756 65.5389 22.7142 65.4071C22.8529 65.2754 23.0519 65.2275 23.2327 65.2933L26.1569 66.3472L28.7314 64.6826C28.87 64.5927 29.0449 64.5748 29.2016 64.6406C29.3584 64.7065 29.4669 64.8383 29.4971 64.9999L30.1301 68.1736L32.9397 69.7365C33.1086 69.8323 33.2111 70.0179 33.193 70.2095C33.1749 70.4011 33.0483 70.5688 32.8674 70.6406L29.8829 71.7245L29.1655 74.988C29.1233 75.1796 28.9725 75.3293 28.7796 75.3712C28.7434 75.3772 28.7072 75.3832 28.6771 75.3832V75.3891ZM26.3137 71.2095C26.4704 71.2095 26.6211 71.2814 26.7176 71.4131L28.4239 73.7125L28.9665 71.2514C29.0027 71.0838 29.1233 70.946 29.286 70.8921L31.5048 70.0838L29.4488 68.94C29.3222 68.8682 29.2318 68.7424 29.2016 68.6047L28.665 65.9281L26.5006 67.3293C26.3679 67.4131 26.2051 67.4311 26.0544 67.3772L23.8658 66.5868L24.74 69.1975C24.7822 69.3233 24.7702 69.467 24.7099 69.5868L23.6065 71.7125L26.2172 71.2215C26.2473 71.2215 26.2775 71.2155 26.3137 71.2155V71.2095Z" fill="black"/>
</g>
<mask id="mask3_40_8060" style="mask-type:luminance" maskUnits="userSpaceOnUse" x="46" y="54" width="27" height="42">
<path d="M72.16 84.5688C72.1299 84.3532 71.8827 82.6706 70.5984 81.964C69.3203 81.2634 67.9577 82.0478 67.6441 82.2514C67.4572 81.5928 67.3306 80.9101 67.409 80.4191L67.3789 80.3712C67.9094 79.3712 68.3194 78.2934 68.5546 77.1616C69.688 71.6766 68.4822 65.5209 64.2497 62.5269C67.409 61.7784 70.1402 58.0419 67.8491 55.9341L58.7752 55.443C58.7752 55.443 57.6598 54.5329 55.9354 54.4311C55.9354 54.4311 55.9294 54.4311 55.9234 54.4311C53.572 54.0658 51.6849 55.8263 50.8468 56.6347C50.69 56.7904 50.5333 56.952 50.3765 57.1257C50.3584 57.1496 50.3343 57.1736 50.3162 57.1975C46.3731 61.7484 44.6609 72.7904 47.3197 83.0957C48.4894 87.6347 49.4842 91.491 52.7942 93.6347C58.6667 97.4371 66.1911 92.2095 66.6795 91.8562C70.303 89.8862 72.5157 86.976 72.16 84.5808V84.5688Z" fill="white"/>
</mask>
<g mask="url(#mask3_40_8060)">
<path d="M50.3402 73.2874L49.665 69.8862L46.8795 71.6886L43.7202 70.5509L44.92 74.1377L43.3403 77.1677L46.9639 76.485L49.3273 79.6707L50.1051 76.1377L53.3488 74.9581L50.3402 73.2874Z" fill="#FFF200"/>
<path d="M49.3275 80.1676C49.1707 80.1676 49.02 80.0957 48.9235 79.964L46.747 77.0299L43.4309 77.6586C43.244 77.6945 43.0511 77.6167 42.9365 77.467C42.822 77.3113 42.8039 77.1077 42.8943 76.94L44.3715 74.0897L43.238 70.7005C43.1777 70.5209 43.2259 70.3173 43.3646 70.1856C43.5033 70.0538 43.7023 70.0059 43.8831 70.0718L46.8073 71.1257L49.3818 69.461C49.5204 69.3712 49.6953 69.3532 49.852 69.4191C50.0088 69.485 50.1173 69.6167 50.1475 69.7784L50.7805 72.952L53.5901 74.5149C53.7589 74.6107 53.8614 74.7963 53.8434 74.988C53.8253 75.1796 53.6987 75.3472 53.5178 75.4191L50.5333 76.5029L49.8159 79.7664C49.7737 79.958 49.6229 80.1077 49.43 80.1496C49.3938 80.1556 49.3576 80.1616 49.3275 80.1616V80.1676ZM46.964 75.9879C47.1208 75.9879 47.2715 76.0598 47.368 76.1915L49.0743 78.4909L49.6169 76.0299C49.6531 75.8622 49.7737 75.7245 49.9364 75.6706L52.1552 74.8622L50.0992 73.7185C49.9726 73.6466 49.8822 73.5209 49.852 73.3832L49.3154 70.7065L47.151 72.1077C47.0183 72.1915 46.8555 72.2095 46.7048 72.1556L44.5162 71.3652L45.3904 73.976C45.4326 74.1017 45.4206 74.2454 45.3603 74.3652L44.2569 76.4909L46.8676 75.9999C46.8977 75.9999 46.9279 75.9939 46.964 75.9939V75.9879Z" fill="black"/>
<path d="M63.0497 66.2574L62.3744 62.8562L59.5889 64.6586L56.4296 63.5149L57.6295 67.1017L56.0498 70.1376L59.6733 69.455L62.0368 72.6346L62.8146 69.1077L66.0583 67.9281L63.0497 66.2574Z" fill="#FFF200"/>
<path d="M62.037 73.1377C61.8802 73.1377 61.7295 73.0658 61.633 72.9341L59.4565 70L56.1404 70.6287C55.9475 70.6646 55.7606 70.5868 55.646 70.4371C55.5315 70.2874 55.5134 70.0778 55.6038 69.9101L57.081 67.0598L55.9475 63.6706C55.8872 63.491 55.9354 63.2874 56.0741 63.1556C56.2128 63.0239 56.4117 62.982 56.5926 63.0419L59.5168 64.0958L62.0912 62.4311C62.2299 62.3413 62.4047 62.3233 62.5615 62.3892C62.7122 62.4551 62.8268 62.5868 62.8569 62.7485L63.49 65.9221L66.2996 67.485C66.4684 67.5808 66.5709 67.7664 66.5528 67.958C66.5347 68.1497 66.4081 68.3173 66.2273 68.3892L63.2428 69.473L62.5253 72.7365C62.4831 72.9281 62.3324 73.0778 62.1395 73.1197C62.1033 73.1257 62.0671 73.1317 62.037 73.1317V73.1377ZM59.6735 68.958C59.8303 68.958 59.981 69.0299 60.0775 69.1616L61.7837 71.461L62.3264 69.006C62.3625 68.8383 62.4831 68.7006 62.6459 68.6467L64.8647 67.8383L62.8087 66.6946C62.6821 66.6227 62.5917 66.497 62.5615 66.3592L62.0249 63.6826L59.8604 65.0838C59.7278 65.1676 59.565 65.1856 59.4143 65.1317L57.2257 64.3413L58.0999 66.9521C58.1421 67.0778 58.13 67.2215 58.0698 67.3413L56.9664 69.467L59.5771 68.976C59.6072 68.97 59.6373 68.97 59.6735 68.97V68.958Z" fill="black"/>
<path d="M62.4168 90.4491C62.2601 90.4491 62.1094 90.3772 62.0129 90.2455L59.8364 87.3114L56.5203 87.9401C56.3334 87.976 56.1405 87.8982 56.0259 87.7485C55.9113 87.5928 55.8933 87.3892 55.9837 87.2215L57.4609 84.3712L56.3274 80.982C56.2671 80.8024 56.3153 80.5988 56.454 80.4671C56.5926 80.3353 56.7916 80.2874 56.9725 80.3533L59.8966 81.4072L62.4711 79.7425C62.6098 79.6527 62.7846 79.6347 62.9414 79.7006C63.0921 79.7665 63.2067 79.8982 63.2368 80.0599L63.8699 83.2335L66.6795 84.7964C66.8483 84.8922 66.9508 85.0778 66.9327 85.2694C66.9146 85.4611 66.788 85.6287 66.6071 85.7006L63.6227 86.7844L62.9052 90.0479C62.863 90.2395 62.7123 90.3892 62.5193 90.4311C62.4832 90.4371 62.447 90.4431 62.4168 90.4431V90.4491ZM60.0534 86.2694C60.2102 86.2694 60.3609 86.3413 60.4574 86.473L62.1636 88.7724L62.7062 86.3173C62.7424 86.1497 62.863 86.012 63.0258 85.9581L65.2445 85.1497L63.1886 84.006C63.062 83.9341 62.9715 83.8084 62.9414 83.6706L62.4048 80.994L60.2403 82.3952C60.1077 82.479 59.9449 82.497 59.7941 82.4431L57.6055 81.6527L58.4798 84.2635C58.522 84.3892 58.5099 84.5329 58.4496 84.6527L57.3463 86.7784L59.9569 86.2874C59.9871 86.2874 60.0172 86.2814 60.0534 86.2814V86.2694Z" fill="black"/>
</g>
<path d="M62.9837 63.006C60.7649 63.006 58.2146 62.03 56.3154 61.2995C55.3025 60.9102 54.3438 60.545 53.8977 60.515C52.6134 60.4372 51.4257 61.2995 51.4136 61.3054C51.1905 61.4731 50.877 61.4252 50.7142 61.2036C50.5515 60.9821 50.5937 60.6707 50.8167 60.509C50.877 60.4611 52.306 59.4132 53.97 59.521C54.5729 59.5629 55.5075 59.9162 56.6831 60.3713C58.6667 61.1318 61.3859 62.1737 63.4961 61.9941C65.2325 61.8444 67.0232 60.4192 67.5658 58.7486C67.801 58.018 67.8854 56.9701 66.9087 56.1378C66.6976 55.9581 66.6735 55.6408 66.8544 55.4372C67.0353 55.2276 67.3488 55.2036 67.5598 55.3833C68.627 56.2995 68.9767 57.6408 68.5124 59.0599C67.8432 61.1198 65.7209 62.8084 63.5745 62.9941C63.3816 63.012 63.1886 63.018 62.9897 63.018L62.9837 63.006Z" fill="black"/>
<path d="M57.6114 95.1018C55.9112 95.1018 54.1567 94.7065 52.5167 93.6467C49.0439 91.3952 48.019 87.4191 46.8312 82.8143C44.1603 72.461 45.8002 60.3772 50.4909 55.8682C51.2747 55.1197 53.3488 53.1257 55.9956 53.5329C57.5029 53.7664 58.9439 54.7784 60.0593 56.3772L62.067 59.6227C62.2117 59.8563 62.1393 60.1616 61.9042 60.3113C61.6691 60.4551 61.3616 60.3832 61.2169 60.1497L59.2212 56.9221C58.6846 56.1497 57.5029 54.7724 55.8449 54.5149C53.6924 54.1856 51.9379 55.8622 51.1903 56.5808C47.3015 60.3173 44.9019 71.3113 47.8019 82.5569C48.9354 86.958 49.9182 90.7604 53.0654 92.8024C58.7027 96.4551 66.0764 91.2574 66.3839 91.0359C66.402 91.0239 66.4201 91.0119 66.4382 91C69.8869 89.1257 71.985 86.4072 71.6655 84.2335C71.6112 83.8443 71.3459 82.5389 70.3571 81.994C69.2417 81.3832 68.0057 82.2036 67.8671 82.2994C67.638 82.4551 67.3305 82.4012 67.1677 82.1736C67.0109 81.9461 67.0652 81.6347 67.2943 81.479C67.4812 81.3473 69.1935 80.2155 70.8395 81.1197C72.2322 81.8862 72.5819 83.5808 72.6542 84.0838C73.0401 86.7066 70.8033 89.7545 66.9446 91.8563C66.5045 92.1676 62.2539 95.0838 57.6114 95.0838V95.1018Z" fill="black"/>
<path d="M59.2693 86.7126C58.781 86.7126 58.3047 86.6527 57.8464 86.5329C53.7466 85.4551 51.7931 81.3174 49.9 77.3174L49.5081 76.491C47.3978 72.0719 50.3582 66.4072 50.4848 66.1677C50.6114 65.9222 50.9189 65.8323 51.1601 65.9581C51.4073 66.0838 51.4977 66.3892 51.3711 66.6288C51.3409 66.6826 48.5193 72.0898 50.4124 76.0539L50.8043 76.8862C52.6855 80.8563 54.458 84.6048 58.0997 85.5629C59.5286 85.9341 61.2107 85.5868 62.8446 84.5809C65.4251 82.988 67.4208 80.1078 68.0539 77.0599C69.0728 72.1258 68.1745 65.8204 63.8576 62.8563C63.6284 62.7006 63.5742 62.3892 63.7309 62.1617C63.8877 61.9341 64.2012 61.8803 64.4303 62.0359C68.5603 64.8683 70.3691 70.8443 69.0427 77.2575C68.3553 80.5629 66.1908 83.6946 63.3812 85.4252C62.0186 86.2695 60.6018 86.7006 59.2754 86.7006L59.2693 86.7126Z" fill="black"/>
<path d="M36.232 92.9401C35.1286 92.9401 33.7118 92.7485 32.3673 91.8144C31.6196 91.2994 30.9685 90.5808 30.4198 89.6766C29.3406 87.8982 29.6843 85.8742 29.8712 84.7904L29.9013 84.5988C30.0038 83.9641 30.1063 83.7006 30.245 83.3353C30.3595 83.0359 30.5042 82.6587 30.7153 81.8802C31.065 80.6048 31.1795 79.7724 31.2941 78.97C31.4146 78.1317 31.5232 77.3353 31.8849 76.1617C32.1623 75.2515 32.524 74.3593 32.9521 73.497C33.0727 73.2515 33.3741 73.1497 33.6213 73.2694C33.8685 73.3892 33.971 73.6886 33.8504 73.9341C33.4465 74.7485 33.1089 75.5928 32.8436 76.4491C32.5059 77.5449 32.4034 78.2635 32.2889 79.1018C32.1743 79.8982 32.0477 80.7964 31.686 82.1377C31.4629 82.9581 31.3001 83.3772 31.1855 83.6826C31.0589 84.018 30.9805 84.2156 30.8961 84.7545L30.866 84.9521C30.6911 85.976 30.4017 87.6946 31.282 89.1617C31.7583 89.9521 32.3009 90.5509 32.94 90.994C34.5438 92.1078 36.2862 91.97 37.3293 91.8862C38.7642 91.7724 40.3077 91.5928 41.9235 91.3593C42.1949 91.3174 42.4541 91.509 42.4903 91.7784C42.5325 92.0539 42.3396 92.3054 42.0682 92.3413C40.4343 92.5808 38.8607 92.7605 37.4077 92.8802C37.0881 92.9042 36.6842 92.9401 36.232 92.9401Z" fill="black"/>
<path d="M31.3786 80.8383C31.3123 80.8383 31.2459 80.8264 31.1796 80.7964C29.184 79.9341 25.5122 77.8144 23.3537 73.3473C19.9955 66.4012 22.377 57.9281 26.4648 53.1557C28.8282 50.3952 34.3872 45.8503 38.5172 48.4192C41.0916 50.024 42.6954 54.1437 41.8091 56.8922C41.5137 57.8084 41.0132 58.3892 40.4827 59C39.8918 59.6886 39.2768 60.3952 38.8066 61.7365C38.4448 62.7784 38.276 63.9162 38.3061 65.1138C38.3122 65.3892 38.0951 65.6168 37.8178 65.6228C37.5404 65.6108 37.3113 65.4132 37.3053 65.1377C37.2751 63.8204 37.462 62.5629 37.86 61.4072C38.3905 59.8802 39.096 59.0659 39.723 58.3413C40.2053 57.7844 40.6213 57.3054 40.8565 56.5808C41.6041 54.2515 40.1812 50.6228 37.9866 49.2575C34.6946 47.2036 29.7507 50.8443 27.2305 53.7904C23.3537 58.3234 21.0868 66.3413 24.2581 72.9042C26.2779 77.0779 29.7145 79.0599 31.5836 79.8683C31.8368 79.9761 31.9514 80.2695 31.8428 80.527C31.7584 80.7126 31.5776 80.8264 31.3846 80.8264L31.3786 80.8383Z" fill="black"/>
</g>
</g>
<defs>
<clipPath id="clip0_40_8060">
<rect width="80" height="80" fill="white" transform="translate(0.755859)"/>
</clipPath>
<clipPath id="clip1_40_8060">
<rect width="57" height="86" fill="white" transform="translate(21.7559 14)"/>
</clipPath>
</defs>
</svg>
