<svg width="241" height="32" viewBox="0 0 241 32" fill="none" xmlns="http://www.w3.org/2000/svg">
<path d="M8.244 10.418C6.066 10.418 4.68 11.066 4.68 12.254C4.68 13.46 6.066 14.108 8.244 14.108C10.404 14.108 11.79 13.46 11.79 12.254C11.79 11.066 10.404 10.418 8.244 10.418ZM8.244 15.998C4.698 15.998 2.25 14.54 2.25 12.254C2.25 10.004 4.698 8.528 8.244 8.528C11.772 8.528 14.238 10.004 14.238 12.254C14.238 14.54 11.772 15.998 8.244 15.998ZM15.786 17.24V19.148H9.414V24.566H7.038V19.148H0.774V17.24H15.786ZM18.8446 15.782V18.77C21.3646 18.752 23.4526 18.626 25.7926 18.23L26.0446 20.156C23.3446 20.624 20.9146 20.732 17.9086 20.732H16.4146V13.91H21.7966V11.264H16.3966V9.374H24.2266V15.782H18.8446ZM26.9446 7.952H29.3206V24.584H26.9446V7.952ZM37.402 18.806C38.626 18.806 39.472 17.492 39.472 15.026C39.472 12.578 38.626 11.264 37.402 11.264C36.16 11.264 35.332 12.578 35.332 15.026C35.332 17.492 36.16 18.806 37.402 18.806ZM37.402 9.122C39.904 9.122 41.758 11.39 41.758 15.026C41.758 18.68 39.904 20.966 37.402 20.966C34.882 20.966 33.046 18.68 33.046 15.026C33.046 11.39 34.882 9.122 37.402 9.122ZM48.346 14.216V16.178H45.934V24.548H43.558V7.97H45.934V14.216H48.346ZM59.0726 7.952H61.4486V24.584H59.0726V7.952ZM52.5386 9.122C55.0406 9.122 56.8946 11.39 56.8946 15.026C56.8946 18.68 55.0406 20.966 52.5386 20.966C50.0366 20.966 48.1826 18.68 48.1826 15.026C48.1826 11.39 50.0366 9.122 52.5386 9.122ZM52.5386 11.264C51.3146 11.264 50.4686 12.578 50.4686 15.026C50.4686 17.492 51.3146 18.806 52.5386 18.806C53.7626 18.806 54.6086 17.492 54.6086 15.026C54.6086 12.578 53.7626 11.264 52.5386 11.264ZM67.6041 12.92C67.6041 14.198 68.4861 14.972 69.7101 14.972C70.9341 14.972 71.8341 14.198 71.8341 12.92C71.8341 11.624 70.9341 10.868 69.7101 10.868C68.4861 10.868 67.6041 11.624 67.6041 12.92ZM76.6221 12.02H73.9941C74.0481 12.308 74.0841 12.596 74.0841 12.92C74.0841 13.226 74.0481 13.514 73.9761 13.82H76.6221V12.02ZM76.6221 15.71H72.9321C72.1401 16.502 71.0061 16.97 69.7101 16.97C67.2621 16.97 65.3541 15.26 65.3541 12.92C65.3541 10.562 67.2621 8.852 69.7101 8.852C71.0421 8.852 72.1761 9.338 72.9681 10.13H76.6221V7.97H78.9981V17.69H76.6221V15.71ZM73.3821 22.73C75.5601 22.73 76.7301 22.262 76.7301 21.29C76.7301 20.318 75.5601 19.85 73.3821 19.85C71.2041 19.85 70.0521 20.318 70.0521 21.29C70.0521 22.262 71.2041 22.73 73.3821 22.73ZM73.3821 18.014C76.8921 18.014 79.0701 19.22 79.0701 21.29C79.0701 23.342 76.8921 24.548 73.3821 24.548C69.8901 24.548 67.7121 23.342 67.7121 21.29C67.7121 19.22 69.8901 18.014 73.3821 18.014ZM84.4327 18.806C85.6567 18.806 86.4667 17.492 86.4667 15.026C86.4667 12.578 85.6567 11.264 84.4327 11.264C83.2267 11.264 82.4167 12.578 82.4167 15.026C82.4167 17.492 83.2267 18.806 84.4327 18.806ZM91.4347 7.952H93.8107V24.584H91.4347V15.854H88.6807C88.4287 19.022 86.7367 20.966 84.4327 20.966C81.9667 20.966 80.1487 18.68 80.1487 15.026C80.1487 11.39 81.9667 9.122 84.4327 9.122C86.6647 9.122 88.3387 10.94 88.6627 13.928H91.4347V7.952ZM111.09 7.97V20.102H108.696V7.97H111.09ZM107.652 16.25L106.554 18.104C104.664 17.582 103.368 16.484 102.594 15.098C101.856 16.61 100.524 17.816 98.5981 18.374L97.4821 16.52C100.182 15.728 101.37 13.784 101.37 11.84V11.75H98.0221V9.878H101.37V8.06H103.746V9.878H107.076V11.75H103.746V11.84C103.746 13.658 104.952 15.512 107.652 16.25ZM102.432 22.37H111.504V24.26H100.056V19.04H102.432V22.37ZM127.073 15.98V17.888H120.701V24.548H118.289V17.888H112.097V15.98H122.537C122.951 13.874 122.987 12.254 122.987 10.832H113.807V8.924H125.309V10.418C125.309 11.966 125.309 13.658 124.895 15.98H127.073Z" fill="white"/>
<path d="M142.04 4.216C143.552 4.216 144.512 5.104 144.512 6.64V6.856H147.872C149.048 6.856 149.672 7.72 149.672 8.728C149.672 9.736 149.024 10.6 147.872 10.6H147.824C148.088 11.224 148.256 11.92 148.256 12.736V20.2C148.256 24.424 145.568 26.368 142.04 26.368C138.536 26.368 135.848 24.424 135.848 20.2V12.736C135.848 11.92 135.992 11.224 136.256 10.6C135.104 10.6 134.456 9.736 134.456 8.728C134.456 7.72 135.056 6.856 136.232 6.856H139.568V6.64C139.568 5.104 140.528 4.216 142.04 4.216ZM151.136 26.824V6.616C151.136 5.08 152.264 4.288 153.512 4.288C154.736 4.288 155.888 5.104 155.888 6.616V12.688H156.68C158.144 12.688 158.576 13.816 158.576 14.776C158.576 15.76 158.12 16.864 156.68 16.864H155.888V26.824H151.136ZM142.04 22.48C142.976 22.48 143.792 21.784 143.792 20.248V12.544C143.792 10.984 143 10.408 142.04 10.408C141.104 10.408 140.312 10.984 140.312 12.544V20.248C140.312 21.784 141.128 22.48 142.04 22.48ZM158.192 19.864V11.176C158.192 6.952 161 4.672 165.008 4.672C169.016 4.672 171.848 6.928 171.848 11.176V19.864C171.848 24.112 169.016 26.368 165.032 26.368C161.024 26.368 158.192 24.112 158.192 19.864ZM162.944 11.08V19.96C162.944 21.592 163.832 22.408 165.008 22.408C166.184 22.408 167.096 21.592 167.096 19.96V11.08C167.096 9.472 166.184 8.608 165.008 8.632C163.832 8.656 162.944 9.496 162.944 11.08ZM179.384 26.824H174.584V6.664C174.584 5.104 175.712 4.288 176.984 4.288C178.256 4.288 179.384 5.104 179.384 6.664V26.824ZM185.504 5.056H199.352C200.72 5.056 201.2 6.16 201.2 7.072C201.2 7.984 200.696 9.064 199.352 9.064H187.208C186.704 9.064 186.536 9.208 186.536 9.712V13.192C186.536 13.696 186.704 13.864 187.208 13.864H199.736C201.08 13.864 201.608 14.968 201.608 15.856C201.608 16.768 201.056 17.848 199.736 17.848H194.048V22.456H200.816C202.28 22.456 202.832 23.44 202.832 24.4C202.832 25.384 202.256 26.344 200.816 26.344H182.384C180.944 26.344 180.368 25.384 180.368 24.4C180.368 23.44 180.92 22.456 182.384 22.456H189.152V17.848H185.504C182.624 17.848 181.64 16.84 181.64 14.056V8.848C181.64 6.088 182.624 5.056 185.504 5.056ZM208.304 5.056H222.152C223.52 5.056 224 6.16 224 7.072C224 7.984 223.496 9.064 222.152 9.064H210.008C209.504 9.064 209.336 9.208 209.336 9.712V13.192C209.336 13.696 209.504 13.864 210.008 13.864H222.536C223.88 13.864 224.408 14.968 224.408 15.856C224.408 16.768 223.856 17.848 222.536 17.848H216.848V22.456H223.616C225.08 22.456 225.632 23.44 225.632 24.4C225.632 25.384 225.056 26.344 223.616 26.344H205.184C203.744 26.344 203.168 25.384 203.168 24.4C203.168 23.44 203.72 22.456 205.184 22.456H211.952V17.848H208.304C205.424 17.848 204.44 16.84 204.44 14.056V8.848C204.44 6.088 205.424 5.056 208.304 5.056Z" fill="white"/>
</svg>
